<svg height="15.8" width="19.3" xmlns="http://www.w3.org/2000/svg"><g fill-rule="evenodd"><path d="M4.25 7.65l-.6 1.05L.7 7.95v-.3h3.55m11.95-3.7l.3.3v2.7H9.45V6.3q0-.7-.5-1.2-.4-.4-1.1-.4-.65 0-1.1.4-.5.5-.5 1.2v.65H.65v-2.7l.3-.3H16.2M9.7.75l3.35 1.3q.6.25.6.7v.5H5.7v-.5q0-.45.6-.7L9.7.75m1.55 6.9h1l1.8 7.35h-2.3l-.5-7.35M5.2 15l1.7-7.35h1L7.5 15H5.2m-.05-7.35h.95L3.5 15H.85l4.3-7.35m13.2-5.1l.3.3v4.1H17.2v-2.7l-.3-.7-.7-.3h-1.85v-.7h4m-5.25 5.1h.9L18.45 15h-2.7L13.1 7.65m1.95 0h3.55v.3l-2.95.75-.6-1.05m-4.6 0L10.6 15H8.7l.05-7.35h1.7M18.6 9.4v4.5l-1.1-1.95 1.1-2.55m-2.4.25l2.4-1.35v.65l-1.65 1.95-.75-1.25m-13.1 0l-.75 1.25L.7 8.95V8.3l2.4 1.35M.7 9.4l1.1 2.55L.7 13.9V9.4" fill="#ffffcb"/><path d="M4.25 7.65H.7v.3l2.95.75.6-1.05m11.95-3.7H.95l-.3.3v2.7h5.6V6.3q0-.7.5-1.2.45-.4 1.1-.4.7 0 1.1.4.5.5.5 1.2v.65h7.05v-2.7l-.3-.3m3.1 11.85H0V4.25l.3-.7q.25-.3.65-.3H5v-.5Q5 1.8 6.1 1.4L9.7 0l3.55 1.4.75.45h4.35q.4 0 .65.3l.3.7V15.8M9.7.75l-3.4 1.3q-.6.25-.6.7v.5h7.95v-.5q0-.45-.6-.7L9.7.75m-4.55 6.9L.85 15H3.5l2.6-7.35h-.95M5.2 15h2.3l.4-7.35h-1L5.2 15m6.05-7.35l.5 7.35h2.3l-1.8-7.35h-1m7.1-5.1h-4v.7h1.85l.7.3.3.7v2.7h1.45v-4.1l-.3-.3m-5.25 5.1L15.75 15h2.7L14 7.65h-.9m1.95 0l.6 1.05 2.95-.75v-.3h-3.55m-4.6 0h-1.7L8.7 15h1.9l-.15-7.35m5.75 2l.75 1.25 1.65-1.95V8.3l-2.4 1.35m2.4-.25l-1.1 2.55 1.1 1.95V9.4M.7 9.4v4.5l1.1-1.95L.7 9.4m2.4.25L.7 8.3v.65l1.65 1.95.75-1.25" fill="#f5cb5b" fill-opacity=".298"/></g></svg>