<?xml version="1.0" encoding="UTF-8" standalone="no"?>
<svg xmlns:xlink="http://www.w3.org/1999/xlink" height="15.8px" width="19.3px" xmlns="http://www.w3.org/2000/svg">
  <g transform="matrix(1.0, 0.0, 0.0, 1.0, 9.65, 7.9)">
    <path d="M-5.4 -0.25 L-6.0 0.8 -8.95 0.05 -8.95 -0.25 -5.4 -0.25 M6.55 -3.95 L6.85 -3.65 6.85 -0.95 -0.2 -0.95 -0.2 -1.6 Q-0.2 -2.3 -0.7 -2.8 -1.1 -3.2 -1.8 -3.2 -2.45 -3.2 -2.9 -2.8 -3.4 -2.3 -3.4 -1.6 L-3.4 -0.95 -9.0 -0.95 -9.0 -3.65 -8.7 -3.95 6.55 -3.95 M0.05 -7.15 L3.4 -5.85 Q4.0 -5.6 4.0 -5.15 L4.0 -4.65 -3.95 -4.65 -3.95 -5.15 Q-3.95 -5.6 -3.35 -5.85 L0.05 -7.15 M1.6 -0.25 L2.6 -0.25 4.4 7.1 2.1 7.1 1.6 -0.25 M-4.45 7.1 L-2.75 -0.25 -1.75 -0.25 -2.15 7.1 -4.45 7.1 M-4.5 -0.25 L-3.55 -0.25 -6.15 7.1 -8.8 7.1 -4.5 -0.25 M8.7 -5.35 L9.0 -5.05 9.0 -0.95 7.55 -0.95 7.55 -3.65 7.25 -4.35 6.55 -4.65 4.7 -4.65 4.7 -5.15 4.7 -5.35 8.7 -5.35 M3.45 -0.25 L4.35 -0.25 8.8 7.1 6.1 7.1 3.45 -0.25 M5.4 -0.25 L8.95 -0.25 8.95 0.05 6.0 0.8 5.4 -0.25 M0.8 -0.25 L0.95 7.1 -0.95 7.1 -0.9 -0.25 0.8 -0.25 M8.95 1.5 L8.95 6.0 7.85 4.05 8.95 1.5 M6.55 1.75 L8.95 0.4 8.95 1.05 7.3 3.0 6.55 1.75 M-6.55 1.75 L-7.3 3.0 -8.95 1.05 -8.95 0.4 -6.55 1.75 M-8.95 1.5 L-7.85 4.05 -8.95 6.0 -8.95 1.5" fill="#ffffcb" fill-rule="evenodd" stroke="none"/>
    <path d="M-5.4 -0.25 L-8.95 -0.25 -8.95 0.05 -6.0 0.8 -5.4 -0.25 M6.55 -3.95 L-8.7 -3.95 -9.0 -3.65 -9.0 -0.95 -3.4 -0.95 -3.4 -1.6 Q-3.4 -2.3 -2.9 -2.8 -2.45 -3.2 -1.8 -3.2 -1.1 -3.2 -0.7 -2.8 -0.2 -2.3 -0.2 -1.6 L-0.2 -0.95 6.85 -0.95 6.85 -3.65 6.55 -3.95 M9.65 7.9 L-9.65 7.9 -9.65 -3.65 -9.35 -4.35 Q-9.1 -4.65 -8.7 -4.65 L-4.65 -4.65 -4.65 -5.15 Q-4.65 -6.1 -3.55 -6.5 L0.05 -7.9 3.6 -6.5 4.35 -6.05 8.7 -6.05 Q9.1 -6.05 9.35 -5.75 L9.65 -5.05 9.65 7.9 M0.05 -7.15 L-3.35 -5.85 Q-3.95 -5.6 -3.95 -5.15 L-3.95 -4.65 4.0 -4.65 4.0 -5.15 Q4.0 -5.6 3.4 -5.85 L0.05 -7.15 M-4.5 -0.25 L-8.8 7.1 -6.15 7.1 -3.55 -0.25 -4.5 -0.25 M-4.45 7.1 L-2.15 7.1 -1.75 -0.25 -2.75 -0.25 -4.45 7.1 M1.6 -0.25 L2.1 7.1 4.4 7.1 2.6 -0.25 1.6 -0.25 M8.7 -5.35 L4.7 -5.35 4.7 -5.15 4.7 -4.65 6.55 -4.65 7.25 -4.35 7.55 -3.65 7.55 -0.95 9.0 -0.95 9.0 -5.05 8.7 -5.35 M3.45 -0.25 L6.1 7.1 8.8 7.1 4.35 -0.25 3.45 -0.25 M5.4 -0.25 L6.0 0.8 8.95 0.05 8.95 -0.25 5.4 -0.25 M0.8 -0.25 L-0.9 -0.25 -0.95 7.1 0.95 7.1 0.8 -0.25 M6.55 1.75 L7.3 3.0 8.95 1.05 8.95 0.4 6.55 1.75 M8.95 1.5 L7.85 4.05 8.95 6.0 8.95 1.5 M-8.95 1.5 L-8.95 6.0 -7.85 4.05 -8.95 1.5 M-6.55 1.75 L-8.95 0.4 -8.95 1.05 -7.3 3.0 -6.55 1.75" fill="#f5cb5b" fill-opacity="0.29803923" fill-rule="evenodd" stroke="none"/>
  </g>
</svg>
