<svg height="20" width="19.8" xmlns="http://www.w3.org/2000/svg"><g fill-rule="evenodd"><path d="M17.2 2.05q.3-.4.85-.35l.75.3h.05l.3.75-.3.8-.05.05-.75.3q-.55 0-.85-.4l-.1-.1H2.2v1.55H.65V.65H2.2V2.2h14.9l.1-.15m-.1 6.75q-1.15 1.1-1.2 2.65-.05 1.25.85 2.85.5 1 0 1.85l-.75.8.05-.05q-1.65 1.35-4.75 2.25h.05l-1.05.2-1.1-.2h.05q-3.1-.9-4.75-2.25l.05.05-.75-.8q-.5-.85.05-1.85.85-1.6.85-2.85-.1-1.5-1.2-2.65l-.1-.15q.85-.4 1.3-1.3.55.05 1.1-.25t1.05-.95l-.05.05.8-.95V5.2l.3-.05h4.75l.3.05.8.95q.5.7 1.15 1l.95.15q.5 1 1.35 1.35l-.1.15m-3.75 2.7l-.55.7-1.1-1-.65-.7-.1-.75.45-.5.35-.1q.9 0 1.4 1.05.35.7.2 1.3m.45-1.6q-.75-1.4-2.05-1.4l-.65.15-.15.05.4-1.05.1-.35H8.4l.1.35q.7 1.2.3 2.85l-.65.7-1.5 1.7q-.35.95.1 1.85.5 1.1 2 2.2l1.2.15 1.15-.15q1.5-1.1 2-2.2.5-.85.1-1.85l-.05-.1q.7-.35.85-1.2.2-.85-.2-1.7" fill="#ffffcb"/><path d="M13.8 9.9q.4.85.2 1.7-.15.85-.85 1.2l.05.1q.4 1-.1 1.85-.5 1.1-2 2.2l-1.15.15-1.2-.15q-1.5-1.1-2-2.2-.45-.9-.1-1.85l1.5-1.7.65-.7q.4-1.65-.3-2.85l-.1-.35h3.05l-.1.35-.4 1.05.15-.05.65-.15q1.3 0 2.05 1.4m-.45 1.6q.15-.6-.2-1.3-.5-1.05-1.4-1.05l-.35.1-.45.5.1.75.65.7 1.1 1 .55-.7" fill="#f5cb5b" fill-opacity=".298"/><path d="M17.1 8.8l.1-.15q-.85-.35-1.35-1.35l-.95-.15q-.65-.3-1.15-1l-.8-.95-.3-.05H7.9l-.3.05v.05l-.8.95.05-.05q-.5.65-1.05.95-.55.3-1.1.25-.45.9-1.3 1.3l.1.15q1.1 1.15 1.2 2.65 0 1.25-.85 2.85-.55 1-.05 1.85l.75.8-.05-.05q1.65 1.35 4.75 2.25H9.2l1.1.2 1.05-.2h-.05q3.1-.9 4.75-2.25l-.05.05.75-.8q.5-.85 0-1.85-.9-1.6-.85-2.85.05-1.55 1.2-2.65m.95-7.75q.65-.05 1.25.45v.05q.5.55.5 1.2 0 .75-.5 1.3-.6.5-1.25.5-.75-.05-1.25-.5H15V6.5l.15.05.85.1.25-.05.1.25q.5 1.1 1.55 1.35l.55.15-.9.9q-1 .95-1 2.2 0 1.15.75 2.55t0 2.55h-.05v.05l-.75.8h-.05q-1.75 1.45-4.95 2.4h-.05l-1.1.2h-.1l-1.15-.2h-.05q-3.2-.95-4.95-2.4l-.8-.8v-.05q-.8-1.15 0-2.55.7-1.4.75-2.55-.05-1.25-1-2.2l-.85-.9.55-.15q1-.3 1.45-1.35l.1-.25.3.05.9-.1V6.5l.15-.05v-2.4h-2.8V5.6H0V0h2.85v1.55H16.8q.5-.5 1.25-.5m-.85 1l-.1.15H2.2V.65H.65v4.3H2.2V3.4h14.9l.1.1q.3.4.85.4l.75-.3.05-.05.3-.8-.3-.75h-.05l-.75-.3q-.55-.05-.85.35" fill="#f5cb5b" fill-opacity=".298"/></g></svg>