<?xml version="1.0" encoding="UTF-8" standalone="no"?>
<svg xmlns:xlink="http://www.w3.org/1999/xlink" height="20.0px" width="19.8px" xmlns="http://www.w3.org/2000/svg">
  <g transform="matrix(1.0, 0.0, 0.0, 1.0, 9.9, 9.9)">
    <path d="M7.3 -7.85 Q7.6 -8.25 8.15 -8.2 L8.9 -7.9 8.95 -7.9 9.25 -7.15 8.95 -6.35 8.9 -6.3 8.15 -6.0 Q7.6 -6.0 7.3 -6.4 L7.2 -6.5 -7.7 -6.5 -7.7 -4.95 -9.25 -4.95 -9.25 -9.25 -7.7 -9.25 -7.7 -7.7 7.2 -7.7 7.3 -7.85 M7.2 -1.1 Q6.05 0.0 6.0 1.55 5.95 2.8 6.85 4.4 7.35 5.4 6.85 6.25 L6.1 7.05 6.15 7.0 Q4.5 8.35 1.4 9.25 L1.45 9.25 0.4 9.45 -0.7 9.25 -0.65 9.25 Q-3.75 8.35 -5.4 7.0 L-5.35 7.05 -6.1 6.25 Q-6.6 5.4 -6.05 4.4 -5.2 2.8 -5.2 1.55 -5.3 0.05 -6.4 -1.1 L-6.5 -1.25 Q-5.65 -1.65 -5.2 -2.55 -4.65 -2.5 -4.1 -2.8 -3.55 -3.1 -3.05 -3.75 L-3.1 -3.7 -2.3 -4.65 -2.3 -4.7 -2.0 -4.75 2.75 -4.75 3.05 -4.7 3.85 -3.75 Q4.35 -3.05 5.0 -2.75 L5.95 -2.6 Q6.45 -1.6 7.3 -1.25 L7.2 -1.1 M3.45 1.6 L2.9 2.3 1.8 1.3 1.15 0.6 1.05 -0.15 1.5 -0.65 1.85 -0.75 Q2.75 -0.75 3.25 0.3 3.6 1.0 3.45 1.6 M3.9 0.0 Q3.15 -1.4 1.85 -1.4 L1.2 -1.25 1.05 -1.2 1.45 -2.25 1.55 -2.6 -1.5 -2.6 -1.4 -2.25 Q-0.7 -1.05 -1.1 0.6 L-1.75 1.3 -3.25 3.0 Q-3.6 3.95 -3.15 4.85 -2.65 5.95 -1.15 7.05 L0.05 7.2 1.2 7.05 Q2.7 5.95 3.2 4.85 3.7 4.0 3.3 3.0 L3.25 2.9 Q3.95 2.55 4.1 1.7 4.3 0.85 3.9 0.0" fill="#ffffcb" fill-rule="evenodd" stroke="none"/>
    <path d="M3.9 0.0 Q4.3 0.85 4.1 1.7 3.95 2.55 3.25 2.9 L3.3 3.0 Q3.7 4.0 3.2 4.85 2.7 5.95 1.2 7.05 L0.05 7.2 -1.15 7.05 Q-2.65 5.95 -3.15 4.85 -3.6 3.95 -3.25 3.0 L-1.75 1.3 -1.1 0.6 Q-0.7 -1.05 -1.4 -2.25 L-1.5 -2.6 1.55 -2.6 1.45 -2.25 1.05 -1.2 1.2 -1.25 1.85 -1.4 Q3.15 -1.4 3.9 0.0 M3.45 1.6 Q3.6 1.0 3.25 0.3 2.75 -0.75 1.85 -0.75 L1.5 -0.65 1.05 -0.15 1.15 0.6 1.8 1.3 2.9 2.3 3.45 1.6" fill="#f5cb5b" fill-opacity="0.29803923" fill-rule="evenodd" stroke="none"/>
    <path d="M7.2 -1.1 L7.3 -1.25 Q6.45 -1.6 5.95 -2.6 L5.0 -2.75 Q4.35 -3.05 3.85 -3.75 L3.05 -4.7 2.75 -4.75 -2.0 -4.75 -2.3 -4.7 -2.3 -4.65 -3.1 -3.7 -3.05 -3.75 Q-3.55 -3.1 -4.1 -2.8 -4.65 -2.5 -5.2 -2.55 -5.65 -1.65 -6.5 -1.25 L-6.4 -1.1 Q-5.3 0.05 -5.2 1.55 -5.2 2.8 -6.05 4.4 -6.6 5.4 -6.1 6.25 L-5.35 7.05 -5.4 7.0 Q-3.75 8.35 -0.65 9.25 L-0.7 9.25 0.4 9.45 1.45 9.25 1.4 9.25 Q4.5 8.35 6.15 7.0 L6.1 7.05 6.85 6.25 Q7.35 5.4 6.85 4.4 5.95 2.8 6.0 1.55 6.05 0.0 7.2 -1.1 M8.15 -8.85 Q8.8 -8.9 9.4 -8.4 L9.4 -8.35 Q9.9 -7.8 9.9 -7.15 9.9 -6.4 9.4 -5.85 8.8 -5.35 8.15 -5.35 7.4 -5.4 6.9 -5.85 L5.1 -5.85 5.1 -3.4 5.25 -3.35 6.1 -3.25 6.35 -3.3 6.45 -3.05 Q6.95 -1.95 8.0 -1.7 L8.55 -1.55 7.65 -0.65 Q6.65 0.3 6.65 1.55 6.65 2.7 7.4 4.1 8.15 5.5 7.4 6.65 L7.35 6.65 7.35 6.7 6.6 7.5 6.55 7.5 Q4.8 8.95 1.6 9.9 L1.55 9.9 0.45 10.1 0.35 10.1 -0.8 9.9 -0.85 9.9 Q-4.05 8.95 -5.8 7.5 L-6.6 6.7 -6.6 6.65 Q-7.4 5.5 -6.6 4.1 -5.9 2.7 -5.85 1.55 -5.9 0.3 -6.85 -0.65 L-7.7 -1.55 -7.15 -1.7 Q-6.15 -2.0 -5.7 -3.05 L-5.6 -3.3 -5.3 -3.25 -4.4 -3.35 -4.4 -3.4 -4.25 -3.45 -4.25 -5.85 -7.05 -5.85 -7.05 -4.3 -9.9 -4.3 -9.9 -9.9 -7.05 -9.9 -7.05 -8.35 6.9 -8.35 Q7.4 -8.85 8.15 -8.85 M7.3 -7.85 L7.2 -7.7 -7.7 -7.7 -7.7 -9.25 -9.25 -9.25 -9.25 -4.95 -7.7 -4.95 -7.7 -6.5 7.2 -6.5 7.3 -6.4 Q7.6 -6.0 8.15 -6.0 L8.9 -6.3 8.95 -6.35 9.25 -7.15 8.95 -7.9 8.9 -7.9 8.15 -8.2 Q7.6 -8.25 7.3 -7.85" fill="#f5cb5b" fill-opacity="0.29803923" fill-rule="evenodd" stroke="none"/>
  </g>
</svg>
