<svg height="15.7" width="19.95" xmlns="http://www.w3.org/2000/svg"><g fill-rule="evenodd"><path d="M13.2 11.4l.1.95-.3 2-2.45-3.75L8 7.6l1.6 4-8.3-5 .8-.9-.3-.05 2.95-1.2-.15 1.5 1.25.1.7.8-.35-1.6h-.75l.25-.9-.45-.65 3.1-.55-1.6-.35 1.75-.9q.1-.2-.05-.2l-.3-.1L7 1.5l.55-.15 1.05.1.35.1h.4L12.1.8l1.3-.1.95.15.65.2.35.2-.1.5 1-.3 1.25-.1 1.35.15.4.45.1.95-.7-.55-1.4-.25-1.25.15-1.05.85-.5 1.1-.05 1.1.35.6.45.35.65-.4-.05.9.45-.05v.35l.75-.7-.25 1.3.4-.35.4.2.2.25.55-.55-.15.7-.45.95-.5.15-1.05-.3-1.6-.15v.05l1.05.3-2.2.75-2.95-2.7-.65-.3-2.35-.6 2 1.15 1.2 1.2 1.3 2 .8 2.35.4-1.35h.05m-.5-6.9l-1.45.8-.85.1-1.25-.75-.2-.2v.05q0 .6.35.95l.6.5.8.1q.5 0 1-.35l1-1.2m6.45-1v.4l-.25.7-.05.05h-.05l-.25-.5q-.1-.25.05-.3l.1-.05.25-.05.1-.15-.1.05h-.15l-.8-.4h-.25l-.4.5-.1.1v-.1l-.15-.65L17 3l-.7.05-.15.2-.1.4H16V3.6l-.15-.25-.2-.05-.6.35H15V3.6l.15-.3.4-.4.65-.3 2 .1.65.3.3.5m-4.8-1v-.05q-1.65.15-2.8-.65l.15.35q.25.55.65.85v.25l.05.15h.15l.8-.25.9-.55.1-.1m.05-.2l-.05-.3.1-.65-.1-.05h-.2l-1.2.3-.15.1.15.05.65.15.55.25.25.15" fill="#ffffcb"/><path d="M13.2 11.4h-.05l-.4 1.35-.8-2.35-1.3-2-1.2-1.2-2-1.15 2.35.6.65.3 2.95 2.7 2.2-.75-1.05-.3v-.05l1.6.15 1.05.3.5-.15.45-.95.15-.7-.55.55-.2-.25-.4-.2-.4.35.25-1.3-.75.7V6.7l-.45.05.05-.9-.65.4-.45-.35-.35-.6.05-1.1.5-1.1L16 2.25l1.25-.15 1.4.25.7.55-.1-.95-.4-.45-1.35-.15-1.25.1-1 .3.1-.5-.35-.2-.65-.2L13.4.7l-1.3.1-2.75.75h-.4l-.35-.1-1.05-.1L7 1.5l1.15.1.3.1q.15 0 .05.2l-1.75.9 1.6.35-3.1.55.45.65-.25.9h.75l.35 1.6-.7-.8-1.25-.1.15-1.5-2.95 1.2.3.05-.8.9 8.3 5-1.6-4 2.55 3L13 14.35l.3-2-.1-.95m-2.95-.2l-.15 1.35L0 6.95l1-.8L.65 6l.9-1q.65-.5 2.95-1.2l-.45-.4L6 3.05l-.3-.4.75-.35-.1-.65.25-.55L7.75.7 9.2 1 12 .2l1.8-.2 1.55.4.75.6 1.4-.05.55-.25L19.1.5l.5.55q.35.7.35 1.75l-.55 2.7-.65-.3-1.05.65q-.35.6-.05.9.05.05.8-.4l.45 1.05-.15.65-.3.6-.65.85h-1.45l-1.1 1.65-.3-.2-1.75 4.75-2.95-4.5m4.15-8.9l-.25-.15-.55-.25-.65-.15-.15-.05.15-.1 1.2-.3h.2l.1.05-.1.65.05.3m-.05.2l-.1.1-.9.55-.8.25h-.15l-.05-.15V3q-.4-.3-.65-.85l-.15-.35q1.15.8 2.8.65v.05m4.8 1l-.3-.5-.65-.3-2-.1-.65.3-.4.4-.15.3v.05h.05l.6-.35.2.05.15.25v.05h.05l.1-.4.15-.2L17 3l.1.1.15.65v.1l.1-.1.4-.5H18l.8.4h.15l.1-.05-.1.15-.25.05-.1.05q-.15.05-.05.3l.25.5h.05l.05-.05.25-.7v-.4m-6.45 1l-1 1.2q-.5.35-1 .35l-.8-.1-.6-.5q-.35-.35-.35-.95v-.05l.2.2 1.25.75.85-.1 1.45-.8" fill="#f5cb5b" fill-opacity=".298"/></g></svg>