<?xml version="1.0" encoding="UTF-8" standalone="no"?>
<svg xmlns:xlink="http://www.w3.org/1999/xlink" height="15.7px" width="19.95px" xmlns="http://www.w3.org/2000/svg">
  <g transform="matrix(1.0, 0.0, 0.0, 1.0, 10.0, 7.85)">
    <path d="M3.2 3.55 L3.3 4.5 3.0 6.5 0.55 2.75 -2.0 -0.25 -0.4 3.75 -8.7 -1.25 -7.9 -2.15 -8.2 -2.2 -5.25 -3.4 -5.4 -1.9 -4.15 -1.8 -3.45 -1.0 -3.8 -2.6 -4.55 -2.6 -4.3 -3.5 -4.75 -4.15 -1.65 -4.7 -3.25 -5.05 -1.5 -5.95 Q-1.4 -6.15 -1.55 -6.15 L-1.85 -6.25 -3.0 -6.35 -2.45 -6.5 -1.4 -6.4 -1.05 -6.3 -0.65 -6.3 2.1 -7.05 3.4 -7.15 4.35 -7.0 5.0 -6.8 5.35 -6.6 5.25 -6.1 6.25 -6.4 7.5 -6.5 8.85 -6.35 9.25 -5.9 9.35 -4.95 8.65 -5.5 7.25 -5.75 6.0 -5.6 4.95 -4.75 4.45 -3.65 4.4 -2.55 4.75 -1.95 5.2 -1.6 5.85 -2.0 5.8 -1.1 6.25 -1.15 6.25 -0.8 7.0 -1.5 6.75 -0.2 7.15 -0.55 7.55 -0.35 7.75 -0.1 8.3 -0.65 8.15 0.05 7.7 1.0 7.2 1.15 6.15 0.85 4.55 0.7 4.55 0.75 5.6 1.05 3.4 1.8 0.45 -0.9 -0.2 -1.2 -2.55 -1.8 -0.55 -0.65 0.65 0.55 1.95 2.55 2.75 4.9 3.15 3.55 3.2 3.55 M2.7 -3.35 L1.25 -2.55 0.4 -2.45 -0.85 -3.2 -1.05 -3.4 -1.05 -3.35 Q-1.05 -2.75 -0.7 -2.4 L-0.1 -1.9 0.7 -1.8 Q1.2 -1.8 1.7 -2.15 L2.7 -3.35 M9.15 -4.35 L9.15 -3.95 8.9 -3.25 8.85 -3.2 8.8 -3.2 8.55 -3.7 Q8.45 -3.95 8.6 -4.0 L8.7 -4.05 8.95 -4.1 9.05 -4.25 8.95 -4.2 8.8 -4.2 8.0 -4.6 7.75 -4.6 7.35 -4.1 7.25 -4.0 7.25 -4.1 7.1 -4.75 7.0 -4.85 6.3 -4.8 6.15 -4.6 6.05 -4.2 6.0 -4.2 6.0 -4.25 5.85 -4.5 5.65 -4.55 5.05 -4.2 5.0 -4.2 5.0 -4.25 5.15 -4.55 5.55 -4.95 6.2 -5.25 8.2 -5.15 8.85 -4.85 9.15 -4.35 M4.35 -5.35 L4.35 -5.4 Q2.7 -5.25 1.55 -6.05 L1.7 -5.7 Q1.95 -5.15 2.35 -4.85 L2.35 -4.6 2.4 -4.45 2.55 -4.45 3.35 -4.7 4.25 -5.25 4.35 -5.35 M4.4 -5.55 L4.35 -5.85 4.45 -6.5 4.35 -6.55 4.15 -6.55 2.95 -6.25 2.8 -6.15 2.95 -6.1 3.6 -5.95 4.15 -5.7 4.4 -5.55" fill="#ffffcb" fill-rule="evenodd" stroke="none"/>
    <path d="M3.2 3.55 L3.15 3.55 2.75 4.9 1.95 2.55 0.65 0.55 -0.55 -0.65 -2.55 -1.8 -0.2 -1.2 0.45 -0.9 3.4 1.8 5.6 1.05 4.55 0.75 4.55 0.7 6.15 0.85 7.2 1.15 7.7 1.0 8.15 0.05 8.3 -0.65 7.75 -0.1 7.55 -0.35 7.15 -0.55 6.75 -0.2 7.0 -1.5 6.25 -0.8 6.25 -1.15 5.8 -1.1 5.85 -2.0 5.2 -1.6 4.75 -1.95 4.4 -2.55 4.45 -3.65 4.95 -4.75 6.0 -5.6 7.25 -5.75 8.65 -5.5 9.35 -4.95 9.25 -5.9 8.85 -6.35 7.5 -6.5 6.25 -6.4 5.25 -6.1 5.35 -6.6 5.0 -6.8 4.35 -7.0 3.4 -7.15 2.1 -7.05 -0.65 -6.3 -1.05 -6.3 -1.4 -6.4 -2.45 -6.5 -3.0 -6.35 -1.85 -6.25 -1.55 -6.15 Q-1.4 -6.15 -1.5 -5.95 L-3.25 -5.05 -1.65 -4.7 -4.75 -4.15 -4.3 -3.5 -4.55 -2.6 -3.8 -2.6 -3.45 -1.0 -4.15 -1.8 -5.4 -1.9 -5.25 -3.4 -8.2 -2.2 -7.9 -2.15 -8.7 -1.25 -0.4 3.75 -2.0 -0.25 0.55 2.75 3.0 6.5 3.3 4.5 3.2 3.55 M0.25 3.35 L0.1 4.7 -10.0 -0.9 -9.0 -1.7 -9.35 -1.85 -8.45 -2.85 Q-7.8 -3.35 -5.5 -4.05 L-5.95 -4.45 -4.0 -4.8 -4.3 -5.2 -3.55 -5.55 -3.65 -6.2 -3.4 -6.75 -2.25 -7.15 -0.8 -6.85 2.0 -7.65 3.8 -7.85 5.35 -7.45 6.1 -6.85 7.5 -6.9 8.05 -7.15 9.1 -7.35 9.6 -6.8 Q9.95 -6.1 9.95 -5.05 L9.4 -2.35 8.75 -2.65 7.7 -2.0 Q7.35 -1.4 7.65 -1.1 7.7 -1.05 8.45 -1.5 L8.9 -0.45 8.75 0.2 8.45 0.8 7.8 1.65 6.35 1.65 5.25 3.3 4.95 3.1 3.2 7.85 0.25 3.35 M4.4 -5.55 L4.15 -5.7 3.6 -5.95 2.95 -6.1 2.8 -6.15 2.95 -6.25 4.15 -6.55 4.35 -6.55 4.45 -6.5 4.35 -5.85 4.4 -5.55 M4.35 -5.35 L4.25 -5.25 3.35 -4.7 2.55 -4.45 2.4 -4.45 2.35 -4.6 2.35 -4.85 Q1.95 -5.15 1.7 -5.7 L1.55 -6.05 Q2.7 -5.25 4.35 -5.4 L4.35 -5.35 M9.15 -4.35 L8.85 -4.85 8.2 -5.15 6.2 -5.25 5.55 -4.95 5.15 -4.55 5.0 -4.25 5.0 -4.2 5.05 -4.2 5.65 -4.55 5.85 -4.5 6.0 -4.25 6.0 -4.2 6.05 -4.2 6.15 -4.6 6.3 -4.8 7.0 -4.85 7.1 -4.75 7.25 -4.1 7.25 -4.0 7.35 -4.1 7.75 -4.6 8.0 -4.6 8.8 -4.2 8.95 -4.2 9.05 -4.25 8.95 -4.1 8.7 -4.05 8.6 -4.0 Q8.45 -3.95 8.55 -3.7 L8.8 -3.2 8.85 -3.2 8.9 -3.25 9.15 -3.95 9.15 -4.35 M2.7 -3.35 L1.7 -2.15 Q1.2 -1.8 0.7 -1.8 L-0.1 -1.9 -0.7 -2.4 Q-1.05 -2.75 -1.05 -3.35 L-1.05 -3.4 -0.85 -3.2 0.4 -2.45 1.25 -2.55 2.7 -3.35" fill="#f5cb5b" fill-opacity="0.29803923" fill-rule="evenodd" stroke="none"/>
  </g>
</svg>
