<?xml version="1.0" encoding="UTF-8" standalone="no"?>
<svg
   xmlns:dc="http://purl.org/dc/elements/1.1/"
   xmlns:cc="http://creativecommons.org/ns#"
   xmlns:rdf="http://www.w3.org/1999/02/22-rdf-syntax-ns#"
   xmlns:svg="http://www.w3.org/2000/svg"
   xmlns="http://www.w3.org/2000/svg"
   xmlns:sodipodi="http://sodipodi.sourceforge.net/DTD/sodipodi-0.dtd"
   xmlns:inkscape="http://www.inkscape.org/namespaces/inkscape"
   height="20.4"
   width="20.4"
   version="1.1"
   id="svg3829"
   sodipodi:docname="base2.svg"
   inkscape:version="0.92.3 (2405546, 2018-03-11)">
  <metadata
     id="metadata3835">
    <rdf:RDF>
      <cc:Work
         rdf:about="">
        <dc:format>image/svg+xml</dc:format>
        <dc:type
           rdf:resource="http://purl.org/dc/dcmitype/StillImage" />
        <dc:title></dc:title>
      </cc:Work>
    </rdf:RDF>
  </metadata>
  <defs
     id="defs3833" />
  <sodipodi:namedview
     pagecolor="#ffffff"
     bordercolor="#666666"
     borderopacity="1"
     objecttolerance="10"
     gridtolerance="10"
     guidetolerance="10"
     inkscape:pageopacity="0"
     inkscape:pageshadow="2"
     inkscape:window-width="1580"
     inkscape:window-height="1028"
     id="namedview3831"
     showgrid="false"
     inkscape:zoom="32.72102"
     inkscape:cx="10.2"
     inkscape:cy="10.2"
     inkscape:window-x="0"
     inkscape:window-y="0"
     inkscape:window-maximized="0"
     inkscape:current-layer="svg3829" />
  <path
     d="M11.1 2.4L10.55.7V.65q2.95.15 5.3 1.85 2.35 1.75 3.3 4.45h-1.8q-.85-1.85-2.5-3.1-1.7-1.2-3.75-1.45m8.3 5.2q.35 1.25.35 2.6 0 2.25-1 4.25-.95 1.95-2.65 3.3l-.6-1.8q1.2-1.05 1.85-2.55.7-1.5.7-3.2l-.15-1.5 1.5-1.1m-.25-.25l-5.55 4 2.15 6.55-5.55-4.05-5.55 4.05 2.15-6.55-5.55-4h6.8L10.2.8l2.15 6.55h6.8M14 17.05l1.5 1.1q-2.4 1.6-5.3 1.6t-5.3-1.6l1.5-1.1q1.8 1 3.8 1 2 0 3.8-1M5.55 3.85Q3.9 5.1 3.05 6.95h-1.8q.95-2.7 3.3-4.45Q6.9.8 9.85.65V.7L9.3 2.4q-2.05.25-3.75 1.45M2.5 8.7l-.15 1.5q0 1.7.7 3.2.65 1.5 1.85 2.55l-.6 1.8q-1.7-1.35-2.65-3.3-1-2-1-4.25 0-1.35.35-2.6l1.5 1.1"
     fill="none"
     stroke="#f5cb5b"
     stroke-linecap="square"
     stroke-linejoin="round"
     stroke-opacity=".298"
     id="path3827" />
  <path
     style="fill:#ffffcb;fill-opacity:1;stroke-width:0.03056139"
     d="M 2.0258495,6.3721852 C 2.0370817,6.3343655 2.1263041,6.1496545 2.2241215,5.9617166 3.2618515,3.9679112 5.0431566,2.4297138 7.185558,1.6774039 7.7513048,1.4787405 8.4269564,1.3140365 9.0124953,1.2320505 L 9.1544111,1.2121797 9.0421566,1.563374 C 8.9804165,1.7565309 8.9231982,1.921272 8.915005,1.9294654 8.9068115,1.9376588 8.7559376,1.9733578 8.5797297,2.0087967 7.729954,2.1797029 6.8339938,2.505297 6.1353344,2.897096 6.0092686,2.967792 5.8320226,3.0654554 5.7414545,3.1141258 5.1769318,3.4174944 4.0845921,4.4271872 3.5579556,5.13242 3.2891777,5.4923477 2.9689606,5.9930433 2.8217229,6.283603 L 2.7419899,6.4409483 H 2.3737086 c -0.3675982,0 -0.3682435,-1.222e-4 -0.3478591,-0.068763 z"
     id="path3837"
     inkscape:connector-curvature="0" />
  <path
     style="fill:#ffffcb;fill-opacity:1;stroke-width:0.03056139"
     d="M 17.578277,6.283603 C 17.152783,5.4439317 16.32472,4.4229966 15.517682,3.7430578 14.563437,2.9390942 13.199308,2.2931573 11.886892,2.0238201 11.673474,1.980022 11.490329,1.9348258 11.479904,1.9233842 11.445286,1.8853909 11.246282,1.2149499 11.269623,1.2149499 c 0.0816,0 0.831606,0.1396577 1.084955,0.2020276 2.371559,0.5838336 4.447259,2.1339338 5.639079,4.2111756 0.171647,0.2991645 0.396796,0.7505533 0.396796,0.7955115 0,0.00951 -0.164799,0.017284 -0.366221,0.017284 H 17.65801 Z"
     id="path3839"
     inkscape:connector-curvature="0" />
  <path
     style="fill:#ffffcb;fill-opacity:1;stroke-width:0.03056139"
     d="m 16.317725,16.799191 c -0.01531,-0.04088 -0.0734,-0.213887 -0.129078,-0.384453 l -0.101241,-0.310119 0.268071,-0.285828 c 1.15566,-1.232215 1.937452,-2.943572 2.141478,-4.687738 0.06075,-0.519358 0.05736,-0.976551 -0.01225,-1.648742 -0.05266,-0.5085005 -0.05317,-0.5522362 -0.0068,-0.5848378 0.02755,-0.01938 0.173734,-0.126427 0.32485,-0.2378819 l 0.274756,-0.2026454 0.02182,0.081579 c 0.146183,0.5465955 0.178946,2.1656571 0.0596,2.9450531 -0.08132,0.531027 -0.240863,1.197311 -0.387763,1.619345 -0.469894,1.349971 -1.247777,2.609057 -2.179765,3.52818 -0.239331,0.236027 -0.246549,0.24046 -0.273652,0.168088 z"
     id="path3841"
     inkscape:connector-curvature="0" />
  <path
     style="fill:#ffffcb;fill-opacity:1;stroke-width:0.03056139"
     d="M 9.5582105,19.22868 C 9.4993798,19.222048 9.3068431,19.201353 9.130351,19.182692 8.4415187,19.109859 7.7231372,18.939544 7.0521762,18.689994 6.6247845,18.531034 5.8297204,18.156848 5.8297204,18.114662 c 0,-0.02 0.4427676,-0.358248 0.5741711,-0.438634 0.023726,-0.01451 0.1753888,0.03617 0.3820174,0.127677 0.7523228,0.333157 1.4763354,0.548862 2.2374772,0.666612 0.5232851,0.08095 1.8299419,0.08095 2.3532269,0 0.761736,-0.117842 1.493178,-0.335882 2.230279,-0.664837 0.184509,-0.08234 0.351197,-0.143681 0.370416,-0.136306 0.06233,0.02392 0.592971,0.420766 0.592971,0.443464 0,0.01211 -0.16847,0.106231 -0.374377,0.209158 -0.873302,0.436536 -1.764516,0.708988 -2.773446,0.84787 -0.330909,0.04555 -1.6213469,0.0864 -1.8642455,0.05901 z"
     id="path3843"
     inkscape:connector-curvature="0" />
  <path
     style="fill:#ffffcb;fill-opacity:1;stroke-width:0.03056139"
     d="M 3.7170513,16.534493 C 2.0225015,14.793961 1.0896915,12.386976 1.1625588,9.9429836 1.178231,9.4173352 1.2438002,8.7512441 1.3008832,8.5378029 l 0.021625,-0.080857 0.2747561,0.2026454 c 0.1511158,0.1114549 0.2973152,0.2185136 0.3248876,0.2379083 0.04637,0.032617 0.045632,0.077647 -0.00983,0.6001184 -0.1736061,1.635307 0.1312035,3.11292 0.9693129,4.698895 0.3022941,0.572039 0.7273949,1.163095 1.1817375,1.643077 l 0.2498638,0.263964 -0.116244,0.356494 c -0.063934,0.196071 -0.1259662,0.367098 -0.1378487,0.380059 -0.011883,0.01296 -0.1658219,-0.124565 -0.3420874,-0.305614 z"
     id="path3845"
     inkscape:connector-curvature="0" />
  <path
     style="fill:#ffffcb;fill-opacity:1;stroke-width:0.03056139"
     d="m 5.6463521,16.50036 c 0,-0.02559 0.4437783,-1.385823 1.2428882,-3.809607 0.4423554,-1.34171 0.4586712,-1.420649 0.3332069,-1.612132 C 7.1927852,11.033351 6.2185781,10.312046 5.0575426,9.4757204 3.8965072,8.6393954 2.9179613,7.9312066 2.8829961,7.9019676 2.8224996,7.8513787 2.9485109,7.8487568 5.4868864,7.8477892 8.3898078,7.8466829 8.2789381,7.8532502 8.4288659,7.6735184 8.4821142,7.6096851 8.7467801,6.8423725 9.342132,5.0258022 9.8031913,3.6189929 10.18905,2.4679671 10.199595,2.4679671 c 0.01055,0 0.394246,1.1449062 0.852668,2.544236 0.458422,1.3993299 0.857314,2.5777681 0.886425,2.6187512 0.02911,0.040983 0.0909,0.1028703 0.137314,0.1375263 0.08337,0.062253 0.116978,0.063195 2.794479,0.078292 l 2.710096,0.015281 -0.320895,0.2326351 c -0.176492,0.1279493 -0.871,0.6288511 -1.543351,1.1131151 -0.67235,0.4842642 -1.507237,1.0859212 -1.855304,1.3370172 -0.348068,0.251095 -0.656375,0.49244 -0.685128,0.536323 -0.129575,0.197757 -0.127663,0.205384 0.629517,2.511171 0.389139,1.185018 0.763112,2.323912 0.83105,2.530877 0.06794,0.206964 0.116041,0.383782 0.106895,0.392929 -0.0091,0.0091 -0.983572,-0.689041 -2.165391,-1.551527 -1.380845,-1.007736 -2.189717,-1.579101 -2.263365,-1.598778 -0.07681,-0.02052 -0.152397,-0.02043 -0.22921,2.75e-4 -0.07149,0.01928 -0.626237,0.404384 -1.4745877,1.023653 -0.7479901,0.546009 -1.7125031,1.250077 -2.1433619,1.564596 -0.4308592,0.314534 -0.7918656,0.571868 -0.8022368,0.571868 -0.010371,0 -0.018857,-0.01163 -0.018857,-0.02585 z"
     id="path3847"
     inkscape:connector-curvature="0" />
</svg>
