<svg height="20.4" width="20.4" xmlns="http://www.w3.org/2000/svg"><path d="M11.1 2.4L10.55.7V.65q2.95.15 5.3 1.85 2.35 1.75 3.3 4.45h-1.8q-.85-1.85-2.5-3.1-1.7-1.2-3.75-1.45m8.3 5.2q.35 1.25.35 2.6 0 2.25-1 4.25-.95 1.95-2.65 3.3l-.6-1.8q1.2-1.05 1.85-2.55.7-1.5.7-3.2l-.15-1.5 1.5-1.1m-.25-.25l-5.55 4 2.15 6.55-5.55-4.05-5.55 4.05 2.15-6.55-5.55-4h6.8L10.2.8l2.15 6.55h6.8M14 17.05l1.5 1.1q-2.4 1.6-5.3 1.6t-5.3-1.6l1.5-1.1q1.8 1 3.8 1 2 0 3.8-1M5.55 3.85Q3.9 5.1 3.05 6.95h-1.8q.95-2.7 3.3-4.45Q6.9.8 9.85.65V.7L9.3 2.4q-2.05.25-3.75 1.45M2.5 8.7l-.15 1.5q0 1.7.7 3.2.65 1.5 1.85 2.55l-.6 1.8q-1.7-1.35-2.65-3.3-1-2-1-4.25 0-1.35.35-2.6l1.5 1.1" fill="#ffffcb" fill-rule="evenodd"/><path d="M11.1 2.4L10.55.7V.65q2.95.15 5.3 1.85 2.35 1.75 3.3 4.45h-1.8q-.85-1.85-2.5-3.1-1.7-1.2-3.75-1.45m8.3 5.2q.35 1.25.35 2.6 0 2.25-1 4.25-.95 1.95-2.65 3.3l-.6-1.8q1.2-1.05 1.85-2.55.7-1.5.7-3.2l-.15-1.5 1.5-1.1m-.25-.25l-5.55 4 2.15 6.55-5.55-4.05-5.55 4.05 2.15-6.55-5.55-4h6.8L10.2.8l2.15 6.55h6.8M14 17.05l1.5 1.1q-2.4 1.6-5.3 1.6t-5.3-1.6l1.5-1.1q1.8 1 3.8 1 2 0 3.8-1M5.55 3.85Q3.9 5.1 3.05 6.95h-1.8q.95-2.7 3.3-4.45Q6.9.8 9.85.65V.7L9.3 2.4q-2.05.25-3.75 1.45M2.5 8.7l-.15 1.5q0 1.7.7 3.2.65 1.5 1.85 2.55l-.6 1.8q-1.7-1.35-2.65-3.3-1-2-1-4.25 0-1.35.35-2.6l1.5 1.1" fill="none" stroke="#f5cb5b" stroke-linecap="square" stroke-linejoin="round" stroke-opacity=".298"/></svg>