<?xml version="1.0" encoding="UTF-8"?>
<!DOCTYPE svg  PUBLIC '-//W3C//DTD SVG 1.1//EN'  'http://www.w3.org/TR/2001/REC-SVG-20010904/DTD/svg11.dtd'>
<svg width="10.75" height="26" viewBox="0.00 -0.05 10.75 26.00" xmlns="http://www.w3.org/2000/svg">
<g stroke-linecap="round" stroke-linejoin="round">
<path d="m10 5.55l0.35-1.25q0.1-0.7-0.15-1.3l-0.65-1.05-0.75-0.95-0.2-0.15-1.4-0.8-0.55 0.05-0.5 0.55-0.55 0.15-0.65-0.1-0.5 0.3-0.2 0.15-0.15 0.1-0.4 0.3h-0.4l-0.35-0.15-0.35-0.25q-0.4 0.45-0.15 1.15l0.45 0.5q0.3 0.1 0.6-0.2l0.4-0.3 0.35-0.3q0.25-0.25 0.45-0.25l0.45 0.1 0.4 0.15 0.45-0.1 0.8-0.25 0.65 0.6v0.05l0.35 0.35 0.5-0.05 0.4-0.05 0.55 0.05 0.4 0.4 0.05 0.55-0.3 0.45-0.25 0.25 0.85 1.3m-7.75-2.8v0.8h0.1l0.35-0.5-0.45-0.3" fill="#ff3"/>
<path d="m10 5.55" fill="none"/>
<path d="m8.35 2.95l-0.3 0.05-0.45-0.05-0.4-0.3-0.5-0.4-0.6 0.05-0.6 0.05-0.55-0.2-0.2-0.05-0.2 0.05-0.6 0.5-0.65 0.5 0.15-0.05 0.15-0.05h0.4l0.05 0.25-0.05 0.2-0.1 0.1-0.2 0.05h-0.45l-0.3-0.25q-1.2 1.5-1.05 3.45 0.05 0.85 0.45 1.6l0.9 1.3q1.45 1.25 3.15 0.35 1-0.55 1.8-1.6l0.2-0.15 0.25-0.05 0.8-0.45q0.2-0.4-0.1-0.9l-0.05-0.1-0.05-0.15h0.3l-0.35-0.55 0.05 0.4-0.75-0.7v-0.15l0.1-0.05 0.1 0.05 0.2 0.1 0.15 0.15-0.15-0.25-0.15-0.25-0.1-0.15-0.05-0.2 0.35 0.1v-0.05l-0.35-0.55 0.15-0.2q-0.35-0.25 0.1-0.45l0.1-0.05 0.25-0.3v-0.35l-0.55-0.35-0.3 0.05m-1 1.45l-0.25-0.05-0.35-0.25-0.35-0.25q-0.25-0.15-0.1-0.35l0.25-0.25h0.25l0.4 0.4 0.3 0.45-0.15 0.3m-0.95 1.3h-0.2l-0.2-0.2-0.1-0.25 0.1-0.3 0.15-0.3 0.3-0.15 0.25 0.25-0.1 0.85-0.2 0.1m-2.15-0.7l0.4-0.5 0.35-0.1 0.05 0.05 0.05 0.15-0.4 0.85-0.3 0.35-0.1 0.25 0.1 0.25 0.15 0.25-0.15 0.25-0.3 0.05-0.25-0.2-0.3-0.55 0.3-0.6 0.4-0.5m-1.5-0.15l0.25-0.35 0.2-0.3 0.15-0.05 0.15 0.05q0.25 0.25 0.15 0.75l-0.05 0.1-0.05 0.1-0.2 0.15-0.2 0.05-0.2-0.2-0.2-0.3m-0.25 1.8l0.2 0.2 0.1 0.15 0.1 0.15 1.3 0.35 1.4-0.1v-0.05-0.3l0.2-0.15 0.15 0.15 0.1 0.2 0.2 0.45 0.15 0.45 0.05 0.25-0.15 0.2-0.15-0.1-0.15-0.15-0.05-0.1-0.05-0.1-1.7 0.4q-0.9-0.05-1.6-0.8l-0.45 0.05 0.1-0.5 0.05-0.45 0.1-0.1 0.1-0.1m1.7 2.65q-0.5 0.1-0.85-0.35l-0.05-0.15v-0.05l0.2-0.1 0.1-0.05 0.35 0.05 0.3 0.05 0.15 0.15 0.05 0.15-0.05 0.2-0.2 0.1m-1.85 3.15v-0.15h-0.6v0.15h0.6m0.7-0.5l-0.85-0.15 0.25 0.15 0.15 0.1q0.15 0.25 0.45 0.2l0.5-0.05-0.45-0.7-0.05 0.45m5.55-5.75l0.15 0.15 0.1 0.2v0.15l-0.05 0.15-0.1-0.05-0.25-0.35v-0.1-0.1l0.1-0.05h0.05m-2.15 5.95l0.25-0.1 0.3-0.05q-0.55-0.15-1.1 0.3-0.5 0.45-0.45 0.9l0.3 0.7 0.4-0.05 0.3-0.3q0.3-0.3 0.7-0.25l0.4 0.05-0.35-0.25-0.35-0.05-0.2-0.05-0.2-0.05 0.15-0.15 0.15-0.1 0.3-0.05h0.35l-0.4-0.2-0.4 0.05-0.2-0.05-0.15-0.05 0.1-0.15 0.1-0.1" fill="#FFCD94"/>
<path d="m8.35 2.95" fill="none"/>
<path d="m1.4 12.1v-0.1l0.55-0.6q0.3-0.25 0.7-0.3 0.45 0 0.75 0.3l0.45 0.85 0.5 0.1 0.5 0.1h0.4l0.25-0.25q0.25-0.35 0.75-0.55 0.5-0.15 0.85 0l0.55 0.55 0.2 0.85 0.05 0.25 0.2 0.1 0.5 0.25 0.05 0.15 0.05 0.2-0.15-0.05-0.15-0.05-0.75-0.2h-0.35-0.4q-0.05-0.05-0.1 0.05l-0.5 0.35-0.55 0.2-0.4 0.15-0.4 0.15 2.05 0.75 2.05-0.25q0.5-0.15 0.55-0.7 0.25-1.95-1.1-2.95l-0.9-0.55-0.9-0.45-0.15-0.05-0.15-0.05-0.05 0.1q-0.45 0.65-1.2 0.65-0.8 0.05-1.3-0.5-0.1-0.15-0.3-0.2l-0.35-0.05q-0.9 0.2-1.65 0.9-0.85 0.8-0.9 1.8-0.05 0.4 0.05 0.6l0.5 0.4 2.05 0.4 1.05-0.1 1-0.25-0.2-1-0.05-0.15-0.1-0.1-1.2-0.25-1.2 0.15-0.4 0.05h-0.4l-0.5-0.2 0.15-0.5m6.15 4l-0.15-0.3-0.3-0.1q-1.35-0.1-2.45-0.9l-0.2-0.1-1.75 0.15 0.05 0.4v0.35 0.6l-0.05 0.6-0.3 2.4-0.2 2.4 0.05 0.25 0.2 0.1 1.4 0.25 0.35-1.4 0.35-1.3 0.15-0.75-0.2-0.7-0.05-0.1 0.05-0.25 0.15 0.05 0.1 0.05 0.3 0.5 0.25 0.55 0.55 1.65 0.55 1.65 0.3 0.45 0.5 0.1 0.85-0.15 0.1-0.1 0.05-0.15q0.2-1.65-0.15-3.35l-0.25-1.45-0.25-1.4" fill="#06c"/>
<path d="m1.4 12.1" fill="none"/>
<path d="m5.65 21.1h-0.6-0.55l-0.2 0.8-0.15 0.7-0.35 0.4-0.55 0.05-0.4-0.05-0.8 0.1-0.85-0.1-0.25-0.1-0.2-0.2 0.15-0.2 0.15-0.2 0.6-0.35 0.2-0.15v-0.2q-0.55 0.1-1 0.35-0.5 0.25-0.85 0.7v0.4l0.4 0.35 0.45 0.35 0.45 0.2 0.45 0.15 3.55 0.5 3.55-0.45 0.85-0.3 0.75-0.5 0.3-0.5-0.25-0.5q-0.35-0.35-0.9-0.55l-0.95-0.3-0.1 1-0.05 0.3-0.05 0.35-0.2 0.75-0.75 0.2-0.35-0.15-0.3-0.2-0.3-0.4-0.15-0.45-0.25-0.8-0.35-0.8-0.05-0.1-0.1-0.1m-4.1 3.35q-0.9-0.3-1.55-0.8v0.75l0.4 0.35 0.4 0.35 0.45 0.2 0.5 0.15 3 0.5 3-0.2 1.3-0.3 1.2-0.55 0.45-0.5v-0.65l-0.75 0.35-0.8 0.35-2.95 0.5-2.95-0.15-1.7-0.35" fill="#666"/>
<path d="m5.65 21.1" fill="none"/>
</g>
</svg>
