<svg width="10.75" height="26" viewBox="0 -0.05 10.75 26" xmlns="http://www.w3.org/2000/svg"><g stroke-linecap="round" stroke-linejoin="round"><path d="M10 5.55l.35-1.25q.1-.7-.15-1.3l-.65-1.05L8.8 1 8.6.85 7.2.05 6.65.1l-.5.55L5.6.8 4.95.7l-.5.3-.2.15-.15.1-.4.3h-.4l-.35-.15-.35-.25q-.4.45-.15 1.15l.45.5q.3.1.6-.2l.4-.3.35-.3q.25-.25.45-.25l.45.1.4.15.45-.1.8-.25.65.6v.05l.35.35.5-.05.4-.05.55.05.4.4.05.55-.3.45-.25.25.85 1.3m-7.75-2.8v.8h.1l.35-.5-.45-.3" fill="#ff3"/><path d="M8.35 2.95l-.3.05-.45-.05-.4-.3-.5-.4-.6.05-.6.05-.55-.2-.2-.05-.2.05-.6.5-.65.5.15-.05.15-.05H4l.05.25-.05.2-.1.1-.2.05h-.45l-.3-.25Q1.75 4.9 1.9 6.85q.05.85.45 1.6l.9 1.3Q4.7 11 6.4 10.1q1-.55 1.8-1.6l.2-.15.25-.05.8-.45q.2-.4-.1-.9l-.05-.1-.05-.15h.3l-.35-.55.05.4-.75-.7V5.7l.1-.05.1.05.2.1.15.15-.15-.25-.15-.25-.1-.15-.05-.2.35.1v-.05L8.6 4.6l.15-.2q-.35-.25.1-.45l.1-.05.25-.3v-.35l-.55-.35-.3.05m-1 1.45l-.25-.05-.35-.25-.35-.25q-.25-.15-.1-.35l.25-.25h.25l.4.4.3.45-.15.3M6.4 5.7h-.2L6 5.5l-.1-.25.1-.3.15-.3.3-.15.25.25-.1.85-.2.1M4.25 5l.4-.5.35-.1.05.05.05.15-.4.85-.3.35-.1.25.1.25.15.25-.15.25-.3.05-.25-.2-.3-.55.3-.6.4-.5m-1.5-.15L3 4.5l.2-.3.15-.05.15.05q.25.25.15.75l-.05.1-.05.1-.2.15-.2.05-.2-.2-.2-.3m-.25 1.8l.2.2.1.15.1.15 1.3.35 1.4-.1v-.35l.2-.15.15.15.1.2.2.45.15.45.05.25-.15.2-.15-.1L6 8.35l-.05-.1-.05-.1-1.7.4q-.9-.05-1.6-.8l-.45.05.1-.5.05-.45.1-.1.1-.1M4.2 9.3q-.5.1-.85-.35L3.3 8.8v-.05l.2-.1.1-.05.35.05.3.05.15.15.05.15-.05.2-.2.1m-1.85 3.15v-.15h-.6v.15h.6m.7-.5l-.85-.15.25.15.15.1q.15.25.45.2l.5-.05-.45-.7-.05.45M8.6 6.2l.15.15.1.2v.15l-.05.15-.1-.05-.25-.35v-.2l.1-.05h.05m-2.15 5.95l.25-.1L7 12q-.55-.15-1.1.3-.5.45-.45.9l.3.7.4-.05.3-.3q.3-.3.7-.25l.4.05-.35-.25-.35-.05-.2-.05-.2-.05.15-.15.15-.1.3-.05h.35l-.4-.2-.4.05-.2-.05-.15-.05.1-.15.1-.1" fill="#FFCD94"/><path d="M1.4 12.1V12l.55-.6q.3-.25.7-.3.45 0 .75.3l.45.85.5.1.5.1h.4l.25-.25q.25-.35.75-.55.5-.15.85 0l.55.55.2.85.05.25.2.1.5.25.05.15.05.2-.15-.05-.15-.05-.75-.2H6.9q-.05-.05-.1.05l-.5.35-.55.2-.4.15-.4.15 2.05.75 2.05-.25q.5-.15.55-.7.25-1.95-1.1-2.95l-.9-.55-.9-.45-.15-.05-.15-.05-.05.1q-.45.65-1.2.65-.8.05-1.3-.5-.1-.15-.3-.2l-.35-.05q-.9.2-1.65.9-.85.8-.9 1.8-.05.4.05.6l.5.4 2.05.4 1.05-.1 1-.25-.2-1-.05-.15-.1-.1-1.2-.25-1.2.15-.4.05h-.4l-.5-.2.15-.5m6.15 4l-.15-.3-.3-.1q-1.35-.1-2.45-.9l-.2-.1-1.75.15.05.4v.95l-.05.6-.3 2.4-.2 2.4.05.25.2.1 1.4.25.35-1.4.35-1.3.15-.75-.2-.7-.05-.1.05-.25.15.05.1.05.3.5.25.55.55 1.65.55 1.65.3.45.5.1.85-.15.1-.1.05-.15q.2-1.65-.15-3.35L7.8 17.5l-.25-1.4" fill="#06c"/><path d="M5.65 21.1H4.5l-.2.8-.15.7-.35.4-.55.05-.4-.05-.8.1-.85-.1-.25-.1-.2-.2.15-.2.15-.2.6-.35.2-.15v-.2q-.55.1-1 .35-.5.25-.85.7v.4l.4.35.45.35.45.2.45.15 3.55.5 3.55-.45.85-.3.75-.5.3-.5-.25-.5q-.35-.35-.9-.55l-.95-.3-.1 1-.05.3-.05.35-.2.75-.75.2-.35-.15-.3-.2-.3-.4-.15-.45-.25-.8-.35-.8-.05-.1-.1-.1m-4.1 3.35q-.9-.3-1.55-.8v.75l.4.35.4.35.45.2.5.15 3 .5 3-.2 1.3-.3 1.2-.55.45-.5v-.65l-.75.35-.8.35-2.95.5-2.95-.15-1.7-.35" fill="#666"/></g></svg>