<svg height="16.8" width="21.1" xmlns="http://www.w3.org/2000/svg"><path d="M7.3 9.2H10V6.1L7.3 9.2M6.15 5.6H3.5l2.65 3.15V5.6m3.55 0H6.75v3.35L9.7 5.6m.9 3.6h2.8l-2.8-3.1v3.1m6.95-3.6h-3v3.25l3-3.25m-3.6 0H10.9l3.05 3.3V5.6m.2-4.65h.1V4.1h6.2v1.5H18.4l-3.35 3.6h5.4v.85h-2.4l.3 5.15h.75v.95h-3.25v-.95h.65l.3-5.15h-5.7l.3 5.15h.7v.95H8.85v-.95h.7l.3-5.15H3.9l.3 5.15H5v.95H1.7v-.95h.65l.3-5.15h-2V9.2H5.8L2.7 5.6H.65V4.1h5.6V1.65l-.5.05-.7-.1-.3-.3.3-.3.7-.1q.75 0 .95.3h.1v2.9h6.85V1.45l-.45.05-.75-.1-.3-.3.3-.3.75-.15.95.3" fill="#ffffcb" fill-rule="evenodd"/><path d="M14.15.95l-.95-.3-.75.15-.3.3.3.3.75.1.45-.05V4.1H6.8V1.2h-.1Q6.5.9 5.75.9l-.7.1-.3.3.3.3.7.1.5-.05V4.1H.65v1.5H2.7l3.1 3.6H.65v.85h2l-.3 5.15H1.7v.95H5v-.95h-.8l-.3-5.15h5.95l-.3 5.15h-.7v.95h3.25v-.95h-.7l-.3-5.15h5.7l-.3 5.15h-.65v.95h3.25v-.95h-.75l-.3-5.15h2.4V9.2h-5.4l3.35-3.6h2.05V4.1h-6.2V.95h-.1m-.2 4.65v3.3L10.9 5.6h3.05m3.6 0l-3 3.25V5.6h3M10.6 9.2V6.1l2.8 3.1h-2.8m-.9-3.6L6.75 8.95V5.6H9.7m-3.55 0v3.15L3.5 5.6h2.65M7.3 9.2L10 6.1v3.1H7.3" fill="none" stroke="#f5cb5b" stroke-linecap="square" stroke-linejoin="round" stroke-opacity=".298"/></svg>