<svg height="11.95" width="20.2" xmlns="http://www.w3.org/2000/svg"><path d="M8.95 2.5h-5.8v1.9h5.8V2.5m9.7-1.45l.4 1 .5 9.25H16.5V8.75h-1.65v2.55H.65l.45-9.25.45-1q.35-.4.95-.4h15.15q.55 0 1 .4M16.8 2.5H11v1.9h5.8V2.5" fill="#ffffcb" fill-rule="evenodd"/><path d="M16.8 2.5v1.9H11V2.5h5.8m1.85-1.45q-.45-.4-1-.4H2.5q-.6 0-.95.4l-.45 1-.45 9.25h14.2V8.75h1.65v2.55h3.05l-.5-9.25-.4-1M8.95 2.5v1.9h-5.8V2.5h5.8" fill="none" stroke="#f5cb5b" stroke-linecap="square" stroke-linejoin="round" stroke-opacity=".298"/></svg>