<svg height="18.6" width="19.35" xmlns="http://www.w3.org/2000/svg"><g fill-rule="evenodd"><path d="M10.05 13.7q.8 0 1.35-.55.6-.55.6-1.35V9.85q0-.85-.6-1.4-.55-.6-1.35-.6H9.3q-.8 0-1.35.6-.6.55-.6 1.4v1.95q0 .75.6 1.35.55.55 1.35.55h.75m8.3-5.85q.5.5.25 1.1l-.3.35-.25.15-.3.05h-.2l-.35-.15-.1-.1-6.85-5.9q-.2-.2-.55-.2l-.6.2-6.85 5.9-.65.25-.3-.05-.15-.1-.35-.4q-.3-.6.2-1.1L9.1.9l.05-.05.3-.1L9.7.7h.15l.35.15.05.05 8.1 6.95m-8.85-4l.2-.05.15.05L12 5.7H7.35L9.5 3.85m3.2 8.75h1.95q-.45.75-.2 1.75l.15.3H4.9q.4-.7.1-1.55l-.2-.5h1.85l-.1-.55v-.4H5q.25-.7 0-1.45l-.25-.55h1.8v-.8l.05-.15H3.95l2.3-2.05h6.85l2.35 2.05h-2.7l.05.15v.8h1.9l-.05.15q-.45.75-.2 1.7l.05.15h-1.7v.4l-.1.55M2.5 1.85h3.4v.9l-3.4 2.9v-3.8M1.35 11.4l-.05-.1q-.2-.6.05-1.15h.25q.6 0 1.05-.35l.6-.5.35.15.3.2H4q.25.25.4.75.2.65-.15 1.25l-.1.2q-.6-.45-1.3-.45l-.65.1q-.35.1-.65.35l-.2-.45m-.05 2.8q-.2-.7.1-1.25l.05-.05.1-.15.05-.05.15-.15q.25-.3.65-.4l.45-.05.75.15-.05.05h.05l.55.45.25.5q.2.7-.1 1.25l-.05-.05Q3.6 14 2.85 14l-.65.1-.8.4-.05-.2-.05-.1m.05 2.6l-.05-.1q-.2-.6.1-1.2l.45-.45.05-.05.5-.25.45-.1q.55 0 .95.35l.45.45.1.15.05.2q.2.7-.15 1.25l-.9.75H3.3l-.25.05h-.4l-.55-.2q-.55-.25-.75-.85m3.45.6q.55-.8.2-1.75v-.05h9.45q-.2.6 0 1.3l.6 1H4.45l.35-.5m13.35-7q.2.65-.15 1.25l-.05.2q-.6-.45-1.3-.45l-.65.1q-.35.1-.65.35l-.1-.2-.15-.35q-.2-.6.1-1.25l.35-.4h.05l.4-.3.15-.05.55.5q.45.35 1.05.35h.3l.1.25m-.05 2.75l.05.1q.2.7-.1 1.25l-.05-.05q-.6-.45-1.3-.45h-.05l-.65.1q-.45.15-.75.4l-.1-.2-.05-.1q-.2-.65.1-1.25l.15-.2.5-.45.3-.15.3-.05h.2l.75.15-.05.05h.05l.55.5.15.35m.05 2.65q.2.7-.15 1.25l-.95.75-.2.05-.15.05-.7-.15v.05q-.6-.2-.85-.9l-.05-.2q-.2-.6.1-1.2l.45-.45.05-.05.3-.2.15-.05.5-.1h.05q.45 0 .9.35l.5.65.05.1v.05" fill="#ffffcb"/><path d="M6.6 1.15v1L8.65.4Q9.05 0 9.7 0q.6 0 1 .4l8.1 6.95q.85.75.35 1.9l-.4.6.1.35q.25.9-.2 1.8l-.2.3.4.8q.25.95-.2 1.7l-.1.2.3.65q.25.95-.2 1.75-.45.75-1.4 1.1l-.55.1H2.65q-.65-.05-1.2-.5l-.8-1.2q-.3-.85.2-1.7L1 15l-.35-.65q-.3-.9.2-1.75l.25-.35-.45-.75Q.4 10.75.8 9.95l-.6-.7q-.5-1.15.35-1.9l1.3-1.1v-5.1H6.6m11.75 6.7L10.25.9 10.2.85 9.85.7H9.7l-.25.05-.3.1L9.1.9 1 7.85q-.5.5-.2 1.1l.35.4.15.1.3.05.65-.25 6.85-5.9.6-.2q.35 0 .55.2l6.85 5.9.1.1.35.15h.2l.3-.05.25-.15.3-.35q.25-.6-.25-1.1m-8.3 5.85H9.3q-.8 0-1.35-.55-.6-.6-.6-1.35V9.85q0-.85.6-1.4.55-.6 1.35-.6h.75q.8 0 1.35.6.6.55.6 1.4v1.95q0 .8-.6 1.35-.55.55-1.35.55m-8.5-1.85q.3-.25.65-.35l.65-.1q.7 0 1.3.45l.1-.2q.35-.6.15-1.25-.15-.5-.4-.75h-.1l-.3-.2-.35-.15-.6.5q-.45.35-1.05.35h-.25q-.25.55-.05 1.15l.05.1.15.45h.05m.95-10v3.8l3.4-2.9v-.9H2.5M12.7 12.6l.1-.55v-.4h1.7l-.05-.15q-.25-.95.2-1.7l.05-.15h-1.9v-.8l-.05-.15h2.7L13.1 6.65H6.25L3.95 8.7H6.6l-.05.15v.8h-1.8l.25.55q.25.75 0 1.45h1.55v.4l.1.55H4.8l.2.5q.3.85-.1 1.55h9.7l-.15-.3q-.25-1 .2-1.75H12.7M9.5 3.85L7.35 5.7H12L9.85 3.85 9.7 3.8l-.2.05m-6.85 14h.4l.25-.05h.05l.9-.75q.35-.55.15-1.25l-.05-.2-.1-.15L3.8 15q-.4-.35-.95-.35l-.45.1-.5.25-.05.05-.45.45q-.3.6-.1 1.2l.05.1q.3 1 1.3 1.1v-.05M1.3 14.2l.05.1.05.2.8-.4.65-.1q.75 0 1.4.45l.05.05q.3-.55.1-1.25l-.25-.5-.55-.45h-.05l.05-.05-.75-.15-.45.05q-.4.1-.65.4l-.15.15-.05.05-.1.15-.05.05q-.3.55-.1 1.25m16.65-1.4l-.55-.5h-.05l.05-.05-.75-.15h-.2l-.3.05-.3.15-.5.45-.15.2q-.3.6-.1 1.25l.05.1.1.2q.3-.25.75-.4l.65-.1h.05q.7 0 1.3.45l.05.05q.3-.55.1-1.25l-.05-.1-.15-.4v.05m.2-2.4l-.1-.25h-.3q-.6 0-1.05-.35l-.55-.5-.15.05-.4.3h-.05l-.35.4q-.3.65-.1 1.25l.15.35.1.2q.3-.25.65-.35l.65-.1q.7 0 1.3.45l.05-.2q.35-.6.15-1.25m-13.35 7l-.35.5h10.6l-.6-1q-.2-.7 0-1.3H5v.05q.35.95-.2 1.75m13.35-1.6v-.05l-.05-.1-.5-.65q-.45-.35-.9-.35h-.05l-.5.1-.15.05-.3.2-.05.05-.45.45q-.3.6-.1 1.2l.05.2q.25.7.85.9v-.05l.7.15.15-.05.2-.05.95-.75q.35-.55.15-1.25" fill="#f5cb5b" fill-opacity=".298"/></g></svg>