<?xml version="1.0" encoding="UTF-8" standalone="no"?>
<svg xmlns:xlink="http://www.w3.org/1999/xlink" height="14.1px" width="18.8px" xmlns="http://www.w3.org/2000/svg">
  <g transform="matrix(1.0, 0.0, 0.0, 1.0, 9.4, 6.8)">
    <path d="M8.75 -1.3 L8.75 6.65 1.75 6.65 1.75 1.1 -1.75 1.1 -1.75 6.65 -8.75 6.65 -8.75 -1.3 Q-6.25 -2.1 -4.4 -3.15 L-1.5 -5.05 0.05 -6.15 1.45 -5.0 4.2 -3.1 Q6.05 -2.1 8.75 -1.3" fill="#ffffcb" fill-rule="evenodd" stroke="none"/>
    <path d="M8.75 -1.3 L8.75 6.65 1.75 6.65 1.75 1.1 -1.75 1.1 -1.75 6.65 -8.75 6.65 -8.75 -1.3 Q-6.25 -2.1 -4.4 -3.15 L-1.5 -5.05 0.05 -6.15 1.45 -5.0 4.2 -3.1 Q6.05 -2.1 8.75 -1.3 Z" fill="none" stroke="#f5cb5b" stroke-linecap="square" stroke-linejoin="round" stroke-opacity="0.29803923" stroke-width="1.0"/>
  </g>
</svg>
