<svg height="19.4" width="15.55" xmlns="http://www.w3.org/2000/svg"><g fill-rule="evenodd"><path d="M10.9 6.3H4.65l-.3-.25.3-.35h.3q0-1 .6-1.75l1.45-1v-.5h.3l.3-1v-.8H8v.8l.25 1h.3v.5q.95.25 1.5 1 .6.75.6 1.75h.2l.35.35q0 .25-.3.25m-8.05 7.55v3.7h.7v-3.7h-.7m3.65 0v3.7h.65v-3.7H6.5m-1.15 3.7v-3.7h-.7v3.7h.7M5.2 8.1v2.75l.55-.25V8.1H5.2m2.05 1.85V8.1h-.5v2.15l.5-.3m5.4 7.6v-3.7h-.7v3.7h.7m-2.5-3.7v3.7h.65v-3.7h-.65m-1.85 0v3.7H9v-3.7h-.7m5.9 3.7q.6 0 .6.6l-.2.4-.4.2H1.25q-.55 0-.55-.6t.55-.6h.45v-3.7h-.4q-.55 0-.55-.6 0-.4.3-.5H14.5l.15.15.2.35q0 .6-.6.6h-.45v3.7h.4m-3.85-6.65V8.1H9.8v2.55l.55.25M11.6 7q.6 0 .6.55t-.6.55h-.3v3.25l1.2.7H2.95l1.25-.75V8.1h-.25q-.6 0-.6-.55t.6-.55h7.65M8.25 8.1V10l.55.25V8.1h-.55" fill="#ffffcb"/><path d="M10.9 6.3q.3 0 .3-.25l-.35-.35h-.2q0-1-.6-1.75-.55-.75-1.5-1v-.5h-.3l-.25-1v-.8h-.4v.8l-.3 1H7v.5l-1.45 1q-.6.75-.6 1.75h-.3l-.3.35.3.25h6.25m3.35 5.7q.55 0 .9.4.4.4.4.85l-.3.85q-.35.4-.8.45v2.4q1.05.2 1.05 1.2 0 .55-.4.85-.35.4-.9.4H1.25q-.5 0-.9-.4L0 18.15q0-1 1.05-1.25v-2.4q-1-.15-1-1.25 0-.5.35-.85.4-.4.9-.4h.4l1.85-1.1V8.75q-.85-.25-.85-1.2l.35-.9.7-.35-.05-.25q0-.75.6-1 .35-1.8 2-2.55v-.7h.5l.15-.45V0h1.7v1.35l.1.45h.5v.7q1.75.75 2.05 2.55.55.35.55 1l-.05.25.7.35.35.9q0 .95-.85 1.2v2.2L13.75 12h.5m-6-3.9h.55v2.15L8.25 10V8.1M11.6 7H3.95q-.6 0-.6.55t.6.55h.25v3.2l-1.25.75h9.55l-1.2-.7V8.1h.3q.6 0 .6-.55T11.6 7m-1.25 3.9l-.55-.25V8.1h.55v2.8m3.85 6.65h-.4v-3.7h.45q.6 0 .6-.6l-.2-.35-.15-.15H1.05q-.3.1-.3.5 0 .6.55.6h.4v3.7h-.45q-.55 0-.55.6t.55.6H14.2l.4-.2.2-.4q0-.6-.6-.6m-5.9-3.7H9v3.7h-.7v-3.7m1.85 0h.65v3.7h-.65v-3.7m2.5 3.7h-.7v-3.7h.7v3.7m-5.4-7.6l-.5.3V8.1h.5v1.85M5.2 8.1h.55v2.5l-.55.25V8.1m.15 9.45h-.7v-3.7h.7v3.7m1.15-3.7h.65v3.7H6.5v-3.7m-3.65 0h.7v3.7h-.7v-3.7" fill="#f5cb5b" fill-opacity=".298"/></g></svg>