<?xml version="1.0" encoding="UTF-8" standalone="no"?>
<svg xmlns:xlink="http://www.w3.org/1999/xlink" height="19.4px" width="15.55px" xmlns="http://www.w3.org/2000/svg">
  <g transform="matrix(1.0, 0.0, 0.0, 1.0, 7.7, 9.7)">
    <path d="M3.2 -3.4 L-3.05 -3.4 -3.35 -3.65 -3.05 -4.0 -2.75 -4.0 Q-2.75 -5.0 -2.15 -5.75 L-0.7 -6.75 -0.7 -7.25 -0.4 -7.25 -0.1 -8.25 -0.1 -9.05 0.3 -9.05 0.3 -8.25 0.55 -7.25 0.85 -7.25 0.85 -6.75 Q1.8 -6.5 2.35 -5.75 2.95 -5.0 2.95 -4.0 L3.15 -4.0 3.5 -3.65 Q3.5 -3.4 3.2 -3.4 M-4.85 4.15 L-4.85 7.85 -4.15 7.85 -4.15 4.15 -4.85 4.15 M-1.2 4.15 L-1.2 7.85 -0.55 7.85 -0.55 4.15 -1.2 4.15 M-2.35 7.85 L-2.35 4.15 -3.05 4.15 -3.05 7.85 -2.35 7.85 M-2.5 -1.6 L-2.5 1.15 -1.95 0.9 -1.95 -1.6 -2.5 -1.6 M-0.45 0.25 L-0.45 -1.6 -0.95 -1.6 -0.95 0.55 -0.45 0.25 M4.95 7.85 L4.95 4.15 4.25 4.15 4.25 7.85 4.95 7.85 M2.45 4.15 L2.45 7.85 3.1 7.85 3.1 4.15 2.45 4.15 M0.6 4.15 L0.6 7.85 1.3 7.85 1.3 4.15 0.6 4.15 M6.5 7.85 Q7.1 7.85 7.1 8.45 L6.9 8.85 6.5 9.05 -6.45 9.05 Q-7.0 9.05 -7.0 8.45 -7.0 7.85 -6.45 7.85 L-6.0 7.85 -6.0 4.15 -6.4 4.15 Q-6.95 4.15 -6.95 3.55 -6.95 3.15 -6.65 3.05 L6.8 3.05 6.95 3.2 7.15 3.55 Q7.15 4.15 6.55 4.15 L6.1 4.15 6.1 7.85 6.5 7.85 M2.65 1.2 L2.65 -1.6 2.1 -1.6 2.1 0.95 2.65 1.2 M3.9 -2.7 Q4.5 -2.7 4.5 -2.15 4.5 -1.6 3.9 -1.6 L3.6 -1.6 3.6 1.65 4.8 2.35 -4.75 2.35 -3.5 1.6 -3.5 -1.6 -3.75 -1.6 Q-4.35 -1.6 -4.35 -2.15 -4.35 -2.7 -3.75 -2.7 L3.9 -2.7 M0.55 -1.6 L0.55 0.3 1.1 0.55 1.1 -1.6 0.55 -1.6" fill="#ffffcb" fill-rule="evenodd" stroke="none"/>
    <path d="M3.2 -3.4 Q3.5 -3.4 3.5 -3.65 L3.15 -4.0 2.95 -4.0 Q2.95 -5.0 2.35 -5.75 1.8 -6.5 0.85 -6.75 L0.85 -7.25 0.55 -7.25 0.3 -8.25 0.3 -9.05 -0.1 -9.05 -0.1 -8.25 -0.4 -7.25 -0.7 -7.25 -0.7 -6.75 -2.15 -5.75 Q-2.75 -5.0 -2.75 -4.0 L-3.05 -4.0 -3.35 -3.65 -3.05 -3.4 3.2 -3.4 M6.55 2.3 Q7.1 2.3 7.45 2.7 7.85 3.1 7.85 3.55 L7.55 4.4 Q7.2 4.8 6.75 4.85 L6.75 7.25 Q7.8 7.45 7.8 8.45 7.8 9.0 7.4 9.3 7.05 9.7 6.5 9.7 L-6.45 9.7 Q-6.95 9.7 -7.35 9.3 L-7.7 8.45 Q-7.7 7.45 -6.65 7.2 L-6.65 4.8 Q-7.65 4.65 -7.65 3.55 -7.65 3.05 -7.3 2.7 -6.9 2.3 -6.4 2.3 L-6.0 2.3 -4.15 1.2 -4.15 -0.95 Q-5.0 -1.2 -5.0 -2.15 L-4.65 -3.05 -3.95 -3.4 -4.0 -3.65 Q-4.0 -4.4 -3.4 -4.65 -3.05 -6.45 -1.4 -7.2 L-1.4 -7.9 -0.9 -7.9 -0.75 -8.35 -0.75 -9.7 0.95 -9.7 0.95 -8.35 1.05 -7.9 1.55 -7.9 1.55 -7.2 Q3.3 -6.45 3.6 -4.65 4.15 -4.3 4.15 -3.65 L4.1 -3.4 4.8 -3.05 5.15 -2.15 Q5.15 -1.2 4.3 -0.95 L4.3 1.25 6.05 2.3 6.55 2.3 M0.55 -1.6 L1.1 -1.6 1.1 0.55 0.55 0.3 0.55 -1.6 M3.9 -2.7 L-3.75 -2.7 Q-4.35 -2.7 -4.35 -2.15 -4.35 -1.6 -3.75 -1.6 L-3.5 -1.6 -3.5 1.6 -4.75 2.35 4.8 2.35 3.6 1.65 3.6 -1.6 3.9 -1.6 Q4.5 -1.6 4.5 -2.15 4.5 -2.7 3.9 -2.7 M2.65 1.2 L2.1 0.95 2.1 -1.6 2.65 -1.6 2.65 1.2 M6.5 7.85 L6.1 7.85 6.1 4.15 6.55 4.15 Q7.15 4.15 7.15 3.55 L6.95 3.2 6.8 3.05 -6.65 3.05 Q-6.95 3.15 -6.95 3.55 -6.95 4.15 -6.4 4.15 L-6.0 4.15 -6.0 7.85 -6.45 7.85 Q-7.0 7.85 -7.0 8.45 -7.0 9.05 -6.45 9.05 L6.5 9.05 6.9 8.85 7.1 8.45 Q7.1 7.85 6.5 7.85 M0.6 4.15 L1.3 4.15 1.3 7.85 0.6 7.85 0.6 4.15 M2.45 4.15 L3.1 4.15 3.1 7.85 2.45 7.85 2.45 4.15 M4.95 7.85 L4.25 7.85 4.25 4.15 4.95 4.15 4.95 7.85 M-0.45 0.25 L-0.95 0.55 -0.95 -1.6 -0.45 -1.6 -0.45 0.25 M-2.5 -1.6 L-1.95 -1.6 -1.95 0.9 -2.5 1.15 -2.5 -1.6 M-2.35 7.85 L-3.05 7.85 -3.05 4.15 -2.35 4.15 -2.35 7.85 M-1.2 4.15 L-0.55 4.15 -0.55 7.85 -1.2 7.85 -1.2 4.15 M-4.85 4.15 L-4.15 4.15 -4.15 7.85 -4.85 7.85 -4.85 4.15" fill="#f5cb5b" fill-opacity="0.29803923" fill-rule="evenodd" stroke="none"/>
  </g>
</svg>
