<?xml version="1.0" encoding="UTF-8" standalone="no"?>
<svg xmlns:xlink="http://www.w3.org/1999/xlink" height="19.3px" width="15.4px" xmlns="http://www.w3.org/2000/svg">
  <g transform="matrix(1.0, 0.0, 0.0, 1.0, 7.7, 9.65)">
    <path d="M1.05 -0.1 L1.05 -1.7 -1.25 -1.7 -1.25 -0.1 1.05 -0.1 M3.4 -7.6 Q4.75 -6.2 4.75 -4.25 L4.75 4.8 7.05 4.8 7.05 9.0 -7.05 9.0 -7.05 4.8 -4.75 4.8 -4.75 -4.25 Q-4.75 -6.2 -3.35 -7.6 -1.95 -9.0 0.0 -9.0 2.0 -9.0 3.4 -7.6 M2.8 -2.45 L2.8 -4.1 -3.05 -4.1 -3.05 -2.45 2.8 -2.45" fill="#ffffcb" fill-rule="evenodd" stroke="none"/>
    <path d="M2.8 -2.45 L-3.05 -2.45 -3.05 -4.1 2.8 -4.1 2.8 -2.45 M3.4 -7.6 Q2.0 -9.0 0.0 -9.0 -1.95 -9.0 -3.35 -7.6 -4.75 -6.2 -4.75 -4.25 L-4.75 4.8 -7.05 4.8 -7.05 9.0 7.05 9.0 7.05 4.8 4.75 4.8 4.75 -4.25 Q4.75 -6.2 3.4 -7.6 M1.05 -0.1 L-1.25 -0.1 -1.25 -1.7 1.05 -1.7 1.05 -0.1" fill="none" stroke="#f5cb5b" stroke-linecap="square" stroke-linejoin="round" stroke-opacity="0.29803923" stroke-width="1.0"/>
  </g>
</svg>
