<svg height="19.3" width="15.4" xmlns="http://www.w3.org/2000/svg"><path d="M8.75 9.55v-1.6h-2.3v1.6h2.3m2.35-7.5q1.35 1.4 1.35 3.35v9.05h2.3v4.2H.65v-4.2h2.3V5.4q0-1.95 1.4-3.35Q5.75.65 7.7.65q2 0 3.4 1.4m-.6 5.15V5.55H4.65V7.2h5.85" fill="#ffffcb" fill-rule="evenodd"/><path d="M10.5 7.2H4.65V5.55h5.85V7.2m.6-5.15Q9.7.65 7.7.65q-1.95 0-3.35 1.4-1.4 1.4-1.4 3.35v9.05H.65v4.2h14.1v-4.2h-2.3V5.4q0-1.95-1.35-3.35m-2.35 7.5h-2.3v-1.6h2.3v1.6" fill="none" stroke="#f5cb5b" stroke-linecap="square" stroke-linejoin="round" stroke-opacity=".298"/></svg>