<svg height="21.1" width="19.7" xmlns="http://www.w3.org/2000/svg"><path d="M4.85 18.55V15.6H3.2v2.95h1.65M8.6 15.6H6.95v2.95H8.6V15.6m7.55 2.95V15.6h-1.7v2.95h1.7M12.4 15.6h-1.7v2.95h1.7V15.6m-.9-9.35L13.35.7l.55-.05 1.85 5.55v5.25h.8l2.5 2.8h-.85v6.2H1.35v-6.2h-.7L3.2 11.5h8.3V6.25m1.3.55v3.3h1.45V6.8H12.8" fill="#ffffcb" fill-rule="evenodd"/><path d="M12.8 6.8h1.45v3.3H12.8V6.8m-1.3-.55v5.25H3.2L.65 14.25h.7v6.2H18.2v-6.2h.85l-2.5-2.8h-.8V6.2L13.9.65l-.55.05-1.85 5.55m.9 9.35v2.95h-1.7V15.6h1.7m3.75 2.95h-1.7V15.6h1.7v2.95M8.6 15.6v2.95H6.95V15.6H8.6m-3.75 2.95H3.2V15.6h1.65v2.95" fill="none" stroke="#f5cb5b" stroke-linecap="square" stroke-linejoin="round" stroke-opacity=".298"/></svg>