<svg height="19.7" width="18.6" xmlns="http://www.w3.org/2000/svg"><path d="M12.65 5.15h5.3v13.9H.65V3.35h.8V.65H3.2v2.7h4.65V9h4.8V5.15m1 3.25v1.35h3.4V8.4h-3.4m3.4 4.65h-3.4v1.3h3.4v-1.3m0-2.35h-3.4v1.35h3.4V10.7m-5.3 1.25v-.8h-1.1v.8h1.1m-1.5-.8H9.2v.8h1.05v-.8m0 2.4H9.2v1.15h1.05v-1.15m1.5 1.15v-1.15h-1.1v1.15h1.1m-1.5 1.35H9.2v1.65h1.05v-1.65m1.5 0h-1.1v1.65h1.1v-1.65m5.3.6v-1.3h-3.4v1.3h3.4M3.8 7.55h1.1v-2.7H3.8v2.7m-1.95.65v2.75h1.1V8.2h-1.1m1.1-3.35h-1.1v2.7h1.1v-2.7m2.8 3.35v2.75H6.8V8.2H5.75M6.8 4.85H5.75v2.7H6.8v-2.7m-3 3.35v2.75h1.1V8.2H3.8m5.05 2.95h-1.1v.8h1.1v-.8m-1.1 2.4v1.15h1.1v-1.15h-1.1M4.9 11.6H3.8v2.7h1.1v-2.7m.85 3.4v2.7H6.8V15H5.75m0-.7H6.8v-2.7H5.75v2.7m-3.9-2.7v2.7h1.1v-2.7h-1.1m0 3.4v2.7h1.1V15h-1.1m7 1.05h-1.1v1.65h1.1v-1.65M4.9 15H3.8v2.7h1.1V15" fill="#ffffcb" fill-rule="evenodd"/><path d="M12.65 5.15h5.3v13.9H.65V3.35h.8V.65H3.2v2.7h4.65V9h4.8V5.15m1 3.25v1.35h3.4V8.4h-3.4m3.4 4.65h-3.4v1.3h3.4v-1.3m0-2.35h-3.4v1.35h3.4V10.7m-5.3 1.25v-.8h-1.1v.8h1.1m-1.5-.8H9.2v.8h1.05v-.8m0 2.4H9.2v1.15h1.05v-1.15m1.5 1.15v-1.15h-1.1v1.15h1.1m-1.5 1.35H9.2v1.65h1.05v-1.65m1.5 0h-1.1v1.65h1.1v-1.65m5.3.6v-1.3h-3.4v1.3h3.4M3.8 7.55h1.1v-2.7H3.8v2.7m-1.95.65v2.75h1.1V8.2h-1.1m1.1-3.35h-1.1v2.7h1.1v-2.7m2.8 3.35v2.75H6.8V8.2H5.75M6.8 4.85H5.75v2.7H6.8v-2.7m-3 3.35v2.75h1.1V8.2H3.8m5.05 2.95h-1.1v.8h1.1v-.8m-1.1 2.4v1.15h1.1v-1.15h-1.1M4.9 11.6H3.8v2.7h1.1v-2.7m.85 3.4v2.7H6.8V15H5.75m0-.7H6.8v-2.7H5.75v2.7m-3.9-2.7v2.7h1.1v-2.7h-1.1m0 3.4v2.7h1.1V15h-1.1m7 1.05h-1.1v1.65h1.1v-1.65M4.9 15H3.8v2.7h1.1V15" fill="none" stroke="#f5cb5b" stroke-linecap="square" stroke-linejoin="round" stroke-opacity=".298"/></svg>