<svg height="18.9" width="10.75" xmlns="http://www.w3.org/2000/svg"><g fill-rule="evenodd"><path d="M9.1 7.35H7.25v1.9q0 .65-.65.65-.6 0-.6-.65V6.1h-.15q-.45 0-.8-.3l-.3-.8h-.6q0 .6.35 1.05.4.45.95.6v.7H1.7q-.85 0-.85-.7V6.5q0-.6.85-.6h.1l-.15-1.35q0-1.6 1.1-2.8Q3.85.65 5.4.65q1.55 0 2.6 1.1 1.1 1.15 1.1 2.8L8.95 5.9h.1q.85 0 .85.6v.15q0 .7-.8.7M1.7 8h3.65v1.25q0 .6.4.95.35.4.85.4.6 0 .95-.4.4-.35.4-.95V8H9.1q.4 0 .7.3l.3.8-.3.75-.75.35H8.9L8 12.05H4.8v.6h2.95l-2.35 4.8-1.3-2.65h1.5v-.6H3.8l-1.65-3.4h2.4v-.6h-2.8q-.5 0-.75-.35Q.65 9.6.65 9.1L1 8.3q.25-.3.7-.3" fill="#ffffcb"/><path d="M9.1 7.35q.8 0 .8-.7V6.5q0-.6-.85-.6h-.1l.15-1.35q0-1.65-1.1-2.8Q6.95.65 5.4.65t-2.65 1.1q-1.1 1.2-1.1 2.8L1.8 5.9h-.1q-.85 0-.85.6v.15q0 .7.85.7h3.75v-.7q-.55-.15-.95-.6Q4.15 5.6 4.15 5h.6l.3.8q.35.3.8.3H6v3.15q0 .65.6.65.65 0 .65-.65v-1.9H9.1m-8.6.5l.2-.15-.1-.1q-.4-.35-.4-.95V6.5q0-.85.85-1.2L1 4.55q0-1.9 1.3-3.25Q3.55 0 5.4 0q1.8 0 3.1 1.3 1.25 1.35 1.25 3.25l-.05.75q.85.35.85 1.2v.15q0 .6-.4.95l-.05.05.15.2q.5.5.5 1.25 0 .65-.45 1.15l-.95.6L5.4 18.9l-4-8.05q-.6-.15-.95-.6Q0 9.75 0 9.1q0-.75.5-1.25M1.7 8q-.45 0-.7.3l-.35.8q0 .5.35.75.25.35.75.35h2.8v.6h-2.4l1.65 3.4h1.8v.6H4.1l1.3 2.65 2.35-4.8H4.8v-.6H8l.9-1.85h.15l.75-.35.3-.75-.3-.8Q9.5 8 9.1 8H7.95v1.25q0 .6-.4.95-.35.4-.95.4-.5 0-.85-.4-.4-.35-.4-.95V8H1.7" fill="#f5cb5b" fill-opacity=".298"/></g></svg>