<?xml version="1.0" encoding="UTF-8" standalone="no"?>
<svg xmlns:xlink="http://www.w3.org/1999/xlink" height="18.9px" width="10.75px" xmlns="http://www.w3.org/2000/svg">
  <g transform="matrix(1.0, 0.0, 0.0, 1.0, 5.35, 9.45)">
    <path d="M3.75 -2.1 L1.9 -2.1 1.9 -0.2 Q1.9 0.45 1.25 0.45 0.65 0.45 0.65 -0.2 L0.65 -3.35 0.5 -3.35 Q0.05 -3.35 -0.3 -3.65 L-0.6 -4.45 -1.2 -4.45 Q-1.2 -3.85 -0.85 -3.4 -0.45 -2.95 0.1 -2.8 L0.1 -2.1 -3.65 -2.1 Q-4.5 -2.1 -4.5 -2.8 L-4.5 -2.95 Q-4.5 -3.55 -3.65 -3.55 L-3.55 -3.55 -3.7 -4.9 Q-3.7 -6.5 -2.6 -7.7 -1.5 -8.8 0.05 -8.8 1.6 -8.8 2.65 -7.7 3.75 -6.55 3.75 -4.9 L3.6 -3.55 3.7 -3.55 Q4.55 -3.55 4.55 -2.95 L4.55 -2.8 Q4.55 -2.1 3.75 -2.1 M-3.65 -1.45 L0.0 -1.45 0.0 -0.2 Q0.0 0.4 0.4 0.75 0.75 1.15 1.25 1.15 1.85 1.15 2.2 0.75 2.6 0.4 2.6 -0.2 L2.6 -1.45 3.75 -1.45 Q4.15 -1.45 4.45 -1.15 L4.75 -0.35 4.45 0.4 3.7 0.75 3.55 0.75 2.65 2.6 -0.55 2.6 -0.55 3.2 2.4 3.2 0.05 8.0 -1.25 5.35 0.25 5.35 0.25 4.75 -1.55 4.75 -3.2 1.35 -0.8 1.35 -0.8 0.75 -3.6 0.75 Q-4.1 0.75 -4.35 0.4 -4.7 0.15 -4.7 -0.35 L-4.35 -1.15 Q-4.1 -1.45 -3.65 -1.45" fill="#ffffcb" fill-rule="evenodd" stroke="none"/>
    <path d="M3.75 -2.1 Q4.55 -2.1 4.55 -2.8 L4.55 -2.95 Q4.55 -3.55 3.7 -3.55 L3.6 -3.55 3.75 -4.9 Q3.75 -6.55 2.65 -7.7 1.6 -8.8 0.05 -8.8 -1.5 -8.8 -2.6 -7.7 -3.7 -6.5 -3.7 -4.9 L-3.55 -3.55 -3.65 -3.55 Q-4.5 -3.55 -4.5 -2.95 L-4.5 -2.8 Q-4.5 -2.1 -3.65 -2.1 L0.1 -2.1 0.1 -2.8 Q-0.45 -2.95 -0.85 -3.4 -1.2 -3.85 -1.2 -4.45 L-0.6 -4.45 -0.3 -3.65 Q0.05 -3.35 0.5 -3.35 L0.65 -3.35 0.65 -0.2 Q0.65 0.45 1.25 0.45 1.9 0.45 1.9 -0.2 L1.9 -2.1 3.75 -2.1 M-4.85 -1.6 L-4.65 -1.75 -4.75 -1.85 Q-5.15 -2.2 -5.15 -2.8 L-5.15 -2.95 Q-5.15 -3.8 -4.3 -4.15 L-4.35 -4.9 Q-4.35 -6.8 -3.05 -8.15 -1.8 -9.45 0.05 -9.45 1.85 -9.45 3.15 -8.15 4.4 -6.8 4.4 -4.9 L4.35 -4.15 Q5.2 -3.8 5.2 -2.95 L5.2 -2.8 Q5.2 -2.2 4.8 -1.85 L4.75 -1.8 4.9 -1.6 Q5.4 -1.1 5.4 -0.35 5.4 0.3 4.95 0.8 L4.0 1.4 0.05 9.45 -3.95 1.4 Q-4.55 1.25 -4.9 0.8 -5.35 0.3 -5.35 -0.35 -5.35 -1.1 -4.85 -1.6 M-3.65 -1.45 Q-4.1 -1.45 -4.35 -1.15 L-4.7 -0.35 Q-4.7 0.15 -4.35 0.4 -4.1 0.75 -3.6 0.75 L-0.8 0.75 -0.8 1.35 -3.2 1.35 -1.55 4.75 0.25 4.75 0.25 5.35 -1.25 5.35 0.05 8.0 2.4 3.2 -0.55 3.2 -0.55 2.6 2.65 2.6 3.55 0.75 3.7 0.75 4.45 0.4 4.75 -0.35 4.45 -1.15 Q4.15 -1.45 3.75 -1.45 L2.6 -1.45 2.6 -0.2 Q2.6 0.4 2.2 0.75 1.85 1.15 1.25 1.15 0.75 1.15 0.4 0.75 0.0 0.4 0.0 -0.2 L0.0 -1.45 -3.65 -1.45" fill="#f5cb5b" fill-opacity="0.29803923" fill-rule="evenodd" stroke="none"/>
  </g>
</svg>
