<?xml version="1.0" encoding="UTF-8" standalone="no"?>
<svg xmlns:xlink="http://www.w3.org/1999/xlink" height="20.7px" width="21.3px" xmlns="http://www.w3.org/2000/svg">
  <g transform="matrix(1.0, 0.0, 0.0, 1.0, 9.9, 9.8)">
    <path d="M-7.55 -7.9 L-6.2 3.3 Q-7.05 3.4 -7.65 4.05 L-8.4 -8.75 -5.45 -8.75 -5.35 -7.9 -7.55 -7.9 M7.1 3.25 L6.15 3.4 5.25 -0.35 4.15 -3.3 1.8 -3.3 1.9 -3.0 1.7 -3.35 1.7 -1.45 Q2.5 0.9 2.95 4.35 1.8 3.3 0.95 3.25 L0.1 -0.35 -1.0 -3.3 -3.4 -3.3 -3.4 -3.25 -3.45 -3.35 -3.45 -1.45 Q-2.55 1.2 -2.15 5.15 L-2.3 5.35 -2.95 4.7 -2.95 4.75 -4.05 3.75 Q-4.6 3.35 -5.15 3.3 L-6.4 -6.9 6.5 -6.9 7.8 3.35 7.1 3.25 M-1.45 -2.65 L-0.5 -0.1 -0.5 -0.15 0.3 3.3 -0.95 3.8 Q-1.25 1.3 -1.8 -0.75 L-2.45 -2.65 -1.45 -2.65 M9.75 4.75 L9.3 4.35 7.85 -7.9 6.05 -7.9 6.05 -9.15 9.25 -9.15 10.65 5.25 10.3 5.35 9.75 4.75 M4.4 4.8 L4.35 4.8 4.35 4.9 4.3 4.55 Q4.05 1.85 3.45 -0.35 L2.75 -2.65 3.7 -2.65 4.65 -0.1 4.65 -0.15 5.55 3.65 Q4.9 4.05 4.4 4.8 M7.1 3.9 L7.9 4.1 9.25 5.15 9.3 5.2 9.45 5.35 9.5 5.4 10.25 6.05 10.3 6.1 10.75 6.1 10.75 7.2 10.25 7.2 Q9.45 7.15 8.2 5.9 L7.7 5.4 7.15 5.0 7.05 5.0 Q6.7 4.95 6.4 5.3 L6.3 5.4 6.3 5.45 6.1 5.75 6.05 5.75 5.95 5.9 6.0 5.9 Q5.25 7.15 3.95 7.2 3.05 7.15 1.9 5.9 L1.45 5.4 1.2 5.2 0.85 5.0 0.75 5.0 0.55 5.05 Q0.3 5.05 0.05 5.35 L0.0 5.4 -0.3 5.8 -0.3 5.75 -0.4 5.9 -0.35 5.9 Q-1.1 7.15 -2.4 7.2 -3.3 7.15 -4.45 5.9 L-4.9 5.4 -5.5 5.0 -5.6 5.0 -5.95 5.1 -6.35 5.4 -6.6 5.75 -6.65 5.9 Q-7.4 7.15 -8.75 7.2 L-9.15 7.2 -9.15 6.1 -8.75 6.1 Q-8.25 6.1 -7.9 5.45 L-7.75 5.2 -7.7 5.15 -7.6 5.05 Q-7.05 4.15 -6.1 3.95 L-5.6 3.9 -5.1 4.0 Q-4.75 4.05 -4.4 4.3 L-3.4 5.2 -2.45 6.1 -2.25 6.1 -1.5 5.4 -1.55 5.45 -1.4 5.2 -1.35 5.15 -0.9 4.6 Q-0.35 4.05 0.4 3.95 L0.75 3.9 1.05 3.95 Q1.85 4.1 2.9 5.15 L2.95 5.2 3.05 5.3 3.85 6.05 3.95 6.1 4.1 6.1 4.85 5.4 4.85 5.35 4.95 5.1 4.95 5.15 5.65 4.4 Q5.9 4.15 6.25 4.05 L7.1 3.9 M7.1 6.9 Q8.0 6.9 9.25 8.15 L9.3 8.2 10.25 9.05 10.3 9.1 10.75 9.1 10.75 10.2 10.25 10.2 Q9.45 10.15 8.2 8.9 L7.2 8.0 7.1 7.95 7.0 8.0 Q6.65 8.05 6.35 8.4 L6.3 8.45 6.1 8.75 6.05 8.75 5.95 8.9 6.0 8.9 Q5.25 10.15 3.95 10.2 3.05 10.15 1.9 8.9 L0.9 8.0 0.75 8.0 Q0.05 8.05 -0.3 8.8 L-0.3 8.75 -0.4 8.9 -0.35 8.9 Q-1.1 10.15 -2.4 10.2 -3.3 10.15 -4.45 8.9 L-5.45 8.0 -5.55 7.95 -5.7 8.0 -6.55 8.65 -6.6 8.7 -6.65 8.9 Q-7.4 10.15 -8.75 10.2 L-9.15 10.2 -9.15 9.1 -8.75 9.1 Q-8.25 9.1 -7.9 8.45 L-7.75 8.2 -7.7 8.15 Q-6.95 6.9 -5.6 6.9 -5.0 6.9 -4.4 7.3 L-3.4 8.2 -2.45 9.1 -2.25 9.1 -1.5 8.4 -1.55 8.45 -1.4 8.2 -1.35 8.15 Q-0.55 6.9 0.75 6.9 1.65 6.9 2.9 8.15 L2.95 8.2 3.85 9.05 3.95 9.1 4.1 9.1 4.85 8.4 4.85 8.35 4.95 8.1 4.95 8.15 Q5.75 6.9 7.1 6.9" fill="#ffffcb" fill-rule="evenodd" stroke="none"/>
    <path d="M11.4 10.9 L-9.9 10.9 -9.9 5.4 -9.8 5.4 -9.8 -9.75 -4.5 -9.75 -4.5 -7.9 5.4 -7.9 5.4 -9.8 9.85 -9.8 11.35 5.4 11.4 5.4 11.4 10.9 M-7.55 -7.9 L-5.35 -7.9 -5.45 -8.75 -8.4 -8.75 -7.65 4.05 Q-7.05 3.4 -6.2 3.3 L-7.55 -7.9 M7.1 6.9 Q5.75 6.9 4.95 8.15 L4.95 8.1 4.85 8.35 4.85 8.4 4.1 9.1 3.95 9.1 3.85 9.05 2.95 8.2 2.9 8.15 Q1.65 6.9 0.75 6.9 -0.55 6.9 -1.35 8.15 L-1.4 8.2 -1.55 8.45 -1.5 8.4 -2.25 9.1 -2.45 9.1 -3.4 8.2 -4.4 7.3 Q-5.0 6.9 -5.6 6.9 -6.95 6.9 -7.7 8.15 L-7.75 8.2 -7.9 8.45 Q-8.25 9.1 -8.75 9.1 L-9.15 9.1 -9.15 10.2 -8.75 10.2 Q-7.4 10.15 -6.65 8.9 L-6.6 8.7 -6.55 8.65 -5.7 8.0 -5.55 7.95 -5.45 8.0 -4.45 8.9 Q-3.3 10.15 -2.4 10.2 -1.1 10.15 -0.35 8.9 L-0.4 8.9 -0.3 8.75 -0.3 8.8 Q0.05 8.05 0.75 8.0 L0.9 8.0 1.9 8.9 Q3.05 10.15 3.95 10.2 5.25 10.15 6.0 8.9 L5.95 8.9 6.05 8.75 6.1 8.75 6.3 8.45 6.35 8.4 Q6.65 8.05 7.0 8.0 L7.1 7.95 7.2 8.0 8.2 8.9 Q9.45 10.15 10.25 10.2 L10.75 10.2 10.75 9.1 10.3 9.1 10.25 9.05 9.3 8.2 9.25 8.15 Q8.0 6.9 7.1 6.9 M7.1 3.9 L6.25 4.05 Q5.9 4.15 5.65 4.4 L4.95 5.15 4.95 5.1 4.85 5.35 4.85 5.4 4.1 6.1 3.95 6.1 3.85 6.05 3.05 5.3 2.95 5.2 2.9 5.15 Q1.85 4.1 1.05 3.95 L0.75 3.9 0.4 3.95 Q-0.35 4.05 -0.9 4.6 L-1.35 5.15 -1.4 5.2 -1.55 5.45 -1.5 5.4 -2.25 6.1 -2.45 6.1 -3.4 5.2 -4.4 4.3 Q-4.75 4.05 -5.1 4.0 L-5.6 3.9 -6.1 3.95 Q-7.05 4.15 -7.6 5.05 L-7.7 5.15 -7.75 5.2 -7.9 5.45 Q-8.25 6.1 -8.75 6.1 L-9.15 6.1 -9.15 7.2 -8.75 7.2 Q-7.4 7.15 -6.65 5.9 L-6.6 5.75 -6.35 5.4 -5.95 5.1 -5.6 5.0 -5.5 5.0 -4.9 5.4 -4.45 5.9 Q-3.3 7.15 -2.4 7.2 -1.1 7.15 -0.35 5.9 L-0.4 5.9 -0.3 5.75 -0.3 5.8 0.0 5.4 0.05 5.35 Q0.3 5.05 0.55 5.05 L0.75 5.0 0.85 5.0 1.2 5.2 1.45 5.4 1.9 5.9 Q3.05 7.15 3.95 7.2 5.25 7.15 6.0 5.9 L5.95 5.9 6.05 5.75 6.1 5.75 6.3 5.45 6.3 5.4 6.4 5.3 Q6.7 4.95 7.05 5.0 L7.15 5.0 7.7 5.4 8.2 5.9 Q9.45 7.15 10.25 7.2 L10.75 7.2 10.75 6.1 10.3 6.1 10.25 6.05 9.5 5.4 9.45 5.35 9.3 5.2 9.25 5.15 7.9 4.1 7.1 3.9 M4.4 4.8 Q4.9 4.05 5.55 3.65 L4.65 -0.15 4.65 -0.1 3.7 -2.65 2.75 -2.65 3.45 -0.35 Q4.05 1.85 4.3 4.55 L4.35 4.9 4.35 4.8 4.4 4.8 M9.75 4.75 L10.3 5.35 10.65 5.25 9.25 -9.15 6.05 -9.15 6.05 -7.9 7.85 -7.9 9.3 4.35 9.75 4.75 M-1.45 -2.65 L-2.45 -2.65 -1.8 -0.75 Q-1.25 1.3 -0.95 3.8 L0.3 3.3 -0.5 -0.15 -0.5 -0.1 -1.45 -2.65 M7.1 3.25 L7.8 3.35 6.5 -6.9 -6.4 -6.9 -5.15 3.3 Q-4.6 3.35 -4.05 3.75 L-2.95 4.75 -2.95 4.7 -2.3 5.35 -2.15 5.15 Q-2.55 1.2 -3.45 -1.45 L-3.45 -3.35 -3.4 -3.25 -3.4 -3.3 -1.0 -3.3 0.1 -0.35 0.95 3.25 Q1.8 3.3 2.95 4.35 2.5 0.9 1.7 -1.45 L1.7 -3.35 1.9 -3.0 1.8 -3.3 4.15 -3.3 5.25 -0.35 6.15 3.4 7.1 3.25" fill="#f5cb5b" fill-opacity="0.29803923" fill-rule="evenodd" stroke="none"/>
  </g>
</svg>
