<svg height="20.7" width="21.3" xmlns="http://www.w3.org/2000/svg"><g fill-rule="evenodd"><path d="M2.35 1.9L3.7 13.1q-.85.1-1.45.75L1.5 1.05h2.95l.1.85h-2.2M17 13.05l-.95.15-.9-3.75-1.1-2.95H11.7l.1.3-.2-.35v1.9q.8 2.35 1.25 5.8-1.15-1.05-2-1.1L10 9.45 8.9 6.5H6.5v.05l-.05-.1v1.9q.9 2.65 1.3 6.6l-.15.2-.65-.65v.05l-1.1-1q-.55-.4-1.1-.45L3.5 2.9h12.9l1.3 10.25-.7-.1m-8.55-5.9L9.4 9.7v-.05l.8 3.45-1.25.5q-.3-2.5-.85-4.55l-.65-1.9h1m11.2 7.4l-.45-.4L17.75 1.9h-1.8V.65h3.2l1.4 14.4-.35.1-.55-.6m-5.35.05h-.05v.1l-.05-.35q-.25-2.7-.85-4.9l-.7-2.3h.95l.95 2.55v-.05l.9 3.8q-.65.4-1.15 1.15m2.7-.9l.8.2 1.35 1.05.05.05.15.15.05.05.75.65.05.05h.45V17h-.5q-.8-.05-2.05-1.3l-.5-.5-.55-.4h-.1q-.35-.05-.65.3l-.1.1v.05l-.2.3h-.05l-.1.15h.05q-.75 1.25-2.05 1.3-.9-.05-2.05-1.3l-.45-.5-.25-.2-.35-.2h-.1l-.2.05q-.25 0-.5.3l-.05.05-.3.4v-.05l-.1.15h.05Q8.8 16.95 7.5 17q-.9-.05-2.05-1.3L5 15.2l-.6-.4h-.1l-.35.1-.4.3-.25.35-.05.15q-.75 1.25-2.1 1.3h-.4v-1.1h.4q.5 0 .85-.65l.15-.25.05-.05.1-.1q.55-.9 1.5-1.1l.5-.05.5.1q.35.05.7.3l1 .9.95.9h.2l.75-.7-.05.05.15-.25.05-.05.45-.55q.55-.55 1.3-.65l.35-.05.3.05q.8.15 1.85 1.2l.05.05.1.1.8.75.1.05H14l.75-.7v-.05l.1-.25v.05l.7-.75q.25-.25.6-.35l.85-.15m0 3q.9 0 2.15 1.25l.05.05.95.85.05.05h.45V20h-.5q-.8-.05-2.05-1.3l-1-.9-.1-.05-.1.05q-.35.05-.65.4l-.05.05-.2.3h-.05l-.1.15h.05q-.75 1.25-2.05 1.3-.9-.05-2.05-1.3l-1-.9h-.15q-.7.05-1.05.8v-.05l-.1.15h.05Q8.8 19.95 7.5 20q-.9-.05-2.05-1.3l-1-.9-.1-.05-.15.05-.85.65-.05.05-.05.2q-.75 1.25-2.1 1.3h-.4v-1.1h.4q.5 0 .85-.65l.15-.25.05-.05q.75-1.25 2.1-1.25.6 0 1.2.4l1 .9.95.9h.2l.75-.7-.05.05.15-.25.05-.05q.8-1.25 2.1-1.25.9 0 2.15 1.25l.05.05.9.85.1.05H14l.75-.7v-.05l.1-.25v.05q.8-1.25 2.15-1.25" fill="#ffffcb"/><path d="M21.3 20.7H0v-5.5h.1V.05h5.3V1.9h9.9V0h4.45l1.5 15.2h.05v5.5M2.35 1.9h2.2l-.1-.85H1.5l.75 12.8q.6-.65 1.45-.75L2.35 1.9M17 16.7q-1.35 0-2.15 1.25v-.05l-.1.25v.05l-.75.7h-.15l-.1-.05-.9-.85-.05-.05q-1.25-1.25-2.15-1.25-1.3 0-2.1 1.25L8.5 18l-.15.25.05-.05-.75.7h-.2L6.5 18l-1-.9q-.6-.4-1.2-.4-1.35 0-2.1 1.25l-.05.05-.15.25q-.35.65-.85.65h-.4V20h.4q1.35-.05 2.1-1.3l.05-.2.05-.05.85-.65.15-.05.1.05 1 .9Q6.6 19.95 7.5 20q1.3-.05 2.05-1.3H9.5l.1-.15v.05q.35-.75 1.05-.8h.15l1 .9q1.15 1.25 2.05 1.3 1.3-.05 2.05-1.3h-.05l.1-.15H16l.2-.3.05-.05q.3-.35.65-.4l.1-.05.1.05 1 .9q1.25 1.25 2.05 1.3h.5v-1.1h-.45l-.05-.05-.95-.85-.05-.05Q17.9 16.7 17 16.7m0-3l-.85.15q-.35.1-.6.35l-.7.75v-.05l-.1.25v.05l-.75.7h-.15l-.1-.05-.8-.75-.1-.1-.05-.05q-1.05-1.05-1.85-1.2l-.3-.05-.35.05q-.75.1-1.3.65l-.45.55-.05.05-.15.25.05-.05-.75.7h-.2L6.5 15l-1-.9q-.35-.25-.7-.3l-.5-.1-.5.05q-.95.2-1.5 1.1l-.1.1-.05.05-.15.25q-.35.65-.85.65h-.4V17h.4q1.35-.05 2.1-1.3l.05-.15.25-.35.4-.3.35-.1h.1l.6.4.45.5Q6.6 16.95 7.5 17q1.3-.05 2.05-1.3H9.5l.1-.15v.05l.3-.4.05-.05q.25-.3.5-.3l.2-.05h.1l.35.2.25.2.45.5q1.15 1.25 2.05 1.3 1.3-.05 2.05-1.3h-.05l.1-.15H16l.2-.3v-.05l.1-.1q.3-.35.65-.3h.1l.55.4.5.5q1.25 1.25 2.05 1.3h.5v-1.1h-.45l-.05-.05-.75-.65-.05-.05-.15-.15-.05-.05-1.35-1.05-.8-.2m-2.7.9q.5-.75 1.15-1.15l-.9-3.8v.05l-.95-2.55h-.95l.7 2.3q.6 2.2.85 4.9l.05.35v-.1h.05m5.35-.05l.55.6.35-.1-1.4-14.4h-3.2V1.9h1.8l1.45 12.25.45.4m-11.2-7.4h-1l.65 1.9q.55 2.05.85 4.55l1.25-.5-.8-3.45v.05l-.95-2.55m8.55 5.9l.7.1L16.4 2.9H3.5l1.25 10.2q.55.05 1.1.45l1.1 1v-.05l.65.65.15-.2q-.4-3.95-1.3-6.6v-1.9l.05.1V6.5h2.4L10 9.45l.85 3.6q.85.05 2 1.1-.45-3.45-1.25-5.8v-1.9l.2.35-.1-.3h2.35l1.1 2.95.9 3.75.95-.15" fill="#f5cb5b" fill-opacity=".298"/></g></svg>