<?xml version="1.0" encoding="UTF-8" standalone="no"?>
<svg xmlns:xlink="http://www.w3.org/1999/xlink" height="20.3px" width="17.6px" xmlns="http://www.w3.org/2000/svg">
  <g transform="matrix(1.0, 0.0, 0.0, 1.0, 8.8, 10.15)">
    <path d="M5.95 -9.5 Q7.35 -6.75 7.0 -3.65 6.6 -0.5 4.55 1.95 L7.05 1.95 8.15 9.5 2.1 9.5 2.95 3.5 Q0.5 5.25 -2.5 5.55 -5.45 5.85 -8.15 4.6 L-2.2 -1.35 -4.1 -5.5 0.05 -3.6 5.95 -9.5" fill="#ffffcb" fill-rule="evenodd" stroke="none"/>
    <path d="M5.95 -9.5 L0.05 -3.6 -4.1 -5.5 -2.2 -1.35 -8.15 4.6 Q-5.45 5.85 -2.5 5.55 0.5 5.25 2.95 3.5 L2.1 9.5 8.15 9.5 7.05 1.95 4.55 1.95 Q6.6 -0.5 7.0 -3.65 7.35 -6.75 5.95 -9.5 Z" fill="none" stroke="#f5cb5b" stroke-linecap="square" stroke-linejoin="round" stroke-opacity="0.29803923" stroke-width="1.0"/>
  </g>
</svg>
