<svg height="20.3" width="17.6" xmlns="http://www.w3.org/2000/svg"><path d="M14.75.65q1.4 2.75 1.05 5.85-.4 3.15-2.45 5.6h2.5l1.1 7.55H10.9l.85-6Q9.3 15.4 6.3 15.7q-2.95.3-5.65-.95L6.6 8.8 4.7 4.65l4.15 1.9 5.9-5.9" fill="#ffffcb" fill-rule="evenodd"/><path d="M14.75.65l-5.9 5.9-4.15-1.9L6.6 8.8.65 14.75q2.7 1.25 5.65.95 3-.3 5.45-2.05l-.85 6h6.05l-1.1-7.55h-2.5q2.05-2.45 2.45-5.6.35-3.1-1.05-5.85z" fill="none" stroke="#f5cb5b" stroke-linecap="square" stroke-linejoin="round" stroke-opacity=".298"/></svg>