<svg height="21.05" width="21.1" xmlns="http://www.w3.org/2000/svg"><path d="M7.15 16.65l2.3-4.05 1.1.3 1.1-.25 2.3 4q-1.6.9-3.4.9-1.8 0-3.4-.9m-2.7-9.7q.9-1.6 2.45-2.55l2.5 4.35q-1.05.65-1.05 1.9v.05h-4.9v-.25q0-1.9 1-3.5m6.1 2.35q.55 0 .95.4.45.4.45 1l-.45.95q-.4.4-.95.4-.55 0-.95-.4l-.45-.95q0-.6.45-1 .4-.4.95-.4m3.65-4.9q1.55.95 2.5 2.55.95 1.6.95 3.5v.25H12.8v-.05q0-1.25-1.1-1.9l2.5-4.35m2.45.05Q14.1 1.9 10.55 1.9t-6.1 2.55q-2.5 2.5-2.5 6.05t2.5 6.1q2.55 2.5 6.1 2.5t6.1-2.5q2.5-2.55 2.5-6.1t-2.5-6.05m-6.1-3.8q4.1 0 7 2.9 2.9 2.85 2.9 6.95t-2.9 7q-2.9 2.9-7 2.9t-7-2.9q-2.9-2.9-2.9-7t2.9-6.95q2.9-2.9 7-2.9" fill="#ffffcb" fill-rule="evenodd"/><path d="M10.55.65q-4.1 0-7 2.9Q.65 6.4.65 10.5t2.9 7q2.9 2.9 7 2.9t7-2.9q2.9-2.9 2.9-7t-2.9-6.95q-2.9-2.9-7-2.9m6.1 3.8q2.5 2.5 2.5 6.05t-2.5 6.1q-2.55 2.5-6.1 2.5t-6.1-2.5q-2.5-2.55-2.5-6.1t2.5-6.05Q7 1.9 10.55 1.9t6.1 2.55M14.2 4.4l-2.5 4.35q1.1.65 1.1 1.9v.05h4.85v-.25q0-1.9-.95-3.5T14.2 4.4m-3.65 4.9q-.55 0-.95.4-.45.4-.45 1l.45.95q.4.4.95.4.55 0 .95-.4l.45-.95q0-.6-.45-1-.4-.4-.95-.4m-6.1-2.35q-1 1.6-1 3.5v.25h4.9v-.05q0-1.25 1.05-1.9L6.9 4.4q-1.55.95-2.45 2.55m2.7 9.7q1.6.9 3.4.9 1.8 0 3.4-.9l-2.3-4-1.1.25-1.1-.3-2.3 4.05" fill="none" stroke="#f5cb5b" stroke-linecap="square" stroke-miterlimit="3" stroke-opacity=".298"/></svg>