<?xml version="1.0" encoding="UTF-8" standalone="no"?>
<svg xmlns:xlink="http://www.w3.org/1999/xlink" height="21.1px" width="20.6px" xmlns="http://www.w3.org/2000/svg">
  <g transform="matrix(1.0, 0.0, 0.0, 1.0, 10.3, 10.55)">
    <path d="M9.65 -9.9 L9.65 9.9 -9.65 9.9 -9.65 1.7 -5.35 -1.55 -5.35 1.65 -1.1 -1.55 -1.1 1.65 2.95 -1.45 2.95 -9.9 5.6 -9.9 5.6 0.8 7.0 0.8 7.0 -9.9 9.65 -9.9 M1.85 4.1 L-0.75 4.1 -0.75 5.35 1.85 5.35 1.85 4.1 M1.85 6.2 L-0.75 6.2 -0.75 7.45 1.85 7.45 1.85 6.2 M-4.3 5.35 L-1.7 5.35 -1.7 4.1 -4.3 4.1 -4.3 5.35 M-5.25 4.1 L-7.85 4.1 -7.85 5.35 -5.25 5.35 -5.25 4.1 M-5.25 7.45 L-5.25 6.2 -7.85 6.2 -7.85 7.45 -5.25 7.45 M-4.3 7.45 L-1.7 7.45 -1.7 6.2 -4.3 6.2 -4.3 7.45" fill="#ffffcb" fill-rule="evenodd" stroke="none"/>
    <path d="M9.65 -9.9 L9.65 9.9 -9.65 9.9 -9.65 1.7 -5.35 -1.55 -5.35 1.65 -1.1 -1.55 -1.1 1.65 2.95 -1.45 2.95 -9.9 5.6 -9.9 5.6 0.8 7.0 0.8 7.0 -9.9 9.65 -9.9 M1.85 4.1 L-0.75 4.1 -0.75 5.35 1.85 5.35 1.85 4.1 M1.85 6.2 L-0.75 6.2 -0.75 7.45 1.85 7.45 1.85 6.2 M-4.3 5.35 L-1.7 5.35 -1.7 4.1 -4.3 4.1 -4.3 5.35 M-5.25 4.1 L-7.85 4.1 -7.85 5.35 -5.25 5.35 -5.25 4.1 M-5.25 7.45 L-5.25 6.2 -7.85 6.2 -7.85 7.45 -5.25 7.45 M-4.3 7.45 L-1.7 7.45 -1.7 6.2 -4.3 6.2 -4.3 7.45" fill="none" stroke="#f5cb5b" stroke-linecap="square" stroke-linejoin="round" stroke-opacity="0.29803923" stroke-width="1.0"/>
  </g>
</svg>
