<svg height="21.1" width="20.6" xmlns="http://www.w3.org/2000/svg"><path d="M19.95.65v19.8H.65v-8.2L4.95 9v3.2L9.2 9v3.2l4.05-3.1V.65h2.65v10.7h1.4V.65h2.65m-7.8 14h-2.6v1.25h2.6v-1.25m0 2.1h-2.6V18h2.6v-1.25M6 15.9h2.6v-1.25H6v1.25m-.95-1.25h-2.6v1.25h2.6v-1.25m0 3.35v-1.25h-2.6V18h2.6M6 18h2.6v-1.25H6V18" fill="#ffffcb" fill-rule="evenodd"/><path d="M19.95.65v19.8H.65v-8.2L4.95 9v3.2L9.2 9v3.2l4.05-3.1V.65h2.65v10.7h1.4V.65h2.65m-7.8 14h-2.6v1.25h2.6v-1.25m0 2.1h-2.6V18h2.6v-1.25M6 15.9h2.6v-1.25H6v1.25m-.95-1.25h-2.6v1.25h2.6v-1.25m0 3.35v-1.25h-2.6V18h2.6M6 18h2.6v-1.25H6V18" fill="none" stroke="#f5cb5b" stroke-linecap="square" stroke-linejoin="round" stroke-opacity=".298"/></svg>