<?xml version="1.0" encoding="UTF-8" standalone="no"?>
<svg xmlns:xlink="http://www.w3.org/1999/xlink" height="19.95px" width="20.0px" xmlns="http://www.w3.org/2000/svg">
  <g transform="matrix(1.0, 0.0, 0.0, 1.0, 10.0, 9.95)">
    <path d="M0.0 -8.95 Q0.2 -7.9 0.9 -6.65 2.05 -4.6 4.0 -3.5 L0.0 -3.1 -4.05 -3.5 Q-1.15 -5.05 0.0 -8.95 M3.15 -7.25 Q5.9 -5.85 8.85 -4.9 7.95 -4.3 5.95 -3.9 2.1 -5.4 0.35 -8.95 1.55 -8.05 3.15 -7.25 M-3.35 6.5 Q-1.7 7.6 0.25 7.6 2.1 7.6 3.55 6.45 L2.35 4.3 -0.35 4.6 -1.45 4.5 -3.35 6.5 M4.8 1.75 L4.7 1.8 4.65 1.8 4.35 1.65 Q4.3 1.15 3.9 1.15 L3.8 1.15 3.4 1.4 3.3 1.65 3.35 2.1 3.25 3.0 4.0 6.05 4.25 5.8 5.5 5.75 Q4.7 7.0 3.4 7.75 L3.25 7.8 1.75 8.4 0.25 8.55 -1.3 8.4 Q-2.1 8.2 -2.95 7.8 L-3.1 7.75 Q-4.6 7.0 -5.4 5.8 L-4.15 5.85 -3.8 6.15 -2.8 4.05 -2.85 4.05 Q-3.35 3.2 -3.2 2.55 L-2.75 1.85 -2.45 1.65 -0.65 1.85 -0.45 1.85 0.4 1.8 0.9 1.65 1.1 1.2 2.1 0.1 2.8 -0.4 3.65 -0.7 3.7 -0.7 4.0 -0.5 4.6 0.1 5.2 1.3 4.8 1.75 M-3.35 8.4 Q-1.55 9.25 0.25 9.25 2.0 9.25 3.6 8.45 L3.75 8.4 7.1 8.4 8.2 9.35 -8.25 9.35 -7.15 8.4 -3.35 8.4 M0.4 1.05 L-0.45 1.15 -0.45 -1.75 -0.05 -1.75 0.4 -1.75 0.4 1.05 M-8.75 -4.8 Q-5.9 -5.85 -3.2 -7.25 L-0.35 -8.95 Q-2.2 -5.4 -5.95 -3.9 -8.0 -4.3 -8.75 -4.8 M-6.05 2.5 L-6.0 2.2 Q-6.0 1.7 -5.6 1.25 L-5.6 1.3 Q-5.1 0.7 -4.45 0.7 L-3.45 0.9 -3.85 1.3 -4.0 1.3 -4.1 1.3 Q-4.55 1.4 -4.75 1.7 L-4.8 1.7 -5.1 2.4 -6.05 2.5" fill="#ffffcb" fill-rule="evenodd" stroke="none"/>
    <path d="M3.15 -7.25 Q1.55 -8.05 0.35 -8.95 2.1 -5.4 5.95 -3.9 7.95 -4.3 8.85 -4.9 5.9 -5.85 3.15 -7.25 M0.0 -8.95 Q-1.15 -5.05 -4.05 -3.5 L0.0 -3.1 4.0 -3.5 Q2.05 -4.6 0.9 -6.65 0.2 -7.9 0.0 -8.95 M3.65 -1.4 L3.85 -1.35 3.95 -1.35 4.0 -1.3 5.1 -0.35 5.85 1.05 5.95 1.3 5.85 1.5 5.05 2.4 4.7 2.5 4.05 2.3 4.0 3.0 4.45 5.1 6.85 5.05 6.1 6.15 4.7 7.75 7.4 7.75 7.5 7.8 10.0 10.0 -10.0 10.0 -7.5 7.8 -7.4 7.75 -4.5 7.75 -6.0 6.25 -6.8 5.1 -4.1 5.15 -3.6 4.1 Q-4.05 3.2 -3.85 2.4 L-3.7 1.95 -3.9 1.95 -4.3 2.15 -4.4 2.55 -4.25 3.0 -6.55 3.2 -6.7 3.0 -6.65 2.1 -6.1 0.85 Q-5.4 0.1 -4.5 0.05 -3.35 -0.05 -2.7 0.65 L-2.45 0.85 -2.5 0.9 -1.8 1.05 -1.15 1.15 -1.15 -1.75 -5.35 -2.45 Q-7.95 -3.15 -9.45 -4.05 L-9.9 -4.3 -9.5 -5.2 Q-6.45 -6.45 -3.75 -7.8 L-0.05 -9.95 4.0 -7.65 Q6.7 -6.3 9.7 -5.3 L9.9 -4.25 9.55 -4.05 Q8.45 -3.35 5.65 -2.6 L1.1 -1.8 1.1 0.05 1.65 -0.45 Q2.8 -1.4 3.65 -1.4 M4.8 1.75 L5.2 1.3 4.6 0.1 4.0 -0.5 3.7 -0.7 3.65 -0.7 2.8 -0.4 2.1 0.1 1.1 1.2 0.9 1.65 0.4 1.8 -0.45 1.85 -0.65 1.85 -2.45 1.65 -2.75 1.85 -3.2 2.55 Q-3.35 3.2 -2.85 4.05 L-2.8 4.05 -3.8 6.15 -4.15 5.85 -5.4 5.8 Q-4.6 7.0 -3.1 7.75 L-2.95 7.8 Q-2.1 8.2 -1.3 8.4 L0.25 8.55 1.75 8.4 3.25 7.8 3.4 7.75 Q4.7 7.0 5.5 5.75 L4.25 5.8 4.0 6.05 3.25 3.0 3.35 2.1 3.3 1.65 3.4 1.4 3.8 1.15 3.9 1.15 Q4.3 1.15 4.35 1.65 L4.65 1.8 4.7 1.8 4.8 1.75 M-3.35 6.5 L-1.45 4.5 -0.35 4.6 2.35 4.3 3.55 6.45 Q2.1 7.6 0.25 7.6 -1.7 7.6 -3.35 6.5 M0.4 1.05 L0.4 -1.75 -0.05 -1.75 -0.45 -1.75 -0.45 1.15 0.4 1.05 M-3.35 8.4 L-7.15 8.4 -8.25 9.35 8.2 9.35 7.1 8.4 3.75 8.4 3.6 8.45 Q2.0 9.25 0.25 9.25 -1.55 9.25 -3.35 8.4 M-8.75 -4.8 Q-8.0 -4.3 -5.95 -3.9 -2.2 -5.4 -0.35 -8.95 L-3.2 -7.25 Q-5.9 -5.85 -8.75 -4.8 M-6.05 2.5 L-5.1 2.4 -4.8 1.7 -4.75 1.7 Q-4.55 1.4 -4.1 1.3 L-4.0 1.3 -3.85 1.3 -3.45 0.9 -4.45 0.7 Q-5.1 0.7 -5.6 1.3 L-5.6 1.25 Q-6.0 1.7 -6.0 2.2 L-6.05 2.5" fill="#f5cb5b" fill-opacity="0.29803923" fill-rule="evenodd" stroke="none"/>
  </g>
</svg>
