<svg height="19.95" width="20" xmlns="http://www.w3.org/2000/svg"><g fill-rule="evenodd"><path d="M10 1q.2 1.05.9 2.3 1.15 2.05 3.1 3.15l-4 .4-4.05-.4Q8.85 4.9 10 1m3.15 1.7q2.75 1.4 5.7 2.35-.9.6-2.9 1-3.85-1.5-5.6-5.05 1.2.9 2.8 1.7m-6.5 13.75q1.65 1.1 3.6 1.1 1.85 0 3.3-1.15l-1.2-2.15-2.7.3-1.1-.1-1.9 2m8.15-4.75l-.1.05h-.05l-.3-.15q-.05-.5-.45-.5h-.1l-.4.25-.1.25.05.45-.1.9L14 16l.25-.25 1.25-.05q-.8 1.25-2.1 2l-.15.05-1.5.6-1.5.15-1.55-.15q-.8-.2-1.65-.6l-.15-.05q-1.5-.75-2.3-1.95l1.25.05.35.3 1-2.1h-.05q-.5-.85-.35-1.5l.45-.7.3-.2 1.8.2h.2l.85-.05.5-.15.2-.45 1-1.1.7-.5.85-.3h.05l.3.2.6.6.6 1.2-.4.45m-8.15 6.65q1.8.85 3.6.85 1.75 0 3.35-.8l.15-.05h3.35l1.1.95H1.75l1.1-.95h3.8M10.4 11l-.85.1V8.2H10.4V11M1.25 5.15Q4.1 4.1 6.8 2.7L9.65 1Q7.8 4.55 4.05 6.05q-2.05-.4-2.8-.9m2.7 7.3l.05-.3q0-.5.4-.95v.05q.5-.6 1.15-.6l1 .2-.4.4H5.9q-.45.1-.65.4H5.2l-.3.7-.95.1" fill="#ffffcb"/><path d="M13.15 2.7q-1.6-.8-2.8-1.7 1.75 3.55 5.6 5.05 2-.4 2.9-1-2.95-.95-5.7-2.35M10 1Q8.85 4.9 5.95 6.45l4.05.4 4-.4q-1.95-1.1-3.1-3.15-.7-1.25-.9-2.3m3.65 7.55l.2.05h.1l.05.05 1.1.95.75 1.4.1.25-.1.2-.8.9-.35.1-.65-.2-.05.7.45 2.1 2.4-.05-.75 1.1-1.4 1.6h2.7l.1.05 2.5 2.2H0l2.5-2.2.1-.05h2.9L4 16.2l-.8-1.15 2.7.05.5-1.05q-.45-.9-.25-1.7l.15-.45h-.2l-.4.2-.1.4.15.45-2.3.2-.15-.2.05-.9.55-1.25q.7-.75 1.6-.8 1.15-.1 1.8.6l.25.2-.05.05.7.15.65.1V8.2l-4.2-.7q-2.6-.7-4.1-1.6L.1 5.65l.4-.9q3.05-1.25 5.75-2.6L9.95 0 14 2.3q2.7 1.35 5.7 2.35l.2 1.05-.35.2q-1.1.7-3.9 1.45l-4.55.8V10l.55-.5q1.15-.95 2-.95m1.15 3.15l.4-.45-.6-1.2-.6-.6-.3-.2h-.05l-.85.3-.7.5-1 1.1-.2.45-.5.15-.85.05h-.2l-1.8-.2-.3.2-.45.7q-.15.65.35 1.5h.05l-1 2.1-.35-.3-1.25-.05q.8 1.2 2.3 1.95l.15.05q.85.4 1.65.6l1.55.15 1.5-.15 1.5-.6.15-.05q1.3-.75 2.1-2l-1.25.05L14 16l-.75-3.05.1-.9-.05-.45.1-.25.4-.25h.1q.4 0 .45.5l.3.15h.05l.1-.05m-8.15 4.75l1.9-2 1.1.1 2.7-.3 1.2 2.15q-1.45 1.15-3.3 1.15-1.95 0-3.6-1.1M10.4 11V8.2H9.55v2.9l.85-.1m-3.75 7.35h-3.8l-1.1.95H18.2l-1.1-.95h-3.35l-.15.05q-1.6.8-3.35.8-1.8 0-3.6-.85m-5.4-13.2q.75.5 2.8.9Q7.8 4.55 9.65 1L6.8 2.7Q4.1 4.1 1.25 5.15m2.7 7.3l.95-.1.3-.7h.05q.2-.3.65-.4h.25l.4-.4-1-.2q-.65 0-1.15.6v-.05q-.4.45-.4.95l-.05.3" fill="#f5cb5b" fill-opacity=".298"/></g></svg>