<svg height="21.1" width="20.4" xmlns="http://www.w3.org/2000/svg"><path d="M17.3 8.05l-.6.25-.25.55q0 .35.25.6t.6.25l.55-.25.25-.6-.25-.55-.55-.25M11.05 5.8q.85.8.85 1.9 0 .95-.6 1.7t-1.5.95l2.7.3-3.45 1.15Q4.8 13.4.65 15.7v-4.15l2.8-.9 4.75-.35q-.8-.3-1.25-1-.55-.7-.55-1.6 0-1.15.8-1.9.8-.85 1.95-.85t1.9.85m1.2-4.65h-1.7V3.9H13l-.75-2.75m4.95.75h.7v2.45l1.05.1.8 3.3-.35.45h-.15l-.75-1.05q-.55-.4-1.2-.4-.7 0-1.25.4T15.3 8.2h-2.85l.05-.5q0-1.4-1-2.35-.95-1-2.35-1-1.1 0-1.9.6V.65h5.2l1.4 3.25 3.35.3V1.9m-.95 8q-.45-.45-.45-1.05 0-.6.45-1.05.45-.45 1.05-.45.6 0 1.05.45.45.45.45 1.05 0 .6-.45 1.05-.45.45-1.05.45-.6 0-1.05-.45m-.95.9l-3.5 2.8q-4.05 3.5-6.65 6.85H.65v-1.9q4.45-3.6 5.7-4.35 4.25-2.7 8.95-3.4m.55 3.05q-1.7 3.65-2.7 6.6h-4.7q4.4-6.95 8.85-9.65l-1.45 3.05m3.55 6.6h-3.65l1.45-4.7q1.05-3.15 2.2-4.95v9.65M10.1 6.8q-.4-.4-.95-.4-.55 0-.95.4-.35.35-.35.9t.35.95q.4.35.95.35.55 0 .95-.35.35-.4.35-.95 0-.55-.35-.9" fill="#ffffcb" fill-rule="evenodd"/><path d="M17.2 1.9v2.3l-3.35-.3-1.4-3.25h-5.2v4.3q.8-.6 1.9-.6 1.4 0 2.35 1 1 .95 1 2.35l-.05.5h2.85q.2-.65.75-1.05t1.25-.4q.65 0 1.2.4l.75 1.05h.15l.35-.45-.8-3.3-1.05-.1V1.9h-.7m-4.95-.75L13 3.9h-2.45V1.15h1.7m-1.2 4.65q-.75-.85-1.9-.85T7.2 5.8q-.8.75-.8 1.9 0 .9.55 1.6.45.7 1.25 1l-4.75.35-2.8.9v4.15q4.15-2.3 8.4-3.9l3.45-1.15-2.7-.3q.9-.2 1.5-.95t.6-1.7q0-1.1-.85-1.9m6.25 2.25l.55.25.25.55-.25.6-.55.25q-.35 0-.6-.25t-.25-.6l.25-.55.6-.25m2.1 12.4V10.8q-1.15 1.8-2.2 4.95l-1.45 4.7h3.65m-3.55-6.6l1.45-3.05q-4.45 2.7-8.85 9.65h4.7q1-2.95 2.7-6.6m-.55-3.05q-4.7.7-8.95 3.4-1.25.75-5.7 4.35v1.9h4.5q2.6-3.35 6.65-6.85l3.5-2.8" fill="none" stroke="#f5cb5b" stroke-linecap="square" stroke-linejoin="round" stroke-opacity=".298"/></svg>