<?xml version="1.0" encoding="UTF-8" standalone="no"?>
<svg xmlns:xlink="http://www.w3.org/1999/xlink" height="21.1px" width="20.4px" xmlns="http://www.w3.org/2000/svg">
  <g transform="matrix(1.0, 0.0, 0.0, 1.0, 10.2, 10.55)">
    <path d="M7.1 -2.5 L6.5 -2.25 6.25 -1.7 Q6.25 -1.35 6.5 -1.1 6.75 -0.85 7.1 -0.85 L7.65 -1.1 7.9 -1.7 7.65 -2.25 7.1 -2.5 M0.85 -4.75 Q1.7 -3.95 1.7 -2.85 1.7 -1.9 1.1 -1.15 0.5 -0.4 -0.4 -0.2 L2.3 0.1 -1.15 1.25 Q-5.4 2.85 -9.55 5.15 L-9.55 1.0 -6.75 0.1 -2.0 -0.25 Q-2.8 -0.55 -3.25 -1.25 -3.8 -1.95 -3.8 -2.85 -3.8 -4.0 -3.0 -4.75 -2.2 -5.6 -1.05 -5.6 0.1 -5.6 0.85 -4.75 M2.05 -9.4 L0.35 -9.4 0.35 -6.65 2.8 -6.65 2.05 -9.4 M7.0 -8.65 L7.7 -8.65 7.7 -6.2 8.75 -6.1 9.55 -2.8 9.2 -2.35 9.05 -2.35 8.3 -3.4 Q7.75 -3.8 7.1 -3.8 6.4 -3.8 5.85 -3.4 5.3 -3.0 5.1 -2.35 L2.25 -2.35 2.3 -2.85 Q2.3 -4.25 1.3 -5.2 0.35 -6.2 -1.05 -6.2 -2.15 -6.2 -2.95 -5.6 L-2.95 -9.9 2.25 -9.9 3.65 -6.65 7.0 -6.35 7.0 -8.65 M6.05 -0.65 Q5.6 -1.1 5.6 -1.7 5.6 -2.3 6.05 -2.75 6.5 -3.2 7.1 -3.2 7.7 -3.2 8.15 -2.75 8.6 -2.3 8.6 -1.7 8.6 -1.1 8.15 -0.65 7.7 -0.2 7.1 -0.2 6.5 -0.2 6.05 -0.65 M5.1 0.25 L1.6 3.05 Q-2.45 6.55 -5.05 9.9 L-9.55 9.9 -9.55 8.0 Q-5.1 4.4 -3.85 3.65 0.4 0.95 5.1 0.25 M5.65 3.3 Q3.95 6.95 2.95 9.9 L-1.75 9.9 Q2.65 2.95 7.1 0.25 L5.65 3.3 M9.2 9.9 L5.55 9.9 7.0 5.2 Q8.05 2.05 9.2 0.25 L9.2 9.9 M-0.1 -3.75 Q-0.5 -4.15 -1.05 -4.15 -1.6 -4.15 -2.0 -3.75 -2.35 -3.4 -2.35 -2.85 -2.35 -2.3 -2.0 -1.9 -1.6 -1.55 -1.05 -1.55 -0.5 -1.55 -0.1 -1.9 0.25 -2.3 0.25 -2.85 0.25 -3.4 -0.1 -3.75" fill="#ffffcb" fill-rule="evenodd" stroke="none"/>
    <path d="M7.0 -8.65 L7.0 -6.35 3.65 -6.65 2.25 -9.9 -2.95 -9.9 -2.95 -5.6 Q-2.15 -6.2 -1.05 -6.2 0.35 -6.2 1.3 -5.2 2.3 -4.25 2.3 -2.85 L2.25 -2.35 5.1 -2.35 Q5.3 -3.0 5.85 -3.4 6.4 -3.8 7.1 -3.8 7.75 -3.8 8.3 -3.4 L9.05 -2.35 9.2 -2.35 9.55 -2.8 8.75 -6.1 7.7 -6.2 7.7 -8.65 7.0 -8.65 M2.05 -9.4 L2.8 -6.65 0.35 -6.65 0.35 -9.4 2.05 -9.4 M0.85 -4.75 Q0.1 -5.6 -1.05 -5.6 -2.2 -5.6 -3.0 -4.75 -3.8 -4.0 -3.8 -2.85 -3.8 -1.95 -3.25 -1.25 -2.8 -0.55 -2.0 -0.25 L-6.75 0.1 -9.55 1.0 -9.55 5.15 Q-5.4 2.85 -1.15 1.25 L2.3 0.1 -0.4 -0.2 Q0.5 -0.4 1.1 -1.15 1.7 -1.9 1.7 -2.85 1.7 -3.95 0.85 -4.75 M7.1 -2.5 L7.65 -2.25 7.9 -1.7 7.65 -1.1 7.1 -0.85 Q6.75 -0.85 6.5 -1.1 6.25 -1.35 6.25 -1.7 L6.5 -2.25 7.1 -2.5 M9.2 9.9 L9.2 0.25 Q8.05 2.05 7.0 5.2 L5.55 9.9 9.2 9.9 M5.65 3.3 L7.1 0.25 Q2.65 2.95 -1.75 9.9 L2.95 9.9 Q3.95 6.95 5.65 3.3 M5.1 0.25 Q0.4 0.95 -3.85 3.65 -5.1 4.4 -9.55 8.0 L-9.55 9.9 -5.05 9.9 Q-2.45 6.55 1.6 3.05 L5.1 0.25" fill="none" stroke="#f5cb5b" stroke-linecap="square" stroke-linejoin="round" stroke-opacity="0.29803923" stroke-width="1.0"/>
  </g>
</svg>
