<svg height="26" width="26" xmlns="http://www.w3.org/2000/svg"><path d="M11.25 6.4l1.6-1.6L14 4.7l1.55.55 1.4-1.5-.1-.1-.2-.55V3l-.05-.15q-.3-1.3.15-1.85l.15-.25.3-.3.4-.25 1.35-.2 1.1.35L24 4.05l1.6 1.9.1.3.2.35.1.4-.3 1.3-.2.5-.3.3-.25.15-1.8.15-.15-.05h-.1l-.6-.2-.15-.15-1.45 1.4.55 1.55q.25.85-.1 1.15l-1.55 1.6h-2.95l-5.4-5.35V6.4v2.95l5.4 5.35h2.95l-7.9 7.9-2.6 2.6-1.5.8-1.95-.1-.65-.45-.5-.3-3.65-3.7-.35-.55-.4-.6-.1-1.95.8-1.5 2.6-2.6 7.85-7.85M5 25.45l2.85-2.85-4.45-4.5-2.9 2.8 2.9-2.8v-3.85 3.85l4.45 4.5h3.85-3.85L5 25.45" fill="#ffffcb" fill-rule="evenodd" stroke="#f5cb5b" stroke-opacity=".298" stroke-linecap="round" stroke-linejoin="round"/></svg>