<svg height="16.5" width="20.15" xmlns="http://www.w3.org/2000/svg"><path d="M11 12.3V9.5H2.5v2.8H11m6.55-2.8H13.3v2.8h4.25V9.5m1.95-2.15V8.7h-.85v7.15H12.1v-1.7H7.8v1.7H1.45V8.7h-.8V7.35h15.5v-3.1h.8V3.1h-.8v-.55h.8V1.4h-.8V.65h1.1v6.7h2.25" fill="#ffffcb" fill-rule="evenodd"/><path d="M19.5 7.35h-2.25V.65h-1.1v.75h.8v1.15h-.8v.55h.8v1.15h-.8v3.1H.65V8.7h.8v7.15H7.8v-1.7h4.3v1.7h6.55V8.7h.85V7.35M17.55 9.5v2.8H13.3V9.5h4.25M11 12.3H2.5V9.5H11v2.8" fill="none" stroke="#f5cb5b" stroke-linecap="square" stroke-linejoin="round" stroke-opacity=".298"/></svg>