<?xml version="1.0" encoding="UTF-8" standalone="no"?>
<svg xmlns:xlink="http://www.w3.org/1999/xlink" height="16.5px" width="20.15px" xmlns="http://www.w3.org/2000/svg">
  <g transform="matrix(1.0, 0.0, 0.0, 1.0, 10.05, 11.6)">
    <path d="M0.95 0.7 L0.95 -2.1 -7.55 -2.1 -7.55 0.7 0.95 0.7 M7.5 -2.1 L3.25 -2.1 3.25 0.7 7.5 0.7 7.5 -2.1 M9.45 -4.25 L9.45 -2.9 8.6 -2.9 8.6 4.25 2.05 4.25 2.05 2.55 -2.25 2.55 -2.25 4.25 -8.6 4.25 -8.6 -2.9 -9.4 -2.9 -9.4 -4.25 6.1 -4.25 6.1 -7.35 6.9 -7.35 6.9 -8.5 6.1 -8.5 6.1 -9.05 6.9 -9.05 6.9 -10.2 6.1 -10.2 6.1 -10.95 7.2 -10.95 7.2 -4.25 9.45 -4.25" fill="#ffffcb" fill-rule="evenodd" stroke="none"/>
    <path d="M9.45 -4.25 L7.2 -4.25 7.2 -10.95 6.1 -10.95 6.1 -10.2 6.9 -10.2 6.9 -9.05 6.1 -9.05 6.1 -8.5 6.9 -8.5 6.9 -7.35 6.1 -7.35 6.1 -4.25 -9.4 -4.25 -9.4 -2.9 -8.6 -2.9 -8.6 4.25 -2.25 4.25 -2.25 2.55 2.05 2.55 2.05 4.25 8.6 4.25 8.6 -2.9 9.45 -2.9 9.45 -4.25 M7.5 -2.1 L7.5 0.7 3.25 0.7 3.25 -2.1 7.5 -2.1 M0.95 0.7 L-7.55 0.7 -7.55 -2.1 0.95 -2.1 0.95 0.7" fill="none" stroke="#f5cb5b" stroke-linecap="square" stroke-linejoin="round" stroke-opacity="0.29803923" stroke-width="1.0"/>
  </g>
</svg>
