<?xml version="1.0" encoding="UTF-8" standalone="no"?>
<svg xmlns:xlink="http://www.w3.org/1999/xlink" height="19.3px" width="19.3px" xmlns="http://www.w3.org/2000/svg">
  <g transform="matrix(1.0, 0.0, 0.0, 1.0, 10.1, 9.6)">
    <path d="M6.2 6.05 L3.15 3.85 2.9 3.05 6.5 0.05 3.4 1.2 2.8 -0.2 2.0 -0.6 4.3 -2.9 7.25 -3.0 3.85 -3.5 -0.4 -5.15 -2.35 -4.45 -3.15 -4.85 -2.65 -5.75 -0.15 -7.25 -2.95 -6.2 -6.0 -7.05 Q-3.65 -8.95 -0.5 -8.95 3.25 -8.95 5.9 -6.3 8.55 -3.7 8.55 0.0 8.55 3.45 6.2 6.05 M-9.45 0.0 Q-9.45 -4.0 -6.45 -6.7 L-4.4 -5.65 -5.95 -3.25 -7.05 -3.4 -5.95 -2.8 -2.75 -3.0 -1.3 -1.75 -1.9 -3.15 -0.8 -3.3 1.3 -2.6 -0.05 -0.85 -5.95 0.1 0.95 0.6 2.2 1.55 1.15 2.8 -0.7 2.8 0.7 3.8 -2.55 5.5 1.45 4.6 5.7 6.55 Q3.1 9.05 -0.5 9.05 -4.2 9.05 -6.85 6.4 -9.45 3.75 -9.45 0.0" fill="#ffffcb" fill-rule="evenodd" stroke="none"/>
    <path d="M6.2 6.05 L3.15 3.85 2.9 3.05 6.5 0.05 3.4 1.2 2.8 -0.2 2.0 -0.6 4.3 -2.9 7.25 -3.0 3.85 -3.5 -0.4 -5.15 -2.35 -4.45 -3.15 -4.85 -2.65 -5.75 -0.15 -7.25 -2.95 -6.2 -6.0 -7.05 Q-3.65 -8.95 -0.5 -8.95 3.25 -8.95 5.9 -6.3 8.55 -3.7 8.55 0.0 8.55 3.45 6.2 6.05 M-9.45 0.0 Q-9.45 -4.0 -6.45 -6.7 L-4.4 -5.65 -5.95 -3.25 -7.05 -3.4 -5.95 -2.8 -2.75 -3.0 -1.3 -1.75 -1.9 -3.15 -0.8 -3.3 1.3 -2.6 -0.05 -0.85 -5.95 0.1 0.95 0.6 2.2 1.55 1.15 2.8 -0.7 2.8 0.7 3.8 -2.55 5.5 1.45 4.6 5.7 6.55 Q3.1 9.05 -0.5 9.05 -4.2 9.05 -6.85 6.4 -9.45 3.75 -9.45 0.0" fill="none" stroke="#f5cb5b" stroke-linecap="square" stroke-linejoin="round" stroke-opacity="0.49803922" stroke-width="1.0"/>
  </g>
</svg>
