<svg height="19.3" width="19.3" xmlns="http://www.w3.org/2000/svg"><path d="M16.3 15.65l-3.05-2.2-.25-.8 3.6-3-3.1 1.15-.6-1.4-.8-.4 2.3-2.3 2.95-.1-3.4-.5L9.7 4.45l-1.95.7-.8-.4.5-.9 2.5-1.5-2.8 1.05-3.05-.85Q6.45.65 9.6.65q3.75 0 6.4 2.65 2.65 2.6 2.65 6.3 0 3.45-2.35 6.05M.65 9.6q0-4 3-6.7L5.7 3.95l-1.55 2.4-1.1-.15 1.1.6 3.2-.2L8.8 7.85l-.6-1.4 1.1-.15 2.1.7-1.35 1.75-5.9.95 6.9.5 1.25.95-1.05 1.25H9.4l1.4 1-3.25 1.7 4-.9 4.25 1.95q-2.6 2.5-6.2 2.5-3.7 0-6.35-2.65-2.6-2.65-2.6-6.4" fill="#ffffcb" fill-rule="evenodd"/><path d="M16.3 15.65l-3.05-2.2-.25-.8 3.6-3-3.1 1.15-.6-1.4-.8-.4 2.3-2.3 2.95-.1-3.4-.5L9.7 4.45l-1.95.7-.8-.4.5-.9 2.5-1.5-2.8 1.05-3.05-.85Q6.45.65 9.6.65q3.75 0 6.4 2.65 2.65 2.6 2.65 6.3 0 3.45-2.35 6.05M.65 9.6q0-4 3-6.7L5.7 3.95l-1.55 2.4-1.1-.15 1.1.6 3.2-.2L8.8 7.85l-.6-1.4 1.1-.15 2.1.7-1.35 1.75-5.9.95 6.9.5 1.25.95-1.05 1.25H9.4l1.4 1-3.25 1.7 4-.9 4.25 1.95q-2.6 2.5-6.2 2.5-3.7 0-6.35-2.65-2.6-2.65-2.6-6.4" fill="none" stroke="#f5cb5b" stroke-linecap="square" stroke-linejoin="round" stroke-opacity=".498"/></svg>