<svg height="14.45" width="20.25" xmlns="http://www.w3.org/2000/svg"><path d="M12 9.85l-.4.2q.55.2.55.7l-.25.5-.55.25-.55-.25-.25-.5.05-.15-1.4.8.8 1.2q.6.4 1.35.4.9 0 1.6-.7.65-.65.65-1.55l-.2-.9H12M18.05.8l.1-.15.25.15v.05h.05l.35.3.7 1.55q.2.3 0 .4v.35l-.2.05-.15-.1v-.05l-1.9 1.25-2.4 1.5v3.75h-.65l.1.9q0 1.25-.8 2.15-.9.9-2.15.9-1 0-1.75-.5-.75-.55-1.1-1.45l-3.05 1.8H.65v-.85q.2-.6.8-.6.5 0 .8.6h.05l2.05-.65L5.5 10.6l-.65.25q-.35.15-.65-.25l-.2-.45q-.4.05-.6-.35-.25-.35.05-.75l-.2-.45-.05-.4.25-.25Q6.95 6 12.3 3.6L18 1.1v-.05l.05-.25" fill="#ffffcb" fill-rule="evenodd"/><path d="M18.05.8l-.05.25v.05l-5.7 2.5Q6.95 6 3.45 7.95l-.25.25.05.4.2.45q-.3.4-.05.75.2.4.6.35l.2.45q.3.4.65.25l.65-.25-1.15 1.55-2.05.65h-.05q-.3-.6-.8-.6-.6 0-.8.6v.85h4.8l3.05-1.8q.35.9 1.1 1.45.75.5 1.75.5 1.25 0 2.15-.9.8-.9.8-2.15l-.1-.9h.65V6.1l2.4-1.5 1.9-1.25v.05l.15.1.2-.05V3.1q.2-.1 0-.4l-.7-1.55-.35-.3h-.05V.8l-.25-.15-.1.15M12 9.85h1.4l.2.9q0 .9-.65 1.55-.7.7-1.6.7-.75 0-1.35-.4l-.8-1.2 1.4-.8-.05.15.25.5.55.25.55-.25.25-.5q0-.5-.55-.7l.4-.2" fill="none" stroke="#f5cb5b" stroke-linecap="square" stroke-linejoin="round" stroke-opacity=".298"/></svg>