<?xml version="1.0" encoding="UTF-8" standalone="no"?>
<svg xmlns:xlink="http://www.w3.org/1999/xlink" height="14.45px" width="20.25px" xmlns="http://www.w3.org/2000/svg">
  <g transform="matrix(1.0, 0.0, 0.0, 1.0, 10.1, 7.2)">
    <path d="M1.9 2.65 L1.5 2.85 Q2.05 3.05 2.05 3.55 L1.8 4.05 1.25 4.3 0.7 4.05 0.45 3.55 0.5 3.4 -0.9 4.2 -0.1 5.4 Q0.5 5.8 1.25 5.8 2.15 5.8 2.85 5.1 3.5 4.45 3.5 3.55 L3.3 2.65 1.9 2.65 M7.95 -6.4 L8.05 -6.55 8.3 -6.4 8.3 -6.35 8.35 -6.35 8.7 -6.05 9.4 -4.5 Q9.6 -4.2 9.4 -4.1 L9.4 -4.0 9.4 -3.75 9.2 -3.7 9.05 -3.8 9.05 -3.85 7.15 -2.6 4.75 -1.1 4.75 2.65 4.1 2.65 4.2 3.55 Q4.2 4.8 3.4 5.7 2.5 6.6 1.25 6.6 0.25 6.6 -0.5 6.1 -1.25 5.55 -1.6 4.65 L-4.65 6.45 -9.45 6.45 -9.45 5.6 Q-9.25 5.0 -8.65 5.0 -8.15 5.0 -7.85 5.6 L-7.8 5.6 -5.75 4.95 -4.6 3.4 -5.25 3.65 Q-5.6 3.8 -5.9 3.4 L-6.1 2.95 Q-6.5 3.0 -6.7 2.6 -6.95 2.25 -6.65 1.85 L-6.85 1.4 -6.9 1.0 -6.65 0.75 Q-3.15 -1.2 2.2 -3.6 L7.9 -6.1 7.9 -6.15 7.95 -6.4" fill="#ffffcb" fill-rule="evenodd" stroke="none"/>
    <path d="M7.95 -6.4 L7.9 -6.15 7.9 -6.1 2.2 -3.6 Q-3.15 -1.2 -6.65 0.75 L-6.9 1.0 -6.85 1.4 -6.65 1.85 Q-6.95 2.25 -6.7 2.6 -6.5 3.0 -6.1 2.95 L-5.9 3.4 Q-5.6 3.8 -5.25 3.65 L-4.6 3.4 -5.75 4.95 -7.8 5.6 -7.85 5.6 Q-8.15 5.0 -8.65 5.0 -9.25 5.0 -9.45 5.6 L-9.45 6.45 -4.65 6.45 -1.6 4.65 Q-1.25 5.55 -0.5 6.1 0.25 6.6 1.25 6.6 2.5 6.6 3.4 5.7 4.2 4.8 4.2 3.55 L4.1 2.65 4.75 2.65 4.75 -1.1 7.15 -2.6 9.05 -3.85 9.05 -3.8 9.2 -3.7 9.4 -3.75 9.4 -4.0 9.4 -4.1 Q9.6 -4.2 9.4 -4.5 L8.7 -6.05 8.35 -6.35 8.3 -6.35 8.3 -6.4 8.05 -6.55 7.95 -6.4 M1.9 2.65 L3.3 2.65 3.5 3.55 Q3.5 4.45 2.85 5.1 2.15 5.8 1.25 5.8 0.5 5.8 -0.1 5.4 L-0.9 4.2 0.5 3.4 0.45 3.55 0.7 4.05 1.25 4.3 1.8 4.05 2.05 3.55 Q2.05 3.05 1.5 2.85 L1.9 2.65" fill="none" stroke="#f5cb5b" stroke-linecap="square" stroke-linejoin="round" stroke-opacity="0.29803923" stroke-width="1.0"/>
  </g>
</svg>
