<svg height="21.1" width="21.1" xmlns="http://www.w3.org/2000/svg"><path d="M7.6 5.25H6.4V7.6h1.2V5.25m2 0H8.55V7.6H9.6V5.25m-4.2 0H4.3V7.6h1.1V5.25m11.75 11.2h-.3l-2.15.15q-1.2.3-1.2 1.3 0 1.4 3.35 1.05 2.3-.25 2.3-1.25l-.4-.75q-.4-.3-1.05-.45v1.45h-.55v-1.5M12 2.5L17.7.65v14.9q1.55.3 2.2.85.95.8.2 2.2-.35.65-1.85 1.2l-3.3.6q-3.25.15-5.4-.05-2.7-.25-5.25-1.2Q1.35 18.1.75 16.4 0 14.3 3.9 12.75q3.7-1.5 7.2-.3 2 .75 3.3 2l.55.4q.65.45 1.4.55l.8.05V4.25L12 2.5M11.4 5v.25h-.9V7.6h.7v1.65L7.05 8.7l-4.35.5V7.6h.7V5.25h-.9V5h-.3v-.35L6.95 2.7l4.75 1.95V5h-.3" fill="#ffffcb" fill-rule="evenodd"/><path d="M11.4 5h.3v-.35L6.95 2.7 2.2 4.65V5h.3v.25h.9V7.6h-.7v1.6l4.35-.5 4.15.55V7.6h-.7V5.25h.9V5m.6-2.5l5.15 1.75v11.2l-.8-.05q-.75-.1-1.4-.55l-.55-.4q-1.3-1.25-3.3-2-3.5-1.2-7.2.3Q0 14.3.75 16.4q.6 1.7 3.55 2.75 2.55.95 5.25 1.2 2.15.2 5.4.05l3.3-.6q1.5-.55 1.85-1.2.75-1.4-.2-2.2-.65-.55-2.2-.85V.65L12 2.5m5.15 13.95v1.5h.55V16.5q.65.15 1.05.45l.4.75q0 1-2.3 1.25-3.35.35-3.35-1.05 0-1 1.2-1.3l2.15-.15h.3M5.4 5.25V7.6H4.3V5.25h1.1m4.2 0V7.6H8.55V5.25H9.6m-2 0V7.6H6.4V5.25h1.2" fill="none" stroke="#f5cb5b" stroke-linecap="square" stroke-linejoin="round" stroke-opacity=".298"/></svg>