<?xml version="1.0" encoding="UTF-8" standalone="no"?>
<svg xmlns:xlink="http://www.w3.org/1999/xlink" height="21.1px" width="21.1px" xmlns="http://www.w3.org/2000/svg">
  <g transform="matrix(1.0, 0.0, 0.0, 1.0, 10.55, 10.55)">
    <path d="M-2.95 -5.3 L-4.15 -5.3 -4.15 -2.95 -2.95 -2.95 -2.95 -5.3 M-0.95 -5.3 L-2.0 -5.3 -2.0 -2.95 -0.95 -2.95 -0.95 -5.3 M-5.15 -5.3 L-6.25 -5.3 -6.25 -2.95 -5.15 -2.95 -5.15 -5.3 M6.6 5.9 L6.3 5.9 4.15 6.05 Q2.95 6.35 2.95 7.35 2.95 8.75 6.3 8.4 8.6 8.15 8.6 7.15 L8.2 6.4 Q7.8 6.1 7.15 5.95 L7.15 7.4 6.6 7.4 6.6 5.9 M1.45 -8.05 L7.15 -9.9 7.15 5.0 Q8.7 5.3 9.35 5.85 10.3 6.65 9.55 8.05 9.2 8.7 7.7 9.25 L4.4 9.85 Q1.15 10.0 -1.0 9.8 -3.7 9.55 -6.25 8.6 -9.2 7.55 -9.8 5.85 -10.55 3.75 -6.65 2.2 -2.95 0.7 0.55 1.9 2.55 2.65 3.85 3.9 L4.4 4.3 Q5.05 4.75 5.8 4.85 L6.6 4.9 6.6 -6.3 1.45 -8.05 M0.85 -5.55 L0.85 -5.3 -0.05 -5.3 -0.05 -2.95 0.65 -2.95 0.65 -1.3 -3.5 -1.85 -7.85 -1.35 -7.85 -2.95 -7.15 -2.95 -7.15 -5.3 -8.05 -5.3 -8.05 -5.55 -8.35 -5.55 -8.35 -5.9 -3.6 -7.85 1.15 -5.9 1.15 -5.55 0.85 -5.55" fill="#ffffcb" fill-rule="evenodd" stroke="none"/>
    <path d="M0.85 -5.55 L1.15 -5.55 1.15 -5.9 -3.6 -7.85 -8.35 -5.9 -8.35 -5.55 -8.05 -5.55 -8.05 -5.3 -7.15 -5.3 -7.15 -2.95 -7.85 -2.95 -7.85 -1.35 -3.5 -1.85 0.65 -1.3 0.65 -2.95 -0.05 -2.95 -0.05 -5.3 0.85 -5.3 0.85 -5.55 M1.45 -8.05 L6.6 -6.3 6.6 4.9 5.8 4.85 Q5.05 4.75 4.4 4.3 L3.85 3.9 Q2.55 2.65 0.55 1.9 -2.95 0.7 -6.65 2.2 -10.55 3.75 -9.8 5.85 -9.2 7.55 -6.25 8.6 -3.7 9.55 -1.0 9.8 1.15 10.0 4.4 9.85 L7.7 9.25 Q9.2 8.7 9.55 8.05 10.3 6.65 9.35 5.85 8.7 5.3 7.15 5.0 L7.15 -9.9 1.45 -8.05 M6.6 5.9 L6.6 7.4 7.15 7.4 7.15 5.95 Q7.8 6.1 8.2 6.4 L8.6 7.15 Q8.6 8.15 6.3 8.4 2.95 8.75 2.95 7.35 2.95 6.35 4.15 6.05 L6.3 5.9 6.6 5.9 M-5.15 -5.3 L-5.15 -2.95 -6.25 -2.95 -6.25 -5.3 -5.15 -5.3 M-0.95 -5.3 L-0.95 -2.95 -2.0 -2.95 -2.0 -5.3 -0.95 -5.3 M-2.95 -5.3 L-2.95 -2.95 -4.15 -2.95 -4.15 -5.3 -2.95 -5.3" fill="none" stroke="#f5cb5b" stroke-linecap="square" stroke-linejoin="round" stroke-opacity="0.29803923" stroke-width="1.0"/>
  </g>
</svg>
