<?xml version="1.0" encoding="UTF-8" standalone="no"?>
<svg xmlns:xlink="http://www.w3.org/1999/xlink" height="16.7px" width="16.7px" xmlns="http://www.w3.org/2000/svg">
  <g transform="matrix(1.0, 0.0, 0.0, 1.0, 8.35, 6.6)">
    <path d="M2.7 -1.1 L2.7 3.15 4.85 3.15 4.85 -1.1 2.7 -1.1 M2.1 4.3 L-2.15 4.3 -2.15 8.55 2.1 8.55 2.1 4.3 M1.1 -1.1 L-1.1 -1.1 -1.1 3.15 1.1 3.15 1.1 -1.1 M7.7 9.45 L-7.7 9.45 -7.7 -3.05 -0.2 -5.95 7.7 -3.05 7.7 9.45 M-4.9 -1.1 L-4.9 3.15 -2.75 3.15 -2.75 -1.1 -4.9 -1.1" fill="#ffffcb" fill-rule="evenodd" stroke="none"/>
    <path d="M2.7 -1.1 L2.7 3.15 4.85 3.15 4.85 -1.1 2.7 -1.1 M2.1 4.3 L-2.15 4.3 -2.15 8.55 2.1 8.55 2.1 4.3 M1.1 -1.1 L-1.1 -1.1 -1.1 3.15 1.1 3.15 1.1 -1.1 M7.7 9.45 L-7.7 9.45 -7.7 -3.05 -0.2 -5.95 7.7 -3.05 7.7 9.45 M-4.9 -1.1 L-4.9 3.15 -2.75 3.15 -2.75 -1.1 -4.9 -1.1" fill="none" stroke="#f5cb5b" stroke-linecap="square" stroke-linejoin="round" stroke-opacity="0.29803923" stroke-width="1.0"/>
  </g>
</svg>
