<svg height="16.7" width="16.7" xmlns="http://www.w3.org/2000/svg"><path d="M11.05 5.5v4.25h2.15V5.5h-2.15m-.6 5.4H6.2v4.25h4.25V10.9m-1-5.4h-2.2v4.25h2.2V5.5m6.6 10.55H.65V3.55l7.5-2.9 7.9 2.9v12.5M3.45 5.5v4.25H5.6V5.5H3.45" fill="#ffffcb" fill-rule="evenodd"/><path d="M11.05 5.5v4.25h2.15V5.5h-2.15m-.6 5.4H6.2v4.25h4.25V10.9m-1-5.4h-2.2v4.25h2.2V5.5m6.6 10.55H.65V3.55l7.5-2.9 7.9 2.9v12.5M3.45 5.5v4.25H5.6V5.5H3.45" fill="none" stroke="#f5cb5b" stroke-linecap="square" stroke-linejoin="round" stroke-opacity=".298"/></svg>