<svg xmlns="http://www.w3.org/2000/svg" width="128pt" height="128pt" viewBox="0 0 128 128"><g fill-rule="evenodd"><path d="M99.52 30.719H30.559c-6.399 0-9.598 3.203-9.598 9.601V84c0 6.398 3.2 9.602 9.598 9.602h68.96c6.403 0 9.602-3.204 9.602-9.602V40.32c0-6.398-3.2-9.601-9.601-9.601" fill="#f5cb5b" fill-opacity=".298"/><path d="M91.68 34.078c-4.266 0-7.946 1.496-11.04 4.48-2.988 3.094-4.48 6.774-4.48 11.044 0 4.265 1.492 7.89 4.48 10.878 3.094 3.094 6.774 4.641 11.04 4.641 4.265 0 7.894-1.547 10.879-4.64 3.093-2.989 4.64-6.614 4.64-10.88 0-4.269-1.547-7.949-4.64-11.042-2.985-2.985-6.614-4.48-10.88-4.48M75.2 68.64l.961-1.602-.96-1.598-2.4-.64H37.442l-2.402.64-.96 1.598.96 1.602 2.402.64h35.36l2.398-.64m-2.398 6.718H37.44L35.04 76l-.96 1.602.96 1.597 2.402.64h35.36l2.398-.64.961-1.597L75.2 76l-2.4-.64m26.72-44.641c6.402 0 9.601 3.203 9.601 9.601V84c0 6.398-3.2 9.602-9.601 9.602H30.559c-6.399 0-9.598-3.204-9.598-9.602V40.32c0-6.398 3.2-9.601 9.598-9.601h68.96m-73.597 20c0 1.601.586 2.988 1.758 4.16 1.172 1.176 2.558 1.762 4.16 1.762 1.601 0 2.988-.586 4.16-1.762 1.172-1.172 1.762-2.559 1.762-4.16 0-1.598-.59-2.985-1.762-4.16-1.172-1.172-2.559-1.758-4.16-1.758-1.602 0-2.988.586-4.16 1.758-1.172 1.175-1.758 2.562-1.758 4.16m8.156 36.48l.961 1.602 2.402.64h35.36l2.398-.64.961-1.602-.96-1.597-2.4-.641H37.442l-2.402.64-.96 1.598m69.28 2.88c1.176-1.173 1.762-2.56 1.762-4.157 0-1.602-.586-2.988-1.762-4.16C102.188 80.586 100.801 80 99.2 80c-1.597 0-2.984.586-4.16 1.762-1.172 1.172-1.758 2.558-1.758 4.16 0 1.598.586 2.984 1.758 4.156 1.176 1.176 2.563 1.762 4.16 1.762 1.602 0 2.989-.586 4.16-1.762" stroke-width="4" stroke="#f5cb5b" stroke-opacity=".298" fill="#ffffcb"/></g></svg>