<svg height="14.75" width="24.95" xmlns="http://www.w3.org/2000/svg"><path d="M12.55 7.45q.5 0 .5-.5v-2.9q0-.5-.5-.5h-1.5q-.5 0-.5.5v2.9q0 .5.5.5h1.5m3.65 0q.5 0 .5-.5v-2.9q0-.5-.5-.5h-1.5q-.5 0-.5.5v2.9q0 .5.5.5h1.5M3.3 2.7h18.4q.9 0 1.6.85h-.85q-.5 0-.5.5v2.9q0 .5.5.5h1.65l.2-.05-.15 3.75H20.4v-7.1q0-.5-.5-.5h-1.5q-.5 0-.5.5v7.1h-2.85v-.9q0-.5-.5-.5H5.4q-.5 0-.5.5v.9H.85q-.4-4.35.05-6Q1.45 2.7 3.3 2.7M20.2.65V2h-7.35V.65h7.35m3 13.45h-1.05v-2h1.05v2m-10.8-2.7q.55 0 .9.35l.35.9q0 .5-.35.85l-.9.35q-.5 0-.85-.35t-.35-.85q0-.5.35-.9.35-.35.85-.35M6.85 3.55H6.2q-.5 0-.5.5v2.9q0 .5.5.5h.65q.5 0 .5-.5v-2.9q0-.5-.5-.5m-2.65 0h-.7q-.5 0-.5.5v2.9q0 .5.5.5h.7q.5 0 .5-.5v-2.9q0-.5-.5-.5M8 .65V2H5.05V.65H8M7.65 11.4q.5 0 .85.35.35.4.35.9t-.35.85q-.35.35-.85.35t-.9-.35l-.35-.85q0-.5.35-.9.4-.35.9-.35" fill="#ffffcb" fill-rule="evenodd"/><path d="M16.2 7.45h-1.5q-.5 0-.5-.5v-2.9q0-.5.5-.5h1.5q.5 0 .5.5v2.9q0 .5-.5.5m-3.65 0h-1.5q-.5 0-.5-.5v-2.9q0-.5.5-.5h1.5q.5 0 .5.5v2.9q0 .5-.5.5M3.3 2.7h18.4q.9 0 1.6.85h-.85q-.5 0-.5.5v2.9q0 .5.5.5h1.65l.2-.05-.15 3.75H20.4v-7.1q0-.5-.5-.5h-1.5q-.5 0-.5.5v7.1h-2.85v-.9q0-.5-.5-.5H5.4q-.5 0-.5.5v.9H.85q-.4-4.35.05-6Q1.45 2.7 3.3 2.7M20.2.65V2h-7.35V.65h7.35m3 13.45h-1.05v-2h1.05v2m-10.8-2.7q.55 0 .9.35l.35.9q0 .5-.35.85l-.9.35q-.5 0-.85-.35t-.35-.85q0-.5.35-.9.35-.35.85-.35M6.85 3.55H6.2q-.5 0-.5.5v2.9q0 .5.5.5h.65q.5 0 .5-.5v-2.9q0-.5-.5-.5m-2.65 0h-.7q-.5 0-.5.5v2.9q0 .5.5.5h.7q.5 0 .5-.5v-2.9q0-.5-.5-.5M8 .65V2H5.05V.65H8M7.65 11.4q.5 0 .85.35.35.4.35.9t-.35.85q-.35.35-.85.35t-.9-.35l-.35-.85q0-.5.35-.9.4-.35.9-.35" fill="none" stroke="#f5cb5b" stroke-linecap="square" stroke-linejoin="round" stroke-opacity=".298"/></svg>