<?xml version="1.0" encoding="UTF-8" standalone="no"?>
<svg xmlns:xlink="http://www.w3.org/1999/xlink" height="14.75px" width="24.95px" xmlns="http://www.w3.org/2000/svg">
  <g transform="matrix(1.0, 0.0, 0.0, 1.0, 12.45, 7.4)">
    <path d="M0.1 0.05 Q0.6 0.05 0.6 -0.45 L0.6 -3.35 Q0.6 -3.85 0.1 -3.85 L-1.4 -3.85 Q-1.9 -3.85 -1.9 -3.35 L-1.9 -0.45 Q-1.9 0.05 -1.4 0.05 L0.1 0.05 M3.75 0.05 Q4.25 0.05 4.25 -0.45 L4.25 -3.35 Q4.25 -3.85 3.75 -3.85 L2.25 -3.85 Q1.75 -3.85 1.75 -3.35 L1.75 -0.45 Q1.75 0.05 2.25 0.05 L3.75 0.05 M-9.15 -4.7 L9.25 -4.7 Q10.15 -4.7 10.85 -3.85 L10.0 -3.85 Q9.5 -3.85 9.5 -3.35 L9.5 -0.45 Q9.5 0.05 10.0 0.05 L11.65 0.05 11.85 0.0 11.7 3.75 7.95 3.75 7.95 3.65 7.95 -3.35 Q7.95 -3.85 7.45 -3.85 L5.95 -3.85 Q5.45 -3.85 5.45 -3.35 L5.45 3.65 5.45 3.75 2.6 3.75 2.6 2.85 Q2.6 2.35 2.1 2.35 L-7.05 2.35 Q-7.55 2.35 -7.55 2.85 L-7.55 3.75 -11.6 3.75 Q-12.0 -0.6 -11.55 -2.25 -11.0 -4.7 -9.15 -4.7 M7.75 -6.75 L7.75 -5.4 0.4 -5.4 0.4 -6.75 7.75 -6.75 M10.75 6.7 L9.7 6.7 9.7 4.7 10.75 4.7 10.75 6.7 M-0.05 4.0 Q0.5 4.0 0.85 4.35 L1.2 5.25 Q1.2 5.75 0.85 6.1 L-0.05 6.45 Q-0.55 6.45 -0.9 6.1 -1.25 5.75 -1.25 5.25 -1.25 4.75 -0.9 4.35 -0.55 4.0 -0.05 4.0 M-5.6 -3.85 L-6.25 -3.85 Q-6.75 -3.85 -6.75 -3.35 L-6.75 -0.45 Q-6.75 0.05 -6.25 0.05 L-5.6 0.05 Q-5.1 0.05 -5.1 -0.45 L-5.1 -3.35 Q-5.1 -3.85 -5.6 -3.85 M-8.25 -3.85 L-8.95 -3.85 Q-9.45 -3.85 -9.45 -3.35 L-9.45 -0.45 Q-9.45 0.05 -8.95 0.05 L-8.25 0.05 Q-7.75 0.05 -7.75 -0.45 L-7.75 -3.35 Q-7.75 -3.85 -8.25 -3.85 M-4.45 -6.75 L-4.45 -5.4 -7.4 -5.4 -7.4 -6.75 -4.45 -6.75 M-4.8 4.0 Q-4.3 4.0 -3.95 4.35 -3.6 4.75 -3.6 5.25 -3.6 5.75 -3.95 6.1 -4.3 6.45 -4.8 6.45 -5.3 6.45 -5.7 6.1 L-6.05 5.25 Q-6.05 4.75 -5.7 4.35 -5.3 4.0 -4.8 4.0" fill="#ffffcb" fill-rule="evenodd" stroke="none"/>
    <path d="M3.75 0.05 L2.25 0.05 Q1.75 0.05 1.75 -0.45 L1.75 -3.35 Q1.75 -3.85 2.25 -3.85 L3.75 -3.85 Q4.25 -3.85 4.25 -3.35 L4.25 -0.45 Q4.25 0.05 3.75 0.05 M0.1 0.05 L-1.4 0.05 Q-1.9 0.05 -1.9 -0.45 L-1.9 -3.35 Q-1.9 -3.85 -1.4 -3.85 L0.1 -3.85 Q0.6 -3.85 0.6 -3.35 L0.6 -0.45 Q0.6 0.05 0.1 0.05 M-9.15 -4.7 L9.25 -4.7 Q10.15 -4.7 10.85 -3.85 L10.0 -3.85 Q9.5 -3.85 9.5 -3.35 L9.5 -0.45 Q9.5 0.05 10.0 0.05 L11.65 0.05 11.85 0.0 11.7 3.75 7.95 3.75 7.95 3.65 7.95 -3.35 Q7.95 -3.85 7.45 -3.85 L5.95 -3.85 Q5.45 -3.85 5.45 -3.35 L5.45 3.65 5.45 3.75 2.6 3.75 2.6 2.85 Q2.6 2.35 2.1 2.35 L-7.05 2.35 Q-7.55 2.35 -7.55 2.85 L-7.55 3.75 -11.6 3.75 Q-12.0 -0.6 -11.55 -2.25 -11.0 -4.7 -9.15 -4.7 M7.75 -6.75 L7.75 -5.4 0.4 -5.4 0.4 -6.75 7.75 -6.75 M10.75 6.7 L9.7 6.7 9.7 4.7 10.75 4.7 10.75 6.7 M-0.05 4.0 Q0.5 4.0 0.85 4.35 L1.2 5.25 Q1.2 5.75 0.85 6.1 L-0.05 6.45 Q-0.55 6.45 -0.9 6.1 -1.25 5.75 -1.25 5.25 -1.25 4.75 -0.9 4.35 -0.55 4.0 -0.05 4.0 M-5.6 -3.85 L-6.25 -3.85 Q-6.75 -3.85 -6.75 -3.35 L-6.75 -0.45 Q-6.75 0.05 -6.25 0.05 L-5.6 0.05 Q-5.1 0.05 -5.1 -0.45 L-5.1 -3.35 Q-5.1 -3.85 -5.6 -3.85 M-8.25 -3.85 L-8.95 -3.85 Q-9.45 -3.85 -9.45 -3.35 L-9.45 -0.45 Q-9.45 0.05 -8.95 0.05 L-8.25 0.05 Q-7.75 0.05 -7.75 -0.45 L-7.75 -3.35 Q-7.75 -3.85 -8.25 -3.85 M-4.45 -6.75 L-4.45 -5.4 -7.4 -5.4 -7.4 -6.75 -4.45 -6.75 M-4.8 4.0 Q-4.3 4.0 -3.95 4.35 -3.6 4.75 -3.6 5.25 -3.6 5.75 -3.95 6.1 -4.3 6.45 -4.8 6.45 -5.3 6.45 -5.7 6.1 L-6.05 5.25 Q-6.05 4.75 -5.7 4.35 -5.3 4.0 -4.8 4.0" fill="none" stroke="#f5cb5b" stroke-linecap="square" stroke-linejoin="round" stroke-opacity="0.29803923" stroke-width="1.0"/>
  </g>
</svg>
