<?xml version="1.0" encoding="UTF-8" standalone="no"?>
<svg xmlns:xlink="http://www.w3.org/1999/xlink" height="18.7px" width="20.25px" xmlns="http://www.w3.org/2000/svg">
  <g transform="matrix(1.0, 0.0, 0.0, 1.0, 10.1, 9.35)">
    <path d="M-3.45 -0.9 L-0.8 -0.9 -0.8 -3.6 -3.45 -3.6 -3.45 -0.9 M-7.15 -3.6 L-7.15 -0.9 -4.4 -0.9 -4.4 -3.6 -7.15 -3.6 M9.5 -5.35 L8.95 -4.35 8.3 -4.75 8.3 8.7 5.65 8.7 5.65 3.65 2.45 3.65 2.45 8.7 -2.3 8.7 -2.3 3.65 -5.6 3.65 -5.6 8.7 -8.15 8.7 -8.15 -3.4 -8.8 -3.0 -9.45 -3.95 -3.95 -7.45 -1.05 -5.55 4.05 -8.7 9.5 -5.35 M4.55 -3.6 L4.55 -0.9 7.25 -0.9 7.25 -3.6 4.55 -3.6 M0.85 -3.6 L0.85 -0.9 3.55 -0.9 3.55 -3.6 0.85 -3.6" fill="#ffffcb" fill-rule="evenodd" stroke="none"/>
    <path d="M0.85 -3.6 L3.55 -3.6 3.55 -0.9 0.85 -0.9 0.85 -3.6 M4.55 -3.6 L7.25 -3.6 7.25 -0.9 4.55 -0.9 4.55 -3.6 M9.5 -5.35 L4.05 -8.7 -1.05 -5.55 -3.95 -7.45 -9.45 -3.95 -8.8 -3.0 -8.15 -3.4 -8.15 8.7 -5.6 8.7 -5.6 3.65 -2.3 3.65 -2.3 8.7 2.45 8.7 2.45 3.65 5.65 3.65 5.65 8.7 8.3 8.7 8.3 -4.75 8.95 -4.35 9.5 -5.35 M-7.15 -3.6 L-4.4 -3.6 -4.4 -0.9 -7.15 -0.9 -7.15 -3.6 M-3.45 -0.9 L-3.45 -3.6 -0.8 -3.6 -0.8 -0.9 -3.45 -0.9" fill="none" stroke="#f5cb5b" stroke-linecap="square" stroke-linejoin="round" stroke-opacity="0.29803923" stroke-width="1.0"/>
  </g>
</svg>
