<svg height="18.7" width="20.25" xmlns="http://www.w3.org/2000/svg"><path d="M6.65 8.45H9.3v-2.7H6.65v2.7m-3.7-2.7v2.7H5.7v-2.7H2.95M19.6 4l-.55 1-.65-.4v13.45h-2.65V13h-3.2v5.05H7.8V13H4.5v5.05H1.95V5.95l-.65.4-.65-.95 5.5-3.5 2.9 1.9 5.1-3.15L19.6 4m-4.95 1.75v2.7h2.7v-2.7h-2.7m-3.7 0v2.7h2.7v-2.7h-2.7" fill="#ffffcb" fill-rule="evenodd"/><path d="M10.95 5.75h2.7v2.7h-2.7v-2.7m3.7 0h2.7v2.7h-2.7v-2.7M19.6 4L14.15.65 9.05 3.8l-2.9-1.9-5.5 3.5.65.95.65-.4v12.1H4.5V13h3.3v5.05h4.75V13h3.2v5.05h2.65V4.6l.65.4.55-1M2.95 5.75H5.7v2.7H2.95v-2.7m3.7 2.7v-2.7H9.3v2.7H6.65" fill="none" stroke="#f5cb5b" stroke-linecap="square" stroke-linejoin="round" stroke-opacity=".298"/></svg>