<?xml version="1.0" encoding="UTF-8"?>
<svg xmlns="http://www.w3.org/2000/svg" xmlns:xlink="http://www.w3.org/1999/xlink" width="128pt" height="128pt" viewBox="0 0 128 128" version="1.1">
<g id="surface1">
<rect x="0" y="0" width="128" height="128" style="fill:rgb(40%,40%,40%);fill-opacity:1;stroke:none;"/>
<path style=" stroke:none;fill-rule:nonzero;fill:rgb(100%,100%,100%);fill-opacity:1;" d="M 91.679688 34.078125 C 87.414062 34.078125 83.734375 35.574219 80.640625 38.558594 C 77.652344 41.652344 76.160156 45.332031 76.160156 49.601562 C 76.160156 53.867188 77.652344 57.492188 80.640625 60.480469 C 83.734375 63.574219 87.414062 65.121094 91.679688 65.121094 C 95.945312 65.121094 99.574219 63.574219 102.558594 60.480469 C 105.652344 57.492188 107.199219 53.867188 107.199219 49.601562 C 107.199219 45.332031 105.652344 41.652344 102.558594 38.558594 C 99.574219 35.574219 95.945312 34.078125 91.679688 34.078125 M 75.199219 68.640625 L 76.160156 67.039062 L 75.199219 65.441406 L 72.800781 64.800781 L 37.441406 64.800781 L 35.039062 65.441406 L 34.078125 67.039062 L 35.039062 68.640625 L 37.441406 69.28125 L 72.800781 69.28125 L 75.199219 68.640625 M 72.800781 75.359375 L 37.441406 75.359375 L 35.039062 76 L 34.078125 77.601562 L 35.039062 79.199219 L 37.441406 79.839844 L 72.800781 79.839844 L 75.199219 79.199219 L 76.160156 77.601562 L 75.199219 76 L 72.800781 75.359375 M 99.519531 30.71875 C 105.921875 30.71875 109.121094 33.921875 109.121094 40.320312 L 109.121094 84 C 109.121094 90.398438 105.921875 93.601562 99.519531 93.601562 L 30.558594 93.601562 C 24.160156 93.601562 20.960938 90.398438 20.960938 84 L 20.960938 40.320312 C 20.960938 33.921875 24.160156 30.71875 30.558594 30.71875 L 99.519531 30.71875 M 25.921875 50.71875 C 25.921875 52.320312 26.507812 53.707031 27.679688 54.878906 C 28.851562 56.054688 30.238281 56.640625 31.839844 56.640625 C 33.441406 56.640625 34.828125 56.054688 36 54.878906 C 37.171875 53.707031 37.761719 52.320312 37.761719 50.71875 C 37.761719 49.121094 37.171875 47.734375 36 46.558594 C 34.828125 45.386719 33.441406 44.800781 31.839844 44.800781 C 30.238281 44.800781 28.851562 45.386719 27.679688 46.558594 C 26.507812 47.734375 25.921875 49.121094 25.921875 50.71875 M 34.078125 87.199219 L 35.039062 88.800781 L 37.441406 89.441406 L 72.800781 89.441406 L 75.199219 88.800781 L 76.160156 87.199219 L 75.199219 85.601562 L 72.800781 84.960938 L 37.441406 84.960938 L 35.039062 85.601562 L 34.078125 87.199219 M 103.359375 90.078125 C 104.535156 88.90625 105.121094 87.519531 105.121094 85.921875 C 105.121094 84.320312 104.535156 82.933594 103.359375 81.761719 C 102.1875 80.585938 100.800781 80 99.199219 80 C 97.601562 80 96.214844 80.585938 95.039062 81.761719 C 93.867188 82.933594 93.28125 84.320312 93.28125 85.921875 C 93.28125 87.519531 93.867188 88.90625 95.039062 90.078125 C 96.214844 91.253906 97.601562 91.839844 99.199219 91.839844 C 100.800781 91.839844 102.1875 91.253906 103.359375 90.078125 "/>
<path style="fill:none;stroke-width:1;stroke-linecap:butt;stroke-linejoin:miter;stroke:rgb(100%,100%,100%);stroke-opacity:1;stroke-miterlimit:4;" d="M 31.399854 9.599609 L 9.849561 9.599609 C 7.850049 9.599609 6.850293 10.600586 6.850293 12.600098 L 6.850293 26.25 C 6.850293 28.249512 7.850049 29.250488 9.849561 29.250488 L 31.399854 29.250488 C 33.400586 29.250488 34.400342 28.249512 34.400342 26.25 L 34.400342 12.600098 C 34.400342 10.600586 33.400586 9.599609 31.399854 9.599609 " transform="matrix(3.2,0,0,3.2,-0.96,0)"/>
</g>
</svg>
