<?xml version="1.0" encoding="UTF-8"?>
<svg xmlns="http://www.w3.org/2000/svg" xmlns:xlink="http://www.w3.org/1999/xlink" width="128pt" height="128pt" viewBox="0 0 128 128" version="1.1">
<g id="surface1">
<path style=" stroke:none;fill-rule:nonzero;fill:rgb(100%,100%,100%);fill-opacity:1;" d="M 64 47.832031 C 59.507812 47.832031 55.691406 49.402344 52.546875 52.546875 C 49.402344 55.691406 47.832031 59.507812 47.832031 64 C 47.832031 68.492188 49.402344 72.308594 52.546875 75.453125 C 55.691406 78.597656 59.507812 80.167969 64 80.167969 C 68.492188 80.167969 72.308594 78.597656 75.453125 75.453125 C 78.597656 72.308594 80.167969 68.492188 80.167969 64 C 80.167969 59.507812 78.597656 55.691406 75.453125 52.546875 C 72.308594 49.402344 68.492188 47.832031 64 47.832031 M 89.601562 20.546875 L 101.390625 10.777344 L 117.222656 26.609375 L 107.453125 38.398438 L 112.84375 51.535156 L 128 52.882812 L 128 75.117188 L 112.84375 76.464844 L 107.453125 89.601562 L 117.222656 101.390625 L 101.390625 117.222656 L 89.601562 107.117188 L 76.464844 112.84375 L 75.117188 128 L 52.882812 128 L 51.535156 112.84375 L 38.398438 107.117188 L 26.609375 117.222656 L 10.777344 101.390625 L 20.882812 89.601562 L 15.15625 76.464844 L 0 75.117188 L 0 52.882812 L 15.15625 51.535156 L 20.882812 38.398438 L 10.777344 26.609375 L 26.609375 10.777344 L 38.398438 20.546875 L 51.535156 15.15625 L 52.882812 0 L 75.117188 0 L 76.464844 15.15625 L 89.601562 20.546875 "/>
</g>
</svg>
