<?xml version='1.0' encoding='UTF-8'?>
<svg xmlns:xlink="http://www.w3.org/1999/xlink" xmlns="http://www.w3.org/2000/svg" version="1.1" width="515px" height="486px" viewBox="-229.753318786 -237.786651611 515.413302612 486.399971008"><defs><g id="c164"><path fill="#ffffff" stroke="none" d="M-8.6 10.7 Q-9.15 10.05 -10.05 10.85 -10.8 11.65 -10.2 12.25 -9.55 12.85 -8.8 12.1 -8.0 11.3 -8.6 10.7 M2.65 -2.5 L5.8 -5.65 Q5.0 -7.85 5.3 -9.3 5.7 -10.95 6.65 -11.85 7.65 -12.9 9.2 -13.25 10.7 -13.55 12.25 -12.9 L9.7 -10.4 10.45 -8.05 12.7 -7.35 15.25 -9.9 Q15.9 -8.45 15.6 -6.95 15.3 -5.45 14.25 -4.4 13.25 -3.4 11.6 -3.0 10.0 -2.7 8.0 -3.5 L4.85 -0.35 14.85 9.65 11.5 13.0 1.5 3.0 -7.15 11.35 Q-7.2 12.2 -7.85 12.9 -8.6 13.6 -9.55 13.65 -10.5 13.7 -11.1 13.1 -11.7 12.55 -11.7 11.55 -11.65 10.65 -10.9 9.85 -10.2 9.15 -9.25 9.05 L-0.65 0.8 -7.2 -5.7 -10.85 -2.1 -11.15 -2.05 -14.3 -5.25 -14.25 -5.55 -7.3 -12.5 Q-5.25 -12.9 -3.7 -13.45 L0.0 -14.8 0.9 -13.85 -3.85 -9.05 2.65 -2.5"/></g></defs><g><g><use transform="matrix(17.0666656494,0.0,0.0,17.0666656494,14.3,14.8)" xlink:href="#c164"/></g></g></svg>