<?xml version="1.0" encoding="UTF-8"?>
<svg xmlns="http://www.w3.org/2000/svg" xmlns:xlink="http://www.w3.org/1999/xlink" width="128pt" height="310pt" viewBox="0 0 128 310" version="1.1">
<g id="surface1">
<path style=" stroke:none;fill-rule:nonzero;fill:rgb(100%,100%,100%);fill-opacity:1;" d="M 128 282.0625 L 128 288.992188 C 128 294.539062 121.582031 299.425781 108.75 303.648438 C 95.917969 307.742188 81.035156 309.789062 64.097656 309.789062 L 63.902344 309.789062 C 46.835938 309.789062 31.949219 307.742188 19.25 303.648438 C 6.417969 299.425781 0 294.539062 0 288.992188 L 0 282.0625 C 3.703125 285.757812 9.460938 288.925781 17.265625 291.566406 C 25.070312 294.207031 34.066406 296.058594 44.253906 297.113281 L 63.902344 298.105469 L 83.746094 297.113281 C 93.933594 296.058594 102.929688 294.207031 110.734375 291.566406 C 118.539062 288.925781 124.296875 285.757812 128 282.0625 M 100.21875 272.949219 L 100.019531 271.960938 L 101.40625 270.175781 C 102.070312 268.855469 102.53125 264.367188 102.796875 256.707031 C 110.601562 258.6875 116.753906 261.132812 121.253906 264.035156 C 125.75 266.941406 128 269.914062 128 272.949219 C 128 276.382812 125.289062 279.617188 119.863281 282.65625 C 116.953125 284.769531 111.394531 286.878906 103.195312 288.992188 L 88.90625 291.964844 L 63.902344 293.746094 C 46.835938 293.746094 31.949219 291.699219 19.25 287.605469 C 6.417969 283.382812 0 278.496094 0 272.949219 C 0 270.042969 1.984375 267.273438 5.953125 264.628906 C 9.789062 261.859375 15.214844 259.480469 22.226562 257.5 L 22.226562 261.460938 C 16.933594 263.707031 13.363281 265.554688 11.511719 267.007812 C 9.65625 268.460938 8.796875 269.914062 8.929688 271.363281 C 9.195312 272.816406 10.453125 273.941406 12.699219 274.730469 L 21.433594 276.515625 L 23.21875 276.515625 L 33.933594 275.128906 L 36.910156 274.136719 L 38.5 275.328125 L 38.699219 275.523438 L 40.878906 275.523438 C 44.71875 275.523438 47.230469 274.535156 48.421875 272.554688 L 49.8125 268.195312 L 51.597656 265.621094 C 51.597656 263.375 52.058594 259.019531 52.984375 252.546875 L 68.863281 252.351562 L 70.449219 258.292969 L 70.449219 258.6875 C 72.699219 267.007812 74.816406 271.894531 76.800781 273.34375 C 76.800781 276.117188 77.261719 278.296875 78.1875 279.882812 L 81.960938 284.238281 C 84.078125 286.089844 86.257812 287.34375 88.507812 288.003906 L 93.074219 287.804688 C 97.175781 287.539062 99.6875 285.429688 100.613281 281.464844 C 101.277344 278.695312 101.144531 275.855469 100.21875 272.949219 M 32.347656 177.28125 L 37.902344 177.28125 L 53.78125 176.09375 L 53.976562 176.09375 C 63.503906 183.753906 75.210938 187.914062 89.105469 188.574219 C 89.367188 192.535156 90.757812 200.324219 93.269531 211.945312 L 93.46875 213.132812 L 93.867188 214.320312 L 93.867188 214.914062 L 96.445312 226.996094 C 97.902344 235.710938 98.628906 244.957031 98.628906 254.726562 L 97.636719 268.195312 L 96.25 269.382812 L 89.105469 271.363281 L 89.105469 270.96875 L 88.113281 271.5625 L 85.332031 271.5625 L 84.539062 271.363281 L 83.746094 271.363281 L 82.953125 271.167969 L 82.554688 271.167969 L 82.355469 270.96875 L 82.15625 270.96875 L 81.960938 271.363281 L 81.960938 270.96875 L 81.761719 270.769531 L 81.164062 270.769531 L 80.96875 270.574219 L 80.570312 270.375 L 79.777344 270.175781 C 78.1875 269.648438 76.46875 265.488281 74.617188 257.699219 L 74.617188 257.5 L 72.433594 249.578125 L 62.710938 225.015625 L 63.304688 225.214844 L 61.917969 223.035156 L 62.113281 223.035156 L 61.519531 222.441406 L 56.359375 212.339844 C 55.960938 211.679688 55.300781 211.351562 54.375 211.351562 L 53.382812 211.546875 C 52.855469 211.8125 52.523438 212.207031 52.390625 212.738281 L 52.589844 214.320312 L 57.550781 223.828125 C 54.242188 232.28125 51.925781 238.882812 50.605469 243.636719 C 48.882812 250.371094 47.828125 257.433594 47.429688 264.828125 L 45.046875 264.828125 C 39.492188 264.828125 34.132812 264.035156 28.972656 262.453125 L 26.394531 261.460938 L 27.980469 232.542969 C 29.171875 221.1875 30.757812 210.03125 32.746094 199.070312 L 33.339844 190.355469 L 32.347656 177.28125 M 28.773438 148.363281 L 29.171875 148.5625 L 25.601562 150.148438 L 22.625 149.15625 L 21.433594 149.15625 L 21.035156 148.957031 L 20.640625 148.957031 L 20.042969 149.15625 L 19.25 148.957031 L 22.226562 147.375 L 24.804688 147.175781 C 26.527344 147.175781 27.847656 147.574219 28.773438 148.363281 M 75.808594 145.988281 L 75.609375 145.988281 L 74.617188 147.175781 L 74.21875 148.363281 L 74.417969 148.957031 C 74.683594 150.015625 75.410156 150.542969 76.601562 150.542969 L 77.394531 150.34375 L 77.59375 150.34375 L 77.59375 150.148438 L 82.554688 149.15625 C 84.40625 149.15625 86.0625 149.683594 87.515625 150.742188 L 89.105469 152.921875 C 87.382812 151.996094 85.464844 151.535156 83.347656 151.535156 L 78.1875 152.722656 L 77.992188 152.722656 L 77.195312 153.710938 L 76.800781 154.902344 L 77 155.691406 L 77 156.089844 L 79.179688 157.078125 L 80.171875 156.882812 L 80.371094 156.683594 L 83.148438 156.289062 C 84.605469 156.289062 86.128906 156.683594 87.714844 157.476562 C 89.300781 158.398438 90.097656 159.457031 90.097656 160.644531 L 87.914062 160.050781 L 87.515625 160.050781 L 83.746094 159.457031 C 81.894531 159.457031 80.042969 160.050781 78.1875 161.238281 L 76.402344 163.417969 C 74.550781 165.664062 72.039062 166.917969 68.863281 167.179688 C 67.40625 166.125 66.347656 164.671875 65.6875 162.824219 L 65.089844 158.070312 C 65.089844 155.429688 65.289062 153.910156 65.6875 153.515625 L 70.449219 146.976562 L 73.625 145.195312 C 76.535156 143.875 79.117188 143.214844 81.363281 143.214844 L 83.546875 143.609375 L 84.738281 144.601562 L 82.753906 144.402344 C 79.84375 144.402344 77.527344 144.929688 75.808594 145.988281 M 41.476562 146.582031 L 41.476562 146.78125 L 39.691406 146.78125 L 32.347656 147.574219 L 32.746094 146.582031 L 31.949219 145.195312 C 30.363281 143.609375 28.046875 142.820312 25.003906 142.820312 L 23.617188 142.820312 L 24.210938 142.621094 L 24.804688 142.222656 L 27.78125 141.828125 C 29.898438 141.828125 31.816406 142.421875 33.539062 143.609375 L 34.925781 144.207031 L 36.714844 143.414062 L 37.308594 141.828125 L 36.910156 140.640625 L 36.910156 140.441406 L 36.714844 140.242188 C 34.992188 138.921875 32.875 138.066406 30.363281 137.667969 L 30.957031 137.472656 L 31.554688 137.472656 L 36.515625 138.859375 L 40.683594 142.222656 L 41.476562 146.582031 M 56.757812 133.3125 L 60.128906 133.507812 C 63.835938 133.507812 67.140625 132.652344 70.050781 130.933594 C 73.09375 129.351562 75.144531 127.105469 76.203125 124.199219 C 80.304688 125.257812 84.273438 126.773438 88.113281 128.757812 L 88.308594 128.953125 L 98.828125 135.292969 C 102.269531 137.800781 105.3125 140.773438 107.957031 144.207031 C 111.132812 148.296875 113.25 153.515625 114.308594 159.851562 C 115.496094 166.71875 115.035156 172.726562 112.917969 177.875 C 110.933594 179.859375 108.023438 181.441406 104.1875 182.628906 L 92.875 184.414062 C 83.746094 184.414062 75.808594 183.027344 69.058594 180.253906 C 65.753906 178.800781 62.445312 176.953125 59.136719 174.707031 L 67.273438 171.933594 L 68.464844 171.539062 L 68.664062 171.339844 L 75.210938 169.359375 L 79.578125 165.992188 L 79.777344 165.992188 L 80.96875 164.605469 C 81.894531 163.945312 82.820312 163.617188 83.746094 163.617188 L 86.722656 164.210938 L 86.921875 164.210938 L 90.292969 164.804688 L 91.683594 164.605469 L 92.875 164.011719 C 96.578125 164.539062 99.289062 165.792969 101.011719 167.777344 L 102.597656 168.371094 L 103.988281 167.972656 L 104.582031 166.585938 L 104.1875 165.003906 C 101.804688 162.492188 98.496094 160.84375 94.261719 160.050781 L 93.46875 157.277344 L 93.867188 155.691406 C 94.261719 152.65625 93.140625 150.015625 90.492188 147.769531 L 90.492188 145.789062 C 89.039062 142.886719 87.382812 140.96875 85.53125 140.046875 L 81.363281 139.054688 C 78.320312 139.054688 75.144531 139.78125 71.839844 141.234375 L 67.671875 143.808594 L 67.273438 144.207031 L 62.710938 150.34375 L 45.644531 147.175781 L 45.644531 146.382812 L 44.652344 140.640625 L 44.453125 140.242188 L 44.453125 140.046875 L 44.253906 139.847656 L 38.5 135.292969 C 36.117188 133.972656 33.800781 133.3125 31.554688 133.3125 L 29.964844 133.3125 C 28.113281 133.707031 26.0625 134.894531 23.8125 136.875 L 20.835938 139.648438 C 19.25 140.707031 17.992188 142.160156 17.066406 144.007812 L 16.273438 146.1875 L 14.882812 148.957031 C 14.488281 150.675781 15.015625 151.929688 16.472656 152.722656 L 20.042969 153.316406 L 21.035156 153.316406 L 23.8125 153.910156 L 24.011719 153.910156 L 24.609375 154.109375 L 24.804688 154.109375 L 25.996094 154.503906 L 26.789062 154.109375 C 30.757812 152.128906 35.523438 151.136719 41.078125 151.136719 L 42.070312 151.136719 C 47.628906 151.269531 53.976562 152.324219 61.121094 154.308594 C 60.59375 157.738281 60.792969 161.042969 61.71875 164.210938 C 62.378906 166.058594 63.238281 167.511719 64.296875 168.566406 C 57.550781 171.605469 48.753906 173.125 37.902344 173.125 L 30.164062 172.925781 C 17.992188 170.679688 10.714844 167.511719 8.335938 163.417969 L 8.136719 163.417969 C 7.210938 159.984375 7.277344 156.023438 8.335938 151.535156 C 9.394531 147.835938 10.980469 144.335938 13.097656 141.035156 C 16.273438 136.941406 20.175781 133.3125 24.804688 130.140625 C 29.570312 127.105469 34.398438 124.992188 39.292969 123.804688 L 45.445312 125.785156 C 47.03125 129.746094 50.804688 132.253906 56.757812 133.3125 M 53.582031 108.355469 C 53.714844 107.429688 53.382812 106.574219 52.589844 105.78125 C 51.796875 104.988281 50.871094 104.589844 49.8125 104.589844 L 42.070312 103.601562 C 40.484375 103.734375 39.492188 104.261719 39.09375 105.1875 C 38.699219 106.242188 39.09375 107.234375 40.285156 108.15625 L 42.863281 110.535156 C 44.585938 111.589844 46.636719 112.117188 49.015625 112.117188 L 49.8125 112.117188 C 52.324219 111.855469 53.582031 110.601562 53.582031 108.355469 M 60.527344 54.28125 L 60.527344 53.886719 L 60.328125 53.6875 L 60.128906 53.6875 L 59.335938 53.09375 L 58.941406 53.09375 C 57.617188 53.09375 56.492188 53.753906 55.566406 55.074219 L 55.367188 55.273438 L 51.199219 61.414062 L 43.460938 69.535156 C 42.003906 70.984375 41.742188 72.570312 42.667969 74.289062 L 45.84375 80.625 L 49.214844 82.804688 L 50.40625 82.804688 L 51.796875 82.40625 L 53.78125 81.023438 C 54.308594 80.363281 54.308594 79.4375 53.78125 78.25 L 51 73.691406 L 51.199219 72.503906 L 55.765625 65.96875 L 60.527344 57.253906 L 60.527344 54.28125 M 76.800781 54.875 C 75.476562 54.875 74.21875 55.535156 73.03125 56.855469 C 71.972656 58.046875 71.308594 59.628906 71.046875 61.609375 C 70.648438 63.722656 70.78125 65.636719 71.441406 67.355469 C 72.101562 68.9375 73.160156 69.796875 74.617188 69.929688 L 75.410156 69.929688 C 78.1875 69.664062 79.910156 67.421875 80.570312 63.195312 C 80.96875 60.289062 80.570312 58.046875 79.378906 56.460938 L 76.800781 54.875 M 31.949219 81.21875 L 31.949219 81.023438 L 31.75 81.023438 L 29.964844 80.230469 L 29.171875 80.230469 L 28.179688 80.824219 L 27.980469 81.023438 L 27.78125 81.417969 L 25.796875 92.90625 L 25.601562 93.5 L 28.179688 94.292969 L 28.578125 94.292969 L 30.5625 92.507812 C 35.457031 97.792969 40.945312 101.160156 47.03125 102.609375 L 51.199219 103.007812 L 53.183594 103.007812 C 58.210938 102.609375 64.097656 100.960938 70.847656 98.054688 L 72.234375 101.820312 C 72.765625 103.140625 73.625 103.800781 74.816406 103.800781 L 75.015625 103.800781 L 77.195312 101.820312 L 77.394531 101.621094 L 77.195312 101.421875 L 71.242188 83.992188 L 71.242188 83.597656 L 70.648438 83.597656 L 69.058594 83.199219 L 68.863281 83.199219 L 67.273438 83.992188 L 67.074219 84.390625 L 66.878906 84.585938 L 66.878906 86.371094 L 67.273438 89.140625 L 66.878906 89.339844 L 51 90.527344 L 47.628906 90.332031 C 45.246094 90.066406 41.9375 89.078125 37.707031 87.359375 L 31.949219 84.984375 L 31.75 84.785156 L 32.347656 83.003906 L 32.347656 82.605469 L 31.949219 81.21875 M 35.324219 63.988281 C 35.984375 64.910156 36.84375 65.441406 37.902344 65.570312 L 38.5 65.570312 C 41.277344 65.308594 42.996094 63.0625 43.660156 58.839844 C 44.054688 56.855469 43.921875 55.007812 43.261719 53.292969 C 42.601562 51.707031 41.542969 50.78125 40.085938 50.519531 L 39.886719 50.519531 C 38.566406 50.652344 37.308594 51.3125 36.117188 52.5 C 35.058594 53.820312 34.398438 55.40625 34.132812 57.253906 C 33.738281 60.160156 34.132812 62.402344 35.324219 63.988281 M 27.386719 34.671875 L 27.980469 34.476562 L 28.773438 35.070312 L 32.148438 37.644531 L 27.1875 44.773438 L 25.996094 40.21875 C 25.996094 37.445312 26.460938 35.597656 27.386719 34.671875 M 48.421875 41.605469 L 48.421875 39.824219 C 48.421875 37.976562 47.5625 36.917969 45.84375 36.65625 L 44.054688 37.050781 L 36.910156 40.417969 C 35.722656 41.078125 35.125 41.871094 35.125 42.792969 L 37.308594 44.578125 L 45.246094 45.171875 L 47.628906 44.179688 L 48.421875 41.605469 M 102.398438 74.882812 L 102.003906 74.882812 L 100.414062 76.070312 C 100.152344 76.996094 100.347656 77.65625 101.011719 78.050781 L 102.796875 80.625 C 102.53125 81.683594 103.0625 82.34375 104.382812 82.605469 L 104.582031 82.605469 L 106.367188 80.625 L 105.179688 77.257812 L 103.195312 75.277344 L 102.398438 74.882812 M 103.589844 68.34375 L 102.996094 68.148438 L 102.796875 68.148438 C 101.871094 68.148438 101.277344 68.542969 101.011719 69.335938 C 100.613281 70.128906 100.878906 70.921875 101.804688 71.710938 L 102.597656 72.304688 L 104.980469 74.484375 L 106.765625 76.863281 L 108.949219 79.4375 L 109.148438 79.4375 L 110.140625 78.445312 C 110.535156 77.523438 109.742188 75.410156 107.757812 72.109375 L 103.589844 68.34375 M 82.355469 40.21875 L 80.371094 39.230469 C 79.3125 39.230469 78.320312 39.691406 77.394531 40.617188 C 74.882812 42.992188 74.023438 44.773438 74.816406 45.964844 L 76.800781 47.546875 L 79.976562 49.332031 L 82.554688 51.3125 C 84.40625 52.894531 85.730469 53.6875 86.523438 53.6875 L 87.515625 53.6875 L 87.714844 53.488281 L 88.113281 52.894531 L 88.308594 52.894531 L 88.308594 52.699219 C 89.367188 50.1875 87.382812 46.03125 82.355469 40.21875 M 92.675781 37.25 L 96.644531 36.65625 L 104.382812 35.863281 L 104.78125 35.863281 C 106.105469 36.125 107.230469 36.785156 108.15625 37.84375 C 109.214844 38.898438 109.808594 40.152344 109.941406 41.605469 C 110.339844 44.90625 108.351562 47.417969 103.988281 49.132812 C 103.0625 49.527344 102.53125 50.058594 102.398438 50.71875 C 102.398438 51.640625 102.730469 52.300781 103.390625 52.699219 L 110.734375 59.628906 C 113.511719 63.0625 115.101562 66.5625 115.496094 70.128906 C 114.703125 67.488281 113.316406 64.78125 111.332031 62.007812 C 108.289062 57.78125 106.105469 55.339844 104.78125 54.679688 L 103.988281 54.28125 L 103.589844 54.28125 C 102.796875 54.28125 102.269531 54.679688 102.003906 55.472656 C 101.738281 56.132812 101.9375 56.792969 102.597656 57.453125 L 108.550781 64.1875 C 110.273438 66.296875 111.726562 68.875 112.917969 71.910156 L 109.742188 66.5625 C 107.625 64.054688 105.773438 62.402344 104.1875 61.609375 L 103.589844 61.214844 L 103.390625 61.214844 C 102.863281 61.214844 102.332031 61.609375 101.804688 62.402344 C 101.539062 63.460938 101.9375 64.449219 102.996094 65.375 L 106.765625 68.9375 L 112.71875 79.238281 L 113.511719 80.824219 L 113.511719 81.617188 L 110.734375 80.425781 L 110.535156 81.21875 L 110.933594 83.003906 L 110.933594 83.199219 C 113.976562 86.105469 114.769531 89.472656 113.316406 93.300781 C 112.519531 95.28125 111.199219 96.867188 109.347656 98.054688 C 107.625 99.242188 105.640625 99.839844 103.390625 99.839844 L 102.203125 99.839844 L 100.8125 99.640625 L 100.414062 99.441406 L 100.019531 99.839844 C 95.125 106.703125 89.433594 112.515625 82.953125 117.269531 C 76.601562 121.890625 70.316406 124.664062 64.097656 125.585938 L 60.527344 125.984375 C 55.632812 125.984375 50.539062 124.53125 45.246094 121.625 C 35.589844 115.949219 28.90625 107.167969 25.203125 95.28125 C 21.367188 83.398438 21.433594 71.449219 25.402344 59.433594 C 27.78125 52.433594 31.621094 45.5 36.910156 38.636719 C 39.425781 38.371094 41.871094 37.445312 44.253906 35.863281 L 47.230469 33.089844 L 55.167969 25.957031 L 56.160156 25.761719 L 56.558594 25.761719 C 57.484375 25.894531 59.203125 26.75 61.71875 28.335938 L 62.113281 28.535156 L 65.488281 29.921875 L 66.679688 29.921875 L 73.625 28.136719 L 76.601562 27.742188 L 77.59375 27.742188 C 81.296875 28.136719 84.539062 30.382812 87.316406 34.476562 C 88.242188 35.929688 89.699219 36.785156 91.683594 37.050781 L 92.675781 37.25 M 100.8125 10.707031 C 103.0625 11.367188 105.046875 12.753906 106.765625 14.867188 L 110.339844 20.609375 L 113.511719 24.96875 C 117.351562 27.214844 120.523438 32.5625 123.039062 41.011719 C 125.15625 47.878906 123.765625 57.121094 118.871094 68.742188 C 118.078125 64.515625 116.359375 60.820312 113.710938 57.648438 L 108.351562 51.90625 C 113.644531 48.605469 116.226562 45.433594 116.09375 42.398438 C 116.09375 39.625 115.367188 37.25 113.910156 35.269531 C 112.324219 33.023438 110.007812 31.703125 106.964844 31.304688 L 104.980469 31.109375 L 98.429688 32.496094 L 93.46875 33.683594 L 93.074219 33.683594 L 92.875 33.484375 L 89.699219 29.722656 C 85.597656 23.910156 82.355469 20.808594 79.976562 20.414062 L 79.578125 20.414062 L 78.1875 20.609375 L 69.058594 24.769531 L 65.6875 25.957031 L 65.488281 25.957031 L 64.695312 25.5625 L 61.71875 23.582031 L 57.75 21.800781 L 57.152344 21.800781 L 53.183594 22.589844 L 43.660156 30.910156 L 41.675781 32.691406 C 39.558594 34.144531 37.574219 34.871094 35.722656 34.871094 L 34.925781 34.671875 L 31.554688 32.890625 C 29.703125 30.777344 28.578125 28.003906 28.179688 24.570312 C 27.914062 21.535156 28.378906 18.894531 29.570312 16.648438 L 31.949219 13.28125 C 31.949219 14.867188 32.480469 16.1875 33.539062 17.242188 C 35.125 18.828125 36.976562 19.820312 39.09375 20.214844 L 40.484375 20.214844 C 43.261719 20.214844 45.710938 19.222656 47.828125 17.242188 L 48.222656 16.847656 C 54.042969 11.960938 57.75 9.386719 59.335938 9.121094 L 60.328125 8.925781 L 61.320312 9.121094 L 65.289062 10.3125 L 65.6875 10.507812 L 68.863281 11.699219 L 69.257812 11.699219 L 71.839844 10.90625 L 75.609375 6.746094 C 78.917969 2.652344 81.164062 0.605469 82.355469 0.605469 L 82.554688 0.210938 L 82.554688 0.605469 L 82.753906 0.605469 C 84.339844 0.871094 86.191406 1.925781 88.308594 3.773438 L 89.699219 4.964844 L 93.269531 7.738281 L 100.8125 10.707031 "/>
</g>
</svg>
