<svg xmlns="http://www.w3.org/2000/svg" width="128pt" height="310pt" viewBox="0 0 128 310"><path d="M128 282.063v6.93c0 5.546-6.418 10.433-19.25 14.655-12.832 4.094-27.715 6.141-44.652 6.141h-.196c-17.066 0-31.953-2.047-44.652-6.14C6.418 299.425 0 294.538 0 288.991v-6.93c3.703 3.696 9.46 6.864 17.266 9.504 7.804 2.641 16.8 4.493 26.988 5.547l19.648.992 19.844-.992c10.188-1.054 19.184-2.906 26.988-5.547 7.805-2.64 13.563-5.808 17.266-9.503m-27.781-9.114l-.2-.988 1.387-1.785c.664-1.32 1.125-5.809 1.39-13.469 7.806 1.98 13.958 4.426 18.458 7.328 4.496 2.906 6.746 5.88 6.746 8.914 0 3.434-2.71 6.668-8.137 9.707-2.91 2.114-8.468 4.223-16.668 6.336l-14.289 2.973-25.004 1.781c-17.066 0-31.953-2.047-44.652-6.14C6.418 283.382 0 278.495 0 272.948c0-2.906 1.984-5.676 5.953-8.32 3.836-2.77 9.262-5.149 16.274-7.129v3.96c-5.293 2.247-8.864 4.095-10.715 5.548-1.856 1.453-2.715 2.906-2.582 4.355.265 1.453 1.523 2.578 3.77 3.367l8.734 1.786h1.785l10.715-1.387 2.976-.992 1.59 1.191.2.195h2.179c3.84 0 6.351-.988 7.543-2.968l1.39-4.36 1.786-2.574c0-2.246.46-6.601 1.386-13.074l15.88-.195 1.585 5.941v.394c2.25 8.32 4.367 13.208 6.352 14.657 0 2.773.46 4.953 1.386 6.539l3.774 4.355c2.117 1.852 4.297 3.106 6.547 3.766l4.566-.2c4.102-.265 6.614-2.374 7.54-6.34.663-2.769.53-5.609-.395-8.515m-67.871-95.668h5.554l15.88-1.187h.195c9.527 7.66 21.234 11.82 35.128 12.48.262 3.961 1.653 11.75 4.165 23.371l.199 1.188.398 1.187v.594l2.578 12.082c1.457 8.715 2.184 17.961 2.184 27.73l-.992 13.47-1.387 1.187-7.145 1.98v-.394l-.992.594h-2.781l-.793-.2h-.793l-.793-.195h-.398l-.2-.2h-.199l-.195.395v-.394l-.2-.2h-.597l-.195-.195-.399-.199-.793-.2c-1.59-.527-3.308-4.687-5.16-12.476v-.199l-2.183-7.922-9.723-24.562.594.199-1.387-2.18h.195l-.593-.594-5.16-10.101c-.4-.66-1.06-.988-1.985-.988l-.992.195c-.528.266-.86.66-.992 1.191l.199 1.582 4.96 9.508c-3.308 8.453-5.624 15.055-6.945 19.809-1.722 6.734-2.777 13.797-3.175 21.191h-2.383c-5.555 0-10.914-.793-16.074-2.375l-2.578-.992 1.585-28.918a451.33 451.33 0 0 1 4.766-33.473l.594-8.715-.992-13.074m-3.575-28.918l.399.2-3.57 1.585-2.977-.992h-1.191l-.399-.199h-.394l-.598.2-.793-.2 2.977-1.582 2.578-.2c1.722 0 3.043.4 3.968 1.188m47.036-2.375h-.2l-.992 1.188-.398 1.187.199.594c.266 1.059.992 1.586 2.184 1.586l.793-.2h.199v-.195l4.96-.992c1.852 0 3.508.528 4.962 1.586l1.59 2.18c-1.723-.926-3.641-1.387-5.758-1.387l-5.16 1.188h-.196l-.797.988-.394 1.191.199.79v.398l2.18.988.992-.195.2-.2 2.776-.394c1.457 0 2.98.395 4.567 1.188 1.586.921 2.383 1.98 2.383 3.168l-2.184-.594h-.398l-3.77-.594c-1.851 0-3.703.594-5.558 1.781l-1.786 2.18c-1.851 2.246-4.363 3.5-7.539 3.762-1.457-1.055-2.515-2.508-3.175-4.356l-.598-4.754c0-2.64.2-4.16.597-4.554l4.762-6.54 3.176-1.78c2.91-1.321 5.492-1.981 7.738-1.981l2.184.394 1.191.993-1.984-.2c-2.91 0-5.227.528-6.945 1.586m-34.332.594v.2H39.69l-7.343.792.398-.992-.797-1.387c-1.586-1.586-3.902-2.375-6.945-2.375h-1.387l.594-.199.594-.398 2.976-.395c2.117 0 4.035.594 5.758 1.781l1.387.598 1.789-.793.594-1.586-.399-1.187v-.2l-.195-.199c-1.723-1.32-3.84-2.176-6.352-2.574l.594-.195h.598l4.96 1.386 4.169 3.364.793 4.359m15.28-13.27l3.372.196c3.707 0 7.012-.856 9.922-2.574 3.043-1.582 5.094-3.829 6.152-6.735a56.756 56.756 0 0 1 11.91 4.559l.196.195 10.52 6.34a44.74 44.74 0 0 1 9.128 8.914c3.176 4.09 5.293 9.309 6.352 15.645 1.187 6.867.726 12.875-1.391 18.023-1.984 1.984-4.895 3.566-8.73 4.754l-11.313 1.785c-9.129 0-17.066-1.387-23.816-4.16-3.305-1.453-6.614-3.3-9.922-5.547l8.136-2.773 1.192-.395.2-.2 6.546-1.98 4.367-3.367h.2l1.19-1.387c.927-.66 1.852-.988 2.778-.988l2.977.594h.199l3.371.594 1.39-.2 1.192-.593c3.703.527 6.414 1.781 8.137 3.765l1.586.594 1.39-.398.594-1.387-.394-1.582c-2.383-2.512-5.692-4.16-9.926-4.953l-.793-2.774.398-1.586c.395-3.035-.726-5.675-3.375-7.921v-1.98c-1.453-2.903-3.11-4.821-4.96-5.743l-4.169-.992c-3.043 0-6.218.726-9.523 2.18l-4.168 2.574-.399.398-4.562 6.137-17.066-3.168v-.793l-.993-5.742-.199-.399v-.195l-.2-.2-5.753-4.554c-2.383-1.32-4.7-1.98-6.945-1.98h-1.59c-1.852.394-3.902 1.582-6.152 3.562l-2.977 2.773c-1.586 1.059-2.844 2.512-3.77 4.36l-.793 2.18-1.39 2.769c-.395 1.719.133 2.973 1.59 3.766l3.57.593h.992l2.777.594h.2l.597.2h.196l1.191.394.793-.395c3.969-1.98 8.734-2.972 14.29-2.972h.991c5.559.133 11.907 1.187 19.051 3.172-.527 3.43-.328 6.734.598 9.902.66 1.848 1.52 3.3 2.578 4.355-6.746 3.04-15.543 4.559-26.395 4.559l-7.738-.2c-12.172-2.245-19.45-5.413-21.828-9.507h-.2c-.925-3.434-.859-7.395.2-11.883 1.059-3.7 2.644-7.2 4.762-10.5 3.175-4.094 7.078-7.722 11.707-10.894 4.765-3.036 9.593-5.149 14.488-6.336l6.152 1.98c1.586 3.961 5.36 6.469 11.313 7.528m-3.176-24.958c.133-.925-.2-1.78-.992-2.574-.793-.793-1.719-1.191-2.778-1.191l-7.742-.988c-1.586.132-2.578.66-2.976 1.585-.395 1.055 0 2.047 1.191 2.97l2.578 2.378c1.723 1.055 3.774 1.582 6.153 1.582h.797c2.511-.262 3.769-1.515 3.769-3.762m6.945-54.074v-.394l-.199-.2h-.2l-.792-.593h-.395c-1.324 0-2.449.66-3.375 1.98l-.199.2-4.168 6.14-7.738 8.121c-1.457 1.45-1.719 3.035-.793 4.754l3.176 6.336 3.37 2.18h1.192l1.39-.399 1.985-1.383c.528-.66.528-1.585 0-2.773L51 73.691l.2-1.187 4.566-6.535 4.761-8.715V54.28m16.274.594c-1.324 0-2.582.66-3.77 1.98-1.058 1.192-1.722 2.774-1.984 4.754-.399 2.114-.266 4.028.394 5.746.66 1.582 1.72 2.442 3.176 2.575h.793c2.778-.266 4.5-2.508 5.16-6.735.399-2.906 0-5.148-1.191-6.734L76.8 54.875M31.949 81.219v-.196h-.199l-1.785-.793h-.793l-.992.594-.2.2-.199.394-1.984 11.488-.195.594 2.578.793h.398l1.985-1.785c4.894 5.285 10.382 8.652 16.468 10.101l4.168.399h1.985c5.027-.399 10.914-2.047 17.664-4.953l1.386 3.765c.532 1.32 1.391 1.98 2.582 1.98h.2l2.18-1.98.199-.199-.2-.2-5.953-17.429v-.394h-.594l-1.59-.399h-.195l-1.59.793-.199.399-.195.195v1.785l.394 2.77-.394.199L51 90.527l-3.371-.195c-2.383-.266-5.691-1.254-9.922-2.973l-5.758-2.375-.199-.199.598-1.781v-.399l-.399-1.386m3.375-17.23c.66.921 1.52 1.452 2.578 1.581h.598c2.777-.261 4.496-2.507 5.16-6.73.395-1.985.262-3.832-.398-5.547-.66-1.586-1.719-2.512-3.176-2.773h-.2c-1.32.132-2.577.792-3.769 1.98-1.058 1.32-1.719 2.906-1.984 4.754-.395 2.906 0 5.148 1.191 6.734m-7.937-29.316l.593-.195.793.593 3.375 2.575-4.96 7.128-1.192-4.554c0-2.774.465-4.621 1.39-5.547m21.036 6.933v-1.78c0-1.848-.86-2.907-2.578-3.169l-1.79.395-7.144 3.367c-1.187.66-1.785 1.453-1.785 2.375l2.184 1.785 7.937.594 2.383-.992.793-2.575m53.976 33.278h-.394l-1.59 1.187c-.262.926-.066 1.586.598 1.98l1.785 2.575c-.266 1.059.266 1.719 1.586 1.98h.199l1.785-1.98-1.187-3.367-1.985-1.98-.797-.395m1.192-6.54l-.594-.195h-.2c-.925 0-1.519.395-1.784 1.188-.399.793-.133 1.586.793 2.375l.793.594 2.382 2.18 1.786 2.378 2.183 2.575h.2l.992-.993c.394-.922-.399-3.035-2.383-6.336l-4.168-3.765M82.355 40.219l-1.984-.989c-1.058 0-2.05.461-2.976 1.387-2.512 2.375-3.372 4.156-2.579 5.348l1.985 1.582 3.176 1.785 2.578 1.98c1.851 1.583 3.175 2.376 3.968 2.376h.993l.199-.2.398-.593h.196v-.196c1.058-2.511-.926-6.668-5.954-12.48m10.32-2.969l3.97-.594 7.738-.793h.398c1.324.262 2.45.922 3.375 1.98 1.059 1.055 1.653 2.31 1.785 3.762.399 3.301-1.59 5.813-5.953 7.528-.925.394-1.457.926-1.59 1.586 0 .922.332 1.582.993 1.98l7.343 6.93c2.778 3.434 4.368 6.934 4.762 10.5-.793-2.64-2.18-5.348-4.164-8.121-3.043-4.227-5.227-6.668-6.55-7.328l-.794-.399h-.398c-.793 0-1.32.399-1.586 1.192-.266.66-.067 1.32.594 1.98l5.953 6.734c1.722 2.11 3.176 4.688 4.367 7.723l-3.176-5.347c-2.117-2.508-3.969-4.16-5.555-4.954l-.597-.394h-.2c-.527 0-1.058.394-1.585 1.187-.266 1.059.132 2.047 1.191 2.973l3.77 3.563 5.953 10.3.793 1.586v.793l-2.778-1.191-.199.793.399 1.785v.195c3.043 2.906 3.836 6.274 2.382 10.102-.796 1.98-2.117 3.566-3.968 4.754-1.723 1.187-3.707 1.785-5.957 1.785h-1.188l-1.39-.2-.399-.199-.394.399c-4.895 6.863-10.586 12.676-17.067 17.43-6.351 4.62-12.637 7.394-18.855 8.316l-3.57.398c-4.895 0-9.989-1.453-15.282-4.359-9.656-5.676-16.34-14.457-20.043-26.344-3.836-11.883-3.77-23.832.2-35.847 2.378-7 6.218-13.934 11.507-20.797 2.516-.266 4.961-1.192 7.344-2.774l2.976-2.773 7.938-7.133.992-.195h.399c.925.133 2.644.988 5.16 2.574l.394.2 3.375 1.386h1.192l6.945-1.785 2.977-.395h.992c3.703.395 6.945 2.64 9.722 6.735.926 1.453 2.383 2.308 4.368 2.574l.992.199m8.136-26.543c2.25.66 4.235 2.047 5.954 4.16l3.574 5.742 3.172 4.36c3.84 2.246 7.011 7.593 9.527 16.043 2.117 6.867.727 16.11-4.168 27.73-.793-4.226-2.512-7.922-5.16-11.094l-5.36-5.742c5.294-3.3 7.876-6.472 7.743-9.508 0-2.773-.727-5.148-2.184-7.128-1.586-2.247-3.902-3.567-6.945-3.965l-1.985-.196-6.55 1.387-4.961 1.188h-.395l-.199-.2-3.176-3.761c-4.101-5.813-7.344-8.914-9.722-9.309h-.399l-1.39.195-9.13 4.16-3.37 1.188h-.2l-.793-.395-2.976-1.98-3.969-1.781h-.598l-3.968.789-9.524 8.32-1.984 1.781c-2.117 1.454-4.102 2.18-5.953 2.18l-.797-.2-3.371-1.78c-1.852-2.114-2.977-4.887-3.375-8.32-.266-3.036.199-5.676 1.39-7.923l2.38-3.367c0 1.586.53 2.906 1.59 3.961 1.585 1.586 3.437 2.578 5.554 2.973h1.39c2.778 0 5.227-.992 7.344-2.973l.395-.394c5.82-4.887 9.527-7.461 11.113-7.727l.992-.195.992.195 3.97 1.191.397.196 3.176 1.191h.395l2.582-.793 3.77-4.16c3.308-4.094 5.554-6.14 6.745-6.14l.2-.395v.394h.199c1.586.266 3.437 1.32 5.555 3.168l1.39 1.192 3.57 2.773 7.543 2.969" fill="#fff"/></svg>