<?xml version="1.0" encoding="UTF-8"?>
<svg xmlns="http://www.w3.org/2000/svg" xmlns:xlink="http://www.w3.org/1999/xlink" width="128pt" height="128pt" viewBox="0 0 128 128" version="1.1">
<g id="surface1">
<path style=" stroke:none;fill-rule:nonzero;fill:rgb(100%,100%,100%);fill-opacity:1;" d="M 13.84375 103.476562 C 4.644531 92.050781 0.0429688 78.949219 0.0429688 64.167969 C 0.0429688 49.160156 4.644531 36.058594 13.84375 24.859375 L 52.890625 64.167969 L 13.84375 103.476562 M 24.617188 56.777344 C 24.617188 59.6875 22.597656 61.144531 18.558594 61.144531 L 16.875 61.144531 L 16.875 52.746094 L 18.21875 52.746094 C 22.484375 52.746094 24.617188 54.089844 24.617188 56.777344 M 32.695312 56.777344 C 32.695312 50.730469 27.421875 47.707031 16.875 47.707031 L 7.785156 47.707031 L 7.785156 78.613281 L 16.875 78.613281 L 16.875 64.503906 L 24.953125 78.613281 L 34.042969 78.613281 L 26.636719 64.503906 C 30.675781 62.9375 32.695312 60.359375 32.695312 56.777344 M 103.382812 114.226562 C 91.9375 123.410156 78.921875 128 64.335938 128 C 48.628906 128 35.050781 122.960938 23.605469 112.882812 L 62.652344 73.574219 L 103.382812 114.226562 M 113.144531 105.15625 L 72.414062 64.167969 L 113.144531 23.179688 C 123.019531 34.828125 127.957031 48.488281 127.957031 64.167969 C 127.957031 79.847656 123.019531 93.507812 113.144531 105.15625 M 104.394531 52.746094 C 108.207031 52.746094 110.117188 54.089844 110.117188 56.777344 C 110.117188 59.6875 108.320312 61.144531 104.730469 61.144531 L 103.046875 61.144531 L 103.046875 52.746094 L 104.394531 52.746094 M 118.867188 56.777344 C 118.867188 50.730469 113.59375 47.707031 103.046875 47.707031 L 93.957031 47.707031 L 93.957031 78.613281 L 103.046875 78.613281 L 103.046875 64.503906 L 111.125 78.613281 L 120.550781 78.613281 L 112.472656 64.503906 C 116.738281 62.9375 118.867188 60.359375 118.867188 56.777344 M 64.335938 0 C 78.921875 0 91.9375 4.589844 103.382812 13.773438 L 62.652344 54.425781 L 23.605469 15.117188 C 35.277344 5.039062 48.851562 0 64.335938 0 "/>
</g>
</svg>
