<?xml version="1.0" encoding="UTF-8" standalone="no"?>
<svg xmlns:xlink="http://www.w3.org/1999/xlink" height="19.15px" width="19.2px" xmlns="http://www.w3.org/2000/svg">
  <g transform="matrix(1.0, 0.0, 0.0, 1.0, 9.5, 9.65)">
    <path d="M-1.65 -7.4 L0.2 -8.9 2.0 -7.4 -1.65 -7.4 M9.1 -4.85 L4.75 -5.45 4.75 -5.65 9.1 -6.2 9.1 -4.85 M-2.4 -2.85 L-2.4 -3.9 2.85 -3.9 2.85 -2.85 -2.4 -2.85 M1.65 -6.55 L1.65 -4.5 -1.2 -4.5 -1.2 -6.55 1.65 -6.55 M-8.9 -4.85 L-8.9 -6.2 -4.5 -5.65 -4.5 -5.45 -8.9 -4.85 M-0.9 3.95 L-0.9 7.3 -2.55 7.3 -1.85 -2.2 2.2 -2.2 2.95 7.3 1.35 7.3 1.35 3.95 Q1.35 3.45 1.0 3.1 L0.2 2.8 Q-0.3 2.8 -0.55 3.1 -0.9 3.45 -0.9 3.95 M-4.3 8.9 L-4.3 7.95 4.65 7.95 4.65 8.9 -4.3 8.9" fill="#ffffcb" fill-rule="evenodd" stroke="none"/>
    <path d="M-1.65 -7.4 L2.0 -7.4 0.2 -8.9 -1.65 -7.4 M-4.9 9.5 L-4.9 7.3 -3.15 7.3 -2.5 -2.2 -3.05 -2.2 -3.05 -4.5 -1.8 -4.5 -1.8 -6.8 -3.4 -6.8 0.2 -9.65 3.8 -6.8 2.25 -6.8 2.25 -4.5 3.45 -4.5 3.45 -2.2 2.85 -2.2 3.55 7.3 5.3 7.3 5.3 9.5 -4.9 9.5 M1.65 -6.55 L-1.2 -6.55 -1.2 -4.5 1.65 -4.5 1.65 -6.55 M-2.4 -2.85 L2.85 -2.85 2.85 -3.9 -2.4 -3.9 -2.4 -2.85 M9.1 -4.85 L9.1 -6.2 4.75 -5.65 4.75 -5.45 9.1 -4.85 M4.15 -4.85 L4.15 -6.2 9.7 -6.9 9.7 -4.15 4.15 -4.85 M-8.9 -4.85 L-4.5 -5.45 -4.5 -5.65 -8.9 -6.2 -8.9 -4.85 M-9.5 -4.15 L-9.5 -6.9 -3.9 -6.2 -3.9 -4.85 -9.5 -4.15 M-0.9 3.95 Q-0.9 3.45 -0.55 3.1 -0.3 2.8 0.2 2.8 L1.0 3.1 Q1.35 3.45 1.35 3.95 L1.35 7.3 2.95 7.3 2.2 -2.2 -1.85 -2.2 -2.55 7.3 -0.9 7.3 -0.9 3.95 M-4.3 8.9 L4.65 8.9 4.65 7.95 -4.3 7.95 -4.3 8.9" fill="#f5cb5b" fill-opacity="0.29803923" fill-rule="evenodd" stroke="none"/>
  </g>
</svg>
