<svg height="19.15" width="19.2" xmlns="http://www.w3.org/2000/svg"><g fill-rule="evenodd"><path d="M7.85 2.25L9.7.75l1.8 1.5H7.85M18.6 4.8l-4.35-.6V4l4.35-.55V4.8m-11.5 2V5.75h5.25V6.8H7.1m4.05-3.7v2.05H8.3V3.1h2.85M.6 4.8V3.45L5 4v.2l-4.4.6m8 8.8v3.35H6.95l.7-9.5h4.05l.75 9.5h-1.6V13.6q0-.5-.35-.85l-.8-.3q-.5 0-.75.3-.35.35-.35.85m-3.4 4.95v-.95h8.95v.95H5.2" fill="#ffffcb"/><path d="M7.85 2.25h3.65L9.7.75l-1.85 1.5M4.6 19.15v-2.2h1.75L7 7.45h-.55v-2.3H7.7v-2.3H6.1L9.7 0l3.6 2.85h-1.55v2.3h1.2v2.3h-.6l.7 9.5h1.75v2.2H4.6M11.15 3.1H8.3v2.05h2.85V3.1M7.1 6.8h5.25V5.75H7.1V6.8m11.5-2V3.45L14.25 4v.2l4.35.6m-4.95 0V3.45l5.55-.7V5.5l-5.55-.7M.6 4.8L5 4.2V4L.6 3.45V4.8m-.6.7V2.75l5.6.7V4.8L0 5.5m8.6 8.1q0-.5.35-.85.25-.3.75-.3l.8.3q.35.35.35.85v3.35h1.6l-.75-9.5H7.65l-.7 9.5H8.6V13.6m-3.4 4.95h8.95v-.95H5.2v.95" fill="#f5cb5b" fill-opacity=".298"/></g></svg>