<svg height="20" width="11.15" xmlns="http://www.w3.org/2000/svg"><g fill-rule="evenodd"><path d="M5.55.85L8.7 2.8H2.45L5.55.85m2.6 5.05V4.3h-1.6v1.6h1.6m2.3 3.4H7.9v-.55h2.55v.55m-6.55 0v-.55h3.35v.55H3.9m0-1.85h3.35v.65H3.9v-.65m6.55 0v.65H7.9v-.65h2.55M9.3 3.5v3.25H1.8V3.5h7.5m.95 15.7l-3.9-2.05 3.5-1.9.4 3.95m-1.2.1h-6.8l3.4-1.8 3.4 1.8m-.15-4.95H2.3l3.3-2 3.3 2M2.35 15H9l-3.35 1.8-3.3-1.8m7.4-.9l-3.5-2.15 3.1-1.9.4 4.05M5.6 11.6L3.05 10H8.2l-2.6 1.6m-1-5.7V4.3H3v1.6h1.6M1.8 10L5 11.95l-3.6 2.2.35-4.15h.05M.7 9.3v-.55h2.55v.55H.7m0-1.85h2.55v.65H.7v-.65M.9 19.3l.4-4.1 3.65 1.95L.9 19.3" fill="#ffffcb"/><path d="M5.55.85L2.45 2.8H8.7L5.55.85m2.6 5.05h-1.6V4.3h1.6v1.6m2.3 1.55H7.9v.65h2.55v-.65m-6.55 0v.65h3.35v-.65H3.9m0 1.85h3.35v-.55H3.9v.55m6.55 0v-.55H7.9v.55h2.55M5.55 0l5.6 3.5H10v3.25h1.15V10h-1.1L11 20H.1l.95-10H0V6.75h1.1V3.5H0L5.55 0m.05 11.6L8.2 10H3.05l2.55 1.6m4.15 2.5l-.4-4.05-3.1 1.9 3.5 2.15m-7.4.9l3.3 1.8L9 15H2.35m6.55-.65l-3.3-2-3.3 2h6.6m.15 4.95l-3.4-1.8-3.4 1.8h6.8m1.2-.1l-.4-3.95-3.5 1.9 3.9 2.05M9.3 3.5H1.8v3.25h7.5V3.5M4.6 5.9H3V4.3h1.6v1.6M.9 19.3l4.05-2.15L1.3 15.2l-.4 4.1M.7 7.45v.65h2.55v-.65H.7m0 1.85h2.55v-.55H.7v.55m1.1.7h-.05l-.35 4.15 3.6-2.2L1.8 10" fill="#f5cb5b" fill-opacity=".298"/></g></svg>