<?xml version="1.0" encoding="UTF-8" standalone="no"?>
<svg xmlns:xlink="http://www.w3.org/1999/xlink" height="20.0px" width="11.15px" xmlns="http://www.w3.org/2000/svg">
  <g transform="matrix(1.0, 0.0, 0.0, 1.0, 5.5, 10.65)">
    <path d="M0.05 -9.8 L3.2 -7.85 -3.05 -7.85 0.05 -9.8 M2.65 -4.75 L2.65 -6.35 1.05 -6.35 1.05 -4.75 2.65 -4.75 M4.95 -1.35 L2.4 -1.35 2.4 -1.9 4.95 -1.9 4.95 -1.35 M-1.6 -1.35 L-1.6 -1.9 1.75 -1.9 1.75 -1.35 -1.6 -1.35 M-1.6 -3.2 L1.75 -3.2 1.75 -2.55 -1.6 -2.55 -1.6 -3.2 M4.95 -3.2 L4.95 -2.55 2.4 -2.55 2.4 -3.2 4.95 -3.2 M3.8 -7.15 L3.8 -3.9 -3.7 -3.9 -3.7 -7.15 3.8 -7.15 M4.75 8.55 L0.85 6.5 4.35 4.6 4.75 8.55 M3.55 8.65 L-3.25 8.65 0.15 6.85 3.55 8.65 M3.4 3.7 L-3.2 3.7 0.1 1.7 3.4 3.7 M-3.15 4.35 L3.5 4.35 0.15 6.15 -3.15 4.35 M4.25 3.45 L0.75 1.3 3.85 -0.6 4.25 3.45 M0.1 0.95 L-2.45 -0.65 2.7 -0.65 0.1 0.95 M-0.9 -4.75 L-0.9 -6.35 -2.5 -6.35 -2.5 -4.75 -0.9 -4.75 M-3.7 -0.65 L-0.5 1.3 -4.1 3.5 -3.75 -0.65 -3.7 -0.65 M-4.8 -1.35 L-4.8 -1.9 -2.25 -1.9 -2.25 -1.35 -4.8 -1.35 M-4.8 -3.2 L-2.25 -3.2 -2.25 -2.55 -4.8 -2.55 -4.8 -3.2 M-4.6 8.65 L-4.2 4.55 -0.55 6.5 -4.6 8.65" fill="#ffffcb" fill-rule="evenodd" stroke="none"/>
    <path d="M0.05 -9.8 L-3.05 -7.85 3.2 -7.85 0.05 -9.8 M2.65 -4.75 L1.05 -4.75 1.05 -6.35 2.65 -6.35 2.65 -4.75 M4.95 -3.2 L2.4 -3.2 2.4 -2.55 4.95 -2.55 4.95 -3.2 M-1.6 -3.2 L-1.6 -2.55 1.75 -2.55 1.75 -3.2 -1.6 -3.2 M-1.6 -1.35 L1.75 -1.35 1.75 -1.9 -1.6 -1.9 -1.6 -1.35 M4.95 -1.35 L4.95 -1.9 2.4 -1.9 2.4 -1.35 4.95 -1.35 M0.05 -10.65 L5.65 -7.15 4.5 -7.15 4.5 -3.9 5.65 -3.9 5.65 -0.65 4.55 -0.65 5.5 9.35 -5.4 9.35 -4.45 -0.65 -5.5 -0.65 -5.5 -3.9 -4.4 -3.9 -4.4 -7.15 -5.5 -7.15 0.05 -10.65 M0.1 0.95 L2.7 -0.65 -2.45 -0.65 0.1 0.95 M4.25 3.45 L3.85 -0.6 0.75 1.3 4.25 3.45 M-3.15 4.35 L0.15 6.15 3.5 4.35 -3.15 4.35 M3.4 3.7 L0.1 1.7 -3.2 3.7 3.4 3.7 M3.55 8.65 L0.15 6.85 -3.25 8.65 3.55 8.65 M4.75 8.55 L4.35 4.6 0.85 6.5 4.75 8.55 M3.8 -7.15 L-3.7 -7.15 -3.7 -3.9 3.8 -3.9 3.8 -7.15 M-0.9 -4.75 L-2.5 -4.75 -2.5 -6.35 -0.9 -6.35 -0.9 -4.75 M-4.6 8.65 L-0.55 6.5 -4.2 4.55 -4.6 8.65 M-4.8 -3.2 L-4.8 -2.55 -2.25 -2.55 -2.25 -3.2 -4.8 -3.2 M-4.8 -1.35 L-2.25 -1.35 -2.25 -1.9 -4.8 -1.9 -4.8 -1.35 M-3.7 -0.65 L-3.75 -0.65 -4.1 3.5 -0.5 1.3 -3.7 -0.65" fill="#f5cb5b" fill-opacity="0.29803923" fill-rule="evenodd" stroke="none"/>
  </g>
</svg>
