<?xml version="1.0" encoding="UTF-8" standalone="no"?>
<svg
   xmlns:dc="http://purl.org/dc/elements/1.1/"
   xmlns:cc="http://creativecommons.org/ns#"
   xmlns:rdf="http://www.w3.org/1999/02/22-rdf-syntax-ns#"
   xmlns:svg="http://www.w3.org/2000/svg"
   xmlns="http://www.w3.org/2000/svg"
   xmlns:sodipodi="http://sodipodi.sourceforge.net/DTD/sodipodi-0.dtd"
   xmlns:inkscape="http://www.inkscape.org/namespaces/inkscape"
   height="24.85px"
   width="31.3px"
   version="1.1"
   id="svg1560"
   sodipodi:docname="91.svg"
   inkscape:version="0.92.4 (5da689c313, 2019-01-14)">
  <metadata
     id="metadata1566">
    <rdf:RDF>
      <cc:Work
         rdf:about="">
        <dc:format>image/svg+xml</dc:format>
        <dc:type
           rdf:resource="http://purl.org/dc/dcmitype/StillImage" />
        <dc:title></dc:title>
      </cc:Work>
    </rdf:RDF>
  </metadata>
  <defs
     id="defs1564" />
  <sodipodi:namedview
     pagecolor="#ffffff"
     bordercolor="#666666"
     borderopacity="1"
     objecttolerance="10"
     gridtolerance="10"
     guidetolerance="10"
     inkscape:pageopacity="0"
     inkscape:pageshadow="2"
     inkscape:window-width="2560"
     inkscape:window-height="1506"
     id="namedview1562"
     showgrid="false"
     inkscape:zoom="26.861521"
     inkscape:cx="15.65"
     inkscape:cy="12.425"
     inkscape:window-x="-11"
     inkscape:window-y="-11"
     inkscape:window-maximized="1"
     inkscape:current-layer="svg1560" />
  <g
     transform="matrix(1.0, 0.0, 0.0, 1.0, 14.95, 12.4)"
     id="g1558"
     style="fill:#000000;fill-opacity:0.98566306;stroke:none">
    <path
       d="M10.3 1.55 L10.3 3.65 4.05 3.65 4.05 1.55 10.3 1.55 M10.3 7.7 L4.05 7.7 4.05 5.55 10.3 5.55 10.3 7.7 M-8.55 3.65 L-8.55 1.55 -2.3 1.55 -2.3 3.65 -8.55 3.65 M-2.3 5.55 L-2.3 7.7 -8.55 7.7 -8.55 5.55 -2.3 5.55 M-8.55 -6.55 L-2.3 -6.55 -2.3 -4.4 -8.55 -4.4 -8.55 -6.55 M-8.55 -0.35 L-8.55 -2.5 -2.3 -2.5 -2.3 -0.35 -8.55 -0.35 M0.0 -9.1 Q-1.45 -9.9 -3.9 -9.9 -5.2 -9.9 -6.8 -9.05 -8.1 -8.3 -9.0 -8.35 L-11.6 -8.6 -11.6 9.95 0.0 9.95 0.0 -9.1 M4.05 -6.55 L10.3 -6.55 10.3 0.05 4.05 0.05 4.05 -6.55 M0.7 -10.7 Q2.35 -11.75 5.75 -11.75 7.55 -11.75 9.65 -10.65 10.85 -10.05 11.35 -10.1 L11.45 -10.1 14.75 -10.55 15.4 -10.45 15.7 -9.9 15.7 11.1 Q15.7 11.8 14.95 11.8 L-13.6 11.8 Q-14.3 11.8 -14.3 11.1 L-14.3 -9.9 -14.0 -10.45 -13.35 -10.55 -10.1 -10.1 -10.0 -10.1 Q-9.4 -10.05 -8.3 -10.65 -6.2 -11.75 -4.35 -11.75 -0.95 -11.75 0.7 -10.7 M10.4 -8.35 Q9.45 -8.3 8.2 -9.05 6.5 -9.9 5.25 -9.9 2.8 -9.9 1.35 -9.1 L1.35 9.95 13.0 9.95 13.0 -8.6 10.4 -8.35"
       fill="#00ff00"
       fill-rule="evenodd"
       stroke="none"
       id="path1554"
       style="fill:#000000;fill-opacity:0.98566306;stroke:none" />
    <path
       d="M10.4 -8.35 L13.0 -8.6 13.0 9.95 1.35 9.95 1.35 -9.1 Q2.8 -9.9 5.25 -9.9 6.5 -9.9 8.2 -9.05 9.45 -8.3 10.4 -8.35 M0.7 -10.7 Q-0.95 -11.75 -4.35 -11.75 -6.2 -11.75 -8.3 -10.65 -9.4 -10.05 -10.0 -10.1 L-10.1 -10.1 -13.35 -10.55 -14.0 -10.45 -14.3 -9.9 -14.3 11.1 Q-14.3 11.8 -13.6 11.8 L14.95 11.8 Q15.7 11.8 15.7 11.1 L15.7 -9.9 15.4 -10.45 14.75 -10.55 11.45 -10.1 11.35 -10.1 Q10.85 -10.05 9.65 -10.65 7.55 -11.75 5.75 -11.75 2.35 -11.75 0.7 -10.7 M4.05 -6.55 L4.05 0.05 10.3 0.05 10.3 -6.55 4.05 -6.55 M0.0 -9.1 L0.0 9.95 -11.6 9.95 -11.6 -8.6 -9.0 -8.35 Q-8.1 -8.3 -6.8 -9.05 -5.2 -9.9 -3.9 -9.9 -1.45 -9.9 0.0 -9.1 M-8.55 -0.35 L-2.3 -0.35 -2.3 -2.5 -8.55 -2.5 -8.55 -0.35 M-8.55 -6.55 L-8.55 -4.4 -2.3 -4.4 -2.3 -6.55 -8.55 -6.55 M-2.3 5.55 L-8.55 5.55 -8.55 7.7 -2.3 7.7 -2.3 5.55 M-8.55 3.65 L-2.3 3.65 -2.3 1.55 -8.55 1.55 -8.55 3.65 M10.3 7.7 L10.3 5.55 4.05 5.55 4.05 7.7 10.3 7.7 M10.3 1.55 L4.05 1.55 4.05 3.65 10.3 3.65 10.3 1.55"
       fill="none"
       stroke="#008c00"
       stroke-linecap="square"
       stroke-linejoin="round"
       stroke-opacity="0.49803922"
       stroke-width="1.0"
       id="path1556"
       style="fill:#000000;fill-opacity:0.98566306;stroke:none" />
  </g>
</svg>
