<!-- Generated by IcoMoon.io -->
<svg version="1.1" xmlns="http://www.w3.org/2000/svg" width="1290" height="1024" viewBox="0 0 1290 1024">
<title></title>
<g id="icomoon-ignore">
</g>
<path fill="#000" d="M955.723 561.373h-202.347v67.984h202.347v-67.984zM955.723 760.483v-69.603h-202.347v69.603h202.347zM345.444 629.357h202.347v-67.984h-202.347v67.984zM547.792 690.871h-202.347v69.603h202.347v-69.603zM345.444 299.133v69.603h202.347v-69.603h-202.347zM345.444 499.862h202.347v-69.603h-202.347v69.603zM622.249 216.571q-46.945-25.9-126.261-25.9-42.090 0-93.891 27.521-42.090 24.28-71.221 22.66l-84.181-8.092v600.563h375.551v-616.752zM753.376 299.133v213.676h202.347v-213.676h-202.347zM644.919 164.77q53.419-33.999 163.494-33.999 58.274 0 126.261 35.617 38.854 19.42 55.037 17.802h3.237l106.838-14.565 21.039 3.237 9.71 17.802v679.881q0 22.66-24.28 22.66h-924.318q-22.66 0-22.66-22.66v-679.881l9.71-17.802 21.039-3.237 105.22 14.565h3.237q19.42 1.618 55.037-17.802 67.984-35.617 127.881-35.617 110.075 0 163.494 33.999zM958.959 240.859q-30.761 1.618-71.221-22.66-55.037-27.521-95.509-27.521-79.321 0-126.261 25.9v616.752h377.169v-600.563l-84.181 8.092z"></path>
</svg>
