<svg height="20" width="20" xmlns="http://www.w3.org/2000/svg"><g fill-rule="evenodd"><path d="M12.9 12V8.45h-1.05V12h1.05m-3.95 0H11V8.55l-.3-.7-.7-.3-.75.3q-.3.3-.3.7V12m5.65-8.1l4.7 8v2.25h-4.65v-3.5h1.5l-3.9-6.75h2.35m3.1 9.5v-.6l-.3-.75q-.3-.3-.75-.3-.4 0-.7.3-.3.3-.3.75v.6h2.05m.9 1.45v4.45h-3.95v-4.45h3.95M8.1 12V8.45H7.05V12H8.1m9.6 6.05V15.6h-2.05v2.45h2.05M8.1 15.1v4.2H6V9.95H5l5-8.55 4.95 8.55h-1v9.35h-2.1v-4.2q0-.7-.5-1.2-.45-.5-1.15-.5h-.4q-.7 0-1.2.5t-.5 1.2m-7.4-.95V11.9l4.7-8h2.35L3.8 10.65h1.5v3.5H.7m3.6 3.9V15.6h-2v2.45h2m0-4.65v-.6q0-.45-.3-.75t-.7-.3q-.4 0-.7.3l-.3.75v.6h2m-2.95 5.9v-4.45H5.3v4.45H1.35" fill="#ffffcb"/><path d="M12.9 12h-1.05V8.45h1.05V12m-3.95 0V8.55q0-.4.3-.7l.75-.3.7.3.3.7V12H8.95m10.35 8H.65v-5.15H0V11.7l.65-1.1V6.5h1.9v.9L5 3.2h3.15L10 0l1.85 3.2H15l2.4 4.1v-.8h1.9v4l.7 1.2v3.15h-.7V20M14.6 3.9h-2.35l3.9 6.75h-1.5v3.5h4.65V11.9l-4.7-8m3.1 9.5h-2.05v-.6q0-.45.3-.75t.7-.3q.45 0 .75.3l.3.75v.6m.9 1.45h-3.95v4.45h3.95v-4.45m-10.5.25q0-.7.5-1.2t1.2-.5h.4q.7 0 1.15.5.5.5.5 1.2v4.2h2.1V9.95h1L10 1.4 5 9.95h1v9.35h2.1v-4.2m9.6 2.95h-2.05V15.6h2.05v2.45M8.1 12H7.05V8.45H8.1V12M.7 14.15h4.6v-3.5H3.8L7.75 3.9H5.4l-4.7 8v2.25m3.6-.75h-2v-.6l.3-.75q.3-.3.7-.3.4 0 .7.3.3.3.3.75v.6m0 4.65h-2V15.6h2v2.45M1.35 19.3H5.3v-4.45H1.35v4.45" fill="#f5cb5b" fill-opacity=".298"/></g></svg>