<?xml version="1.0" encoding="UTF-8" standalone="no"?>
<svg xmlns:xlink="http://www.w3.org/1999/xlink" height="20.0px" width="20.0px" xmlns="http://www.w3.org/2000/svg">
  <g transform="matrix(1.0, 0.0, 0.0, 1.0, 8.95, 9.1)">
    <path d="M3.95 2.9 L3.95 -0.65 2.9 -0.65 2.9 2.9 3.95 2.9 M0.0 2.9 L2.05 2.9 2.05 -0.55 1.75 -1.25 1.05 -1.55 0.3 -1.25 Q0.0 -0.95 0.0 -0.55 L0.0 2.9 M5.65 -5.2 L10.35 2.8 10.35 5.05 5.7 5.05 5.7 1.55 7.2 1.55 3.3 -5.2 5.65 -5.2 M8.75 4.3 L8.75 3.7 8.45 2.95 Q8.15 2.65 7.7 2.65 7.3 2.65 7.0 2.95 6.7 3.25 6.7 3.7 L6.7 4.3 8.75 4.3 M9.65 5.75 L9.65 10.2 5.7 10.2 5.7 5.75 9.65 5.75 M-0.85 2.9 L-0.85 -0.65 -1.9 -0.65 -1.9 2.9 -0.85 2.9 M8.75 8.95 L8.75 6.5 6.7 6.5 6.7 8.95 8.75 8.95 M-0.85 6.0 L-0.85 10.2 -2.95 10.2 -2.95 0.85 -3.95 0.85 1.05 -7.7 6.0 0.85 5.0 0.85 5.0 10.2 2.9 10.2 2.9 6.0 Q2.9 5.3 2.4 4.8 1.95 4.3 1.25 4.3 L0.85 4.3 Q0.15 4.3 -0.35 4.8 -0.85 5.3 -0.85 6.0 M-8.25 5.05 L-8.25 2.8 -3.55 -5.2 -1.2 -5.2 -5.15 1.55 -3.65 1.55 -3.65 5.05 -8.25 5.05 M-4.65 8.95 L-4.65 6.5 -6.65 6.5 -6.65 8.95 -4.65 8.95 M-4.65 4.3 L-4.65 3.7 Q-4.65 3.25 -4.95 2.95 -5.25 2.65 -5.65 2.65 -6.05 2.65 -6.35 2.95 L-6.65 3.7 -6.65 4.3 -4.65 4.3 M-7.6 10.2 L-7.6 5.75 -3.65 5.75 -3.65 10.2 -7.6 10.2" fill="#ffffcb" fill-rule="evenodd" stroke="none"/>
    <path d="M3.95 2.9 L2.9 2.9 2.9 -0.65 3.95 -0.65 3.95 2.9 M0.0 2.9 L0.0 -0.55 Q0.0 -0.95 0.3 -1.25 L1.05 -1.55 1.75 -1.25 2.05 -0.55 2.05 2.9 0.0 2.9 M10.35 10.9 L-8.3 10.9 -8.3 5.75 -8.95 5.75 -8.95 2.6 -8.3 1.5 -8.3 -2.6 -6.4 -2.6 -6.4 -1.7 -3.95 -5.9 -0.8 -5.9 1.05 -9.1 2.9 -5.9 6.05 -5.9 8.45 -1.8 8.45 -2.6 10.35 -2.6 10.35 1.4 11.05 2.6 11.05 5.75 10.35 5.75 10.35 10.9 M5.65 -5.2 L3.3 -5.2 7.2 1.55 5.7 1.55 5.7 5.05 10.35 5.05 10.35 2.8 5.65 -5.2 M8.75 4.3 L6.7 4.3 6.7 3.7 Q6.7 3.25 7.0 2.95 7.3 2.65 7.7 2.65 8.15 2.65 8.45 2.95 L8.75 3.7 8.75 4.3 M9.65 5.75 L5.7 5.75 5.7 10.2 9.65 10.2 9.65 5.75 M-0.85 6.0 Q-0.85 5.3 -0.35 4.8 0.15 4.3 0.85 4.3 L1.25 4.3 Q1.95 4.3 2.4 4.8 2.9 5.3 2.9 6.0 L2.9 10.2 5.0 10.2 5.0 0.85 6.0 0.85 1.05 -7.7 -3.95 0.85 -2.95 0.85 -2.95 10.2 -0.85 10.2 -0.85 6.0 M8.75 8.95 L6.7 8.95 6.7 6.5 8.75 6.5 8.75 8.95 M-0.85 2.9 L-1.9 2.9 -1.9 -0.65 -0.85 -0.65 -0.85 2.9 M-8.25 5.05 L-3.65 5.05 -3.65 1.55 -5.15 1.55 -1.2 -5.2 -3.55 -5.2 -8.25 2.8 -8.25 5.05 M-4.65 4.3 L-6.65 4.3 -6.65 3.7 -6.35 2.95 Q-6.05 2.65 -5.65 2.65 -5.25 2.65 -4.95 2.95 -4.65 3.25 -4.65 3.7 L-4.65 4.3 M-4.65 8.95 L-6.65 8.95 -6.65 6.5 -4.65 6.5 -4.65 8.95 M-7.6 10.2 L-3.65 10.2 -3.65 5.75 -7.6 5.75 -7.6 10.2" fill="#f5cb5b" fill-opacity="0.29803923" fill-rule="evenodd" stroke="none"/>
  </g>
</svg>
