<svg height="19.2" width="19.2" xmlns="http://www.w3.org/2000/svg"><path d="M12.55 5.4v10.75h2.05V5.4h-2.05m6-.5h-.6v.5H16.3v10.75h1.3V17h.35v.8h.6v.75H.65v-.75h.5V17h.4v-.85H2.9V5.4H1.15v-.5h-.5v-.65l8.9-3.6 9 3.6v.65m-7.8.5H8.5v10.75h2.25V5.4m-6.2 0v10.75h2.1V5.4h-2.1" fill="#ffffcb" fill-rule="evenodd"/><path d="M12.55 5.4v10.75h2.05V5.4h-2.05m6-.5h-.6v.5H16.3v10.75h1.3V17h.35v.8h.6v.75H.65v-.75h.5V17h.4v-.85H2.9V5.4H1.15v-.5h-.5v-.65l8.9-3.6 9 3.6v.65m-7.8.5H8.5v10.75h2.25V5.4m-6.2 0v10.75h2.1V5.4h-2.1" fill="none" stroke="#f5cb5b" stroke-linecap="square" stroke-linejoin="round" stroke-opacity=".298"/></svg>