<?xml version="1.0" encoding="UTF-8" standalone="no"?>
<!-- Generated by IcoMoon.io -->

<svg
   xmlns:dc="http://purl.org/dc/elements/1.1/"
   xmlns:cc="http://creativecommons.org/ns#"
   xmlns:rdf="http://www.w3.org/1999/02/22-rdf-syntax-ns#"
   xmlns:svg="http://www.w3.org/2000/svg"
   xmlns="http://www.w3.org/2000/svg"
   xmlns:sodipodi="http://sodipodi.sourceforge.net/DTD/sodipodi-0.dtd"
   xmlns:inkscape="http://www.inkscape.org/namespaces/inkscape"
   version="1.1"
   width="1024"
   height="1024"
   viewBox="0 0 1024 1024"
   id="svg850"
   sodipodi:docname="map.svg"
   inkscape:version="0.92.4 (5da689c313, 2019-01-14)">
  <metadata
     id="metadata856">
    <rdf:RDF>
      <cc:Work
         rdf:about="">
        <dc:format>image/svg+xml</dc:format>
        <dc:type
           rdf:resource="http://purl.org/dc/dcmitype/StillImage" />
      </cc:Work>
    </rdf:RDF>
  </metadata>
  <defs
     id="defs854" />
  <sodipodi:namedview
     pagecolor="#ffffff"
     bordercolor="#666666"
     borderopacity="1"
     objecttolerance="10"
     gridtolerance="10"
     guidetolerance="10"
     inkscape:pageopacity="0"
     inkscape:pageshadow="2"
     inkscape:window-width="2560"
     inkscape:window-height="1506"
     id="namedview852"
     showgrid="false"
     inkscape:zoom="1.2236328"
     inkscape:cx="512"
     inkscape:cy="512"
     inkscape:window-x="-11"
     inkscape:window-y="-11"
     inkscape:window-maximized="1"
     inkscape:current-layer="svg850" />
  <title
     id="title843" />
  <g
     id="icomoon-ignore" />
  <path
     style="color:#000000;font-style:normal;font-variant:normal;font-weight:normal;font-stretch:normal;font-size:medium;line-height:normal;font-family:sans-serif;font-variant-ligatures:normal;font-variant-position:normal;font-variant-caps:normal;font-variant-numeric:normal;font-variant-alternates:normal;font-feature-settings:normal;text-indent:0;text-align:start;text-decoration:none;text-decoration-line:none;text-decoration-style:solid;text-decoration-color:#000000;letter-spacing:normal;word-spacing:normal;text-transform:none;writing-mode:lr-tb;direction:ltr;text-orientation:mixed;dominant-baseline:auto;baseline-shift:baseline;text-anchor:start;white-space:normal;shape-padding:0;clip-rule:nonzero;display:inline;overflow:visible;visibility:visible;opacity:1;isolation:auto;mix-blend-mode:normal;color-interpolation:sRGB;color-interpolation-filters:linearRGB;solid-color:#000000;solid-opacity:1;vector-effect:none;fill-opacity:1;fill-rule:nonzero;stroke:none;stroke-width:1;stroke-linecap:butt;stroke-linejoin:miter;stroke-miterlimit:4;stroke-dasharray:none;stroke-dashoffset:0;stroke-opacity:1;color-rendering:auto;image-rendering:auto;shape-rendering:auto;text-rendering:auto;enable-background:accumulate;fill:#000000"
     d="m 309.71484,39.5 c -2.89198,0 -5.61857,0.727219 -8.14843,2.171875 l 0.0117,-0.0078 L 48.744141,176.50977 c -8.63e-4,4e-4 -0.0011,0.002 -0.002,0.002 -6.112831,2.87927 -9.238282,8.03785 -9.238282,15.20117 v 775.42773 c 6.85e-4,4.68708 1.734437,8.78845 5.150391,12.20508 3.415993,3.41668 7.517308,5.15039 12.205078,5.15039 2.89198,0 5.620528,-0.72722 8.150391,-2.17187 l 252.820314,-134.83789 0.002,-0.002 c 6.11283,-2.87928 9.23828,-8.03785 9.23828,-15.20118 V 56.855469 C 327.06963,52.16839 325.33588,48.067027 321.91992,44.650391 318.50393,41.233715 314.40261,39.5 309.71484,39.5 Z m 67.42969,0 c -4.68708,6.84e-4 -8.78844,1.734437 -12.20508,5.150391 -3.41667,3.415993 -5.15234,7.517308 -5.15234,12.205078 V 832.2832 c 0,6.82924 3.30013,12.13494 9.73828,15.71289 l 0.01,0.006 269.72656,134.86133 c 2.18557,1.09244 4.72457,1.63086 7.59766,1.63086 4.68707,-6.8e-4 8.79039,-1.73444 12.20703,-5.15039 3.41667,-3.41599 5.15039,-7.51731 5.15039,-12.20508 V 191.71094 c 0,-6.82924 -3.30014,-12.13494 -9.73828,-15.71289 l -0.01,-0.006 L 384.74219,41.130859 C 382.55662,40.03842 380.01762,39.5 377.14453,39.5 Z m 590,0 c -2.89198,0 -5.62053,0.727219 -8.15039,2.171875 L 706.17383,176.50977 c -8.6e-4,4e-4 -0.001,0.002 -0.002,0.002 -6.11284,2.87927 -9.23829,8.03785 -9.23829,15.20117 v 775.42773 c 6.9e-4,4.68708 1.73444,8.78845 5.15039,12.20508 3.416,3.41668 7.51731,5.15039 12.20508,5.15039 2.89198,0 5.61858,-0.72722 8.14844,-2.17187 l -0.0117,0.008 252.83399,-134.8457 0.002,-0.002 C 981.37455,844.6051 984.5,839.44653 984.5,832.2832 V 56.855469 C 984.49932,52.16839 982.76556,48.067027 979.34961,44.650391 975.93362,41.233715 971.8323,39.5 967.14453,39.5 Z m -657.42969,1 c 4.44423,0 8.24338,1.602098 11.49805,4.857422 3.25471,3.255364 4.85677,7.054459 4.85742,11.498047 V 832.2832 c 0,6.881 -2.84188,11.55653 -8.66601,14.29883 l -0.0117,0.006 -252.873049,134.86523 -0.0059,0.002 c -2.38747,1.36334 -4.928944,2.04101 -7.654297,2.04101 -4.44423,0 -8.243373,-1.60209 -11.498047,-4.85742 -3.254713,-3.25536 -4.856773,-7.05446 -4.857422,-11.49805 V 191.71289 c 0,-6.881 2.843839,-11.55653 8.667969,-14.29883 l 0.0098,-0.006 252.874999,-134.865231 0.006,-0.002 C 304.44997,41.177672 306.98949,40.5 309.71484,40.5 Z m 67.42969,0 c 2.74825,0 5.12396,0.512496 7.15039,1.525391 L 654.00195,176.87695 c 6.196,3.44705 9.21485,8.32429 9.21485,14.83399 v 775.42773 c 0,4.44423 -1.6021,8.24338 -4.85742,11.49805 -3.25537,3.25471 -7.05642,4.85677 -11.5,4.85742 -2.74825,0 -5.12397,-0.5125 -7.1504,-1.52539 L 370.01172,847.12305 c -6.20319,-3.44738 -9.22461,-8.32642 -9.22461,-14.83985 V 56.855469 c 0,-4.444231 1.60405,-8.243374 4.85937,-11.498047 3.25537,-3.254713 7.05446,-4.856773 11.49805,-4.857422 z m 590,0 c 4.44423,0 8.24337,1.602098 11.49805,4.857422 3.25471,3.255364 4.85677,7.054459 4.85742,11.498047 V 832.2832 c 0,6.881 -2.84384,11.55653 -8.66797,14.29883 l -0.01,0.006 -252.87305,134.86523 -0.008,0.002 c -2.38747,1.36334 -4.92699,2.04101 -7.65235,2.04101 -4.44423,0 -8.24337,-1.60209 -11.49804,-4.85742 -3.25472,-3.25536 -4.85678,-7.05446 -4.85743,-11.49805 V 191.71289 c 0,-6.881 2.84189,-11.55653 8.66602,-14.29883 l 0.0117,-0.006 252.87305,-134.865231 0.006,-0.002 C 961.8777,41.177672 964.41918,40.5 967.14453,40.5 Z m -62.28711,244.35742 c -4.73589,0 -7.30873,0.03 -9.41992,0.4082 -2.11119,0.37817 -3.71084,1.10546 -6.41602,2.4375 -4.45211,2.19197 -8.763,5.74047 -18.76562,15.38282 l -12.58789,12.13476 -1.27735,-1.4375 c -0.50464,-0.56857 -2.23719,-2.24906 -4.72265,-4.61718 -2.48546,-2.36812 -5.68928,-5.38187 -9.01367,-8.47266 -7.92461,-7.36486 -12.39648,-11.31638 -16.78711,-13.44531 -4.39064,-2.12894 -8.62811,-2.37385 -15.91602,-2.38086 -5.31263,-0.005 -8.04327,-0.002 -10.16797,0.3789 -2.1247,0.38137 -3.58252,1.14786 -6.22851,2.58594 -7.04667,3.82202 -13.58044,10.78671 -17.10742,18.23438 -2.57179,5.4233 -2.8086,6.69356 -2.8086,15.10937 0,7.11744 0.58384,11.75826 3.8711,17.30274 3.28725,5.54447 9.2222,11.9854 19.93164,22.96093 l 7.02929,7.20117 -7.46289,7.63477 c -13.92712,14.25026 -18.72885,19.89541 -21.06445,24.89063 -2.00348,4.2969 -2.28345,6.0655 -2.27344,14.57226 0,9.02421 0.21476,10.09062 2.85547,15.44922 h -0.002 c 4.60309,9.35286 15.67773,18.59933 25.00976,20.82812 4.65597,1.1126 12.90779,0.89387 17.96289,-0.44726 l 0.2793,-0.0723 0.0117,-0.043 c 7.07897,-1.955 12.79295,-6.03642 25.86133,-18.44921 l 11.76562,-11.17188 11.76563,11.17188 c 3.33601,3.16868 6.8825,6.3671 9.91406,8.97265 3.03156,2.60556 5.52186,4.60491 6.85156,5.4336 12.46793,7.74973 28.47023,7.01133 40.50391,-1.85938 5.91938,-4.36648 9.13168,-8.31361 12.37305,-15.23437 2.09015,-4.45794 2.36914,-6.14477 2.36914,-14.6543 0,-8.83206 -0.2295,-10.08376 -2.72852,-15.35156 h 0.002 c -1.97615,-4.17461 -5.49199,-8.72557 -12.70898,-16.52344 -5.47241,-5.91569 -11.13976,-11.87002 -12.67969,-13.32617 h -0.002 l -2.3418,-2.20508 6.41016,-6.57422 c 13.70518,-14.05837 19.51589,-20.85522 21.76367,-25.63086 1.01699,-2.15525 1.60336,-3.66569 1.91797,-5.79101 0.31461,-2.12533 0.36719,-4.84559 0.36719,-9.52344 0,-5.06056 -0.0113,-7.69448 -0.39649,-9.77735 -0.38516,-2.08286 -1.14876,-3.55345 -2.57226,-6.17773 -3.71738,-6.85611 -11.5709,-14.42782 -18.22071,-17.54102 -2.27108,-1.06416 -3.82197,-1.67586 -5.91992,-2.0039 -2.09795,-0.32805 -4.71855,-0.37891 -9.22461,-0.37891 z m 0,1 c 4.49795,0 7.08326,0.0565 9.07031,0.36719 1.98705,0.3107 3.40153,0.86904 5.64844,1.92187 6.35419,2.97481 14.18696,10.50744 17.76758,17.11133 1.42049,2.61873 2.11091,3.94768 2.46875,5.88281 0.35784,1.93514 0.37891,4.53726 0.37891,9.59571 0,4.67015 -0.0568,7.35953 -0.35547,9.37695 -0.29864,2.01742 -0.82997,3.38397 -1.83399,5.51172 -2.11821,4.50036 -7.88535,11.31574 -21.57617,25.35938 l -7.11914,7.30273 3.08203,2.90234 c 1.43863,1.36046 7.16765,7.36949 12.63281,13.27735 7.19502,7.77412 10.63922,12.25809 12.53907,16.27148 2.48497,5.2382 2.63086,6.10589 2.63086,14.92383 0,8.49047 -0.2076,9.8244 -2.27344,14.23047 -3.19663,6.82524 -6.23388,10.55399 -12.0625,14.85351 -11.71433,8.6353 -27.26474,9.34673 -39.38281,1.81446 -1.18631,-0.73932 -3.70938,-2.75056 -6.72657,-5.34375 -3.01718,-2.5932 -6.55396,-5.78119 -9.87695,-8.9375 l -12.45508,-11.82618 -12.45508,11.82618 c -13.22315,12.5598 -18.70962,16.44543 -25.71679,18.3125 l -0.13281,0.0352 c -4.8291,1.25003 -13.02007,1.44921 -17.34376,0.41602 -8.88996,-2.12321 -19.90883,-11.28573 -24.34374,-20.29688 -2.62929,-5.3354 -2.75196,-5.99602 -2.75196,-15.00781 -0.01,-8.48724 0.20317,-9.9113 2.17969,-14.15039 2.2344,-4.77878 6.95817,-10.3775 20.87305,-24.61523 l 8.14453,-8.33204 -7.71094,-7.90039 c -10.70157,-10.96747 -16.59661,-17.39216 -19.78711,-22.77343 -3.19049,-5.38128 -3.73047,-9.72646 -3.73047,-16.79102 0,-8.40019 0.15468,-9.28694 2.71289,-14.68164 3.42502,-7.23233 9.85631,-14.08123 16.68164,-17.7832 2.64201,-1.43592 3.94998,-2.12583 5.92578,-2.48047 1.97581,-0.35464 4.68082,-0.36828 9.99219,-0.36328 7.2661,0.007 11.28911,0.24893 15.48047,2.28125 4.19137,2.03231 8.62363,5.9192 16.54102,13.27734 3.32161,3.08821 6.52237,6.10047 9.0039,8.46484 2.48154,2.36438 4.27866,4.12022 4.66602,4.55665 l 1.96875,2.21679 13.33789,-12.85937 c 9.98738,-9.62766 14.21579,-13.08905 18.51367,-15.20508 h 0.002 c 2.69483,-1.32695 4.16888,-1.99502 6.14844,-2.34961 1.97956,-0.35459 4.51304,-0.39258 9.24414,-0.39258 z"
     id="path848"
     inkscape:connector-curvature="0" />
  <path
     inkscape:connector-curvature="0"
     id="path861"
     d="m 309.71484,39.5 c -2.89198,0 -5.61857,0.727219 -8.14843,2.171875 l 0.0117,-0.0078 L 48.744141,176.50977 c -8.63e-4,4e-4 -0.0011,0.002 -0.002,0.002 -6.112831,2.87927 -9.238282,8.03785 -9.238282,15.20117 v 775.42773 c 6.85e-4,4.68708 1.734437,8.78845 5.150391,12.20508 3.415993,3.41668 7.517308,5.15039 12.205078,5.15039 2.89198,0 5.620528,-0.72722 8.150391,-2.17187 l 252.820314,-134.83789 0.002,-0.002 c 6.11283,-2.87928 9.23828,-8.03785 9.23828,-15.20118 V 56.855469 C 327.06963,52.16839 325.33588,48.067027 321.91992,44.650391 318.50393,41.233715 314.40261,39.5 309.71484,39.5 Z m 67.42969,0 c -4.68708,6.84e-4 -8.78844,1.734437 -12.20508,5.150391 -3.41667,3.415993 -5.15234,7.517308 -5.15234,12.205078 V 832.2832 c 0,6.82924 3.30013,12.13494 9.73828,15.71289 l 0.01,0.006 269.72656,134.86133 c 2.18557,1.09244 4.72457,1.63086 7.59766,1.63086 4.68707,-6.8e-4 8.79039,-1.73444 12.20703,-5.15039 3.41667,-3.41599 5.15039,-7.51731 5.15039,-12.20508 V 191.71094 c 0,-6.82924 -3.30014,-12.13494 -9.73828,-15.71289 l -0.01,-0.006 L 384.74219,41.130859 C 382.55662,40.03842 380.01762,39.5 377.14453,39.5 Z m 590,0 c -2.89198,0 -5.62053,0.727219 -8.15039,2.171875 L 706.17383,176.50977 c -8.6e-4,4e-4 -0.001,0.002 -0.002,0.002 -6.11284,2.87927 -9.23829,8.03785 -9.23829,15.20117 v 775.42773 c 6.9e-4,4.68708 1.73444,8.78845 5.15039,12.20508 3.416,3.41668 7.51731,5.15039 12.20508,5.15039 2.89198,0 5.61858,-0.72722 8.14844,-2.17187 l -0.0117,0.008 252.83399,-134.8457 0.002,-0.002 C 981.37455,844.6051 984.5,839.44653 984.5,832.2832 V 56.855469 C 984.49932,52.16839 982.76556,48.067027 979.34961,44.650391 975.93362,41.233715 971.8323,39.5 967.14453,39.5 Z m -657.42969,1 c 4.44423,0 8.24338,1.602098 11.49805,4.857422 3.25471,3.255364 4.85677,7.054459 4.85742,11.498047 V 832.2832 c 0,6.881 -2.84188,11.55653 -8.66601,14.29883 l -0.0117,0.006 -252.873049,134.86523 -0.0059,0.002 c -2.38747,1.36334 -4.928944,2.04101 -7.654297,2.04101 -4.44423,0 -8.243373,-1.60209 -11.498047,-4.85742 -3.254713,-3.25536 -4.856773,-7.05446 -4.857422,-11.49805 V 191.71289 c 0,-6.881 2.843839,-11.55653 8.667969,-14.29883 l 0.0098,-0.006 252.874999,-134.865231 0.006,-0.002 C 304.44997,41.177672 306.98949,40.5 309.71484,40.5 Z m 67.42969,0 c 2.74825,0 5.12396,0.512496 7.15039,1.525391 L 654.00195,176.87695 c 6.196,3.44705 9.21485,8.32429 9.21485,14.83399 v 775.42773 c 0,4.44423 -1.6021,8.24338 -4.85742,11.49805 -3.25537,3.25471 -7.05642,4.85677 -11.5,4.85742 -2.74825,0 -5.12397,-0.5125 -7.1504,-1.52539 L 370.01172,847.12305 c -6.20319,-3.44738 -9.22461,-8.32642 -9.22461,-14.83985 V 56.855469 c 0,-4.444231 1.60405,-8.243374 4.85937,-11.498047 3.25537,-3.254713 7.05446,-4.856773 11.49805,-4.857422 z m 590,0 c 4.44423,0 8.24337,1.602098 11.49805,4.857422 3.25471,3.255364 4.85677,7.054459 4.85742,11.498047 V 832.2832 c 0,6.881 -2.84384,11.55653 -8.66797,14.29883 l -0.01,0.006 -252.87305,134.86523 -0.008,0.002 c -2.38747,1.36334 -4.92699,2.04101 -7.65235,2.04101 -4.44423,0 -8.24337,-1.60209 -11.49804,-4.85742 -3.25472,-3.25536 -4.85678,-7.05446 -4.85743,-11.49805 V 191.71289 c 0,-6.881 2.84189,-11.55653 8.66602,-14.29883 l 0.0117,-0.006 252.87305,-134.865231 0.006,-0.002 C 961.8777,41.177672 964.41918,40.5 967.14453,40.5 Z m -62.28711,244.35742 c -4.73589,0 -7.30873,0.03 -9.41992,0.4082 -2.11119,0.37817 -3.71084,1.10546 -6.41602,2.4375 -4.45211,2.19197 -8.763,5.74047 -18.76562,15.38282 l -12.58789,12.13476 -1.27735,-1.4375 c -0.50464,-0.56857 -2.23719,-2.24906 -4.72265,-4.61718 -2.48546,-2.36812 -5.68928,-5.38187 -9.01367,-8.47266 -7.92461,-7.36486 -12.39648,-11.31638 -16.78711,-13.44531 -4.39064,-2.12894 -8.62811,-2.37385 -15.91602,-2.38086 -5.31263,-0.005 -8.04327,-0.002 -10.16797,0.3789 -2.1247,0.38137 -3.58252,1.14786 -6.22851,2.58594 -7.04667,3.82202 -13.58044,10.78671 -17.10742,18.23438 -2.57179,5.4233 -2.8086,6.69356 -2.8086,15.10937 0,7.11744 0.58384,11.75826 3.8711,17.30274 3.28725,5.54447 9.2222,11.9854 19.93164,22.96093 l 7.02929,7.20117 -7.46289,7.63477 c -13.92712,14.25026 -18.72885,19.89541 -21.06445,24.89063 -2.00348,4.2969 -2.28345,6.0655 -2.27344,14.57226 0,9.02421 0.21476,10.09062 2.85547,15.44922 h -0.002 c 4.60309,9.35286 15.67773,18.59933 25.00976,20.82812 4.65597,1.1126 12.90779,0.89387 17.96289,-0.44726 l 0.2793,-0.0723 0.0117,-0.043 c 7.07897,-1.955 12.79295,-6.03642 25.86133,-18.44921 l 11.76562,-11.17188 11.76563,11.17188 c 3.33601,3.16868 6.8825,6.3671 9.91406,8.97265 3.03156,2.60556 5.52186,4.60491 6.85156,5.4336 12.46793,7.74973 28.47023,7.01133 40.50391,-1.85938 5.91938,-4.36648 9.13168,-8.31361 12.37305,-15.23437 2.09015,-4.45794 2.36914,-6.14477 2.36914,-14.6543 0,-8.83206 -0.2295,-10.08376 -2.72852,-15.35156 h 0.002 c -1.97615,-4.17461 -5.49199,-8.72557 -12.70898,-16.52344 -5.47241,-5.91569 -11.13976,-11.87002 -12.67969,-13.32617 h -0.002 l -2.3418,-2.20508 6.41016,-6.57422 c 13.70518,-14.05837 19.51589,-20.85522 21.76367,-25.63086 1.01699,-2.15525 1.60336,-3.66569 1.91797,-5.79101 0.31461,-2.12533 0.36719,-4.84559 0.36719,-9.52344 0,-5.06056 -0.0113,-7.69448 -0.39649,-9.77735 -0.38516,-2.08286 -1.14876,-3.55345 -2.57226,-6.17773 -3.71738,-6.85611 -11.5709,-14.42782 -18.22071,-17.54102 -2.27108,-1.06416 -3.82197,-1.67586 -5.91992,-2.0039 -2.09795,-0.32805 -4.71855,-0.37891 -9.22461,-0.37891 z m 0,1 c 4.49795,0 7.08326,0.0565 9.07031,0.36719 1.98705,0.3107 3.40153,0.86904 5.64844,1.92187 6.35419,2.97481 14.18696,10.50744 17.76758,17.11133 1.42049,2.61873 2.11091,3.94768 2.46875,5.88281 0.35784,1.93514 0.37891,4.53726 0.37891,9.59571 0,4.67015 -0.0568,7.35953 -0.35547,9.37695 -0.29864,2.01742 -0.82997,3.38397 -1.83399,5.51172 -2.11821,4.50036 -7.88535,11.31574 -21.57617,25.35938 l -7.11914,7.30273 3.08203,2.90234 c 1.43863,1.36046 7.16765,7.36949 12.63281,13.27735 7.19502,7.77412 10.63922,12.25809 12.53907,16.27148 2.48497,5.2382 2.63086,6.10589 2.63086,14.92383 0,8.49047 -0.2076,9.8244 -2.27344,14.23047 -3.19663,6.82524 -6.23388,10.55399 -12.0625,14.85351 -11.71433,8.6353 -27.26474,9.34673 -39.38281,1.81446 -1.18631,-0.73932 -3.70938,-2.75056 -6.72657,-5.34375 -3.01718,-2.5932 -6.55396,-5.78119 -9.87695,-8.9375 l -12.45508,-11.82618 -12.45508,11.82618 c -13.22315,12.5598 -18.70962,16.44543 -25.71679,18.3125 l -0.13281,0.0352 c -4.8291,1.25003 -13.02007,1.44921 -17.34376,0.41602 -8.88996,-2.12321 -19.90883,-11.28573 -24.34374,-20.29688 -2.62929,-5.3354 -2.75196,-5.99602 -2.75196,-15.00781 -0.01,-8.48724 0.20317,-9.9113 2.17969,-14.15039 2.2344,-4.77878 6.95817,-10.3775 20.87305,-24.61523 l 8.14453,-8.33204 -7.71094,-7.90039 c -10.70157,-10.96747 -16.59661,-17.39216 -19.78711,-22.77343 -3.19049,-5.38128 -3.73047,-9.72646 -3.73047,-16.79102 0,-8.40019 0.15468,-9.28694 2.71289,-14.68164 3.42502,-7.23233 9.85631,-14.08123 16.68164,-17.7832 2.64201,-1.43592 3.94998,-2.12583 5.92578,-2.48047 1.97581,-0.35464 4.68082,-0.36828 9.99219,-0.36328 7.2661,0.007 11.28911,0.24893 15.48047,2.28125 4.19137,2.03231 8.62363,5.9192 16.54102,13.27734 3.32161,3.08821 6.52237,6.10047 9.0039,8.46484 2.48154,2.36438 4.27866,4.12022 4.66602,4.55665 l 1.96875,2.21679 13.33789,-12.85937 c 9.98738,-9.62766 14.21579,-13.08905 18.51367,-15.20508 h 0.002 c 2.69483,-1.32695 4.16888,-1.99502 6.14844,-2.34961 1.97956,-0.35459 4.51304,-0.39258 9.24414,-0.39258 z"
     style="color:#000000;font-style:normal;font-variant:normal;font-weight:normal;font-stretch:normal;font-size:medium;line-height:normal;font-family:sans-serif;font-variant-ligatures:normal;font-variant-position:normal;font-variant-caps:normal;font-variant-numeric:normal;font-variant-alternates:normal;font-feature-settings:normal;text-indent:0;text-align:start;text-decoration:none;text-decoration-line:none;text-decoration-style:solid;text-decoration-color:#000000;letter-spacing:normal;word-spacing:normal;text-transform:none;writing-mode:lr-tb;direction:ltr;text-orientation:mixed;dominant-baseline:auto;baseline-shift:baseline;text-anchor:start;white-space:normal;shape-padding:0;clip-rule:nonzero;display:inline;overflow:visible;visibility:visible;opacity:1;isolation:auto;mix-blend-mode:normal;color-interpolation:sRGB;color-interpolation-filters:linearRGB;solid-color:#000000;solid-opacity:1;vector-effect:none;fill-opacity:1;fill-rule:nonzero;stroke:none;stroke-width:1;stroke-linecap:butt;stroke-linejoin:miter;stroke-miterlimit:4;stroke-dasharray:none;stroke-dashoffset:0;stroke-opacity:1;color-rendering:auto;image-rendering:auto;shape-rendering:auto;text-rendering:auto;enable-background:accumulate;fill:#000000" />
  <path
     style="fill:#000000;fill-opacity:1;stroke:none;stroke-width:6.17755222;stroke-miterlimit:4;stroke-dasharray:none;stroke-opacity:1"
     d="m 50.015004,981.90772 c -3.843841,-2.09835 -6.218511,-4.54336 -7.853628,-8.08617 -1.460071,-3.16353 -1.509299,-15.8899 -1.526668,-394.67255 l -0.01795,-391.40359 1.712011,-3.53654 c 1.345678,-2.7798 2.875799,-4.21589 7.150838,-6.71138 2.991355,-1.74617 61.827433,-33.22606 130.746833,-69.95533 l 125.308,-66.780486 5.23707,0.333471 c 5.78479,0.368349 8.00857,1.597798 12.15389,6.719454 l 2.49902,3.087614 0.20684,392.752697 0.20683,392.75269 -1.67714,3.4645 c -0.92242,1.90547 -2.61562,4.07942 -3.76266,4.83099 -1.14704,0.75157 -59.69435,32.10668 -130.10512,69.67808 -123.769543,66.04367 -128.182374,68.32074 -132.92302,68.58822 -3.432705,0.19377 -5.638796,-0.12471 -7.355148,-1.06167 z"
     id="path863"
     inkscape:connector-curvature="0" />
  <path
     style="fill:#000000;fill-opacity:1;stroke:none;stroke-width:6.17755222;stroke-miterlimit:4;stroke-dasharray:none;stroke-opacity:1"
     d="m 505.70542,915.01788 c -82.6022,-41.29728 -137.62089,-69.25946 -139.46965,-70.8827 -1.67927,-1.47442 -3.55007,-3.8699 -4.15734,-5.3233 -0.92213,-2.20696 -1.10413,-67.17778 -1.10413,-394.15865 0,-383.649278 0.0313,-391.577034 1.55963,-394.548197 3.29088,-6.397808 7.88901,-9.161378 15.24304,-9.161378 4.24719,0 10.3251,2.94375 141.59131,68.577745 147.04316,73.52257 141.18494,70.34688 143.13606,77.5928 0.59094,2.19457 0.79087,123.81479 0.64732,393.77955 l -0.20769,390.60431 -2.45171,3.95862 c -3.16023,5.10259 -7.96255,7.76311 -14.01286,7.76311 -4.14065,0 -11.14707,-3.39448 -140.77398,-68.20191 z"
     id="path865"
     inkscape:connector-curvature="0" />
  <path
     style="fill:#000000;fill-opacity:1;stroke:none;stroke-width:6.17755222;stroke-miterlimit:4;stroke-dasharray:none;stroke-opacity:1"
     d="M 642.10439,984.08165 C 640.98069,983.734 578.63156,952.7287 503.55077,915.18108 355.93336,841.35809 362.33954,844.84353 360.21601,837.19623 c -1.22191,-4.40035 -1.22191,-780.67303 0,-785.073387 1.10771,-3.989128 5.95282,-9.374459 10.15654,-11.288974 1.79792,-0.818837 5.01189,-1.496871 7.14214,-1.506743 3.51406,-0.01628 16.62345,6.354498 141.38229,68.707684 75.62999,37.79909 138.5541,69.70205 139.83133,70.89545 1.27724,1.1934 3.02523,3.53648 3.88441,5.20685 1.53252,2.97942 1.55823,10.49308 1.35532,396.08604 l -0.20683,393.04897 -2.45677,3.54371 c -4.21234,6.07584 -12.6842,9.28187 -19.20005,7.26582 z M 361.57269,825.28843 c -0.17206,-1.9103 -0.31283,-0.34733 -0.31283,3.47326 0,3.82059 0.14077,5.38356 0.31283,3.47327 0.17206,-1.9103 0.17206,-5.03624 0,-6.94653 z M 658.61206,180.48715 c -0.46996,-0.56185 -2.07796,-1.72232 -3.57333,-2.57881 -3.20536,-1.83593 -2.67113,-1.06879 1.12486,1.61523 3.08942,2.18443 3.65624,2.4075 2.44847,0.96358 z M 361.57269,56.266879 c -0.17206,-1.910295 -0.31283,-0.347326 -0.31283,3.473265 0,3.82059 0.14077,5.383559 0.31283,3.473264 0.17206,-1.910295 0.17206,-5.036233 0,-6.946529 z"
     id="path867"
     inkscape:connector-curvature="0" />
  <path
     style="fill:#000000;fill-opacity:1;stroke:none;stroke-width:6.17755222;stroke-miterlimit:4;stroke-dasharray:none;stroke-opacity:1"
     d="m 51.361106,983.96119 c -1.507051,-0.45741 -4.502023,-2.59359 -6.655492,-4.74709 -3.148564,-3.14858 -4.100839,-4.78028 -4.862233,-8.33159 -0.712096,-3.32125 -0.885554,-101.0603 -0.699656,-394.23893 l 0.247177,-389.82283 1.854931,-3.47235 c 1.020212,-1.9098 3.226757,-4.35986 4.903432,-5.44458 2.468072,-1.59673 235.221445,-125.901744 253.370915,-135.316095 6.37632,-3.307476 11.22034,-3.958681 15.96583,-2.146364 3.90841,1.492634 8.105,5.208726 10.2017,9.033622 1.27703,2.32964 1.38816,29.296053 1.61836,392.732837 0.18175,286.92874 0.003,391.36861 -0.67269,394.52713 -0.62071,2.89861 -1.76426,5.16872 -3.51614,6.98005 -1.75029,1.8097 -44.74841,25.14826 -131.96252,71.62683 C 52.64234,989.1585 58.695372,986.18727 51.361106,983.96119 Z M 41.217462,958.90694 c -0.16835,-2.13503 -0.306091,-0.38819 -0.306091,3.88189 0,4.27007 0.137741,6.01692 0.306091,3.88188 0.16835,-2.13504 0.16835,-5.62873 0,-7.76377 z"
     id="path869"
     inkscape:connector-curvature="0" />
  <path
     style="fill:#000000;fill-opacity:1;stroke:none;stroke-width:6.17755222;stroke-miterlimit:4;stroke-dasharray:none;stroke-opacity:1"
     d="m 707.8921,982.07525 c -2.9464,-1.29851 -6.59902,-4.85791 -8.45258,-8.2367 -1.25558,-2.28876 -1.35428,-31.05957 -1.35428,-394.74326 0,-363.48302 0.0993,-392.45449 1.35251,-394.72626 0.74389,-1.34844 2.21492,-3.22513 3.26896,-4.17043 1.05404,-0.94529 59.65434,-32.53283 130.2229,-70.19453 122.64824,-65.456086 128.52567,-68.492528 133.27724,-68.854603 8.37127,-0.6379 14.64873,3.906603 16.64885,12.052768 0.65436,2.665047 0.84003,111.117875 0.67439,393.909015 -0.21122,360.61108 -0.33078,390.41769 -1.57507,392.68509 -0.74058,1.34951 -2.10169,3.13709 -3.0247,3.97239 -0.92301,0.83531 -59.87879,32.55355 -131.01285,70.48487 -122.96973,65.5722 -129.53739,68.96464 -133.45415,68.93424 -2.26573,-0.0177 -5.22278,-0.51829 -6.57122,-1.11259 z M 821.71648,450.89938 c 5.7241,-2.09635 11.48565,-6.41025 23.9726,-17.9492 l 11.82245,-10.92491 6.91415,6.562 c 11.17577,10.60657 20.55847,18.57233 23.85965,20.25647 17.92541,9.14486 40.79087,1.24819 49.91051,-17.23679 2.39054,-4.84547 2.63249,-6.06987 2.88637,-14.60612 0.42897,-14.42394 -1.61091,-18.4033 -19.07258,-37.20645 l -10.78766,-11.61643 10.89189,-11.68134 c 18.19597,-19.51482 19.09987,-21.21991 19.09987,-36.02956 0,-9.06444 -0.13432,-9.84238 -2.52561,-14.62778 -3.25426,-6.51234 -11.10334,-14.43287 -17.90536,-18.06834 -5.24201,-2.80169 -5.44696,-2.83941 -15.54378,-2.86034 -9.91556,-0.0205 -10.39876,0.061 -15.63751,2.63959 -5.43174,2.67358 -11.39691,7.65643 -24.53665,20.49605 l -7.09223,6.93025 -10.88702,-10.15077 c -20.71631,-19.31535 -21.64706,-19.8151 -37.03864,-19.88682 -10.21957,-0.0476 -10.81051,0.0439 -15.51958,2.40221 -6.70949,3.36021 -14.21135,11.01662 -17.66736,18.03137 -2.44781,4.96839 -2.80543,6.53423 -3.06152,13.40488 -0.55479,14.88456 1.6707,19.31292 19.06028,37.92681 l 11.19296,11.98102 -10.55541,11.22261 c -19.04338,20.2471 -20.12704,22.29432 -19.68219,37.18297 0.2433,8.14274 0.53974,9.72146 2.62156,13.96124 4.09753,8.34492 13.91451,17.03218 22.98716,20.34184 4.93108,1.79885 16.74738,1.53677 22.29365,-0.49446 z"
     id="path871"
     inkscape:connector-curvature="0" />
  <path
     style="fill:#000000;fill-opacity:1;stroke:none;stroke-width:6.17755222;stroke-miterlimit:4;stroke-dasharray:none;stroke-opacity:1"
     d="m 706.6802,982.64903 c -2.81419,-1.48247 -5.39798,-3.66531 -6.94653,-5.86867 l -2.46567,-3.50824 -0.23824,-392.40843 c -0.16016,-263.80315 0.0337,-393.35349 0.59147,-395.29199 0.45634,-1.58595 2.03458,-4.0465 3.50719,-5.4679 1.5845,-1.5294 55.37803,-30.68922 131.7783,-71.43299 139.83607,-74.573669 133.13526,-71.307181 140.20343,-68.345873 4.22817,1.77145 8.19278,5.449103 9.88109,9.165915 1.44874,3.189385 1.50085,16.763068 1.51819,395.405558 0.0176,383.8292 -0.0149,392.16676 -1.537,395.13487 -0.85522,1.66765 -2.41819,3.82056 -3.47326,4.78424 -1.05508,0.96369 -59.99068,32.71538 -130.968,70.55933 -143.81637,76.68052 -133.38568,71.73369 -141.85097,67.27418 z m 14.69634,-1.06371 c 0.67422,-0.43576 0.8581,-0.79224 0.40862,-0.79224 -0.44949,0 -1.36888,0.35648 -2.0431,0.79224 -0.67422,0.43575 -0.8581,0.79223 -0.40862,0.79223 0.44948,0 1.36887,-0.35648 2.0431,-0.79223 z m 98.65521,-531.62094 c 6.13167,-1.82091 12.34113,-6.34879 25.55512,-18.63455 l 11.84002,-11.00831 8.85972,8.28712 c 14.43485,13.50196 18.6594,16.91849 24.25832,19.61851 4.96341,2.39355 5.90207,2.56168 14.30168,2.56168 8.41917,0 9.34011,-0.16603 14.51295,-2.61635 7.44453,-3.5264 13.78688,-9.67059 17.36463,-16.82209 2.79287,-5.58263 2.85489,-5.92262 2.84708,-15.60832 -0.007,-8.65804 -0.2483,-10.41743 -1.92173,-14.01106 -2.3615,-5.07122 -7.0892,-10.97039 -19.04554,-23.76477 l -9.24708,-9.89523 10.22299,-10.78339 c 19.3305,-20.39017 19.95614,-21.52834 19.98139,-36.35022 0.0223,-13.09306 -0.88588,-15.2949 -10.18335,-24.68886 -8.48612,-8.57421 -12.26264,-10.1333 -24.54546,-10.1333 -13.41473,0 -16.23757,1.53783 -34.88149,19.0028 l -12.15245,11.384 -8.5975,-8.04256 c -22.78353,-21.31293 -23.53192,-21.74849 -38.16229,-22.20984 -10.35963,-0.32668 -10.49431,-0.30746 -15.65774,2.23449 -6.70607,3.30138 -13.30626,9.9307 -17.1281,17.20368 -2.93538,5.58603 -3.01258,5.96086 -3.0365,14.743 -0.0135,4.95618 0.42201,10.38737 0.96779,12.0693 1.69836,5.23376 6.23955,11.21209 18.00096,23.69761 6.24312,6.6275 11.34058,12.23388 11.32768,12.45862 -0.0129,0.22475 -5.72148,6.47662 -12.68575,13.89306 -8.78403,9.35435 -13.40514,14.96369 -15.08756,18.31409 -2.29177,4.56384 -2.42525,5.37754 -2.42525,14.78408 0,9.42254 0.13083,10.21624 2.44861,14.85451 3.33562,6.67519 11.11257,14.28676 18.24069,17.85281 5.17878,2.59084 6.3104,2.84256 12.77895,2.84256 3.94746,0 8.9397,-0.54723 11.24921,-1.23307 z"
     id="path873"
     inkscape:connector-curvature="0" />
</svg>
