<?xml version="1.0" encoding="UTF-8" standalone="no"?>
<svg xmlns:xlink="http://www.w3.org/1999/xlink" height="45.45px" width="48.15px" xmlns="http://www.w3.org/2000/svg">
  <g transform="matrix(1.0, 0.0, 0.0, 1.0, 0.0, 0.0)">
    <path d="M24.1 0.0 L48.15 13.3 24.1 26.55 0.0 13.3 24.1 0.0 M26.15 20.6 L26.15 18.1 20.6 18.1 20.6 20.6 26.15 20.6 M29.6 13.3 Q29.85 13.25 30.1 13.0 L30.75 12.45 31.35 11.75 31.8 10.95 31.95 10.1 31.95 9.9 31.95 9.45 31.75 8.75 31.25 8.0 Q30.9 7.55 30.3 7.2 29.75 6.85 28.9 6.55 L26.85 6.05 24.0 5.9 21.25 6.05 19.15 6.5 Q18.25 6.75 17.65 7.15 L16.7 7.8 16.15 8.55 15.85 9.2 15.75 9.6 15.75 9.75 21.3 9.75 21.35 9.65 21.4 9.35 21.65 8.9 22.15 8.5 Q22.5 8.3 22.95 8.15 L24.0 8.0 25.15 8.15 25.85 8.5 26.25 8.9 26.45 9.35 26.5 9.65 26.5 9.9 26.5 10.3 26.35 10.9 25.95 11.6 25.25 12.25 24.0 12.95 22.6 13.65 21.6 14.25 21.0 14.75 20.7 15.2 20.6 15.55 20.6 16.2 20.6 16.45 26.15 16.45 26.1 16.35 26.1 16.05 26.2 15.7 26.35 15.3 26.6 14.95 27.1 14.6 27.7 14.25 28.4 13.85 29.05 13.55 29.6 13.3 M48.05 22.75 L24.0 36.05 0.0 22.75 6.05 19.45 24.0 29.15 41.95 19.45 48.05 22.75 M24.0 38.55 L41.95 28.85 48.05 32.2 24.0 45.45 0.0 32.2 6.05 28.85 24.0 38.55" fill="#ffffcb" fill-rule="evenodd" stroke="#f5cb5b" stroke-linecap="square" stroke-linejoin="round" stroke-opacity=".298"/>
  </g>
</svg>
