<svg height="21.1" width="21.1" xmlns="http://www.w3.org/2000/svg"><path d="M12.75 3.7v4.65h4.65v4.4h-4.65v4.65h-4.4v-4.65H3.7v-4.4h4.65V3.7h4.4M10.55.65q4.1 0 7 2.9 2.9 2.9 2.9 7t-2.9 7q-2.9 2.9-7 2.9t-7-2.9q-2.9-2.9-2.9-7t2.9-7q2.9-2.9 7-2.9M16.4 4.7q-2.45-2.45-5.85-2.45-3.4 0-5.8 2.45Q2.3 7.15 2.3 10.55q0 3.4 2.45 5.85 2.4 2.4 5.8 2.4t5.85-2.4q2.4-2.45 2.4-5.85 0-3.4-2.4-5.85" fill="#ffffcb" fill-rule="evenodd"/><path d="M16.4 4.7q2.4 2.45 2.4 5.85 0 3.4-2.4 5.85-2.45 2.4-5.85 2.4-3.4 0-5.8-2.4-2.45-2.45-2.45-5.85 0-3.4 2.45-5.85 2.4-2.45 5.8-2.45T16.4 4.7M10.55.65q-4.1 0-7 2.9-2.9 2.9-2.9 7t2.9 7q2.9 2.9 7 2.9t7-2.9q2.9-2.9 2.9-7t-2.9-7q-2.9-2.9-7-2.9m2.2 3.05h-4.4v4.65H3.7v4.4h4.65v4.65h4.4v-4.65h4.65v-4.4h-4.65V3.7" fill="none" stroke="#f5cb5b" stroke-linecap="square" stroke-linejoin="round" stroke-opacity=".298"/></svg>