<?xml version="1.0" encoding="UTF-8" standalone="no"?>
<svg xmlns:xlink="http://www.w3.org/1999/xlink" height="20.1px" width="20.1px" xmlns="http://www.w3.org/2000/svg">
  <g transform="matrix(1.0, 0.0, 0.0, 1.0, 10.05, 10.3)">
    <path d="M3.35 -1.8 Q4.3 -4.4 5.15 -4.4 6.1 -4.4 7.85 2.4 L9.4 9.15 2.8 9.15 Q2.6 7.15 1.9 5.9 1.15 4.6 0.25 4.6 -0.65 4.6 -1.35 5.9 -2.05 7.15 -2.3 9.15 L-9.4 9.15 -7.9 3.9 Q-6.2 -1.35 -4.9 -1.35 -4.4 -1.35 -3.65 0.1 -1.4 -9.65 0.25 -9.65 1.4 -9.65 3.35 -1.8" fill="#ffffcb" fill-rule="evenodd" stroke="none"/>
    <path d="M3.35 -1.8 Q4.3 -4.4 5.15 -4.4 6.1 -4.4 7.85 2.4 L9.4 9.15 2.8 9.15 Q2.6 7.15 1.9 5.9 1.15 4.6 0.25 4.6 -0.65 4.6 -1.35 5.9 -2.05 7.15 -2.3 9.15 L-9.4 9.15 -7.9 3.9 Q-6.2 -1.35 -4.9 -1.35 -4.4 -1.35 -3.65 0.1 -1.4 -9.65 0.25 -9.65 1.4 -9.65 3.35 -1.8 Z" fill="none" stroke="#f5cb5b" stroke-linecap="square" stroke-linejoin="round" stroke-opacity="0.29803923" stroke-width="1.0"/>
  </g>
</svg>
