<svg height="20.1" width="20.1" xmlns="http://www.w3.org/2000/svg"><path d="M13.4 8.5q.95-2.6 1.8-2.6.95 0 2.7 6.8l1.55 6.75h-6.6q-.2-2-.9-3.25-.75-1.3-1.65-1.3-.9 0-1.6 1.3-.7 1.25-.95 3.25H.65l1.5-5.25q1.7-5.25 3-5.25.5 0 1.25 1.45Q8.65.65 10.3.65q1.15 0 3.1 7.85" fill="#ffffcb" fill-rule="evenodd"/><path d="M13.4 8.5q.95-2.6 1.8-2.6.95 0 2.7 6.8l1.55 6.75h-6.6q-.2-2-.9-3.25-.75-1.3-1.65-1.3-.9 0-1.6 1.3-.7 1.25-.95 3.25H.65l1.5-5.25q1.7-5.25 3-5.25.5 0 1.25 1.45Q8.65.65 10.3.65q1.15 0 3.1 7.85z" fill="none" stroke="#f5cb5b" stroke-linecap="square" stroke-linejoin="round" stroke-opacity=".298"/></svg>