<svg height="21.1" width="17.35" xmlns="http://www.w3.org/2000/svg"><path d="M14.6 14.7v5.75h-1.7V14.7h1.7m.85 0h1.25v5.75h-1.25V14.7m-14.8 0H1.9v5.75H.65V14.7m6.2 1.6H4.7v4.15h-2V14.7h9.35v5.75h-5.2V16.3M8.7 3.85q.65 0 1.25.35l.8 1V.65q2.6.7 4.25 2.8 1.7 2.2 1.7 4.95v4.4H.65V8.4q0-2.75 1.65-4.95Q4 1.35 6.6.65V5.2l.8-1 1.3-.35m2.05 3.2Q10.15 8.4 8.7 8.4l-1.3-.35-.8-1v4h4.15v-4" fill="#ffffcb" fill-rule="evenodd"/><path d="M10.75 7.05v4H6.6v-4l.8 1 1.3.35q1.45 0 2.05-1.35M8.7 3.85l-1.3.35-.8 1V.65q-2.6.7-4.3 2.8Q.65 5.65.65 8.4v4.4H16.7V8.4q0-2.75-1.7-4.95-1.65-2.1-4.25-2.8V5.2l-.8-1q-.6-.35-1.25-.35M6.85 16.3v4.15h5.2V14.7H2.7v5.75h2V16.3h2.15m-6.2-1.6v5.75H1.9V14.7H.65m14.8 0v5.75h1.25V14.7h-1.25m-.85 0h-1.7v5.75h1.7V14.7" fill="none" stroke="#f5cb5b" stroke-linecap="square" stroke-linejoin="round" stroke-opacity=".298"/></svg>