<svg height="20.3" width="18.75" xmlns="http://www.w3.org/2000/svg"><path d="M9.35 11.65q1.4 0 2.35 1 1.05.95 1.05 2.4V17l-.3 1.4q-1.25 1.25-3 1.25H9.3q-1.8 0-3-1.25-.4-.65-.4-1.4v-1.95q0-1.45 1.05-2.4 1-1 2.4-1m.75-11h1.05q2.95 0 3.9 3.35l3.05 8.7-.45 1.1q-.65 1.25-2.25 1.8-.8.3-1.5 1v-1.55q0-1.9-1.35-3.25-1.4-1.25-3.2-1.25-1.85 0-3.25 1.25-1.35 1.35-1.35 3.25v1.55q-.65-.7-1.45-1-1.6-.55-2.25-1.8l-.4-1.1L3.6 4Q4.55.65 7.55.65H8.6V1.8h1.5V.65m5.4 8.4L14.35 7H4.3L3.2 9.05l2.5 1.5 2.8-2.5h1.7l2.75 2.5 2.55-1.5" fill="#ffffcb" fill-rule="evenodd"/><path d="M15.5 9.05l-2.55 1.5-2.75-2.5H8.5l-2.8 2.5-2.5-1.5L4.3 7h10.05l1.15 2.05M10.1.65V1.8H8.6V.65H7.55Q4.55.65 3.6 4L.65 12.7l.4 1.1q.65 1.25 2.25 1.8.8.3 1.45 1v-1.55q0-1.9 1.35-3.25 1.4-1.25 3.25-1.25 1.8 0 3.2 1.25 1.35 1.35 1.35 3.25v1.55q.7-.7 1.5-1 1.6-.55 2.25-1.8l.45-1.1L15.05 4Q14.1.65 11.15.65H10.1m-.75 11q-1.4 0-2.4 1-1.05.95-1.05 2.4V17q0 .75.4 1.4 1.2 1.25 3 1.25h.15q1.75 0 3-1.25l.3-1.4v-1.95q0-1.45-1.05-2.4-.95-1-2.35-1" fill="none" stroke="#f5cb5b" stroke-linecap="square" stroke-linejoin="round" stroke-opacity=".298"/></svg>