<svg height="14.6" width="21.05" xmlns="http://www.w3.org/2000/svg"><g fill-rule="evenodd"><path d="M9.55 2.55v.35l-.05-.6.05.25m11.05 5.5l-.65-.9.2.25.45.65M4.35 2.1l1.7-.1h.25l-1.95.1" fill="#f3c95f"/><path d="M13.9.75l1.2.45.05.05H15l-1.15.15-1.35.45q.4-.9 1.15-1.05l.25-.05m.85 1.3l1.45.35 2.3 3.7-1.8-.35q-1.8 0-3.05 1.25-1.05 1-1.25 2.4l-.45-.7q-.6-.6-1.4-.6-.8 0-1.4.6H9.1l-.4.7q-.25-1.3-1.2-2.3-1.35-1.25-3.15-1.25l-1.85.4L4.85 2.4l1.45-.35q.8 0 1.85.7 1.6.8 2.5.8 1.05 0 2.35-.85l.4-.2 1.35-.45m.4 8.7l.45.3q-.55-1 .25-1.8t1.8-.3l-.25-.4q-.5-.45-1.1-.45-.65 0-1.15.45-.4.45-.4 1.1 0 .7.4 1.1M16.7 7.3q1.15 0 1.95.85.8.8.8 1.9 0 1.2-.8 2-.8.85-1.95.85t-1.95-.85q-.8-.8-.8-2 0-1.1.8-1.9.8-.85 1.95-.85m-5.25 2.75l-.25.7-.2.2-.3.1H10.55l-.7-.3-.25-.7.25-.55v-.05q.35-.3.7-.3t.65.3l.25.6M7.2.75l.3.05q.65.15 1.05 1.05L7.2 1.4l-1.15-.15h-.1L7.2.75M4.35 7.4q1.15 0 1.95.8.85.8.85 2 0 1.15-.85 1.95-.8.85-1.95.85t-1.95-.85q-.8-.8-.8-1.95 0-1.2.8-2t1.95-.8M2.7 10.75l.4.3q-.45-1 .3-1.8.8-.8 1.8-.3l-.25-.4q-.5-.45-1.15-.45-.65 0-1.1.45l-.45 1.1.45 1.1" fill="#ffffcb"/><path d="M13.9.75l-.25.05q-.75.15-1.15 1.05l1.35-.45L15 1.25h.15l-.05-.05-1.2-.45m-4.35 1.8l1.1.25.9-.2q.05-.7.45-1.35.5-1 1.45-1.2L13.9 0l1.2.35.5.3.5.45.4.6h.05l.15.1.1.1 3.35 5.5-.2-.25.65.9.25.5.05.2.05.15V9l.05.15v.2l.05.15v.55q0 1.85-1.25 3.15-1.3 1.3-3.1 1.3t-3.05-1.3l-.15-.15-.05-.05-.15-.15q-.65-.8-.85-1.75l-.3.15-.2.25q-.6.6-1.4.6-.8 0-1.4-.55H9.1v-.05l-.25-.35-.15-.05q-.25 1.25-1.2 2.2-1.3 1.3-3.15 1.3-1.8 0-3.1-1.3Q0 12 0 10.2q0-1.4.8-2.5l3.45-5.8.35-.25.85-1Q6.25.05 7.1 0h.15l.4.05q.9.2 1.4 1.2l.15.25v.05l.05.05.1.2.15.5.05.6v-.35m5.2-.5l-1.35.45-.4.2q-1.3.85-2.35.85-.9 0-2.5-.8-1.05-.7-1.85-.7l-1.45.35L2.5 6.25l1.85-.4q1.8 0 3.15 1.25.95 1 1.2 2.3l.4-.7h.05q.6-.6 1.4-.6.8 0 1.4.6l.45.7Q12.6 8 13.65 7q1.25-1.25 3.05-1.25l1.8.35-2.3-3.7-1.45-.35M7.2.75l-1.25.5h.1l1.15.15 1.35.45Q8.15.95 7.5.8L7.2.75m4.25 9.3l-.25-.6q-.3-.3-.65-.3-.35 0-.7.3v.05l-.25.55.25.7.7.3H10.7l.3-.1.2-.2.25-.7M16.7 7.3q-1.15 0-1.95.85-.8.8-.8 1.9 0 1.2.8 2 .8.85 1.95.85t1.95-.85q.8-.8.8-2 0-1.1-.8-1.9-.8-.85-1.95-.85M4.35 2.1L6.3 2h-.25l-1.7.1m0 5.3q-1.15 0-1.95.8t-.8 2q0 1.15.8 1.95.8.85 1.95.85t1.95-.85q.85-.8.85-1.95 0-1.2-.85-2-.8-.8-1.95-.8" fill="#f5cb5b" fill-opacity=".298"/></g></svg>