<?xml version="1.0" encoding="UTF-8" standalone="no"?>
<svg xmlns:xlink="http://www.w3.org/1999/xlink" height="14.6px" width="21.05px" xmlns="http://www.w3.org/2000/svg">
  <g transform="matrix(1.0, 0.0, 0.0, 1.0, 10.55, 7.3)">
    <path d="M-1.0 -4.75 L-1.0 -4.4 -1.05 -5.0 -1.0 -4.75 M10.05 0.75 L9.4 -0.15 9.6 0.1 10.05 0.75 M-6.2 -5.2 L-4.5 -5.3 -4.25 -5.3 -6.2 -5.2" fill="#f3c95f" fill-rule="evenodd" stroke="none"/>
    <path d="M3.35 -6.55 L4.55 -6.1 4.6 -6.05 4.45 -6.05 3.3 -5.9 1.95 -5.45 Q2.35 -6.35 3.1 -6.5 L3.35 -6.55 M4.2 -5.25 L5.65 -4.9 7.95 -1.2 6.15 -1.55 Q4.35 -1.55 3.1 -0.3 2.05 0.7 1.85 2.1 L1.4 1.4 Q0.8 0.8 0.0 0.8 -0.8 0.8 -1.4 1.4 L-1.45 1.4 -1.85 2.1 Q-2.1 0.8 -3.05 -0.2 -4.4 -1.45 -6.2 -1.45 L-8.05 -1.05 -5.7 -4.9 -4.25 -5.25 Q-3.45 -5.25 -2.4 -4.55 -0.8 -3.75 0.1 -3.75 1.15 -3.75 2.45 -4.6 L2.85 -4.8 4.2 -5.25 M4.6 3.45 L5.05 3.75 Q4.5 2.75 5.3 1.95 6.1 1.15 7.1 1.65 L6.85 1.25 Q6.35 0.8 5.75 0.8 5.1 0.8 4.6 1.25 4.2 1.7 4.2 2.35 4.2 3.05 4.6 3.45 M6.15 0.0 Q7.3 0.0 8.1 0.85 8.9 1.65 8.9 2.75 8.9 3.95 8.1 4.75 7.3 5.6 6.15 5.6 5.0 5.6 4.2 4.75 3.4 3.95 3.4 2.75 3.4 1.65 4.2 0.85 5.0 0.0 6.15 0.0 M0.9 2.75 L0.65 3.45 0.45 3.65 0.15 3.75 0.1 3.75 0.0 3.75 -0.7 3.45 -0.95 2.75 -0.7 2.2 -0.7 2.15 Q-0.35 1.85 0.0 1.85 0.35 1.85 0.65 2.15 L0.9 2.75 M-3.35 -6.55 L-3.05 -6.5 Q-2.4 -6.35 -2.0 -5.45 L-3.35 -5.9 -4.5 -6.05 -4.6 -6.05 -3.35 -6.55 M-6.2 0.1 Q-5.05 0.1 -4.25 0.9 -3.4 1.7 -3.4 2.9 -3.4 4.05 -4.25 4.85 -5.05 5.7 -6.2 5.7 -7.35 5.7 -8.15 4.85 -8.95 4.05 -8.95 2.9 -8.95 1.7 -8.15 0.9 -7.35 0.1 -6.2 0.1 M-7.85 3.45 L-7.45 3.75 Q-7.9 2.75 -7.15 1.95 -6.35 1.15 -5.35 1.65 L-5.6 1.25 Q-6.1 0.8 -6.75 0.8 -7.4 0.8 -7.85 1.25 L-8.3 2.35 -7.85 3.45" fill="#ffffcb" fill-rule="evenodd" stroke="none"/>
    <path d="M3.35 -6.55 L3.1 -6.5 Q2.35 -6.35 1.95 -5.45 L3.3 -5.9 4.45 -6.05 4.6 -6.05 4.55 -6.1 3.35 -6.55 M-1.0 -4.75 L0.1 -4.5 1.0 -4.7 Q1.05 -5.4 1.45 -6.05 1.95 -7.05 2.9 -7.25 L3.35 -7.3 4.55 -6.95 5.05 -6.65 5.55 -6.2 5.95 -5.6 6.0 -5.6 6.15 -5.5 6.25 -5.4 9.6 0.1 9.4 -0.15 10.05 0.75 10.3 1.25 10.35 1.45 10.4 1.6 10.4 1.7 10.45 1.85 10.45 2.0 10.45 2.05 10.5 2.2 10.5 2.3 10.5 2.75 Q10.5 4.6 9.25 5.9 7.95 7.2 6.15 7.2 4.35 7.2 3.1 5.9 L2.95 5.75 2.9 5.7 2.75 5.55 Q2.1 4.75 1.9 3.8 L1.6 3.95 1.4 4.2 Q0.8 4.8 0.0 4.8 -0.8 4.8 -1.4 4.25 L-1.45 4.25 -1.45 4.2 -1.7 3.85 -1.85 3.8 Q-2.1 5.05 -3.05 6.0 -4.35 7.3 -6.2 7.3 -8.0 7.3 -9.3 6.0 -10.55 4.7 -10.55 2.9 -10.55 1.5 -9.75 0.4 L-6.3 -5.4 -5.95 -5.65 -5.1 -6.65 Q-4.3 -7.25 -3.45 -7.3 L-3.3 -7.3 -2.9 -7.25 Q-2.0 -7.05 -1.5 -6.05 L-1.35 -5.8 -1.35 -5.75 -1.3 -5.7 -1.2 -5.5 -1.05 -5.0 -1.0 -4.4 -1.0 -4.75 M4.2 -5.25 L2.85 -4.8 2.45 -4.6 Q1.15 -3.75 0.1 -3.75 -0.8 -3.75 -2.4 -4.55 -3.45 -5.25 -4.25 -5.25 L-5.7 -4.9 -8.05 -1.05 -6.2 -1.45 Q-4.4 -1.45 -3.05 -0.2 -2.1 0.8 -1.85 2.1 L-1.45 1.4 -1.4 1.4 Q-0.8 0.8 0.0 0.8 0.8 0.8 1.4 1.4 L1.85 2.1 Q2.05 0.7 3.1 -0.3 4.35 -1.55 6.15 -1.55 L7.95 -1.2 5.65 -4.9 4.2 -5.25 M-3.35 -6.55 L-4.6 -6.05 -4.5 -6.05 -3.35 -5.9 -2.0 -5.45 Q-2.4 -6.35 -3.05 -6.5 L-3.35 -6.55 M0.9 2.75 L0.65 2.15 Q0.35 1.85 0.0 1.85 -0.35 1.85 -0.7 2.15 L-0.7 2.2 -0.95 2.75 -0.7 3.45 0.0 3.75 0.1 3.75 0.15 3.75 0.45 3.65 0.65 3.45 0.9 2.75 M6.15 0.0 Q5.0 0.0 4.2 0.85 3.4 1.65 3.4 2.75 3.4 3.95 4.2 4.75 5.0 5.6 6.15 5.6 7.3 5.6 8.1 4.75 8.9 3.95 8.9 2.75 8.9 1.65 8.1 0.85 7.3 0.0 6.15 0.0 M-6.2 -5.2 L-4.25 -5.3 -4.5 -5.3 -6.2 -5.2 M-6.2 0.1 Q-7.35 0.1 -8.15 0.9 -8.95 1.7 -8.95 2.9 -8.95 4.05 -8.15 4.85 -7.35 5.7 -6.2 5.7 -5.05 5.7 -4.25 4.85 -3.4 4.05 -3.4 2.9 -3.4 1.7 -4.25 0.9 -5.05 0.1 -6.2 0.1" fill="#f5cb5b" fill-opacity="0.29803923" fill-rule="evenodd" stroke="none"/>
  </g>
</svg>
