<?xml version="1.0" encoding="UTF-8" standalone="no"?>
<svg xmlns:xlink="http://www.w3.org/1999/xlink" height="21.1px" width="21.1px" xmlns="http://www.w3.org/2000/svg">
  <g transform="matrix(1.0, 0.0, 0.0, 1.0, 10.55, 10.55)">
    <path d="M9.05 -7.05 L6.15 -3.9 6.8 8.05 4.8 9.9 2.25 1.4 Q2.0 0.8 1.6 0.8 1.3 0.7 0.8 1.15 L-3.3 4.85 -3.25 7.5 -4.75 8.95 -5.65 6.55 Q-7.05 7.55 -7.3 7.35 L-7.35 7.25 -7.05 6.4 -6.55 5.65 -8.95 4.7 -7.5 3.25 -4.85 3.3 -1.15 -0.85 Q-0.7 -1.35 -0.8 -1.65 -0.8 -1.95 -1.4 -2.25 L-5.95 -3.65 -9.9 -4.8 -8.05 -6.8 3.85 -6.15 Q5.75 -8.15 7.0 -9.05 7.8 -9.6 8.9 -9.8 L9.85 -9.9 9.9 -9.85 9.8 -8.9 Q9.6 -7.85 9.05 -7.05" fill="#ffffcb" fill-rule="evenodd" stroke="none"/>
    <path d="M9.05 -7.05 Q9.6 -7.85 9.8 -8.9 L9.9 -9.85 9.85 -9.9 8.9 -9.8 Q7.8 -9.6 7.0 -9.05 5.75 -8.15 3.85 -6.15 L-8.05 -6.8 -9.9 -4.8 -5.95 -3.65 -1.4 -2.25 Q-0.8 -1.95 -0.8 -1.65 -0.7 -1.35 -1.15 -0.85 L-4.85 3.3 -7.5 3.25 -8.95 4.7 -6.55 5.65 -7.05 6.4 -7.35 7.25 -7.3 7.35 Q-7.05 7.55 -5.65 6.55 L-4.75 8.95 -3.25 7.5 -3.3 4.85 0.8 1.15 Q1.3 0.7 1.6 0.8 2.0 0.8 2.25 1.4 L4.8 9.9 6.8 8.05 6.15 -3.9 9.05 -7.05 Z" fill="none" stroke="#f5cb5b" stroke-linecap="square" stroke-linejoin="round" stroke-opacity="0.29803923" stroke-width="1.0"/>
  </g>
</svg>
