<svg height="21.1" width="21.1" xmlns="http://www.w3.org/2000/svg"><path d="M19.6 3.5l-2.9 3.15.65 11.95-2 1.85-2.55-8.5q-.25-.6-.65-.6-.3-.1-.8.35l-4.1 3.7.05 2.65-1.5 1.45-.9-2.4q-1.4 1-1.65.8l-.05-.1.3-.85.5-.75-2.4-.95 1.45-1.45 2.65.05L9.4 9.7q.45-.5.35-.8 0-.3-.6-.6L4.6 6.9.65 5.75l1.85-2 11.9.65q1.9-2 3.15-2.9.8-.55 1.9-.75l.95-.1.05.05-.1.95q-.2 1.05-.75 1.85" fill="#ffffcb" fill-rule="evenodd"/><path d="M19.6 3.5q.55-.8.75-1.85l.1-.95-.05-.05-.95.1q-1.1.2-1.9.75-1.25.9-3.15 2.9L2.5 3.75l-1.85 2L4.6 6.9l4.55 1.4q.6.3.6.6.1.3-.35.8l-3.7 4.15-2.65-.05-1.45 1.45 2.4.95-.5.75-.3.85.05.1q.25.2 1.65-.8l.9 2.4 1.5-1.45-.05-2.65 4.1-3.7q.5-.45.8-.35.4 0 .65.6l2.55 8.5 2-1.85-.65-11.95 2.9-3.15z" fill="none" stroke="#f5cb5b" stroke-linecap="square" stroke-linejoin="round" stroke-opacity=".298"/></svg>