<svg height="21.1" width="19.8" xmlns="http://www.w3.org/2000/svg"><path d="M13.3 19.3l.35-.4.1-.15q.55-.95 1.65-.95.7 0 1.6.95l.55.55h1.6v1.15H17.5q-.65 0-1.55-.95l-.6-.5q-.15 0-.3.2l-.15.2-.1.1q-.45.95-1.55.95-.65 0-1.5-.95l-.6-.5q-.15 0-.35.15l-.15.25-.05.1q-.6.95-1.55.95-.7 0-1.55-.95l-.65-.5-.45.4-.05.1q-.55.95-1.6.95H.65V19.3h4.1l.45-.4.1-.15q.6-.95 1.6-.95.45 0 .9.3l.7.65.55.55.35-.4.1-.15q.6-.95 1.65-.95.45 0 .9.3l.65.65.6.55M15.45.75l-.25.75-.45.7.05.8q-.05.85-.7 2.4l-1.3 2.55-.65.6-.4.15-2.2 7.15q.8-1.05 1.6-1.05.75.05 1.55 1.25l1.6-4.25q1.35-3.45 2.1-4.05l1.7.15.9 4.75v.1l-1.1-1.5-1.05-1.55q-.45 1.05-1.75 5.45l.3-.05q.65 0 1.6.95l.55.55h1.6v1.15H17.5q-.6 0-1.55-.95l-.6-.5q-.15 0-.3.2l-.15.15-.1.15q-.5.95-1.55.95-.6 0-1.5-.95l-.6-.5q-.3 0-.5.35l-.05.15q-.65.95-1.55.95-.6 0-1.55-.95l-.65-.5q-.2 0-.45.35l-.05.15q-.6.95-1.6.95H4.6v.05H.65v-1.2H2.2L2 12.7q-.1-4.15.8-5.35-.2 2.2.25 5.95l.5 3.3h.7l.2-7.1.9-4.4.4-1.05-.25 1.8q-.35 5.55.35 9.6l.25-.15.05-.6q.45-2.6 1.3-4.95-.8-1.05.65-3.45l.8-1.1q.45-.45.9-.45l.3-.7.2-.35.25-.15.1.25-.2.35-.4.65q.3 1.45-.65 3.45l-.6 1.1q-.4.45-1.05.55l-.6 2.55-.5 2.7.25-.05q.45 0 .9.3l.7.65.05.1.4.15 2.55-7.9-.2-.3v-.75q1.5-5 3.2-5.25l.35-.75.4-.7V.7l.2.05" fill="#ffffcb" fill-rule="evenodd"/><path d="M15.45.75l-.2-.05V.65l-.4.7-.35.75q-1.7.25-3.2 5.25v.75l.2.3-2.55 7.9-.4-.15-.05-.1-.7-.65q-.45-.3-.9-.3l-.25.05.5-2.7.6-2.55q.65-.1 1.05-.55l.6-1.1q.95-2 .65-3.45l.4-.65.2-.35-.1-.25-.25.15-.2.35-.3.7q-.45 0-.9.45l-.8 1.1q-1.45 2.4-.65 3.45-.85 2.35-1.3 4.95l-.05.6-.25.15q-.7-4.05-.35-9.6l.25-1.8-.4 1.05-.9 4.4-.2 7.1h-.7l-.5-3.3Q2.6 9.55 2.8 7.35q-.9 1.2-.8 5.35l.2 3.9H.65v1.2H4.6v-.05h.15q1 0 1.6-.95l.05-.15q.25-.35.45-.35l.65.5q.95.95 1.55.95.9 0 1.55-.95l.05-.15q.2-.35.5-.35l.6.5q.9.95 1.5.95 1.05 0 1.55-.95l.1-.15.15-.15q.15-.2.3-.2l.6.5q.95.95 1.55.95h1.65V16.6h-1.6l-.55-.55q-.95-.95-1.6-.95l-.3.05q1.3-4.4 1.75-5.45l1.05 1.55 1.1 1.5v-.1l-.9-4.75-1.7-.15q-.75.6-2.1 4.05l-1.6 4.25q-.8-1.2-1.55-1.25-.8 0-1.6 1.05l2.2-7.15.4-.15.65-.6 1.3-2.55q.65-1.55.7-2.4l-.05-.8.45-.7.25-.75M13.3 19.3l-.6-.55-.65-.65q-.45-.3-.9-.3-1.05 0-1.65.95l-.1.15-.35.4-.55-.55-.7-.65q-.45-.3-.9-.3-1 0-1.6.95l-.1.15-.45.4H.65v1.15h4.1q1.05 0 1.6-.95l.05-.1.45-.4.65.5q.85.95 1.55.95.95 0 1.55-.95l.05-.1.15-.25q.2-.15.35-.15l.6.5q.85.95 1.5.95 1.1 0 1.55-.95l.1-.1.15-.2q.15-.2.3-.2l.6.5q.9.95 1.55.95h1.65V19.3h-1.6l-.55-.55q-.9-.95-1.6-.95-1.1 0-1.65.95l-.1.15-.35.4" fill="none" stroke="#f5cb5b" stroke-linecap="square" stroke-linejoin="round" stroke-opacity=".298"/></svg>