<?xml version="1.0" encoding="UTF-8" standalone="no"?>
<svg xmlns:xlink="http://www.w3.org/1999/xlink" height="21.95px" width="15.9px" xmlns="http://www.w3.org/2000/svg">
  <g transform="matrix(1.0, 0.0, 0.0, 1.0, 7.95, 10.95)">
    <path d="M-0.75 3.45 Q-0.75 4.25 0.0 4.25 0.75 4.25 0.75 3.45 0.75 2.7 0.0 2.7 -0.35 2.7 -0.55 3.0 L-0.75 3.45 M4.05 3.6 L3.9 3.5 1.55 3.35 Q1.35 3.35 1.35 3.5 L1.3 3.95 0.75 4.6 0.65 4.75 0.65 4.85 0.7 4.95 1.95 6.9 2.15 7.0 2.25 6.9 3.2 6.05 Q3.95 5.15 4.05 3.85 L4.05 3.6 M-1.85 -0.2 L-1.95 -0.15 -1.95 0.0 -0.9 2.15 -0.6 2.2 -0.2 2.05 0.6 2.15 0.75 2.2 0.9 2.15 1.95 -0.05 1.9 -0.2 1.8 -0.25 0.6 -0.65 Q-0.65 -0.8 -1.7 -0.25 L-1.85 -0.2 M4.3 -3.75 Q4.3 -1.45 4.75 1.35 5.25 4.7 6.9 8.95 L6.95 10.2 -7.15 10.2 -7.0 8.95 -6.05 6.0 Q-5.15 3.2 -4.9 1.35 L-4.4 -3.75 4.3 -3.75 M-4.05 3.65 L-4.05 3.9 -3.95 4.45 Q-3.6 5.95 -2.3 6.85 L-2.15 6.9 -1.95 6.9 -1.9 6.8 -0.65 4.9 -0.65 4.7 -0.75 4.6 -1.3 3.8 -1.35 3.45 -1.5 3.35 -3.95 3.5 -4.05 3.65" fill="#ffffcb" fill-rule="evenodd" stroke="none"/>
    <path d="M3.4 -8.7 Q4.45 -8.8 5.3 -10.95 L5.3 -9.4 5.2 -8.7 6.05 -8.7 Q7.05 -8.8 7.95 -10.95 L7.95 -9.4 7.85 -8.7 Q7.35 -7.15 6.0 -7.15 L4.1 -7.15 Q3.45 -7.1 2.75 -6.0 L2.2 -4.9 2.2 -6.5 2.3 -7.15 1.55 -7.15 Q0.9 -7.1 0.15 -6.0 L-0.4 -4.9 -0.4 -6.5 -0.25 -7.15 -1.1 -7.15 Q-1.75 -7.1 -2.45 -6.0 L-3.0 -4.9 -3.0 -6.5 -2.9 -7.15 Q-2.4 -8.7 -1.05 -8.7 L0.8 -8.7 Q1.85 -8.8 2.75 -10.95 L2.75 -9.4 2.65 -8.7 3.4 -8.7 M-1.85 -0.2 L-1.7 -0.25 Q-0.65 -0.8 0.6 -0.65 L1.8 -0.25 1.9 -0.2 1.95 -0.05 0.9 2.15 0.75 2.2 0.6 2.15 -0.2 2.05 -0.6 2.2 -0.9 2.15 -1.95 0.0 -1.95 -0.15 -1.85 -0.2 M4.05 3.6 L4.05 3.85 Q3.95 5.15 3.2 6.05 L2.25 6.9 2.15 7.0 1.95 6.9 0.7 4.95 0.65 4.85 0.65 4.75 0.75 4.6 1.3 3.95 1.35 3.5 Q1.35 3.35 1.55 3.35 L3.9 3.5 4.05 3.6 M-0.75 3.45 L-0.55 3.0 Q-0.35 2.7 0.0 2.7 0.75 2.7 0.75 3.45 0.75 4.25 0.0 4.25 -0.75 4.25 -0.75 3.45 M7.7 8.8 L7.8 11.0 -7.95 11.0 -7.8 8.8 Q-6.15 4.4 -5.65 1.2 -5.15 -1.95 -5.15 -4.55 L5.05 -4.55 Q5.05 -1.95 5.55 1.2 6.05 4.4 7.7 8.8 M4.3 -3.75 L-4.4 -3.75 -4.9 1.35 Q-5.15 3.2 -6.05 6.0 L-7.0 8.95 -7.15 10.2 6.95 10.2 6.9 8.95 Q5.25 4.7 4.75 1.35 4.3 -1.45 4.3 -3.75 M-4.05 3.65 L-3.95 3.5 -1.5 3.35 -1.35 3.45 -1.3 3.8 -0.75 4.6 -0.65 4.7 -0.65 4.9 -1.9 6.8 -1.95 6.9 -2.15 6.9 -2.3 6.85 Q-3.6 5.95 -3.95 4.45 L-4.05 3.9 -4.05 3.65" fill="#f5cb5b" fill-opacity="0.29803923" fill-rule="evenodd" stroke="none"/>
  </g>
</svg>
