<svg height="21.95" width="15.9" xmlns="http://www.w3.org/2000/svg"><g fill-rule="evenodd"><path d="M7.2 14.4q0 .8.75.8t.75-.8q0-.75-.75-.75-.35 0-.55.3l-.2.45m4.8.15l-.15-.1-2.35-.15q-.2 0-.2.15l-.05.45-.55.65-.1.15v.1l.05.1 1.25 1.95.2.1.1-.1.95-.85q.75-.9.85-2.2v-.25m-5.9-3.8l-.1.05v.15l1.05 2.15.3.05.4-.15.8.1.15.05.15-.05 1.05-2.2-.05-.15-.1-.05-1.2-.4q-1.25-.15-2.3.4l-.15.05m6.15-3.55q0 2.3.45 5.1.5 3.35 2.15 7.6l.05 1.25H.8l.15-1.25.95-2.95q.9-2.8 1.15-4.65l.5-5.1h8.7M3.9 14.6v.25l.1.55q.35 1.5 1.65 2.4l.15.05H6l.05-.1 1.25-1.9v-.2l-.1-.1-.55-.8-.05-.35-.15-.1-2.45.15-.1.15" fill="#ffffcb"/><path d="M11.35 2.25q1.05-.1 1.9-2.25v1.55l-.1.7H14q1-.1 1.9-2.25v1.55l-.1.7q-.5 1.55-1.85 1.55h-1.9q-.65.05-1.35 1.15l-.55 1.1v-1.6l.1-.65H9.5q-.65.05-1.4 1.15l-.55 1.1v-1.6l.15-.65h-.85q-.65.05-1.35 1.15l-.55 1.1v-1.6l.1-.65q.5-1.55 1.85-1.55h1.85Q9.8 2.15 10.7 0v1.55l-.1.7h.75m-5.25 8.5l.15-.05q1.05-.55 2.3-.4l1.2.4.1.05.05.15-1.05 2.2-.15.05-.15-.05-.8-.1-.4.15-.3-.05L6 10.95v-.15l.1-.05m5.9 3.8v.25q-.1 1.3-.85 2.2l-.95.85-.1.1-.2-.1-1.25-1.95-.05-.1v-.1l.1-.15.55-.65.05-.45q0-.15.2-.15l2.35.15.15.1m-4.8-.15l.2-.45q.2-.3.55-.3.75 0 .75.75 0 .8-.75.8t-.75-.8m8.45 5.35l.1 2.2H0l.15-2.2q1.65-4.4 2.15-7.6.5-3.15.5-5.75H13q0 2.6.5 5.75.5 3.2 2.15 7.6M12.25 7.2h-8.7l-.5 5.1q-.25 1.85-1.15 4.65L.95 19.9.8 21.15h14.1l-.05-1.25q-1.65-4.25-2.15-7.6-.45-2.8-.45-5.1M3.9 14.6l.1-.15 2.45-.15.15.1.05.35.55.8.1.1v.2l-1.25 1.9-.05.1h-.2l-.15-.05q-1.3-.9-1.65-2.4l-.1-.55v-.25" fill="#f5cb5b" fill-opacity=".298"/></g></svg>