<?xml version="1.0" encoding="UTF-8" standalone="no"?>
<svg xmlns:xlink="http://www.w3.org/1999/xlink" height="19.85px" width="21.1px" xmlns="http://www.w3.org/2000/svg">
  <g transform="matrix(1.0, 0.0, 0.0, 1.0, 10.55, 9.9)">
    <path d="M4.7 3.35 L2.95 3.35 2.95 7.8 4.7 7.8 4.7 3.35 M3.55 1.45 L3.55 0.1 2.75 -0.5 1.9 0.1 1.9 1.45 3.55 1.45 M7.1 1.45 L8.75 1.45 8.75 0.1 7.9 -0.5 7.1 0.1 7.1 1.45 M8.2 3.35 L6.45 3.35 6.45 7.8 8.2 7.8 8.2 3.35 M-5.15 7.8 L-3.4 7.8 -3.4 3.35 -5.15 3.35 -5.15 7.8 M-1.45 6.35 L-1.45 8.7 1.25 8.7 1.25 6.35 -0.15 5.45 -1.45 6.35 M-6.95 3.35 L-8.65 3.35 -8.65 7.8 -6.95 7.8 -6.95 3.35 M-8.35 1.45 L-6.7 1.45 -6.7 0.1 -7.5 -0.5 -8.35 0.1 -8.35 1.45 M-3.2 1.45 L-1.55 1.45 -1.55 0.1 -2.35 -0.5 -3.2 0.1 -3.2 1.45 M0.25 -9.25 L0.25 -8.25 1.0 -7.6 1.0 -5.65 1.7 -5.65 1.7 -3.55 2.2 -3.55 2.2 -2.05 8.95 -2.05 8.95 -3.55 9.9 -3.55 9.9 9.3 -9.9 9.3 -9.9 -3.55 -8.9 -3.55 -8.9 -2.05 -2.2 -2.05 -2.2 -3.55 -1.65 -3.55 -1.65 -5.65 -0.95 -5.65 -0.95 -7.6 -0.75 -7.85 -0.25 -8.25 -0.25 -9.25 0.25 -9.25" fill="#ffffcb" fill-rule="evenodd" stroke="none"/>
    <path d="M0.25 -9.25 L-0.25 -9.25 -0.25 -8.25 -0.75 -7.85 -0.95 -7.6 -0.95 -5.65 -1.65 -5.65 -1.65 -3.55 -2.2 -3.55 -2.2 -2.05 -8.9 -2.05 -8.9 -3.55 -9.9 -3.55 -9.9 9.3 9.9 9.3 9.9 -3.55 8.95 -3.55 8.95 -2.05 2.2 -2.05 2.2 -3.55 1.7 -3.55 1.7 -5.65 1.0 -5.65 1.0 -7.6 0.25 -8.25 0.25 -9.25 M-3.2 1.45 L-3.2 0.1 -2.35 -0.5 -1.55 0.1 -1.55 1.45 -3.2 1.45 M-8.35 1.45 L-8.35 0.1 -7.5 -0.5 -6.7 0.1 -6.7 1.45 -8.35 1.45 M-6.95 3.35 L-6.95 7.8 -8.65 7.8 -8.65 3.35 -6.95 3.35 M-1.45 6.35 L-0.15 5.45 1.25 6.35 1.25 8.7 -1.45 8.7 -1.45 6.35 M-5.15 7.8 L-5.15 3.35 -3.4 3.35 -3.4 7.8 -5.15 7.8 M8.2 3.35 L8.2 7.8 6.45 7.8 6.45 3.35 8.2 3.35 M7.1 1.45 L7.1 0.1 7.9 -0.5 8.75 0.1 8.75 1.45 7.1 1.45 M3.55 1.45 L1.9 1.45 1.9 0.1 2.75 -0.5 3.55 0.1 3.55 1.45 M4.7 3.35 L4.7 7.8 2.95 7.8 2.95 3.35 4.7 3.35" fill="none" stroke="#f5cb5b" stroke-linecap="square" stroke-linejoin="round" stroke-opacity="0.29803923" stroke-width="1.0"/>
  </g>
</svg>
