<svg height="19.85" width="21.1" xmlns="http://www.w3.org/2000/svg"><path d="M15.25 13.25H13.5v4.45h1.75v-4.45m-1.15-1.9V10l-.8-.6-.85.6v1.35h1.65m3.55 0h1.65V10l-.85-.6-.8.6v1.35m1.1 1.9H17v4.45h1.75v-4.45M5.4 17.7h1.75v-4.45H5.4v4.45m3.7-1.45v2.35h2.7v-2.35l-1.4-.9-1.3.9m-5.5-3H1.9v4.45h1.7v-4.45m-1.4-1.9h1.65V10l-.8-.6-.85.6v1.35m5.15 0H9V10l-.8-.6-.85.6v1.35M10.8.65v1l.75.65v1.95h.7v2.1h.5v1.5h6.75v-1.5h.95V19.2H.65V6.35h1v1.5h6.7v-1.5h.55v-2.1h.7V2.3l.2-.25.5-.4v-1h.5" fill="#ffffcb" fill-rule="evenodd"/><path d="M10.8.65h-.5v1l-.5.4-.2.25v1.95h-.7v2.1h-.55v1.5h-6.7v-1.5h-1V19.2h19.8V6.35h-.95v1.5h-6.75v-1.5h-.5v-2.1h-.7V2.3l-.75-.65v-1m-3.45 10.7V10l.85-.6.8.6v1.35H7.35m-5.15 0V10l.85-.6.8.6v1.35H2.2m1.4 1.9v4.45H1.9v-4.45h1.7m5.5 3l1.3-.9 1.4.9v2.35H9.1v-2.35M5.4 17.7v-4.45h1.75v4.45H5.4m13.35-4.45v4.45H17v-4.45h1.75m-1.1-1.9V10l.8-.6.85.6v1.35h-1.65m-3.55 0h-1.65V10l.85-.6.8.6v1.35m1.15 1.9v4.45H13.5v-4.45h1.75" fill="none" stroke="#f5cb5b" stroke-linecap="square" stroke-linejoin="round" stroke-opacity=".298"/></svg>