<svg height="20.3" width="20.35" xmlns="http://www.w3.org/2000/svg"><path d="M9.3 17.1l.2 2.5h1l-.2-2.5.2-2.4h-1l-.2 2.4m1.6-11.25l.2-2.45-.2-2.45h-1l.25 2.45-.2 2.45h.95m6.2 3.8l-2.4-.2v1l2.4.2 2.55-.2v-1l-2.55.2M13.05 7.4q-1.2-1.2-2.9-1.2-1.65 0-2.85 1.2-1.2 1.1-1.2 2.75 0 1.75 1.2 2.9 1.2 1.2 2.85 1.2 1.7 0 2.9-1.2 1.2-1.15 1.2-2.9 0-1.65-1.2-2.75M10.2.65q4 0 6.7 2.8 2.8 2.8 2.8 6.65 0 4-2.8 6.8-2.7 2.75-6.7 2.75T3.5 16.9Q.65 14.1.65 10.1l.05-.95v.9l2.55-.25 2.45.25v-1L3.25 8.8.7 9.05Q1.2 5.5 3.9 3.1 6.5.65 10.2.65" fill="#ffffcb" fill-rule="evenodd"/><path d="M10.2.65Q6.5.65 3.9 3.1 1.2 5.5.7 9.05l2.55-.25 2.45.25v1L3.25 9.8l-2.55.25v-.9l-.05.95q0 4 2.85 6.8 2.7 2.75 6.7 2.75t6.7-2.75q2.8-2.8 2.8-6.8 0-3.85-2.8-6.65-2.7-2.8-6.7-2.8m2.85 6.75q1.2 1.1 1.2 2.75 0 1.75-1.2 2.9-1.2 1.2-2.9 1.2-1.65 0-2.85-1.2-1.2-1.15-1.2-2.9 0-1.65 1.2-2.75 1.2-1.2 2.85-1.2 1.7 0 2.9 1.2m4.05 2.25l2.55-.2v1l-2.55.2-2.4-.2v-1l2.4.2m-6.2-3.8h-.95l.2-2.45L9.9.95h1l.2 2.45-.2 2.45M9.3 17.1l.2-2.4h1l-.2 2.4.2 2.5h-1l-.2-2.5" fill="none" stroke="#f5cb5b" stroke-linecap="square" stroke-linejoin="round" stroke-opacity=".298"/></svg>