<?xml version="1.0" encoding="UTF-8" standalone="no"?>
<svg xmlns:xlink="http://www.w3.org/1999/xlink" height="20.3px" width="20.35px" xmlns="http://www.w3.org/2000/svg">
  <g transform="matrix(1.0, 0.0, 0.0, 1.0, 10.15, 10.15)">
    <path d="M-0.85 6.95 L-0.65 9.45 0.35 9.45 0.15 6.95 0.35 4.55 -0.65 4.55 -0.85 6.95 M0.75 -4.3 L0.95 -6.75 0.75 -9.2 -0.25 -9.2 0.0 -6.75 -0.2 -4.3 0.75 -4.3 M6.95 -0.5 L4.55 -0.7 4.55 0.3 6.95 0.5 9.5 0.3 9.5 -0.7 6.95 -0.5 M2.9 -2.75 Q1.7 -3.95 0.0 -3.95 -1.65 -3.95 -2.85 -2.75 -4.05 -1.65 -4.05 0.0 -4.05 1.75 -2.85 2.9 -1.65 4.1 0.0 4.1 1.7 4.1 2.9 2.9 4.1 1.75 4.1 0.0 4.1 -1.65 2.9 -2.75 M0.05 -9.5 Q4.05 -9.5 6.75 -6.7 9.55 -3.9 9.55 -0.05 9.55 3.95 6.75 6.75 4.05 9.5 0.05 9.5 -3.95 9.5 -6.65 6.75 -9.5 3.95 -9.5 -0.05 L-9.45 -1.0 -9.45 -0.1 -6.9 -0.35 -4.45 -0.1 -4.45 -1.1 -6.9 -1.35 -9.45 -1.1 Q-8.95 -4.65 -6.25 -7.05 -3.65 -9.5 0.05 -9.5" fill="#ffffcb" fill-rule="evenodd" stroke="none"/>
    <path d="M0.05 -9.5 Q-3.65 -9.5 -6.25 -7.05 -8.95 -4.65 -9.45 -1.1 L-6.9 -1.35 -4.45 -1.1 -4.45 -0.1 -6.9 -0.35 -9.45 -0.1 -9.45 -1.0 -9.5 -0.05 Q-9.5 3.95 -6.65 6.75 -3.95 9.5 0.05 9.5 4.05 9.5 6.75 6.75 9.55 3.95 9.55 -0.05 9.55 -3.9 6.75 -6.7 4.05 -9.5 0.05 -9.5 M2.9 -2.75 Q4.1 -1.65 4.1 0.0 4.1 1.75 2.9 2.9 1.7 4.1 0.0 4.1 -1.65 4.1 -2.85 2.9 -4.05 1.75 -4.05 0.0 -4.05 -1.65 -2.85 -2.75 -1.65 -3.95 0.0 -3.95 1.7 -3.95 2.9 -2.75 M6.95 -0.5 L9.5 -0.7 9.5 0.3 6.95 0.5 4.55 0.3 4.55 -0.7 6.95 -0.5 M0.75 -4.3 L-0.2 -4.3 0.0 -6.75 -0.25 -9.2 0.75 -9.2 0.95 -6.75 0.75 -4.3 M-0.85 6.95 L-0.65 4.55 0.35 4.55 0.15 6.95 0.35 9.45 -0.65 9.45 -0.85 6.95" fill="none" stroke="#f5cb5b" stroke-linecap="square" stroke-linejoin="round" stroke-opacity="0.29803923" stroke-width="1.0"/>
  </g>
</svg>
