<svg height="18.55" width="19.3" xmlns="http://www.w3.org/2000/svg"><g fill-rule="evenodd"><path d="M5.85 4.5l1.65-.35.2.75-.3.1q-.7-.4-1.55-.5M1.6 13.95Q.4 12.2.6 10q.25-2.2 1.9-3.6 1.55-1.35 3.55-1.2l.65.15L5 6.65q-2 2-2 4.95 0 2.35 1.4 4.2-1.75-.35-2.8-1.85m9.95-9.1l-.7-.65 2.1.4q-.6.1-1.1.4l-.2-.05-.1-.1m6.1 9.1q-1.1 1.5-2.8 1.85 1.35-1.85 1.35-4.2 0-2.95-1.95-4.95-.8-.85-1.7-1.3l.65-.15q2.05-.15 3.6 1.2 1.6 1.4 1.8 3.6.25 2.2-.95 3.95m-2.15-2.6q0 2.4-1.7 4.1-1.75 1.7-4.2 1.7t-4.2-1.7q-1.7-1.7-1.7-4.1 0-2.4 1.7-4.1 1.75-1.7 4.2-1.7t4.2 1.7q1.7 1.7 1.7 4.1M7.1 9.2l-1.75 2 2.85.4-1.1-2.4m6.8 2.1L12 9.4l-1.1 2.35 3-.45m-3.1 1.3l-1.2-1.7-1.05 1.7h2.25m2.65.4q-1.65.85-4.8.65l.2.65h-1.9l.2-.95-1.5-.6.05.55.5 1 .9 1.2q1.25 1.05 3.1.8l-.35-1.05h1.55l-.05.7 1.6-1.35q.5-.8.5-1.6" fill="#ffffcb"/><path d="M4.4 17q-2.1-.25-3.4-2.25-1.3-2-.95-4.6Q.35 7.55 2 5.9q1.1-1.05 2.35-1.3 1.4-1.2 3.1-1.15-.05-.8.45-1.25Q10.5-.25 11.6.05q1.2.3 2.15 2.65l-1.7.45q0-1.5-.8-1.45-.6 0-1 .8-.35.6-.05 1.05l.5-.1q1.9-.2 3.45 1.05 1.65.05 3.1 1.4 1.65 1.65 2 4.25.3 2.6-1 4.6-1.3 2-3.4 2.25h-1.1q-1.8 1.55-4.15 1.55-2.35 0-4.1-1.55H4.4M5.85 4.5q.85.1 1.55.5l.3-.1-.2-.75-1.65.35M1.6 13.95q1.05 1.5 2.8 1.85Q3 13.95 3 11.6q0-2.95 2-4.95l1.7-1.3-.65-.15q-2-.15-3.55 1.2Q.85 7.8.6 10q-.2 2.2 1 3.95m16.05 0q1.2-1.75.95-3.95-.2-2.2-1.8-3.6-1.55-1.35-3.6-1.2l-.65.15q.9.45 1.7 1.3 1.95 2 1.95 4.95 0 2.35-1.35 4.2 1.7-.35 2.8-1.85m-6.1-9.1l.1.1.2.05q.5-.3 1.1-.4l-2.1-.4.7.65m3.95 6.5q0-2.4-1.7-4.1-1.75-1.7-4.2-1.7t-4.2 1.7q-1.7 1.7-1.7 4.1 0 2.4 1.7 4.1 1.75 1.7 4.2 1.7t4.2-1.7q1.7-1.7 1.7-4.1M13.45 13q0 .8-.5 1.6l-1.6 1.35.05-.7H9.85l.35 1.05q-1.85.25-3.1-.8l-.9-1.2-.5-1-.05-.55 1.5.6-.2.95h1.9l-.2-.65q3.15.2 4.8-.65m-2.65-.4H8.55l1.05-1.7 1.2 1.7m3.1-1.3l-3 .45L12 9.4l1.9 1.9M7.1 9.2l1.1 2.4-2.85-.4 1.75-2" fill="#f5cb5b" fill-opacity=".298"/></g></svg>