<?xml version="1.0" encoding="UTF-8" standalone="no"?>
<svg xmlns:xlink="http://www.w3.org/1999/xlink" height="18.55px" width="19.3px" xmlns="http://www.w3.org/2000/svg">
  <g transform="matrix(1.0, 0.0, 0.0, 1.0, 9.55, 9.25)">
    <path d="M-3.7 -4.75 L-2.05 -5.1 -1.85 -4.35 -2.15 -4.25 Q-2.85 -4.65 -3.7 -4.75 M-7.95 4.7 Q-9.15 2.95 -8.95 0.75 -8.7 -1.45 -7.05 -2.85 -5.5 -4.2 -3.5 -4.05 L-2.85 -3.9 -4.55 -2.6 Q-6.55 -0.6 -6.55 2.35 -6.55 4.7 -5.15 6.55 -6.9 6.2 -7.95 4.7 M2.0 -4.4 L1.3 -5.05 3.4 -4.65 Q2.8 -4.55 2.3 -4.25 L2.1 -4.3 2.0 -4.4 M8.1 4.7 Q7.0 6.2 5.3 6.55 6.65 4.7 6.65 2.35 6.65 -0.6 4.7 -2.6 3.9 -3.45 3.0 -3.9 L3.65 -4.05 Q5.7 -4.2 7.25 -2.85 8.85 -1.45 9.05 0.75 9.3 2.95 8.1 4.7 M5.95 2.1 Q5.95 4.5 4.25 6.2 2.5 7.9 0.05 7.9 -2.4 7.9 -4.15 6.2 -5.85 4.5 -5.85 2.1 -5.85 -0.3 -4.15 -2.0 -2.4 -3.7 0.05 -3.7 2.5 -3.7 4.25 -2.0 5.95 -0.3 5.95 2.1 M-2.45 -0.05 L-4.2 1.95 -1.35 2.35 -2.45 -0.05 M4.35 2.05 L2.45 0.15 1.35 2.5 4.35 2.05 M1.25 3.35 L0.05 1.65 -1.0 3.35 1.25 3.35 M3.9 3.75 Q2.25 4.6 -0.9 4.4 L-0.7 5.05 -2.6 5.05 -2.4 4.1 -3.9 3.5 -3.85 4.05 -3.35 5.05 -2.45 6.25 Q-1.2 7.3 0.65 7.05 L0.3 6.0 1.85 6.0 1.8 6.7 3.4 5.35 Q3.9 4.55 3.9 3.75" fill="#ffffcb" fill-rule="evenodd" stroke="none"/>
    <path d="M-5.15 7.75 Q-7.25 7.5 -8.55 5.5 -9.85 3.5 -9.5 0.9 -9.2 -1.7 -7.55 -3.35 -6.45 -4.4 -5.2 -4.65 -3.8 -5.85 -2.1 -5.8 -2.15 -6.6 -1.65 -7.05 0.95 -9.5 2.05 -9.2 3.25 -8.9 4.2 -6.55 L2.5 -6.1 Q2.5 -7.6 1.7 -7.55 1.1 -7.55 0.7 -6.75 0.35 -6.15 0.65 -5.7 L1.15 -5.8 Q3.05 -6.0 4.6 -4.75 6.25 -4.7 7.7 -3.35 9.35 -1.7 9.7 0.9 10.0 3.5 8.7 5.5 7.4 7.5 5.3 7.75 L4.2 7.75 Q2.4 9.3 0.05 9.3 -2.3 9.3 -4.05 7.75 L-5.15 7.75 M-3.7 -4.75 Q-2.85 -4.65 -2.15 -4.25 L-1.85 -4.35 -2.05 -5.1 -3.7 -4.75 M-7.95 4.7 Q-6.9 6.2 -5.15 6.55 -6.55 4.7 -6.55 2.35 -6.55 -0.6 -4.55 -2.6 L-2.85 -3.9 -3.5 -4.05 Q-5.5 -4.2 -7.05 -2.85 -8.7 -1.45 -8.95 0.75 -9.15 2.95 -7.95 4.7 M8.1 4.7 Q9.3 2.95 9.05 0.75 8.85 -1.45 7.25 -2.85 5.7 -4.2 3.65 -4.05 L3.0 -3.9 Q3.9 -3.45 4.7 -2.6 6.65 -0.6 6.65 2.35 6.65 4.7 5.3 6.55 7.0 6.2 8.1 4.7 M2.0 -4.4 L2.1 -4.3 2.3 -4.25 Q2.8 -4.55 3.4 -4.65 L1.3 -5.05 2.0 -4.4 M5.95 2.1 Q5.95 -0.3 4.25 -2.0 2.5 -3.7 0.05 -3.7 -2.4 -3.7 -4.15 -2.0 -5.85 -0.3 -5.85 2.1 -5.85 4.5 -4.15 6.2 -2.4 7.9 0.05 7.9 2.5 7.9 4.25 6.2 5.95 4.5 5.95 2.1 M3.9 3.75 Q3.9 4.55 3.4 5.35 L1.8 6.7 1.85 6.0 0.3 6.0 0.65 7.05 Q-1.2 7.3 -2.45 6.25 L-3.35 5.05 -3.85 4.05 -3.9 3.5 -2.4 4.1 -2.6 5.05 -0.7 5.05 -0.9 4.4 Q2.25 4.6 3.9 3.75 M1.25 3.35 L-1.0 3.35 0.05 1.65 1.25 3.35 M4.35 2.05 L1.35 2.5 2.45 0.15 4.35 2.05 M-2.45 -0.05 L-1.35 2.35 -4.2 1.95 -2.45 -0.05" fill="#f5cb5b" fill-opacity="0.29803923" fill-rule="evenodd" stroke="none"/>
  </g>
</svg>
