<svg height="19.55" width="21.1" xmlns="http://www.w3.org/2000/svg"><path d="M20.45 3.95L18 6.35 16.95 5.3 12.3 9.95l4.85 4.8.4-.4 2.25 2.25-2.1 2.15-2.25-2.25.4-.45L11 11.2l-2.5 2.5 2.3 2.3h.05l-1.3 1.3q-1.5 1.25-2.7 1.4l-4.1.15h-.5v-.5l.15-4.1q.15-1.15 1.45-2.7l1.25-1.3v.05l2.3 2.25 2.5-2.45-4.3-4.3-4.65 5.55-.3-.25.8-2.15Q2.6 6.4 4.2 4.4l-.8-.75 1.3-1.3.7.7Q6.95 1.55 8.45.8l1.4 1.35L6.9 4.5l4.3 4.3 4.65-4.65-1.1-1.1 2.4-2.4 3.3 3.3m-3.3-1.9l-1 1L18 5l1.05-1.05-1.9-1.9" fill="#ffffcb" fill-rule="evenodd"/><path d="M17.15 2.05l1.9 1.9L18 5l-1.85-1.95 1-1m3.3 1.9l-3.3-3.3-2.4 2.4 1.1 1.1L11.2 8.8 6.9 4.5l2.95-2.35L8.45.8q-1.5.75-3.05 2.25l-.7-.7-1.3 1.3.8.75q-1.6 2-2.75 4.55l-.8 2.15.3.25L5.6 5.8l4.3 4.3-2.5 2.45-2.3-2.25v-.05l-1.25 1.3q-1.3 1.55-1.45 2.7l-.15 4.1v.5h.5l4.1-.15q1.2-.15 2.7-1.4l1.3-1.3h-.05l-2.3-2.3 2.5-2.5 4.85 4.85-.4.45 2.25 2.25 2.1-2.15-2.25-2.25-.4.4-4.85-4.8 4.65-4.65L18 6.35l2.45-2.4" fill="none" stroke="#f5cb5b" stroke-linecap="square" stroke-linejoin="round" stroke-opacity=".298"/></svg>