<svg height="21.1" width="14.2" xmlns="http://www.w3.org/2000/svg"><path d="M2.85 19l.1.05h3.3l-2.45-2.5L2.85 19m-.2.6l-.15.45 2.45-.55h-2.1l-.2.1m3.65-3.9L5 13.3l-.9 2.4h2.2m-.95-3.3h1.1l-.35-2-.75 2m.3.5l1.4 2.75 1.6-2.75h-3M1.8 8.85l-.05-.05v-.15l1.8-1.75L3 6.8l-.1-.05.05-.15 2.6-2 .15.05v.15L4.15 6.45l.6.1.05.05v.1L3 8.5l.75.1.1.1v.1l-3 3H.7v-.15L2.65 9l-.85-.15m.85-4.5L2.6 4.2l.1-.05h1.35l-.2-.3v-.1l.1-.05 1.9.25.1.1-.1.1-1.2.05.25.35v.1l-.1.1H3.45l.3.4v.1l-.05.1-2.45.05-.1-.1.05-.1 1.75-.4-.3-.45m1-3.25l.1-.1h.1l.95.95.05-.35.1-.1.1.05 1.2 1.55v.15H6.1l-.9-.8-.15.5-.1-.05L4 1.95l-.1.5-.05.1-.15-.05L1.95.85V.7h.15l1.5.95.05-.55M7.1 18.9l2.75-2.7h-5.4l2.65 2.7m2.05.6l2.55.55-.15-.45-.2-.1h-2.2m2.1-.45l.1-.05-.9-2.4L8 19.05h3.25M7.8 12.4h1.05l-.65-1.9-.4 1.9m1.45.95L7.9 15.7h2.2l-.85-2.35m-1.7-3.7l-.1-.05h-.6l-.15.05.45 2.2.4-2.2m.1-.55L7.1 7.65 6.55 9.1h1.1m3.65-2.35l-.1.05-.55.1 1.8 1.75v.15l-.05.05-.85.15 1.95 2.65v.15h-.15l-3-3v-.1l.1-.1.75-.1-1.8-1.8v-.1l.05-.05.6-.1L8.5 4.8v-.15l.15-.05 2.6 2 .05.15M7.1 4l.25.3v2.3l.25.15 5.05 13.7h-2l-3.6-.95-.5.1-2.9.85h-2.1L6.6 6.75l.25-.15V4.3L7.1 4m1.15.05l.1-.1 1.9-.25.1.05v.1l-.2.3h1.35l.1.05-.05.15-.3.45 1.75.4.05.1-.1.1-2.45-.05-.05-.1v-.1l.3-.4H9.4l-.1-.1v-.1l.25-.35-1.2-.05-.1-.1m4-3.35v.15l-1.8 1.65-.1.05-.1-.1-.05-.55-.95.95-.15.05-.05-.1L9 2.4l-.9.85h-.15q-.15-.1-.05-.15l1.2-1.55.15-.05.05.1.05.35.95-.95h.15l.05.05.1.6 1.5-1 .15.05" fill="#ffffcb" fill-rule="evenodd"/><path d="M12.25.7L12.1.65l-1.5 1-.1-.6-.05-.05h-.15l-.95.95-.05-.35-.05-.1-.15.05L7.9 3.1q-.1.05.05.15h.15L9 2.4l.05.4.05.1.15-.05.95-.95.05.55.1.1.1-.05 1.8-1.65V.7m-4 3.35l.1.1 1.2.05-.25.35v.1l.1.1h1.35l-.3.4v.1l.05.1 2.45.05.1-.1-.05-.1-1.75-.4.3-.45.05-.15-.1-.05h-1.35l.2-.3v-.1l-.1-.05-1.9.25-.1.1M7.1 4l-.25.3v2.3l-.25.15-5.05 13.7h2.1l2.9-.85.5-.1 3.6.95h2L7.6 6.75l-.25-.15V4.3L7.1 4m4.2 2.75l-.05-.15-2.6-2-.15.05v.15l1.55 1.65-.6.1-.05.05v.1l1.8 1.8-.75.1-.1.1v.1l3 3h.15v-.15L11.55 9l.85-.15.05-.05v-.15l-1.8-1.75.55-.1.1-.05M7.65 9.1h-1.1l.55-1.45.55 1.45m-.1.55l-.4 2.2-.45-2.2.15-.05h.6l.1.05m1.7 3.7l.85 2.35H7.9l1.35-2.35M7.8 12.4l.4-1.9.65 1.9H7.8m3.45 6.65H8l2.45-2.45.9 2.4-.1.05m-2.1.45h2.2l.2.1.15.45-2.55-.55m-2.05-.6l-2.65-2.7h5.4L7.1 18.9M3.65 1.1l-.05.55L2.1.7h-.15v.15L3.7 2.5l.15.05.05-.1.1-.5.95.95.1.05.15-.5.9.8h.15V3.1l-1.2-1.55-.1-.05-.1.1-.05.35L3.85 1h-.1l-.1.1m-1 3.25l.3.45-1.75.4-.05.1.1.1 2.45-.05.05-.1v-.1l-.3-.4H4.8l.1-.1v-.1l-.25-.35 1.2-.05.1-.1-.1-.1-1.9-.25-.1.05v.1l.2.3H2.7l-.1.05.05.15m-.85 4.5l.85.15L.7 11.65v.15h.15l3-3v-.1l-.1-.1L3 8.5l1.8-1.8v-.1l-.05-.05-.6-.1L5.7 4.8v-.15l-.15-.05-2.6 2-.05.15.1.05.55.1-1.8 1.75v.15l.05.05m3.85 4.05h3l-1.6 2.75-1.4-2.75m-.3-.5l.75-2 .35 2h-1.1m.95 3.3H4.1l.9-2.4 1.3 2.4m-3.65 3.9l.2-.1h2.1l-2.45.55.15-.45m.2-.6l.95-2.45 2.45 2.5h-3.3l-.1-.05" fill="none" stroke="#f5cb5b" stroke-linecap="square" stroke-linejoin="round" stroke-opacity=".298"/></svg>