<?xml version="1.0" encoding="UTF-8" standalone="no"?>
<svg xmlns:xlink="http://www.w3.org/1999/xlink" height="20.35px" width="20.3px" xmlns="http://www.w3.org/2000/svg">
  <g transform="matrix(1.0, 0.0, 0.0, 1.0, 10.15, 10.15)">
    <path d="M-7.45 5.9 Q-9.5 3.35 -9.5 0.05 -9.5 -3.3 -7.45 -5.8 L-1.65 0.05 -7.45 5.9 M-5.85 -1.05 Q-5.85 -0.4 -6.75 -0.4 L-7.0 -0.4 -7.0 -1.65 -6.8 -1.65 Q-5.85 -1.65 -5.85 -1.05 M-4.65 -1.05 Q-4.65 -2.4 -7.0 -2.4 L-8.35 -2.4 -8.35 2.2 -7.0 2.2 -7.0 0.1 -5.8 2.2 -4.45 2.2 -5.55 0.1 Q-4.65 -0.25 -4.65 -1.05 M5.85 7.5 Q3.3 9.55 0.05 9.55 -3.45 9.55 -6.0 7.3 L-0.2 1.45 5.85 7.5 M7.3 6.15 L1.25 0.05 7.3 -6.05 Q9.5 -3.45 9.5 0.05 9.5 3.55 7.3 6.15 M6.0 -1.65 Q6.85 -1.65 6.85 -1.05 6.85 -0.4 6.05 -0.4 L5.8 -0.4 5.8 -1.65 6.0 -1.65 M8.15 -1.05 Q8.15 -2.4 5.8 -2.4 L4.45 -2.4 4.45 2.2 5.8 2.2 5.8 0.1 7.0 2.2 8.4 2.2 7.2 0.1 Q8.15 -0.25 8.15 -1.05 M0.05 -9.5 Q3.3 -9.5 5.85 -7.45 L-0.2 -1.4 -6.0 -7.25 Q-3.4 -9.5 0.05 -9.5" fill="#ffffcb" fill-rule="evenodd" stroke="none"/>
    <path d="M0.05 -9.5 Q-3.4 -9.5 -6.0 -7.25 L-0.2 -1.4 5.85 -7.45 Q3.3 -9.5 0.05 -9.5 M8.15 -1.05 Q8.15 -0.25 7.2 0.1 L8.4 2.2 7.0 2.2 5.8 0.1 5.8 2.2 4.45 2.2 4.45 -2.4 5.8 -2.4 Q8.15 -2.4 8.15 -1.05 M6.0 -1.65 L5.8 -1.65 5.8 -0.4 6.05 -0.4 Q6.85 -0.4 6.85 -1.05 6.85 -1.65 6.0 -1.65 M7.3 6.15 Q9.5 3.55 9.5 0.05 9.5 -3.45 7.3 -6.05 L1.25 0.05 7.3 6.15 M5.85 7.5 L-0.2 1.45 -6.0 7.3 Q-3.45 9.55 0.05 9.55 3.3 9.55 5.85 7.5 M-4.65 -1.05 Q-4.65 -0.25 -5.55 0.1 L-4.45 2.2 -5.8 2.2 -7.0 0.1 -7.0 2.2 -8.35 2.2 -8.35 -2.4 -7.0 -2.4 Q-4.65 -2.4 -4.65 -1.05 M-5.85 -1.05 Q-5.85 -1.65 -6.8 -1.65 L-7.0 -1.65 -7.0 -0.4 -6.75 -0.4 Q-5.85 -0.4 -5.85 -1.05 M-7.45 5.9 L-1.65 0.05 -7.45 -5.8 Q-9.5 -3.3 -9.5 0.05 -9.5 3.35 -7.45 5.9" fill="none" stroke="#f5cb5b" stroke-linecap="square" stroke-linejoin="round" stroke-opacity="0.29803923" stroke-width="1.0"/>
  </g>
</svg>
