<svg height="20.35" width="20.3" xmlns="http://www.w3.org/2000/svg"><path d="M2.7 16.05Q.65 13.5.65 10.2q0-3.35 2.05-5.85l5.8 5.85-5.8 5.85M4.3 9.1q0 .65-.9.65h-.25V8.5h.2q.95 0 .95.6m1.2 0q0-1.35-2.35-1.35H1.8v4.6h1.35v-2.1l1.2 2.1H5.7l-1.1-2.1q.9-.35.9-1.15M16 17.65q-2.55 2.05-5.8 2.05-3.5 0-6.05-2.25l5.8-5.85L16 17.65m1.45-1.35l-6.05-6.1 6.05-6.1q2.2 2.6 2.2 6.1 0 3.5-2.2 6.1m-1.3-7.8q.85 0 .85.6 0 .65-.8.65h-.25V8.5h.2m2.15.6q0-1.35-2.35-1.35H14.6v4.6h1.35v-2.1l1.2 2.1h1.4l-1.2-2.1q.95-.35.95-1.15M10.2.65q3.25 0 5.8 2.05L9.95 8.75 4.15 2.9Q6.75.65 10.2.65" fill="#ffffcb" fill-rule="evenodd"/><path d="M10.2.65Q6.75.65 4.15 2.9l5.8 5.85L16 2.7Q13.45.65 10.2.65m8.1 8.45q0 .8-.95 1.15l1.2 2.1h-1.4l-1.2-2.1v2.1H14.6v-4.6h1.35q2.35 0 2.35 1.35m-2.15-.6h-.2v1.25h.25q.8 0 .8-.65 0-.6-.85-.6m1.3 7.8q2.2-2.6 2.2-6.1 0-3.5-2.2-6.1l-6.05 6.1 6.05 6.1M16 17.65L9.95 11.6l-5.8 5.85Q6.7 19.7 10.2 19.7q3.25 0 5.8-2.05M5.5 9.1q0 .8-.9 1.15l1.1 2.1H4.35l-1.2-2.1v2.1H1.8v-4.6h1.35q2.35 0 2.35 1.35m-1.2 0q0-.6-.95-.6h-.2v1.25h.25q.9 0 .9-.65m-1.6 6.95l5.8-5.85-5.8-5.85Q.65 6.85.65 10.2q0 3.3 2.05 5.85" fill="none" stroke="#f5cb5b" stroke-linecap="square" stroke-linejoin="round" stroke-opacity=".298"/></svg>