<?xml version="1.0" encoding="UTF-8" standalone="no"?>
<svg xmlns:xlink="http://www.w3.org/1999/xlink" height="21.1px" width="21.1px" xmlns="http://www.w3.org/2000/svg">
  <g transform="matrix(1.0, 0.0, 0.0, 1.0, 10.55, 10.55)">
    <path d="M0.95 -3.4 Q2.8 -5.45 6.25 -7.85 9.55 -10.15 9.9 -9.85 10.15 -9.5 7.9 -6.25 5.5 -2.8 3.45 -0.95 L1.35 0.85 Q-1.85 3.9 -0.5 7.1 L0.25 6.4 2.0 5.35 Q1.55 6.65 0.15 8.05 -1.3 9.55 -2.55 9.85 L-2.65 9.9 -2.65 9.85 Q-2.45 9.15 -1.1 7.6 L-2.85 3.65 -3.5 3.7 -3.7 3.55 -3.75 3.1 -3.65 2.9 -7.6 1.1 Q-9.15 2.5 -9.9 2.7 -9.55 1.4 -8.05 -0.1 -6.6 -1.45 -5.35 -1.95 -5.7 -1.1 -6.35 -0.2 L-7.05 0.55 Q-3.95 1.9 -0.8 -1.3 L0.95 -3.4" fill="#ffffcb" fill-rule="evenodd" stroke="none"/>
    <path d="M0.95 -3.4 L-0.8 -1.3 Q-3.95 1.9 -7.05 0.55 L-6.35 -0.2 Q-5.7 -1.1 -5.35 -1.95 -6.6 -1.45 -8.05 -0.1 -9.55 1.4 -9.9 2.7 -9.15 2.5 -7.6 1.1 L-3.65 2.9 -3.75 3.1 -3.7 3.55 -3.5 3.7 -2.85 3.65 -1.1 7.6 Q-2.45 9.15 -2.65 9.85 L-2.65 9.9 -2.55 9.85 Q-1.3 9.55 0.15 8.05 1.55 6.65 2.0 5.35 L0.25 6.4 -0.5 7.1 Q-1.85 3.9 1.35 0.85 L3.45 -0.95 Q5.5 -2.8 7.9 -6.25 10.15 -9.5 9.9 -9.85 9.55 -10.15 6.25 -7.85 2.8 -5.45 0.95 -3.4 Z" fill="none" stroke="#f5cb5b" stroke-linecap="square" stroke-linejoin="round" stroke-opacity="0.29803923" stroke-width="1.0"/>
  </g>
</svg>
