<svg height="21.1" width="21.1" xmlns="http://www.w3.org/2000/svg"><path d="M11.5 7.15q1.85-2.05 5.3-4.45 3.3-2.3 3.65-2 .25.35-2 3.6-2.4 3.45-4.45 5.3l-2.1 1.8q-3.2 3.05-1.85 6.25l.75-.7 1.75-1.05q-.45 1.3-1.85 2.7-1.45 1.5-2.7 1.8l-.1.05v-.05q.2-.7 1.55-2.25L7.7 14.2l-.65.05-.2-.15-.05-.45.1-.2-3.95-1.8q-1.55 1.4-2.3 1.6.35-1.3 1.85-2.8Q3.95 9.1 5.2 8.6q-.35.85-1 1.75l-.7.75q3.1 1.35 6.25-1.85l1.75-2.1" fill="#ffffcb" fill-rule="evenodd"/><path d="M11.5 7.15l-1.75 2.1Q6.6 12.45 3.5 11.1l.7-.75q.65-.9 1-1.75-1.25.5-2.7 1.85-1.5 1.5-1.85 2.8.75-.2 2.3-1.6l3.95 1.8-.1.2.05.45.2.15.65-.05 1.75 3.95Q8.1 19.7 7.9 20.4v.05l.1-.05q1.25-.3 2.7-1.8 1.4-1.4 1.85-2.7l-1.75 1.05-.75.7q-1.35-3.2 1.85-6.25L14 9.6q2.05-1.85 4.45-5.3 2.25-3.25 2-3.6-.35-.3-3.65 2-3.45 2.4-5.3 4.45z" fill="none" stroke="#f5cb5b" stroke-linecap="square" stroke-linejoin="round" stroke-opacity=".298"/></svg>