<svg height="15.6" width="26.75" xmlns="http://www.w3.org/2000/svg"><g fill-rule="evenodd"><path d="M5.3 10.8l1.85-2.9 3.25-3.7L11.95 6 8.3 12.05l-7 2.9h-.15l3.95-6.8.2 2.65m5.65.15l-1.65.7 6-10.05.4 3.75.85-1.6 1.95 4.2 1.8-2.3 1.7 4.8 1.1-1.8 2.5 5.9-3.4-2.75-2 2.05-3.7-2.65.2 1.55-3.25-2.45-2.75 2.25.25-1.6" fill="#ffffcb"/><path d="M15.5 0l3.15 6.7 1.7-2.2 2.1 3.45.9-.2 3.4 7.85H0L4.95 7l1.2 1 4.25-4.8.25.3 1.65 1.9L15.5 0M5.3 10.8l-.2-2.65-3.95 6.8h.15l7-2.9L11.95 6 10.4 4.2 7.15 7.9 5.3 10.8m5.65.15l-.25 1.6 2.75-2.25 3.25 2.45-.2-1.55 3.7 2.65 2-2.05 3.4 2.75-2.5-5.9-1.1 1.8-1.7-4.8-1.8 2.3-1.95-4.2-.85 1.6-.4-3.75-6 10.05 1.65-.7" fill="#f5cb5b" fill-opacity=".298"/></g></svg>