<?xml version="1.0" encoding="UTF-8" standalone="no"?>
<svg xmlns:xlink="http://www.w3.org/1999/xlink" height="20.5px" width="12.85px" xmlns="http://www.w3.org/2000/svg">
  <g transform="matrix(1.0, 0.0, 0.0, 1.0, 6.45, 10.15)">
    <path d="M2.5 -8.95 L1.15 -8.95 1.15 -8.1 2.5 -8.1 2.5 -8.95 M3.8 -7.5 L-4.9 -7.5 -4.9 -9.5 3.8 -9.5 3.8 -7.5 M3.8 -3.7 L3.8 -1.1 -1.95 -1.1 -1.95 -3.7 3.8 -3.7 M2.45 -2.9 L1.2 -2.9 1.2 -1.95 2.45 -1.95 2.45 -2.9 M0.75 -6.2 L-0.85 -6.2 -0.85 -5.0 0.75 -5.0 0.75 -6.2 M3.8 -4.25 L-2.1 -4.25 -3.75 -6.95 3.8 -6.95 3.8 -4.25 M0.85 0.1 L-0.95 0.1 -0.95 1.4 0.85 1.4 0.85 0.1 M2.45 3.2 L1.2 3.2 1.2 4.2 2.45 4.2 2.45 3.2 M3.8 2.65 L3.8 4.75 -1.95 4.75 -1.95 2.65 3.8 2.65 M0.95 5.75 L-0.85 5.75 -0.85 7.05 0.95 7.05 0.95 5.75 M-5.8 9.7 L-4.6 8.05 3.9 8.05 5.75 9.7 -5.8 9.7 M3.8 5.35 L3.8 7.5 -4.15 7.5 -2.15 5.35 3.8 5.35 M3.8 -0.5 L3.8 2.05 -1.95 2.05 -1.95 -0.5 3.8 -0.5" fill="#ffffcb" fill-rule="evenodd" stroke="none"/>
    <path d="M2.5 -8.95 L1.15 -8.95 1.15 -8.1 2.5 -8.1 2.5 -8.95 M3.8 -7.5 L-4.9 -7.5 -4.9 -9.5 3.8 -9.5 3.8 -7.5 M3.8 -3.7 L3.8 -1.1 -1.95 -1.1 -1.95 -3.7 3.8 -3.7 M2.45 -2.9 L1.2 -2.9 1.2 -1.95 2.45 -1.95 2.45 -2.9 M0.75 -6.2 L-0.85 -6.2 -0.85 -5.0 0.75 -5.0 0.75 -6.2 M3.8 -4.25 L-2.1 -4.25 -3.75 -6.95 3.8 -6.95 3.8 -4.25 M0.85 0.1 L-0.95 0.1 -0.95 1.4 0.85 1.4 0.85 0.1 M2.45 3.2 L1.2 3.2 1.2 4.2 2.45 4.2 2.45 3.2 M3.8 2.65 L3.8 4.75 -1.95 4.75 -1.95 2.65 3.8 2.65 M0.95 5.75 L-0.85 5.75 -0.85 7.05 0.95 7.05 0.95 5.75 M-5.8 9.7 L-4.6 8.05 3.9 8.05 5.75 9.7 -5.8 9.7 M3.8 5.35 L3.8 7.5 -4.15 7.5 -2.15 5.35 3.8 5.35 M3.8 -0.5 L3.8 2.05 -1.95 2.05 -1.95 -0.5 3.8 -0.5" fill="none" stroke="#f5cb5b" stroke-linecap="square" stroke-linejoin="round" stroke-opacity="0.29803923" stroke-width="1.0"/>
  </g>
</svg>
