<svg height="20.5" width="12.85" xmlns="http://www.w3.org/2000/svg"><path d="M8.95 1.2H7.6v.85h1.35V1.2m1.3 1.45h-8.7v-2h8.7v2m0 3.8v2.6H4.5v-2.6h5.75m-1.35.8H7.65v.95H8.9v-.95m-1.7-3.3H5.6v1.2h1.6v-1.2m3.05 1.95h-5.9L2.7 3.2h7.55v2.7M7.3 10.25H5.5v1.3h1.8v-1.3m1.6 3.1H7.65v1H8.9v-1m1.35-.55v2.1H4.5v-2.1h5.75M7.4 15.9H5.6v1.3h1.8v-1.3M.65 19.85l1.2-1.65h8.5l1.85 1.65H.65m9.6-4.35v2.15H2.3l2-2.15h5.95m0-5.85v2.55H4.5V9.65h5.75" fill="#ffffcb" fill-rule="evenodd"/><path d="M8.95 1.2H7.6v.85h1.35V1.2m1.3 1.45h-8.7v-2h8.7v2m0 3.8v2.6H4.5v-2.6h5.75m-1.35.8H7.65v.95H8.9v-.95m-1.7-3.3H5.6v1.2h1.6v-1.2m3.05 1.95h-5.9L2.7 3.2h7.55v2.7M7.3 10.25H5.5v1.3h1.8v-1.3m1.6 3.1H7.65v1H8.9v-1m1.35-.55v2.1H4.5v-2.1h5.75M7.4 15.9H5.6v1.3h1.8v-1.3M.65 19.85l1.2-1.65h8.5l1.85 1.65H.65m9.6-4.35v2.15H2.3l2-2.15h5.95m0-5.85v2.55H4.5V9.65h5.75" fill="none" stroke="#f5cb5b" stroke-linecap="square" stroke-linejoin="round" stroke-opacity=".298"/></svg>