<svg height="18.85" width="19" xmlns="http://www.w3.org/2000/svg"><g fill-rule="evenodd"><path d="M14.1 16.5h-1.8V6.35l1.8 1.8v8.35M11.6 5.65v5.3H9.8v-7.1l1.8 1.8M9.45.9l8.6 8.65-.85.85-8.6-8.65.85-.85m7.1 17.3h-1.8V8.85l1.8 1.8v7.55M9.1 3.85v7.1H7.3v-5.3l1.8-1.8M6.65 16.5h-1.8V8.1l1.8-1.75V16.5M5.2 2.55v1.7l-1.8 1.8v-3.5h1.8M1.75 10.3L.9 9.45 8.15 2.2l.85.85-7.25 7.25m2.45 7.9H2.4v-7.6l1.8-1.8v9.4" fill="#ffffcb"/><path d="M2.75 1.9h3.1v1.7L7.7 1.8l-.05-.05L9.45 0l1.8 1.75v.05L19 9.55l-1.8 1.75v7.55h-3.1v-1.7H4.85v1.7h-3.1v-7.6L0 9.45 2.75 6.7V1.9M4.2 18.2V8.8l-1.8 1.8v7.6h1.8m-2.45-7.9L9 3.05l-.85-.85L.9 9.45l.85.85M5.2 2.55H3.4v3.5l1.8-1.8v-1.7M6.65 16.5V6.35L4.85 8.1v8.4h1.8M9.1 3.85l-1.8 1.8v5.3h1.8v-7.1m7.45 14.35v-7.55l-1.8-1.8v9.35h1.8M9.45.9l-.85.85 8.6 8.65.85-.85L9.45.9m2.15 4.75l-1.8-1.8v7.1h1.8v-5.3m2.5 10.85V8.15l-1.8-1.8V16.5h1.8" fill="#f5cb5b" fill-opacity=".298"/></g></svg>