<?xml version="1.0" encoding="UTF-8" standalone="no"?>
<svg xmlns:xlink="http://www.w3.org/1999/xlink" height="18.85px" width="19.0px" xmlns="http://www.w3.org/2000/svg">
  <g transform="matrix(1.0, 0.0, 0.0, 1.0, 9.55, 9.2)">
    <path d="M4.55 7.3 L2.75 7.3 2.75 -2.85 4.55 -1.05 4.55 7.3 M2.05 -3.55 L2.05 1.75 0.25 1.75 0.25 -5.35 2.05 -3.55 M-0.1 -8.3 L8.5 0.35 7.65 1.2 -0.95 -7.45 -0.1 -8.3 M7.0 9.0 L5.2 9.0 5.2 -0.35 7.0 1.45 7.0 9.0 M-0.45 -5.35 L-0.45 1.75 -2.25 1.75 -2.25 -3.55 -0.45 -5.35 M-2.9 7.3 L-4.7 7.3 -4.7 -1.1 -2.9 -2.85 -2.9 7.3 M-4.35 -6.65 L-4.35 -4.95 -6.15 -3.15 -6.15 -6.65 -4.35 -6.65 M-7.8 1.1 L-8.65 0.25 -1.4 -7.0 -0.55 -6.15 -7.8 1.1 M-5.35 9.0 L-7.15 9.0 -7.15 1.4 -5.35 -0.4 -5.35 9.0" fill="#ffffcb" fill-rule="evenodd" stroke="none"/>
    <path d="M-6.8 -7.3 L-3.7 -7.3 -3.7 -5.6 -1.85 -7.4 -1.9 -7.45 -0.1 -9.2 1.7 -7.45 1.7 -7.4 9.45 0.35 7.65 2.1 7.65 9.65 4.55 9.65 4.55 7.95 -4.7 7.95 -4.7 9.65 -7.8 9.65 -7.8 2.05 -9.55 0.25 -6.8 -2.5 -6.8 -7.3 M-5.35 9.0 L-5.35 -0.4 -7.15 1.4 -7.15 9.0 -5.35 9.0 M-7.8 1.1 L-0.55 -6.15 -1.4 -7.0 -8.65 0.25 -7.8 1.1 M-4.35 -6.65 L-6.15 -6.65 -6.15 -3.15 -4.35 -4.95 -4.35 -6.65 M-2.9 7.3 L-2.9 -2.85 -4.7 -1.1 -4.7 7.3 -2.9 7.3 M-0.45 -5.35 L-2.25 -3.55 -2.25 1.75 -0.45 1.75 -0.45 -5.35 M7.0 9.0 L7.0 1.45 5.2 -0.35 5.2 9.0 7.0 9.0 M-0.1 -8.3 L-0.95 -7.45 7.65 1.2 8.5 0.35 -0.1 -8.3 M2.05 -3.55 L0.25 -5.35 0.25 1.75 2.05 1.75 2.05 -3.55 M4.55 7.3 L4.55 -1.05 2.75 -2.85 2.75 7.3 4.55 7.3" fill="#f5cb5b" fill-opacity="0.29803923" fill-rule="evenodd" stroke="none"/>
  </g>
</svg>
