<svg height="19.45" width="16.2" xmlns="http://www.w3.org/2000/svg"><path d="M8.1 8.3l5.05.6q1.95.8 1.95 1.75l.1 2.2-1.55-1.25q-1.8-.7-5.55-.7-3.8 0-5.55.7L1 12.85l.1-2.2q0-.95 1.95-1.75l5.05-.6M8.05 1l1.1.45.2.2.3.9-.15.6L8.05 3l-1.4.15-.15-.6.3-.9.15-.2Q7.45 1 8.05 1m0 3.3q1.85 0 3.45 1.35 1.35 1.1 2.1 2.75l-.25-.1-5.25-.7q-3.5 0-5.3.7-.15.05-.25.15.75-1.7 2.1-2.8Q6.2 4.3 8.05 4.3m4.6 12.65q-1.25 1.65-2.4 1.5-.55-.05-1.15-1-.35-.65-1-.75l-.15-.05v.05q-.65.1-.95.75-.55.95-1.2 1-.5.1-1.2-.35l-1.2-1.15q-.7-.9-.7-2.55l.35-.95.85-.8 4.15-.4 4.1.4q.45.2.85.8l.35.95q0 1.65-.7 2.55m-11-2.15l.05.9.1.3.1.15.2.9-.05-.05q-.65-.5-.8-1.25l-.05-.5.05-.55H1.2l.2-.25h.35l-.1.3v.05M14.3 16q.35-.7.15-1.4l-.05-.15H14.75l.15.25v1.05l-.85 1.35v-.05l-.05.05.2-.8.1-.3m-1.95-1l.3-.65-1.85-1.6-.35.6 1.9 1.65m-1.3.45l.35-.55-1.85-1.65-.4.6 1.9 1.6" fill="#ffffcb" fill-rule="evenodd"/><path d="M8.1 8.3l5.05.6q1.95.8 1.95 1.75l.1 2.2-1.55-1.25q-1.8-.7-5.55-.7-3.8 0-5.55.7L1 12.85l.1-2.2q0-.95 1.95-1.75l5.05-.6M8.05 1l1.1.45.2.2.3.9-.15.6L8.05 3l-1.4.15-.15-.6.3-.9.15-.2Q7.45 1 8.05 1m0 3.3q1.85 0 3.45 1.35 1.35 1.1 2.1 2.75l-.25-.1-5.25-.7q-3.5 0-5.3.7-.15.05-.25.15.75-1.7 2.1-2.8Q6.2 4.3 8.05 4.3m4.6 12.65q-1.25 1.65-2.4 1.5-.55-.05-1.15-1-.35-.65-1-.75l-.15-.05v.05q-.65.1-.95.75-.55.95-1.2 1-.5.1-1.2-.35l-1.2-1.15q-.7-.9-.7-2.55l.35-.95.85-.8 4.15-.4 4.1.4q.45.2.85.8l.35.95q0 1.65-.7 2.55m-11-2.15l.05.9.1.3.1.15.2.9-.05-.05q-.65-.5-.8-1.25l-.05-.5.05-.55H1.2l.2-.25h.35l-.1.3v.05M14.3 16q.35-.7.15-1.4l-.05-.15H14.75l.15.25v1.05l-.85 1.35v-.05l-.05.05.2-.8.1-.3m-3.25-.55l-1.9-1.6.4-.6 1.85 1.65-.35.55m1.3-.45l-1.9-1.65.35-.6 1.85 1.6-.3.65" fill="none" stroke="#f5cb5b" stroke-linecap="square" stroke-linejoin="round" stroke-opacity=".298" stroke-width="1.5"/></svg>