<?xml version="1.0" encoding="UTF-8" standalone="no"?>
<svg xmlns:xlink="http://www.w3.org/1999/xlink" height="19.45px" width="16.2px" xmlns="http://www.w3.org/2000/svg">
  <g transform="matrix(1.0, 0.0, 0.0, 1.0, 8.1, 10.0)">
    <path d="M0.0 -1.7 L5.05 -1.1 Q7.0 -0.3 7.0 0.65 L7.1 2.85 5.55 1.6 Q3.75 0.9 0.0 0.9 -3.8 0.9 -5.55 1.6 L-7.1 2.85 -7.0 0.65 Q-7.0 -0.3 -5.05 -1.1 L0.0 -1.7 M-0.05 -9.0 L1.05 -8.55 1.25 -8.35 1.55 -7.45 1.4 -6.85 -0.05 -7.0 -1.45 -6.85 -1.6 -7.45 -1.3 -8.35 -1.15 -8.55 Q-0.65 -9.0 -0.05 -9.0 M-0.05 -5.7 Q1.8 -5.7 3.4 -4.35 4.75 -3.25 5.5 -1.6 L5.25 -1.7 0.0 -2.4 Q-3.5 -2.4 -5.3 -1.7 -5.45 -1.65 -5.55 -1.55 -4.8 -3.25 -3.45 -4.35 -1.9 -5.7 -0.05 -5.7 M4.55 6.95 Q3.3 8.6 2.15 8.45 1.6 8.4 1.0 7.45 0.65 6.8 0.0 6.7 L-0.15 6.65 -0.15 6.7 Q-0.8 6.8 -1.1 7.45 -1.65 8.4 -2.3 8.45 -2.8 8.55 -3.5 8.1 L-4.7 6.95 Q-5.4 6.05 -5.4 4.4 L-5.05 3.45 -4.2 2.65 -0.05 2.25 4.05 2.65 Q4.5 2.85 4.9 3.45 L5.25 4.4 Q5.25 6.05 4.55 6.95 M-6.45 4.8 L-6.4 5.7 -6.3 6.0 -6.2 6.15 -6.0 7.05 -6.05 7.0 Q-6.7 6.5 -6.85 5.75 L-6.9 5.25 -6.85 4.7 -6.9 4.7 -6.7 4.45 -6.35 4.45 -6.45 4.75 -6.45 4.8 M6.2 6.0 Q6.55 5.3 6.35 4.6 L6.3 4.45 6.5 4.45 6.6 4.45 6.65 4.45 6.8 4.7 6.8 4.75 6.8 5.75 5.95 7.1 5.95 7.05 5.9 7.1 6.1 6.3 6.2 6.0 M4.25 5.0 L4.55 4.35 2.7 2.75 2.35 3.35 4.25 5.0 M2.95 5.45 L3.3 4.9 1.45 3.25 1.05 3.85 2.95 5.45" fill="#ffffcb" fill-rule="evenodd" stroke="none"/>
    <path d="M0.0 -1.7 L5.05 -1.1 Q7.0 -0.3 7.0 0.65 L7.1 2.85 5.55 1.6 Q3.75 0.9 0.0 0.9 -3.8 0.9 -5.55 1.6 L-7.1 2.85 -7.0 0.65 Q-7.0 -0.3 -5.05 -1.1 L0.0 -1.7 M-0.05 -9.0 L1.05 -8.55 1.25 -8.35 1.55 -7.45 1.4 -6.85 -0.05 -7.0 -1.45 -6.85 -1.6 -7.45 -1.3 -8.35 -1.15 -8.55 Q-0.65 -9.0 -0.05 -9.0 M-0.05 -5.7 Q1.8 -5.7 3.4 -4.35 4.75 -3.25 5.5 -1.6 L5.25 -1.7 0.0 -2.4 Q-3.5 -2.4 -5.3 -1.7 -5.45 -1.65 -5.55 -1.55 -4.8 -3.25 -3.45 -4.35 -1.9 -5.7 -0.05 -5.7 M4.55 6.95 Q3.3 8.6 2.15 8.45 1.6 8.4 1.0 7.45 0.65 6.8 0.0 6.7 L-0.15 6.65 -0.15 6.7 Q-0.8 6.8 -1.1 7.45 -1.65 8.4 -2.3 8.45 -2.8 8.55 -3.5 8.1 L-4.7 6.95 Q-5.4 6.05 -5.4 4.4 L-5.05 3.45 -4.2 2.65 -0.05 2.25 4.05 2.65 Q4.5 2.85 4.9 3.45 L5.25 4.4 Q5.25 6.05 4.55 6.95 M-6.45 4.8 L-6.4 5.7 -6.3 6.0 -6.2 6.15 -6.0 7.05 -6.05 7.0 Q-6.7 6.5 -6.85 5.75 L-6.9 5.25 -6.85 4.7 -6.9 4.7 -6.7 4.45 -6.35 4.45 -6.45 4.75 -6.45 4.8 M6.2 6.0 Q6.55 5.3 6.35 4.6 L6.3 4.45 6.5 4.45 6.6 4.45 6.65 4.45 6.8 4.7 6.8 4.75 6.8 5.75 5.95 7.1 5.95 7.05 5.9 7.1 6.1 6.3 6.2 6.0 M2.95 5.45 L1.05 3.85 1.45 3.25 3.3 4.9 2.95 5.45 M4.25 5.0 L2.35 3.35 2.7 2.75 4.55 4.35 4.25 5.0" fill="none" stroke="#f5cb5b" stroke-linecap="square" stroke-linejoin="round" stroke-opacity="0.29803923" stroke-width="1.5"/>
  </g>
</svg>
