<svg height="13.15" width="10.1" xmlns="http://www.w3.org/2000/svg"><path d="M5.6 8.9l-.25-1.7-.7 1.55-.1.85-.3.85-.05.65-.1.25 1.45-.05-.1-.95V9.2l.15-.3m1.75-7.4l.1-.05.2.1-1.05 1.4.05.8-.05.3v.2l.05.3v1l.05.15q.05.1.2.15l.35.65h-.2l-.25.1-.15.55-.2 1.6-.15 1.6-.05.8.9.3q1.8.4 2.3 1.05H.65q.6-.75 2.65-1.05v-.3l.3-.5-.05-1.8.2-.25V6.9l-.3.05-.8 1.8q-.6 0-.4-.45l.8-1.35.25-.65.35-.15v-.2l-.75-.7-.2-.4V4.7l-.35-.2-.1-.5.45-.2.2-.65.25-.3.25-.25.7-.2.4-.15.05-.1q-.2 0-.25-.15l-.25-.15v-.2l.2-.3.1-.3.2-.3.4-.1.6.25.15.4.05.35-.1.3h-.2l-.1.05q-.1.15.1.25l.6.2.3.25 1-1.2M3.4 4.05l-.05.25.1-.05.05.15-.2.3.1.15.2.3.15.45.3-.75-.45-.95-.2.15" fill="#ffffcb" fill-rule="evenodd"/><path d="M7.35 1.5l-1 1.2-.3-.25-.6-.2q-.2-.1-.1-.25l.1-.05h.2l.1-.3-.05-.35-.15-.4-.6-.25-.4.1-.2.3-.1.3-.2.3v.2L4.3 2q.05.15.25.15l-.05.1-.4.15-.7.2-.25.25-.25.3-.2.65-.45.2.1.5.35.2v.15l.2.4.75.7v.2l-.35.15-.25.65-.8 1.35q-.2.45.4.45l.8-1.8.3-.05v1.7l-.2.25.05 1.8-.3.5v.3q-2.05.3-2.65 1.05h8.8q-.5-.65-2.3-1.05l-.9-.3.05-.8.15-1.6.2-1.6.15-.55.25-.1h.2l-.35-.65q-.15-.05-.2-.15l-.05-.15v-1l-.05-.3v-.2l.05-.3-.05-.8 1.05-1.4-.2-.1-.1.05M5.6 8.9l-.15.3v1.15l.1.95-1.45.05.1-.25.05-.65.3-.85.1-.85.7-1.55.25 1.7" fill="none" stroke="#f5cb5b" stroke-linecap="square" stroke-linejoin="round" stroke-opacity=".298"/></svg>