<svg height="20" width="20.35" xmlns="http://www.w3.org/2000/svg"><path d="M19.7 19.35H.65v-1.9H2.5V5.85H5v-1.1h-.65V1.7H5V.65h1.3V1.7h.65v3.05H6.3v1.1h3.05v-1.1h-.7V1.7h.7V.65h1.3V1.7h.65v3.05h-.65v1.1h3.05v-1.1H13V1.7h.7V.65H15V1.7h.65v3.05H15v1.1h2.85v11.6h1.85v1.9m-6.45-7.95l-2.65.05 2.05-4.7-.05-.2h-.05l-.15.05-5.45 6.3v.15l.15.1h2.5l-1.9 4.6v.2h.1l.1-.05 5.45-6.25v-.15l-.1-.1" fill="#ffffcb" fill-rule="evenodd"/><path d="M19.7 19.35H.65v-1.9H2.5V5.85H5v-1.1h-.65V1.7H5V.65h1.3V1.7h.65v3.05H6.3v1.1h3.05v-1.1h-.7V1.7h.7V.65h1.3V1.7h.65v3.05h-.65v1.1h3.05v-1.1H13V1.7h.7V.65H15V1.7h.65v3.05H15v1.1h2.85v11.6h1.85v1.9m-6.45-7.95l-2.65.05 2.05-4.7-.05-.2h-.05l-.15.05-5.45 6.3v.15l.15.1h2.5l-1.9 4.6v.2h.1l.1-.05 5.45-6.25v-.15l-.1-.1" fill="none" stroke="#f5cb5b" stroke-linecap="square" stroke-linejoin="round" stroke-opacity=".298"/></svg>