<?xml version="1.0" encoding="UTF-8" standalone="no"?>
<svg xmlns:xlink="http://www.w3.org/1999/xlink" height="20.0px" width="20.35px" xmlns="http://www.w3.org/2000/svg">
  <g transform="matrix(1.0, 0.0, 0.0, 1.0, 10.15, 10.2)">
    <path d="M9.55 9.15 L-9.5 9.15 -9.5 7.25 -7.65 7.25 -7.65 -4.35 -5.15 -4.35 -5.15 -5.45 -5.8 -5.45 -5.8 -8.5 -5.15 -8.5 -5.15 -9.55 -3.85 -9.55 -3.85 -8.5 -3.2 -8.5 -3.2 -5.45 -3.85 -5.45 -3.85 -4.35 -0.8 -4.35 -0.8 -5.45 -1.5 -5.45 -1.5 -8.5 -0.8 -8.5 -0.8 -9.55 0.5 -9.55 0.5 -8.5 1.15 -8.5 1.15 -5.45 0.5 -5.45 0.5 -4.35 3.55 -4.35 3.55 -5.45 2.85 -5.45 2.85 -8.5 3.55 -8.5 3.55 -9.55 4.85 -9.55 4.85 -8.5 5.5 -8.5 5.5 -5.45 4.85 -5.45 4.85 -4.35 7.7 -4.35 7.7 7.25 9.55 7.25 9.55 9.15 M3.1 1.2 L0.45 1.25 2.5 -3.45 2.45 -3.65 2.4 -3.65 2.25 -3.6 -3.2 2.7 -3.2 2.85 -3.05 2.95 -0.55 2.95 -2.45 7.55 -2.45 7.75 -2.35 7.75 -2.25 7.7 3.2 1.45 3.2 1.3 3.1 1.2" fill="#ffffcb" fill-rule="evenodd" stroke="none"/>
    <path d="M9.55 9.15 L-9.5 9.15 -9.5 7.25 -7.65 7.25 -7.65 -4.35 -5.15 -4.35 -5.15 -5.45 -5.8 -5.45 -5.8 -8.5 -5.15 -8.5 -5.15 -9.55 -3.85 -9.55 -3.85 -8.5 -3.2 -8.5 -3.2 -5.45 -3.85 -5.45 -3.85 -4.35 -0.8 -4.35 -0.8 -5.45 -1.5 -5.45 -1.5 -8.5 -0.8 -8.5 -0.8 -9.55 0.5 -9.55 0.5 -8.5 1.15 -8.5 1.15 -5.45 0.5 -5.45 0.5 -4.35 3.55 -4.35 3.55 -5.45 2.85 -5.45 2.85 -8.5 3.55 -8.5 3.55 -9.55 4.85 -9.55 4.85 -8.5 5.5 -8.5 5.5 -5.45 4.85 -5.45 4.85 -4.35 7.7 -4.35 7.7 7.25 9.55 7.25 9.55 9.15 M3.1 1.2 L0.45 1.25 2.5 -3.45 2.45 -3.65 2.4 -3.65 2.25 -3.6 -3.2 2.7 -3.2 2.85 -3.05 2.95 -0.55 2.95 -2.45 7.55 -2.45 7.75 -2.35 7.75 -2.25 7.7 3.2 1.45 3.2 1.3 3.1 1.2" fill="none" stroke="#f5cb5b" stroke-linecap="square" stroke-linejoin="round" stroke-opacity="0.29803923" stroke-width="1.0"/>
  </g>
</svg>
