<?xml version="1.0" encoding="UTF-8" standalone="no"?>
<svg xmlns:xlink="http://www.w3.org/1999/xlink" height="18.75px" width="22.1px" xmlns="http://www.w3.org/2000/svg">
  <g transform="matrix(1.0, 0.0, 0.0, 1.0, 11.4, 9.05)">
    <path d="M6.05 7.4 L5.9 7.5 5.55 7.7 6.05 7.4" fill="#f3c95f" fill-rule="evenodd" stroke="none"/>
    <path d="M3.25 -4.1 Q4.25 -4.1 4.95 -3.3 5.7 -2.5 5.7 -1.45 L5.7 -1.35 6.75 4.6 Q6.75 5.65 6.05 6.4 5.35 7.15 4.35 7.15 L-4.1 7.15 Q-5.15 7.15 -5.8 6.4 -6.5 5.65 -6.55 4.6 L-6.25 2.95 -7.05 2.85 Q-8.65 2.7 -9.05 2.1 -9.75 1.25 -9.75 -0.85 L-9.75 -1.65 -9.95 -2.85 -8.25 -2.85 Q-8.0 0.05 -6.7 0.05 -6.15 0.05 -5.7 -0.65 L-5.6 -0.75 -5.55 -0.9 -5.5 -1.35 -5.5 -1.45 Q-5.5 -2.5 -4.75 -3.3 -4.05 -4.1 -3.05 -4.1 L3.25 -4.1 M2.7 -5.9 L3.25 -5.65 3.55 -4.9 -3.25 -4.9 Q-3.25 -5.9 -2.4 -5.9 L2.7 -5.9 M0.15 -8.3 Q0.95 -8.3 0.95 -7.5 L0.7 -6.9 0.15 -6.7 Q-0.7 -6.7 -0.7 -7.5 -0.7 -8.3 0.15 -8.3 M5.85 -3.6 Q7.2 -3.6 8.35 -2.55 9.55 -1.5 9.85 0.2 10.15 1.95 9.45 3.45 8.75 4.75 7.5 5.05 L7.4 5.4 7.5 4.55 7.4 3.85 8.35 2.9 Q8.95 1.8 8.7 0.45 8.45 -0.9 7.55 -1.65 L6.35 -2.3 5.75 -3.55 5.85 -3.6 M5.05 7.9 Q5.45 7.9 5.45 8.2 L5.45 8.65 Q5.45 8.95 5.05 8.95 L-4.85 8.95 -5.2 8.65 -5.2 8.2 Q-5.2 7.9 -4.85 7.9 L-4.2 7.9 -4.1 7.9 4.35 7.9 4.45 7.9 5.05 7.9" fill="#ffffcb" fill-rule="evenodd" stroke="none"/>
    <path d="M5.9 7.5 L6.2 8.2 6.2 8.65 5.85 9.4 Q5.55 9.7 5.05 9.7 L-4.85 9.7 Q-5.3 9.7 -5.6 9.4 L-5.95 8.65 -5.95 8.2 -5.65 7.5 -6.3 7.0 -6.35 6.95 Q-7.3 5.95 -7.3 4.55 L-7.15 3.6 Q-9.0 3.35 -9.65 2.6 -10.3 1.8 -10.4 0.6 L-10.5 -1.65 Q-10.6 -3.25 -11.4 -3.6 L-7.55 -3.6 Q-7.4 -0.5 -6.7 -0.7 L-6.3 -1.1 -6.25 -1.45 Q-6.25 -2.85 -5.3 -3.85 -4.75 -4.45 -4.0 -4.7 L-4.0 -4.9 Q-4.0 -5.65 -3.55 -6.2 -3.1 -6.65 -2.4 -6.65 L-1.2 -6.65 -1.45 -7.5 -1.0 -8.55 Q-0.5 -9.05 0.15 -9.05 0.75 -9.05 1.25 -8.55 1.65 -8.15 1.65 -7.5 L1.45 -6.65 2.7 -6.65 Q3.3 -6.65 3.8 -6.2 4.25 -5.65 4.25 -4.9 L4.25 -4.7 5.1 -4.2 5.85 -4.3 Q7.5 -4.35 8.85 -3.1 10.2 -1.9 10.6 0.1 10.9 2.1 10.05 3.75 9.3 5.45 7.6 5.75 L7.3 5.8 6.55 6.95 6.25 7.3 6.05 7.4 5.55 7.7 5.9 7.5 M5.85 -3.6 L5.75 -3.55 6.35 -2.3 7.55 -1.65 Q8.45 -0.9 8.7 0.45 8.95 1.8 8.35 2.9 L7.4 3.85 7.5 4.55 7.4 5.4 7.5 5.05 Q8.75 4.75 9.45 3.45 10.15 1.95 9.85 0.2 9.55 -1.5 8.35 -2.55 7.2 -3.6 5.85 -3.6 M0.15 -8.3 Q-0.7 -8.3 -0.7 -7.5 -0.7 -6.7 0.15 -6.7 L0.7 -6.9 0.95 -7.5 Q0.95 -8.3 0.15 -8.3 M2.7 -5.9 L-2.4 -5.9 Q-3.25 -5.9 -3.25 -4.9 L3.55 -4.9 3.25 -5.65 2.7 -5.9 M3.25 -4.1 L-3.05 -4.1 Q-4.05 -4.1 -4.75 -3.3 -5.5 -2.5 -5.5 -1.45 L-5.5 -1.35 -5.55 -0.9 -5.6 -0.75 -5.7 -0.65 Q-6.15 0.05 -6.7 0.05 -8.0 0.05 -8.25 -2.85 L-9.95 -2.85 -9.75 -1.65 -9.75 -0.85 Q-9.75 1.25 -9.05 2.1 -8.65 2.7 -7.05 2.85 L-6.25 2.95 -6.55 4.6 Q-6.5 5.65 -5.8 6.4 -5.15 7.15 -4.1 7.15 L4.35 7.15 Q5.35 7.15 6.05 6.4 6.75 5.65 6.75 4.6 L5.7 -1.35 5.7 -1.45 Q5.7 -2.5 4.95 -3.3 4.25 -4.1 3.25 -4.1 M7.75 2.6 Q8.15 1.75 8.0 0.55 7.8 -0.55 7.1 -1.15 L6.45 -1.5 6.45 -1.45 7.25 3.1 7.75 2.6 M5.05 7.9 L4.45 7.9 4.35 7.9 -4.1 7.9 -4.2 7.9 -4.85 7.9 Q-5.2 7.9 -5.2 8.2 L-5.2 8.65 -4.85 8.95 5.05 8.95 Q5.45 8.95 5.45 8.65 L5.45 8.2 Q5.45 7.9 5.05 7.9" fill="#f5cb5b" fill-opacity="0.29803923" fill-rule="evenodd" stroke="none"/>
  </g>
</svg>
