<svg height="18.75" width="22.1" xmlns="http://www.w3.org/2000/svg"><g fill-rule="evenodd"><path d="M17.45 16.45l-.15.1-.35.2.5-.3" fill="#f3c95f"/><path d="M14.65 4.95q1 0 1.7.8.75.8.75 1.85v.1l1.05 5.95q0 1.05-.7 1.8t-1.7.75H7.3q-1.05 0-1.7-.75-.7-.75-.75-1.8l.3-1.65-.8-.1q-1.6-.15-2-.75-.7-.85-.7-2.95v-.8l-.2-1.2h1.7Q3.4 9.1 4.7 9.1q.55 0 1-.7l.1-.1.05-.15.05-.45v-.1q0-1.05.75-1.85.7-.8 1.7-.8h6.3m-.55-1.8l.55.25.3.75h-6.8q0-1 .85-1h5.1M11.55.75q.8 0 .8.8l-.25.6-.55.2q-.85 0-.85-.8t.85-.8m5.7 4.7q1.35 0 2.5 1.05 1.2 1.05 1.5 2.75.3 1.75-.4 3.25-.7 1.3-1.95 1.6l-.1.35.1-.85-.1-.7.95-.95q.6-1.1.35-2.45t-1.15-2.1l-1.2-.65-.6-1.25.1-.05m-.8 11.5q.4 0 .4.3v.45q0 .3-.4.3h-9.9l-.35-.3v-.45q0-.3.35-.3H16.45" fill="#ffffcb"/><path d="M17.3 16.55l.3.7v.45l-.35.75q-.3.3-.8.3h-9.9q-.45 0-.75-.3l-.35-.75v-.45l.3-.7-.65-.5-.05-.05q-.95-1-.95-2.4l.15-.95q-1.85-.25-2.5-1-.65-.8-.75-2L.9 7.4Q.8 5.8 0 5.45h3.85q.15 3.1.85 2.9l.4-.4.05-.35q0-1.4.95-2.4.55-.6 1.3-.85v-.2q0-.75.45-1.3Q8.3 2.4 9 2.4h1.2l-.25-.85L10.4.5q.5-.5 1.15-.5.6 0 1.1.5.4.4.4 1.05l-.2.85h1.25q.6 0 1.1.45.45.55.45 1.3v.2l.85.5.75-.1q1.65-.05 3 1.2 1.35 1.2 1.75 3.2.3 2-.55 3.65-.75 1.7-2.45 2l-.3.05-.75 1.15-.3.35-.2.1-.5.3.35-.2m-.05-11.1l-.1.05.6 1.25 1.2.65q.9.75 1.15 2.1.25 1.35-.35 2.45l-.95.95.1.7-.1.85.1-.35q1.25-.3 1.95-1.6.7-1.5.4-3.25-.3-1.7-1.5-2.75-1.15-1.05-2.5-1.05m-5.7-4.7q-.85 0-.85.8t.85.8l.55-.2.25-.6q0-.8-.8-.8m2.55 2.4H9q-.85 0-.85 1h6.8l-.3-.75-.55-.25m.55 1.8h-6.3q-1 0-1.7.8-.75.8-.75 1.85v.1l-.05.45-.05.15-.1.1q-.45.7-1 .7-1.3 0-1.55-2.9h-1.7l.2 1.2v.8q0 2.1.7 2.95.4.6 2 .75l.8.1-.3 1.65q.05 1.05.75 1.8.65.75 1.7.75h8.45q1 0 1.7-.75t.7-1.8L17.1 7.7v-.1q0-1.05-.75-1.85-.7-.8-1.7-.8m4.5 6.7q.4-.85.25-2.05-.2-1.1-.9-1.7l-.65-.35v.05l.8 4.55.5-.5m-2.7 5.3H6.55q-.35 0-.35.3v.45l.35.3h9.9q.4 0 .4-.3v-.45q0-.3-.4-.3" fill="#f5cb5b" fill-opacity=".298"/></g></svg>