<svg height="19.55" width="20.85" xmlns="http://www.w3.org/2000/svg"><path d="M8.9 9.1H7.6v4.3h1.3V9.1m8.6 3.5h-1.25v2.5h1.25v-2.5m-2.35 2.5v-2.5H13.9v2.5h1.25M13.9 7.85h-1v3.25l2.95-2.8 4.35 4.05h-1.05v6.55h-1.5v-2.35H16.4v2.35h-6.15v-3.4H9v3.4H5.4v-3.1h-2v3.1H1.7v-4.65H.65l5.6-5v-1.4h-1l1.85-2.5V.65h.75V4.3L9.6 2l4.3 5.85M11.2 9.1H10v4.3h1.2V9.1" fill="#ffffcb" fill-rule="evenodd"/><path d="M11.2 9.1v4.3H10V9.1h1.2m2.7-1.25L9.6 2 7.85 4.3V.65H7.1v4.7l-1.85 2.5h1v1.4l-5.6 5H1.7v4.65h1.7v-3.1h2v3.1H9v-3.4h1.25v3.4h6.15v-2.35h1.25v2.35h1.5v-6.55h1.05L15.85 8.3l-2.95 2.8V7.85h1m1.25 7.25H13.9v-2.5h1.25v2.5m2.35-2.5v2.5h-1.25v-2.5h1.25M8.9 9.1v4.3H7.6V9.1h1.3" fill="none" stroke="#f5cb5b" stroke-linecap="square" stroke-linejoin="round" stroke-opacity=".298"/></svg>