<?xml version="1.0" encoding="UTF-8" standalone="no"?>
<svg xmlns:xlink="http://www.w3.org/1999/xlink" height="19.0px" width="22.75px" xmlns="http://www.w3.org/2000/svg">
  <g transform="matrix(1.0, 0.0, 0.0, 1.0, 11.35, 9.5)">
    <path d="M-6.8 1.7 L-6.55 1.15 -7.0 2.25 -6.8 1.7 M-3.1 -7.45 L-2.85 -8.0 -3.3 -6.9 -3.1 -7.45" fill="#f3c95f" fill-rule="evenodd" stroke="none"/>
    <path d="M4.15 -6.75 L3.5 -6.75 4.1 -5.25 4.85 -5.25 4.15 -6.75 M-2.85 -8.0 L-2.25 -9.5 -0.9 -9.5 -1.35 -7.45 1.55 -7.45 1.05 -9.5 2.4 -9.5 3.25 -7.45 4.6 -7.45 5.95 -4.55 4.4 -4.55 4.75 -3.65 6.4 -3.65 8.3 0.2 6.3 0.2 6.95 1.7 9.1 1.7 11.4 6.4 8.85 6.4 10.1 9.5 5.55 9.5 4.85 6.4 -4.65 6.4 -5.4 9.5 -9.95 9.5 -8.7 6.4 -11.35 6.4 -9.0 1.7 -6.8 1.7 -7.0 2.25 -6.55 1.15 -6.15 0.2 -8.25 0.2 -6.3 -3.65 -4.6 -3.65 -4.25 -4.55 -5.85 -4.55 -4.4 -7.45 -3.1 -7.45 -3.3 -6.9 -2.85 -8.0 M-2.05 -4.55 L-2.25 -3.65 2.45 -3.65 2.25 -4.55 -2.05 -4.55 M-3.7 2.4 L-4.5 5.7 4.65 5.7 3.9 2.4 -3.7 2.4 M8.65 2.4 L7.2 2.4 8.55 5.7 10.3 5.7 8.65 2.4 M-1.55 -6.75 L-1.9 -5.25 2.05 -5.25 1.7 -6.75 -1.55 -6.75 M5.95 -2.95 L5.05 -2.95 6.05 -0.5 7.2 -0.5 5.95 -2.95 M-2.45 -2.95 L-3.0 -0.5 3.2 -0.5 2.6 -2.95 -2.45 -2.95 M-3.2 0.2 L-3.55 1.7 3.7 1.7 3.35 0.2 -3.2 0.2 M-7.1 -0.5 L-5.9 -0.5 -4.9 -2.95 -5.9 -2.95 -7.1 -0.5 M-4.75 -5.25 L-3.95 -5.25 -3.35 -6.75 -4.0 -6.75 -4.75 -5.25 M1.95 -8.75 L6.1 8.8 9.05 8.8 1.95 -8.75 M-1.8 -8.75 L-8.9 8.8 -5.95 8.8 -1.8 -8.75 M-10.2 5.7 L-8.4 5.7 -8.6 6.25 -7.05 2.4 -8.55 2.4 -10.2 5.7" fill="#f5cb5b" fill-opacity="0.29803923" fill-rule="evenodd" stroke="none"/>
    <path d="M4.15 -6.75 L4.85 -5.25 4.1 -5.25 3.5 -6.75 4.15 -6.75 M-2.45 -2.95 L2.6 -2.95 3.2 -0.5 -3.0 -0.5 -2.45 -2.95 M5.95 -2.95 L7.2 -0.5 6.05 -0.5 5.05 -2.95 5.95 -2.95 M-1.55 -6.75 L1.7 -6.75 2.05 -5.25 -1.9 -5.25 -1.55 -6.75 M8.65 2.4 L10.3 5.7 8.55 5.7 7.2 2.4 8.65 2.4 M-3.7 2.4 L3.9 2.4 4.65 5.7 -4.5 5.7 -3.7 2.4 M1.95 -8.75 L9.05 8.8 6.1 8.8 1.95 -8.75 M-4.75 -5.25 L-4.0 -6.75 -3.35 -6.75 -3.95 -5.25 -4.75 -5.25 M-7.1 -0.5 L-5.9 -2.95 -4.9 -2.95 -5.9 -0.5 -7.1 -0.5 M-10.2 5.7 L-8.55 2.4 -7.05 2.4 -8.6 6.25 -8.4 5.7 -10.2 5.7 M-1.8 -8.75 L-5.95 8.8 -8.9 8.8 -1.8 -8.75" fill="#ffffcb" fill-rule="evenodd" stroke="none"/>
  </g>
</svg>
