<svg height="19" width="22.75" xmlns="http://www.w3.org/2000/svg"><g fill-rule="evenodd"><path d="M4.55 11.2l.25-.55-.45 1.1.2-.55m3.7-9.15l.25-.55-.45 1.1.2-.55" fill="#f3c95f"/><path d="M15.5 2.75h-.65l.6 1.5h.75l-.7-1.5m-7-1.25L9.1 0h1.35L10 2.05h2.9L12.4 0h1.35l.85 2.05h1.35l1.35 2.9h-1.55l.35.9h1.65l1.9 3.85h-2l.65 1.5h2.15l2.3 4.7H20.2l1.25 3.1H16.9l-.7-3.1H6.7L5.95 19H1.4l1.25-3.1H0l2.35-4.7h2.2l-.2.55.45-1.1.4-.95H3.1l1.95-3.85h1.7l.35-.9H5.5l1.45-2.9h1.3l-.2.55.45-1.1m.8 3.45l-.2.9h4.7l-.2-.9H9.3M7.65 11.9l-.8 3.3H16l-.75-3.3h-7.6m12.35 0h-1.45l1.35 3.3h1.75L20 11.9M9.8 2.75l-.35 1.5h3.95l-.35-1.5H9.8m7.5 3.8h-.9l1 2.45h1.15L17.3 6.55m-8.4 0L8.35 9h6.2l-.6-2.45H8.9M8.15 9.7l-.35 1.5h7.25l-.35-1.5H8.15M4.25 9h1.2l1-2.45h-1L4.25 9M6.6 4.25h.8l.6-1.5h-.65l-.75 1.5m6.7-3.5l4.15 17.55h2.95L13.3.75m-3.75 0L2.45 18.3H5.4L9.55.75M1.15 15.2h1.8l-.2.55L4.3 11.9H2.8l-1.65 3.3" fill="#f5cb5b" fill-opacity=".298"/><path d="M15.5 2.75l.7 1.5h-.75l-.6-1.5h.65m-6.6 3.8h5.05l.6 2.45h-6.2l.55-2.45m8.4 0L18.55 9H17.4l-1-2.45h.9m-7.5-3.8h3.25l.35 1.5H9.45l.35-1.5M20 11.9l1.65 3.3H19.9l-1.35-3.3H20m-12.35 0h7.6l.75 3.3H6.85l.8-3.3M13.3.75l7.1 17.55h-2.95L13.3.75m-6.7 3.5l.75-1.5H8l-.6 1.5h-.8M4.25 9l1.2-2.45h1L5.45 9h-1.2m-3.1 6.2l1.65-3.3h1.5l-1.55 3.85.2-.55h-1.8M9.55.75L5.4 18.3H2.45L9.55.75" fill="#ffffcb"/></g></svg>