<?xml version="1.0" encoding="UTF-8" standalone="no"?>
<svg xmlns:xlink="http://www.w3.org/1999/xlink" height="18.65px" width="21.85px" xmlns="http://www.w3.org/2000/svg">
  <g transform="matrix(1.0, 0.0, 0.0, 1.0, 10.3, 9.05)">
    <path d="M-2.35 -8.4 L-2.95 -1.55 1.95 -1.55 1.95 -5.2 0.35 -5.2 1.35 -6.75 10.2 -6.75 10.7 -6.5 10.9 -6.05 10.9 -5.9 Q10.9 -5.6 10.7 -5.45 10.45 -5.2 10.2 -5.2 L9.05 -5.2 9.05 -1.55 9.75 -1.55 9.75 5.35 8.45 5.35 8.6 6.25 Q8.6 7.4 7.8 8.2 7.05 8.95 5.9 8.95 4.8 8.95 4.0 8.2 3.25 7.4 3.25 6.25 L3.4 5.35 -0.55 5.35 -0.4 6.25 Q-0.4 7.4 -1.2 8.2 -2.05 8.95 -3.1 8.95 L-4.5 8.6 -5.45 7.55 -6.0 8.95 -9.65 8.95 -9.65 8.0 -7.25 3.35 -8.45 2.5 Q-9.0 1.85 -9.0 1.0 -9.0 -0.05 -8.2 -0.8 -7.5 -1.5 -6.5 -1.55 L-5.9 -1.55 -6.45 -8.4 -2.35 -8.4" fill="#ffffcb" fill-rule="evenodd" stroke="none"/>
    <path d="M-2.35 -8.4 L-2.95 -1.55 1.95 -1.55 1.95 -5.2 0.35 -5.2 1.35 -6.75 10.2 -6.75 10.7 -6.5 10.9 -6.05 10.9 -5.9 Q10.9 -5.6 10.7 -5.45 10.45 -5.2 10.2 -5.2 L9.05 -5.2 9.05 -1.55 9.75 -1.55 9.75 5.35 8.45 5.35 8.6 6.25 Q8.6 7.4 7.8 8.2 7.05 8.95 5.9 8.95 4.8 8.95 4.0 8.2 3.25 7.4 3.25 6.25 L3.4 5.35 -0.55 5.35 -0.4 6.25 Q-0.4 7.4 -1.2 8.2 -2.05 8.95 -3.1 8.95 L-4.5 8.6 -5.45 7.55 -6.0 8.95 -9.65 8.95 -9.65 8.0 -7.25 3.35 -8.45 2.5 Q-9.0 1.85 -9.0 1.0 -9.0 -0.05 -8.2 -0.8 -7.5 -1.5 -6.5 -1.55 L-5.9 -1.55 -6.45 -8.4 -2.35 -8.4 Z" fill="none" stroke="#f5cb5b" stroke-linecap="square" stroke-linejoin="round" stroke-opacity="0.29803923" stroke-width="1.0"/>
  </g>
</svg>
