<svg height="18.65" width="21.85" xmlns="http://www.w3.org/2000/svg"><path d="M7.95.65l-.6 6.85h4.9V3.85h-1.6l1-1.55h8.85l.5.25.2.45v.15q0 .3-.2.45-.25.25-.5.25h-1.15V7.5h.7v6.9h-1.3l.15.9q0 1.15-.8 1.95-.75.75-1.9.75-1.1 0-1.9-.75-.75-.8-.75-1.95l.15-.9H9.75l.15.9q0 1.15-.8 1.95-.85.75-1.9.75l-1.4-.35-.95-1.05L4.3 18H.65v-.95l2.4-4.65-1.2-.85q-.55-.65-.55-1.5 0-1.05.8-1.8.7-.7 1.7-.75h.6L3.85.65h4.1" fill="#ffffcb" fill-rule="evenodd"/><path d="M7.95.65l-.6 6.85h4.9V3.85h-1.6l1-1.55h8.85l.5.25.2.45v.15q0 .3-.2.45-.25.25-.5.25h-1.15V7.5h.7v6.9h-1.3l.15.9q0 1.15-.8 1.95-.75.75-1.9.75-1.1 0-1.9-.75-.75-.8-.75-1.95l.15-.9H9.75l.15.9q0 1.15-.8 1.95-.85.75-1.9.75l-1.4-.35-.95-1.05L4.3 18H.65v-.95l2.4-4.65-1.2-.85q-.55-.65-.55-1.5 0-1.05.8-1.8.7-.7 1.7-.75h.6L3.85.65h4.1z" fill="none" stroke="#f5cb5b" stroke-linecap="square" stroke-linejoin="round" stroke-opacity=".298"/></svg>