<?xml version="1.0" encoding="UTF-8" standalone="no"?>
<svg xmlns:xlink="http://www.w3.org/1999/xlink" height="21.1px" width="17.3px" xmlns="http://www.w3.org/2000/svg">
  <g transform="matrix(1.0, 0.0, 0.0, 1.0, 8.65, 10.55)">
    <path d="M0.0 -9.9 L4.0 -5.9 1.3 -5.9 6.35 -0.85 2.0 -0.85 8.0 5.1 1.0 5.1 1.0 7.7 Q2.95 7.8 4.5 8.4 6.0 9.0 6.6 9.9 L-6.55 9.9 Q-5.95 9.05 -4.55 8.45 -3.15 7.85 -1.25 7.7 L-0.95 7.7 -0.95 5.1 -8.0 5.1 -2.0 -0.85 -6.35 -0.85 -1.3 -5.9 -4.0 -5.9 0.0 -9.9" fill="#ffffcb" fill-rule="evenodd" stroke="none"/>
    <path d="M0.0 -9.9 L-4.0 -5.9 -1.3 -5.9 -6.35 -0.85 -2.0 -0.85 -8.0 5.1 -0.95 5.1 -0.95 7.7 -1.25 7.7 Q-3.15 7.85 -4.55 8.45 -5.95 9.05 -6.55 9.9 L6.6 9.9 Q6.0 9.0 4.5 8.4 2.95 7.8 1.0 7.7 L1.0 5.1 8.0 5.1 2.0 -0.85 6.35 -0.85 1.3 -5.9 4.0 -5.9 0.0 -9.9 Z" fill="none" stroke="#f5cb5b" stroke-linecap="square" stroke-linejoin="round" stroke-opacity="0.29803923" stroke-width="1.0"/>
  </g>
</svg>
