<svg height="21.1" width="17.3" xmlns="http://www.w3.org/2000/svg"><path d="M8.65.65l4 4h-2.7L15 9.7h-4.35l6 5.95h-7v2.6q1.95.1 3.5.7 1.5.6 2.1 1.5H2.1q.6-.85 2-1.45t3.3-.75h.3v-2.6H.65l6-5.95H2.3l5.05-5.05h-2.7l4-4" fill="#ffffcb" fill-rule="evenodd"/><path d="M8.65.65l-4 4h2.7L2.3 9.7h4.35l-6 5.95H7.7v2.6h-.3q-1.9.15-3.3.75t-2 1.45h13.15q-.6-.9-2.1-1.5-1.55-.6-3.5-.7v-2.6h7l-6-5.95H15L9.95 4.65h2.7l-4-4z" fill="none" stroke="#f5cb5b" stroke-linecap="square" stroke-linejoin="round" stroke-opacity=".298"/></svg>