<svg height="19.7" width="20.1" xmlns="http://www.w3.org/2000/svg"><g fill-rule="evenodd"><path d="M4.75 2.3l.15.05.8.55v.05l.15.05h.05l.05-.05q.95-.5 2.05-.8l.25-.3.2-.95.2-.2h2.8l.2.2.2.95.3.3q1.1.3 2 .8l.1.05h.05l.15-.1.75-.55.15-.05h.15l.15.1 1.9 1.85.05.35-.5.8-.05.4.85 1.9q.1.25.35.3l.95.2.15.2.05 2.7-.2.25-1 .2-.25.25q-.25 1.2-.8 2-.05.25.05.35l.45.75q.15.3-.05.5l-1.75 1.75-.15.1h-.05l-.15-.05-.85-.45-.15-.05-.05-.05-.05.05-.15.05q-1.05.6-1.95.8l-.3.3-.25.9-.2.25h-3l-.2-.25-.25-.9-.3-.3-1.95-.8-.1-.05-.1-.05-.05.05-.15.05-.3.2-.5.25-.2.05-.2-.1L2.5 15.4q-.2-.2-.05-.5l.5-.75v-.35q-.6-1-.8-2l-.25-.25-1-.2-.2-.25.05-2.7.15-.2 1-.2.3-.3.85-1.9v-.4l-.55-.8.05-.35 1.9-1.85.1-.05.2-.05m7.2 6.8v1.3h.8q.5 0 .7.3l.2 1-.2.85q-.25.35-.65.35-.35 0-.6-.3l-.2-.85h-1.65q0 1.25.7 1.85.7.6 1.7.6 1.15 0 1.85-.65.7-.65.7-1.85l-.3-1.2-.9-.8.8-.75.3-1.05q0-1.2-.65-1.85-.65-.6-1.8-.6-1 0-1.65.65-.65.6-.65 1.7h1.6l.25-.75.5-.25q.4 0 .55.3l.2.8q0 .6-.2.9-.15.3-.6.3h-.8m-4.65.6q.35 0 .55.4l.2 1.2-.2 1.15-.55.45q-.45 0-.65-.55L6.4 10.8v-.65l.35-.35.55-.1m.35-4.25q-1.3 0-2.1.95t-.8 2.65v1.75q0 1.65.7 2.55.7.85 1.85.85 1.05 0 1.75-.8.65-.8.65-2.1t-.5-2.1q-.55-.8-1.45-.8L7 8.5l-.6.45q0-1.05.35-1.6.3-.55.9-.55l.6.05.5.2.3-1.25-.65-.25-.75-.1" fill="#ffffcb"/><path d="M11.45 0q.75 0 .9.8l.15.75 1.75.65.55-.4.65-.25.7.35 1.9 1.85q.6.55.15 1.2l-.4.65.75 1.75.5.1.3.1q.7.1.7.85l.05 2.7q0 .75-.75.9l-.75.2-.7 1.75.35.6q.5.7-.15 1.3l-1.75 1.8-.7.3-.5-.15-.7-.35-1.8.75-.25.75-.65.7-.1.05h-3.2l-.1-.05q-.5-.15-.65-.75l-.2-.7-1.85-.75-.7.35-.5.15q-.4 0-.7-.3L2 15.85q-.6-.6-.15-1.3l.4-.6-.75-1.75-.75-.2Q0 11.85 0 11.1l.05-2.7q0-.75.7-.85l.3-.1.55-.1.75-1.75-.45-.65q-.4-.65.15-1.2l1.9-1.85.7-.35q.4 0 .65.25l.55.4 1.75-.65.15-.75q.15-.8.9-.8h2.8m3.9 2.3l-.15.05-.75.55-.15.1h-.05l-.1-.05q-.9-.5-2-.8l-.3-.3-.2-.95-.2-.2h-2.8l-.2.2-.2.95-.25.3q-1.1.3-2.05.8L5.9 3h-.05l-.15-.05V2.9l-.8-.55-.15-.05-.1-.05-.1.1-.1.05-1.9 1.85-.05.35.55.8v.4L2.2 7.7l-.3.3-1 .2-.15.2-.05 2.7.2.25 1 .2.25.25q.2 1 .8 2v.35l-.5.75q-.15.3.05.5l1.75 1.75.2.1.2-.05.5-.25.45-.25.05-.05.1.05.1.05 1.95.8.3.3.25.9.2.25h3l.2-.25.25-.9.3-.3q.9-.2 1.95-.8l.15-.05.05-.05.05.05.15.05.85.45.15.05h.05l.15-.1 1.75-1.75q.2-.2.05-.5l-.45-.75q-.1-.1-.05-.35.55-.8.8-2l.25-.25 1-.2.2-.25-.05-2.7-.15-.2-.95-.2q-.25-.05-.35-.3l-.85-1.9.05-.4.5-.8-.05-.35-1.9-1.85-.15-.1-.05-.05-.1.05m-3.4 6.8h.8q.45 0 .6-.3.2-.3.2-.9l-.2-.8q-.15-.3-.55-.3l-.5.25-.25.75h-1.6q0-1.1.65-1.7.65-.65 1.65-.65 1.15 0 1.8.6.65.65.65 1.85l-.3 1.05-.8.75.9.8.3 1.2q0 1.2-.7 1.85-.7.65-1.85.65-1 0-1.7-.6t-.7-1.85H12l.2.85q.25.3.6.3.4 0 .65-.35l.2-.85-.2-1q-.2-.3-.7-.3h-.8V9.1m-4.3-3.65l.75.1.65.25-.3 1.25-.5-.2-.6-.05q-.6 0-.9.55-.35.55-.35 1.6L7 8.5l.75-.1q.9 0 1.45.8.5.8.5 2.1t-.65 2.1q-.7.8-1.75.8-1.15 0-1.85-.85-.7-.9-.7-2.55V9.05q0-1.7.8-2.65t2.1-.95M7.3 9.7l-.55.1-.35.35v.65l.25 1.55q.2.55.65.55l.55-.45.2-1.15-.2-1.2q-.2-.4-.55-.4" fill="#f5cb5b" fill-opacity=".298"/></g></svg>