<?xml version="1.0" encoding="UTF-8" standalone="no"?>
<svg xmlns:xlink="http://www.w3.org/1999/xlink" height="20.3px" width="20.3px" xmlns="http://www.w3.org/2000/svg">
  <g transform="matrix(1.0, 0.0, 0.0, 1.0, 10.15, 10.15)">
    <path d="M0.0 -2.4 Q-1.0 -2.4 -1.7 -1.7 -2.4 -1.0 -2.4 0.0 -2.4 1.0 -1.7 1.7 -1.0 2.4 0.0 2.4 1.0 2.4 1.7 1.7 2.4 1.0 2.4 0.0 2.4 -1.0 1.7 -1.7 1.0 -2.4 0.0 -2.4 M3.8 -6.45 L5.55 -7.9 7.9 -5.55 6.45 -3.8 7.25 -1.85 9.5 -1.65 9.5 1.65 7.25 1.85 6.45 3.8 7.9 5.55 5.55 7.9 3.8 6.4 1.85 7.25 1.65 9.5 -1.65 9.5 -1.85 7.25 -3.8 6.4 -5.55 7.9 -7.9 5.55 -6.4 3.8 -7.25 1.85 -9.5 1.65 -9.5 -1.65 -7.25 -1.85 -6.4 -3.8 -7.9 -5.55 -5.55 -7.9 -3.8 -6.45 -1.85 -7.25 -1.65 -9.5 1.65 -9.5 1.85 -7.25 3.8 -6.45" fill="#ffffcb" fill-rule="evenodd" stroke="none"/>
    <path d="M0.0 -2.4 Q-1.0 -2.4 -1.7 -1.7 -2.4 -1.0 -2.4 0.0 -2.4 1.0 -1.7 1.7 -1.0 2.4 0.0 2.4 1.0 2.4 1.7 1.7 2.4 1.0 2.4 0.0 2.4 -1.0 1.7 -1.7 1.0 -2.4 0.0 -2.4 M3.8 -6.45 L5.55 -7.9 7.9 -5.55 6.45 -3.8 7.25 -1.85 9.5 -1.65 9.5 1.65 7.25 1.85 6.45 3.8 7.9 5.55 5.55 7.9 3.8 6.4 1.85 7.25 1.65 9.5 -1.65 9.5 -1.85 7.25 -3.8 6.4 -5.55 7.9 -7.9 5.55 -6.4 3.8 -7.25 1.85 -9.5 1.65 -9.5 -1.65 -7.25 -1.85 -6.4 -3.8 -7.9 -5.55 -5.55 -7.9 -3.8 -6.45 -1.85 -7.25 -1.65 -9.5 1.65 -9.5 1.85 -7.25 3.8 -6.45" fill="none" stroke="#f5cb5b" stroke-linecap="square" stroke-linejoin="round" stroke-opacity="0.29803923" stroke-width="1.0"/>
  </g>
</svg>
