<svg height="19.7" width="20.1" xmlns="http://www.w3.org/2000/svg"><g fill-rule="evenodd"><path d="M15.3 2.35l.35.05 1.9 1.85.05.35-.55.8q-.15.2 0 .4l.85 1.9.3.3 1 .2.15.2.05 2.7-.2.25-1 .2q-.2.05-.25.25-.2 1-.8 2v.35l.5.75q.15.3-.05.5l-1.75 1.75-.2.1h-.05l-.15-.05-.85-.45-.1-.05-.05-.05-.05.05-.15.05-1.95.8q-.3.1-.3.3l-.25.9-.2.25h-3l-.2-.25-.25-.9-.3-.3q-.85-.2-2-.8l-.1-.05-.05-.05-.05.05-.15.05-.85.45-.1.05h-.05l-.2-.1L2.5 15.4l-.1-.5.5-.75q.15-.1.05-.35l-.85-2-.2-.25-1-.2-.2-.25.05-2.7.15-.2.95-.2q.25-.05.35-.3L3 5.8q.15-.2 0-.4l-.5-.8.05-.35L4.4 2.4l.2-.1h.2l.1.05.75.55.2.1.1-.05 2-.8.3-.3.2-.95.2-.2h2.75l.25.2.2.95.25.3 2.05.8.1.05.1-.05.05-.05.8-.55h.1m-2.35 7.3l.55.4.2 1.2-.2 1.15-.55.45q-.45 0-.65-.55-.25-.5-.25-1.55v-.65q.1-.25.35-.35l.55-.1m.35-4.25q-1.3 0-2.1.95T10.4 9v1.75q0 1.65.7 2.55.7.85 1.85.85 1.05 0 1.75-.8.65-.8.65-2.1t-.5-2.1q-.55-.8-1.45-.8l-.75.1-.6.45q0-1.05.35-1.6.3-.55.9-.55l.6.05.5.2.3-1.25-.65-.25-.75-.1M7 10.1l-.55-.4-.2-1.25.2-1.2.55-.5.6.45.2 1.4v1l-.35.4-.45.1m-.25 2.75l-.7-.05-.6-.25-.15 1.25.7.3.75.05q1.15 0 1.95-.85.75-.85.75-2.4V8.8q0-1.65-.7-2.5Q8.1 5.4 7 5.4q-1.05 0-1.7.85-.65.9-.65 2.2 0 1.4.55 2.15.5.8 1.5.8l.6-.2.5-.45V11q0 .9-.3 1.35-.3.5-.75.5" fill="#ffffcb"/><path d="M11.45 0q.75 0 .9.8l.15.75 1.7.65.6-.4.6-.25.75.35 1.9 1.85q.55.55.15 1.2l-.45.65.75 1.75.55.1.3.1q.7.1.7.85l.05 2.7q0 .75-.75.9l-.8.2-.7 1.75.4.6q.45.7-.15 1.3l-1.8 1.8q-.15.3-.65.3l-.5-.15-.7-.35-1.85.75-.2.75-.65.7-.1.05h-3.2l-.1-.05q-.55-.15-.7-.75l-.2-.7-1.8-.75-.7.35-.5.15-.7-.3L2 15.85q-.65-.6-.15-1.3l.35-.6-.7-1.75-.75-.2Q0 11.85 0 11.1l.05-2.7q0-.75.7-.85l.3-.1.5-.1.75-1.75-.4-.65q-.45-.65.15-1.2l1.9-1.85q.35-.35.7-.35.3 0 .65.25l.55.4 1.75-.65.15-.75q.15-.8.9-.8h2.8m3.85 2.35h-.1l-.8.55-.05.05-.1.05-.1-.05-2.05-.8-.25-.3-.2-.95-.25-.2H8.65l-.2.2-.2.95-.3.3-2 .8-.1.05-.2-.1-.75-.55-.1-.05-.15-.05-.05.05-.2.1-1.85 1.85-.05.35.5.8q.15.2 0 .4l-.8 1.9q-.1.25-.35.3l-.95.2-.15.2-.05 2.7.2.25 1 .2.2.25.85 2q.1.25-.05.35l-.5.75.1.5 1.75 1.75.2.1h.05l.1-.05.85-.45.15-.05.05-.05.05.05.1.05q1.15.6 2 .8l.3.3.25.9.2.25h3l.2-.25.25-.9q0-.2.3-.3l1.95-.8.15-.05.05-.05.05.05.1.05.85.45.15.05h.05l.2-.1 1.75-1.75q.2-.2.05-.5l-.5-.75v-.35q.6-1 .8-2 .05-.2.25-.25l1-.2.2-.25-.05-2.7-.15-.2-1-.2-.3-.3-.85-1.9q-.15-.2 0-.4l.55-.8-.05-.35-1.9-1.85-.25-.15-.1.1m-2 3.05l.75.1.65.25L14.4 7l-.5-.2-.6-.05q-.6 0-.9.55-.35.55-.35 1.6l.6-.45.75-.1q.9 0 1.45.8.5.8.5 2.1t-.65 2.1q-.7.8-1.75.8-1.15 0-1.85-.85-.7-.9-.7-2.55V9q0-1.7.8-2.65t2.1-.95m-.35 4.25l-.55.1q-.25.1-.35.35v.65q0 1.05.25 1.55.2.55.65.55l.55-.45.2-1.15-.2-1.2-.55-.4m-6.2 3.2q.45 0 .75-.5.3-.45.3-1.35v-.25l-.5.45-.6.2q-1 0-1.5-.8-.55-.75-.55-2.15 0-1.3.65-2.2.65-.85 1.7-.85 1.1 0 1.75.9.7.85.7 2.5v2.1q0 1.55-.75 2.4-.8.85-1.95.85L6 14.1l-.7-.3.15-1.25.6.25.7.05M7 10.1l.45-.1.35-.4v-1l-.2-1.4-.6-.45-.55.5-.2 1.2.2 1.25.55.4" fill="#f5cb5b" fill-opacity=".298"/></g></svg>