<svg height="19.7" width="20.05" xmlns="http://www.w3.org/2000/svg"><g fill-rule="evenodd"><path d="M4.8 2.35h.05l.8.55.1.05.05.05.1-.05 2.05-.8.25-.3.2-.95.25-.2h2.75l.25.2.2.95.25.3 2 .8.15.05.15-.1.8-.55h.1l.2-.05.15.1 1.9 1.85.05.35-.55.8q-.15.2 0 .4l.8 1.9q.1.25.35.3l1 .2.1.2.05 2.7-.2.25-.95.2-.25.25-.85 2q-.05.25.05.35l.5.75q.15.25-.05.5l-1.8 1.75-.25.1-.1-.05-.85-.45-.15-.05-.05-.05-.05.05-.1.05-2 .8-.3.3-.25.9-.15.25H8.5l-.15-.25-.25-.9-.3-.3q-1-.2-2-.8l-.15-.05-.05-.05-.05.05-.1.05-.85.45-.2.05h-.05l-.1-.1-1.8-1.75q-.2-.2-.05-.5l.5-.75q.15-.15 0-.35l-.8-2q-.05-.2-.25-.25l-1-.2-.15-.25V8.4l.15-.2 1-.2.3-.3L3 5.8q.15-.2 0-.4l-.55-.8.05-.35L4.45 2.4l.35-.05m8.15 7.3l.55.4.2 1.2-.2 1.15-.55.45q-.45 0-.65-.55-.25-.5-.25-1.55v-.65q.1-.25.35-.35l.55-.1m.35-4.25q-1.3 0-2.1.95T10.4 9v1.75q0 1.65.7 2.55.7.85 1.85.85 1.05 0 1.75-.8.65-.8.65-2.1t-.5-2.1q-.55-.8-1.45-.8l-.75.1-.6.45q0-1.05.35-1.6.3-.55.9-.55l.6.05.5.2.3-1.25-.65-.25-.75-.1M9.5 6.85V5.5H4.55v1.35H7.9Q7 8.15 6.55 9.7q-.5 1.6-.65 3.55l-.05.8h1.6l.1-.8q.15-2.3.5-3.6.3-1.3 1.45-2.8" fill="#ffffcb"/><path d="M11.4 0q.75 0 .9.8l.15.75 1.75.65.6-.4.6-.25.75.35L18 3.75q.6.55.15 1.2l-.4.65.75 1.75.85.2q.65.1.65.85l.05 2.7q0 .75-.7.9l-.8.2-.7 1.75.4.6q.45.75-.2 1.3l-1.75 1.8-.7.3-.5-.15-.7-.35-1.8.75-.2.75-.7.7-.05.05H8.4l-.1-.05q-.5-.15-.65-.75l-.2-.7-1.85-.75-.65.35-.55.15-.65-.3-1.8-1.8q-.6-.6-.15-1.3l.4-.6-.7-1.75-.8-.2q-.8-.15-.7-.9V8.4q0-.75.7-.85l.3-.1.55-.1.75-1.75-.45-.65q-.35-.7.15-1.2L3.9 1.9l.75-.35.6.25.6.4q.65-.4 1.7-.65l.2-.75q.15-.8.9-.8h2.75m3.9 2.35h-.1l-.8.55-.15.1-.15-.05-2-.8-.25-.3-.2-.95-.25-.2H8.65L8.4.9l-.2.95-.25.3-2.05.8-.1.05-.05-.05-.1-.05-.8-.55H4.8l-.15-.1-.2.15L2.5 4.25l-.05.35.55.8q.15.2 0 .4l-.85 1.9-.3.3-1 .2-.15.2v2.7l.15.25 1 .2q.2.05.25.25l.8 2q.15.2 0 .35l-.5.75q-.15.3.05.5l1.8 1.75.1.1h.05l.2-.05.85-.45.1-.05.05-.05.05.05.15.05q1 .6 2 .8l.3.3.25.9.15.25h3.05l.15-.25.25-.9.3-.3 2-.8.1-.05.05-.05.05.05.15.05.85.45.1.05h.05l.2-.1 1.8-1.75q.2-.25.05-.5l-.5-.75q-.1-.1-.05-.35l.85-2 .25-.25.95-.2.2-.25-.05-2.7-.1-.2-1-.2q-.25-.05-.35-.3l-.8-1.9q-.15-.2 0-.4l.55-.8-.05-.35-1.9-1.85-.15-.1-.1-.05-.1.1m-2 3.05l.75.1.65.25L14.4 7l-.5-.2-.6-.05q-.6 0-.9.55-.35.55-.35 1.6l.6-.45.75-.1q.9 0 1.45.8.5.8.5 2.1t-.65 2.1q-.7.8-1.75.8-1.15 0-1.85-.85-.7-.9-.7-2.55V9q0-1.7.8-2.65t2.1-.95m-.35 4.25l-.55.1q-.25.1-.35.35v.65q0 1.05.25 1.55.2.55.65.55l.55-.45.2-1.15-.2-1.2-.55-.4M9.5 6.85q-1.15 1.5-1.45 2.8-.35 1.3-.5 3.6l-.1.8h-1.6l.05-.8q.15-1.95.65-3.55Q7 8.15 7.9 6.85H4.55V5.5H9.5v1.35" fill="#f5cb5b" fill-opacity=".298"/></g></svg>