<svg height="19.7" width="20.1" xmlns="http://www.w3.org/2000/svg"><g fill-rule="evenodd"><path d="M15.35 2.3h.15l.15.1 1.9 1.85.05.35-.5.8-.05.4.85 1.9q.1.25.35.3l.95.2.15.2.05 2.7-.2.25-1 .2-.25.25q-.25 1.2-.8 2v.35l.5.75q.15.3-.05.5l-1.75 1.75-.15.1h-.1l-.1-.05-.85-.45-.15-.05-.05-.05-.05.05-.15.05-1.95.8-.3.3-.25.9-.2.25h-3l-.2-.25-.25-.9-.3-.3-1.95-.8-.1-.05-.1-.05-.05.05-.15.05-.8.45-.15.05h-.05l-.2-.1L2.5 15.4q-.2-.2-.05-.5l.5-.75v-.35q-.6-1-.8-2l-.25-.25-1-.2-.2-.25.05-2.7.15-.2.95-.2q.25-.05.35-.3l.85-1.9L3 5.4l-.5-.8.05-.35 1.9-1.85.15-.1h.2l.1.05.8.55v.05l.15.05h.05l.05-.05 2-.8.3-.3.2-.95.2-.2h2.8l.2.2.2.95.3.3 2 .8.1.05h.05l.1-.1.8-.55.15-.05m-3.6 8.55l1.15-2.8.1-.15v2.95h-1.25m2.9 0V5.5H13l-2.75 5.65.1 1.05H13v1.85h1.65V12.2h.7v-1.35h-.7M7 10.1l-.55-.4-.2-1.25.2-1.2.55-.5.6.45.2 1.4v1l-.35.4-.45.1m-.25 2.75l-.7-.05-.6-.25-.15 1.25.7.3.75.05q1.15 0 1.95-.85.75-.85.75-2.4V8.8q0-1.65-.7-2.5Q8.1 5.4 7 5.4q-1.05 0-1.7.85-.65.9-.65 2.2 0 1.4.55 2.15.5.8 1.5.8l.6-.2.5-.45V11q0 .9-.3 1.35-.3.5-.75.5" fill="#ffffcb"/><path d="M15.35 2.3l-.15.05-.8.55-.1.1h-.05l-.1-.05-2-.8-.3-.3-.2-.95-.2-.2h-2.8l-.2.2-.2.95-.3.3-2 .8L5.9 3h-.05l-.15-.05V2.9l-.8-.55-.1-.05-.15-.05-.05.05-.15.1-1.9 1.85-.05.35.5.8.05.4-.85 1.9q-.1.25-.35.3l-.95.2-.15.2-.05 2.7.2.25 1 .2.25.25q.2 1 .8 2v.35l-.5.75q-.15.3.05.5l1.75 1.75.2.1h.05l.15-.05.8-.45.15-.05.05-.05.1.05.1.05 1.95.8.3.3.25.9.2.25h3l.2-.25.25-.9.3-.3 1.95-.8.15-.05.05-.05.05.05.15.05.85.45.1.05h.1l.15-.1 1.75-1.75q.2-.2.05-.5l-.5-.75v-.35q.55-.8.8-2l.25-.25 1-.2.2-.25-.05-2.7-.15-.2-.95-.2q-.25-.05-.35-.3l-.85-1.9.05-.4.5-.8-.05-.35-1.9-1.85-.15-.1-.05-.05-.1.05M11.45 0q.75 0 .9.8l.15.75 1.75.65.55-.4q.25-.25.65-.25.35 0 .7.35l1.9 1.85q.55.55.15 1.2l-.4.65.75 1.75.5.1.3.1q.7.1.7.85l.05 2.7q0 .75-.75.9l-.75.2-.7 1.75.35.6q.45.75-.15 1.3l-1.75 1.8-.7.3-.5-.15-.7-.35-1.8.75-.25.75-.65.7-.1.05h-3.2l-.1-.05q-.5-.15-.65-.75l-.25-.7-1.8-.75-.7.35-.5.15-.7-.3L2 15.85q-.6-.55-.15-1.3l.4-.6-.75-1.75-.75-.2Q0 11.85 0 11.1l.05-2.7q0-.75.7-.85l.3-.1.5-.1.75-1.75-.4-.65q-.4-.65.15-1.2l1.9-1.85q.35-.35.7-.35.4 0 .65.25l.55.4 1.75-.65.15-.75q.15-.8.9-.8h2.8m3.2 10.85h.7v1.35h-.7v1.85H13V12.2h-2.65l-.1-1.05L13 5.5h1.65v5.35m-2.9 0H13V7.9l-.1.15-1.15 2.8m-5 2q.45 0 .75-.5.3-.45.3-1.35v-.25l-.5.45-.6.2q-1 0-1.5-.8-.55-.75-.55-2.15 0-1.3.65-2.2.65-.85 1.7-.85 1.1 0 1.75.9.7.85.7 2.5v2.1q0 1.55-.75 2.4-.8.85-1.95.85L6 14.1l-.7-.3.15-1.25.6.25.7.05M7 10.1l.45-.1.35-.4v-1l-.2-1.4-.6-.45-.55.5-.2 1.2.2 1.25.55.4" fill="#f5cb5b" fill-opacity=".298"/></g></svg>