<?xml version="1.0" encoding="UTF-8" standalone="no"?>
<svg xmlns:xlink="http://www.w3.org/1999/xlink" height="19.7px" width="20.1px" xmlns="http://www.w3.org/2000/svg">
  <g transform="matrix(1.0, 0.0, 0.0, 1.0, 10.1, 9.85)">
    <path d="M-5.35 -7.55 L-5.2 -7.5 -4.4 -6.95 -4.4 -6.9 -4.25 -6.85 -4.2 -6.85 -4.15 -6.9 Q-3.2 -7.4 -2.1 -7.7 L-1.85 -8.0 -1.65 -8.95 -1.45 -9.15 1.35 -9.15 1.55 -8.95 1.75 -8.0 2.05 -7.7 Q3.15 -7.4 4.05 -6.9 L4.15 -6.85 4.2 -6.85 4.35 -6.95 5.1 -7.5 5.25 -7.55 5.4 -7.55 5.55 -7.45 7.45 -5.6 7.5 -5.25 7.0 -4.45 6.95 -4.05 7.8 -2.15 Q7.9 -1.9 8.15 -1.85 L9.1 -1.65 9.25 -1.45 9.3 1.25 9.1 1.5 8.1 1.7 7.85 1.95 Q7.6 3.15 7.05 3.95 7.0 4.2 7.1 4.3 L7.55 5.05 Q7.7 5.35 7.5 5.55 L5.75 7.3 5.6 7.4 5.55 7.4 5.4 7.35 4.55 6.9 4.4 6.85 4.35 6.8 4.3 6.85 4.15 6.9 Q3.1 7.5 2.2 7.7 L1.9 8.0 1.65 8.9 1.45 9.15 -1.55 9.15 -1.75 8.9 -2.0 8.0 -2.3 7.7 -4.25 6.9 -4.35 6.85 -4.45 6.8 -4.5 6.85 -4.65 6.9 -4.95 7.1 -5.45 7.35 -5.65 7.4 -5.85 7.3 -7.6 5.55 Q-7.8 5.35 -7.65 5.05 L-7.15 4.3 -7.15 3.95 Q-7.75 2.95 -7.95 1.95 L-8.2 1.7 -9.2 1.5 -9.4 1.25 -9.35 -1.45 -9.2 -1.65 -8.2 -1.85 -7.9 -2.15 -7.05 -4.05 -7.05 -4.45 -7.6 -5.25 -7.55 -5.6 -5.65 -7.45 -5.55 -7.5 -5.35 -7.55 M1.85 -0.75 L1.85 0.55 2.65 0.55 Q3.15 0.55 3.35 0.85 L3.55 1.85 3.35 2.7 Q3.1 3.05 2.7 3.05 2.35 3.05 2.1 2.75 L1.9 1.9 0.25 1.9 Q0.25 3.15 0.95 3.75 1.65 4.35 2.65 4.35 3.8 4.35 4.5 3.7 5.2 3.05 5.2 1.85 L4.9 0.65 4.0 -0.15 4.8 -0.9 5.1 -1.95 Q5.1 -3.15 4.45 -3.8 3.8 -4.4 2.65 -4.4 1.65 -4.4 1.0 -3.75 0.35 -3.15 0.35 -2.05 L1.95 -2.05 2.2 -2.8 2.7 -3.05 Q3.1 -3.05 3.25 -2.75 L3.45 -1.95 Q3.45 -1.35 3.25 -1.05 3.1 -0.75 2.65 -0.75 L1.85 -0.75 M-2.8 -0.15 Q-2.45 -0.15 -2.25 0.25 L-2.05 1.45 -2.25 2.6 -2.8 3.05 Q-3.25 3.05 -3.45 2.5 L-3.7 0.95 -3.7 0.3 -3.35 -0.05 -2.8 -0.15 M-2.45 -4.4 Q-3.75 -4.4 -4.55 -3.45 -5.35 -2.5 -5.35 -0.8 L-5.35 0.95 Q-5.35 2.6 -4.65 3.5 -3.95 4.35 -2.8 4.35 -1.75 4.35 -1.05 3.55 -0.4 2.75 -0.4 1.45 -0.4 0.15 -0.9 -0.65 -1.45 -1.45 -2.35 -1.45 L-3.1 -1.35 -3.7 -0.9 Q-3.7 -1.95 -3.35 -2.5 -3.05 -3.05 -2.45 -3.05 L-1.85 -3.0 -1.35 -2.8 -1.05 -4.05 -1.7 -4.3 -2.45 -4.4" fill="#ffffcb" fill-rule="evenodd" stroke="none"/>
    <path d="M1.35 -9.85 Q2.1 -9.85 2.25 -9.05 L2.4 -8.3 4.15 -7.65 4.7 -8.05 5.35 -8.3 6.05 -7.95 7.95 -6.1 Q8.55 -5.55 8.1 -4.9 L7.7 -4.25 8.45 -2.5 8.95 -2.4 9.25 -2.3 Q9.95 -2.2 9.95 -1.45 L10.0 1.25 Q10.0 2.0 9.25 2.15 L8.5 2.35 7.8 4.1 8.15 4.7 Q8.65 5.4 8.0 6.0 L6.25 7.8 5.55 8.1 5.05 7.95 4.35 7.6 2.55 8.35 2.3 9.1 1.65 9.8 1.55 9.85 -1.65 9.85 -1.75 9.8 Q-2.25 9.65 -2.4 9.05 L-2.6 8.35 -4.45 7.6 -5.15 7.95 -5.65 8.1 Q-6.05 8.1 -6.35 7.8 L-8.1 6.0 Q-8.7 5.4 -8.25 4.7 L-7.85 4.1 -8.6 2.35 -9.35 2.15 Q-10.1 2.0 -10.1 1.25 L-10.05 -1.45 Q-10.05 -2.2 -9.35 -2.3 L-9.05 -2.4 -8.5 -2.5 -7.75 -4.25 -8.2 -4.9 Q-8.6 -5.55 -8.05 -6.1 L-6.15 -7.95 -5.45 -8.3 Q-5.05 -8.3 -4.8 -8.05 L-4.25 -7.65 -2.5 -8.3 -2.35 -9.05 Q-2.2 -9.85 -1.45 -9.85 L1.35 -9.85 M5.25 -7.55 L5.1 -7.5 4.35 -6.95 4.2 -6.85 4.15 -6.85 4.05 -6.9 Q3.15 -7.4 2.05 -7.7 L1.75 -8.0 1.55 -8.95 1.35 -9.15 -1.45 -9.15 -1.65 -8.95 -1.85 -8.0 -2.1 -7.7 Q-3.2 -7.4 -4.15 -6.9 L-4.2 -6.85 -4.25 -6.85 -4.4 -6.9 -4.4 -6.95 -5.2 -7.5 -5.35 -7.55 -5.45 -7.6 -5.55 -7.5 -5.65 -7.45 -7.55 -5.6 -7.6 -5.25 -7.05 -4.45 -7.05 -4.05 -7.9 -2.15 -8.2 -1.85 -9.2 -1.65 -9.35 -1.45 -9.4 1.25 -9.2 1.5 -8.2 1.7 -7.95 1.95 Q-7.75 2.95 -7.15 3.95 L-7.15 4.3 -7.65 5.05 Q-7.8 5.35 -7.6 5.55 L-5.85 7.3 -5.65 7.4 -5.45 7.35 -4.95 7.1 -4.5 6.85 -4.45 6.8 -4.35 6.85 -4.25 6.9 -2.3 7.7 -2.0 8.0 -1.75 8.9 -1.55 9.15 1.45 9.15 1.65 8.9 1.9 8.0 2.2 7.7 Q3.1 7.5 4.15 6.9 L4.3 6.85 4.35 6.8 4.4 6.85 4.55 6.9 5.4 7.35 5.55 7.4 5.6 7.4 5.75 7.3 7.5 5.55 Q7.7 5.35 7.55 5.05 L7.1 4.3 Q7.0 4.2 7.05 3.95 7.6 3.15 7.85 1.95 L8.1 1.7 9.1 1.5 9.3 1.25 9.25 -1.45 9.1 -1.65 8.15 -1.85 Q7.9 -1.9 7.8 -2.15 L6.95 -4.05 7.0 -4.45 7.5 -5.25 7.45 -5.6 5.55 -7.45 5.4 -7.55 5.35 -7.6 5.25 -7.55 M1.85 -0.75 L2.65 -0.75 Q3.1 -0.75 3.25 -1.05 3.45 -1.35 3.45 -1.95 L3.25 -2.75 Q3.1 -3.05 2.7 -3.05 L2.2 -2.8 1.95 -2.05 0.35 -2.05 Q0.35 -3.15 1.0 -3.75 1.65 -4.4 2.65 -4.4 3.8 -4.4 4.45 -3.8 5.1 -3.15 5.1 -1.95 L4.8 -0.9 4.0 -0.15 4.9 0.65 5.2 1.85 Q5.2 3.05 4.5 3.7 3.8 4.35 2.65 4.35 1.65 4.35 0.95 3.75 0.25 3.15 0.25 1.9 L1.9 1.9 2.1 2.75 Q2.35 3.05 2.7 3.05 3.1 3.05 3.35 2.7 L3.55 1.85 3.35 0.85 Q3.15 0.55 2.65 0.55 L1.85 0.55 1.85 -0.75 M-2.45 -4.4 L-1.7 -4.3 -1.05 -4.05 -1.35 -2.8 -1.85 -3.0 -2.45 -3.05 Q-3.05 -3.05 -3.35 -2.5 -3.7 -1.95 -3.7 -0.9 L-3.1 -1.35 -2.35 -1.45 Q-1.45 -1.45 -0.9 -0.65 -0.4 0.15 -0.4 1.45 -0.4 2.75 -1.05 3.55 -1.75 4.35 -2.8 4.35 -3.95 4.35 -4.65 3.5 -5.35 2.6 -5.35 0.95 L-5.35 -0.8 Q-5.35 -2.5 -4.55 -3.45 -3.75 -4.4 -2.45 -4.4 M-2.8 -0.15 L-3.35 -0.05 -3.7 0.3 -3.7 0.95 -3.45 2.5 Q-3.25 3.05 -2.8 3.05 L-2.25 2.6 -2.05 1.45 -2.25 0.25 Q-2.45 -0.15 -2.8 -0.15" fill="#f5cb5b" fill-opacity="0.29803923" fill-rule="evenodd" stroke="none"/>
  </g>
</svg>
