<?xml version="1.0" encoding="UTF-8" standalone="no"?>
<svg xmlns:xlink="http://www.w3.org/1999/xlink" height="19.7px" width="20.1px" xmlns="http://www.w3.org/2000/svg">
  <g transform="matrix(1.0, 0.0, 0.0, 1.0, 10.05, 9.85)">
    <path d="M5.3 -7.55 L5.45 -7.55 5.6 -7.45 7.5 -5.6 7.55 -5.25 7.05 -4.45 7.0 -4.05 7.85 -2.15 Q7.95 -1.9 8.2 -1.85 L9.15 -1.65 9.3 -1.45 9.35 1.25 9.15 1.5 8.15 1.7 7.9 1.95 Q7.65 3.15 7.1 3.95 L7.1 4.3 7.6 5.05 Q7.75 5.35 7.55 5.55 L5.8 7.3 5.65 7.4 5.55 7.4 5.45 7.35 4.6 6.9 4.45 6.85 4.4 6.8 4.35 6.85 4.2 6.9 2.25 7.7 1.95 8.0 1.7 8.9 1.5 9.15 -1.5 9.15 -1.7 8.9 -1.95 8.0 -2.25 7.7 -4.2 6.9 -4.3 6.85 -4.4 6.8 -4.45 6.85 -4.6 6.9 -5.4 7.35 -5.55 7.4 -5.6 7.4 -5.8 7.3 -7.55 5.55 Q-7.75 5.35 -7.6 5.05 L-7.1 4.3 -7.1 3.95 Q-7.7 2.95 -7.9 1.95 L-8.15 1.7 -9.15 1.5 -9.35 1.25 -9.3 -1.45 -9.15 -1.65 -8.2 -1.85 Q-7.95 -1.9 -7.85 -2.15 L-7.0 -4.05 -7.05 -4.45 -7.55 -5.25 -7.5 -5.6 -5.6 -7.45 -5.45 -7.55 -5.25 -7.55 -5.15 -7.5 -4.35 -6.95 -4.35 -6.9 -4.2 -6.85 -4.15 -6.85 -4.1 -6.9 -2.1 -7.7 -1.8 -8.0 -1.6 -8.95 -1.4 -9.15 1.4 -9.15 1.6 -8.95 1.8 -8.0 2.1 -7.7 4.1 -6.9 4.2 -6.85 4.25 -6.85 4.35 -6.95 5.15 -7.5 5.3 -7.55 M1.7 1.0 L2.85 -1.8 2.95 -1.95 2.95 1.0 1.7 1.0 M4.6 1.0 L4.6 -4.35 2.95 -4.35 0.2 1.3 0.3 2.35 2.95 2.35 2.95 4.2 4.6 4.2 4.6 2.35 5.3 2.35 5.3 1.0 4.6 1.0 M-3.05 0.25 L-3.6 -0.15 -3.8 -1.4 -3.6 -2.6 -3.05 -3.1 -2.45 -2.65 -2.25 -1.25 -2.25 -0.25 -2.6 0.15 -3.05 0.25 M-3.3 3.0 L-4.0 2.95 -4.6 2.7 -4.75 3.95 -4.05 4.25 -3.3 4.3 Q-2.15 4.3 -1.35 3.45 -0.6 2.6 -0.6 1.05 L-0.6 -1.05 Q-0.6 -2.7 -1.3 -3.55 -1.95 -4.45 -3.05 -4.45 -4.1 -4.45 -4.75 -3.6 -5.4 -2.7 -5.4 -1.4 -5.4 0.0 -4.85 0.75 -4.35 1.55 -3.35 1.55 L-2.75 1.35 -2.25 0.9 -2.25 1.15 Q-2.25 2.05 -2.55 2.5 -2.85 3.0 -3.3 3.0" fill="#ffffcb" fill-rule="evenodd" stroke="none"/>
    <path d="M5.3 -7.55 L5.15 -7.5 4.35 -6.95 4.25 -6.85 4.2 -6.85 4.1 -6.9 2.1 -7.7 1.8 -8.0 1.6 -8.95 1.4 -9.15 -1.4 -9.15 -1.6 -8.95 -1.8 -8.0 -2.1 -7.7 -4.1 -6.9 -4.15 -6.85 -4.2 -6.85 -4.35 -6.9 -4.35 -6.95 -5.15 -7.5 -5.25 -7.55 -5.4 -7.6 -5.45 -7.55 -5.6 -7.45 -7.5 -5.6 -7.55 -5.25 -7.05 -4.45 -7.0 -4.05 -7.85 -2.15 Q-7.95 -1.9 -8.2 -1.85 L-9.15 -1.65 -9.3 -1.45 -9.35 1.25 -9.15 1.5 -8.15 1.7 -7.9 1.95 Q-7.7 2.95 -7.1 3.95 L-7.1 4.3 -7.6 5.05 Q-7.75 5.35 -7.55 5.55 L-5.8 7.3 -5.6 7.4 -5.55 7.4 -5.4 7.35 -4.6 6.9 -4.45 6.85 -4.4 6.8 -4.3 6.85 -4.2 6.9 -2.25 7.7 -1.95 8.0 -1.7 8.9 -1.5 9.15 1.5 9.15 1.7 8.9 1.95 8.0 2.25 7.7 4.2 6.9 4.35 6.85 4.4 6.8 4.45 6.85 4.6 6.9 5.45 7.35 5.55 7.4 5.6 7.4 5.65 7.4 5.8 7.3 7.55 5.55 Q7.75 5.35 7.6 5.05 L7.1 4.3 7.1 3.95 Q7.65 3.15 7.9 1.95 L8.15 1.7 9.15 1.5 9.35 1.25 9.3 -1.45 9.15 -1.65 8.2 -1.85 Q7.95 -1.9 7.85 -2.15 L7.0 -4.05 7.05 -4.45 7.55 -5.25 7.5 -5.6 5.6 -7.45 5.45 -7.55 5.4 -7.6 5.3 -7.55 M1.4 -9.85 Q2.15 -9.85 2.3 -9.05 L2.45 -8.3 4.2 -7.65 4.75 -8.05 Q5.0 -8.3 5.4 -8.3 5.75 -8.3 6.1 -7.95 L8.0 -6.1 Q8.55 -5.55 8.15 -4.9 L7.75 -4.25 8.5 -2.5 9.0 -2.4 9.3 -2.3 Q10.0 -2.2 10.0 -1.45 L10.05 1.25 Q10.05 2.0 9.3 2.15 L8.55 2.35 7.85 4.1 8.2 4.7 Q8.65 5.45 8.05 6.0 L6.3 7.8 5.6 8.1 5.1 7.95 4.4 7.6 2.6 8.35 2.35 9.1 1.7 9.8 1.6 9.85 -1.6 9.85 -1.7 9.8 Q-2.2 9.65 -2.35 9.05 L-2.6 8.35 -4.4 7.6 -5.1 7.95 -5.6 8.1 -6.3 7.8 -8.05 6.0 Q-8.65 5.45 -8.2 4.7 L-7.8 4.1 -8.55 2.35 -9.3 2.15 Q-10.05 2.0 -10.05 1.25 L-10.0 -1.45 Q-10.0 -2.2 -9.3 -2.3 L-9.0 -2.4 -8.5 -2.5 -7.75 -4.25 -8.15 -4.9 Q-8.55 -5.55 -8.0 -6.1 L-6.1 -7.95 Q-5.75 -8.3 -5.4 -8.3 -5.0 -8.3 -4.75 -8.05 L-4.2 -7.65 -2.45 -8.3 -2.3 -9.05 Q-2.15 -9.85 -1.4 -9.85 L1.4 -9.85 M4.6 1.0 L5.3 1.0 5.3 2.35 4.6 2.35 4.6 4.2 2.95 4.2 2.95 2.35 0.3 2.35 0.2 1.3 2.95 -4.35 4.6 -4.35 4.6 1.0 M1.7 1.0 L2.95 1.0 2.95 -1.95 2.85 -1.8 1.7 1.0 M-3.3 3.0 Q-2.85 3.0 -2.55 2.5 -2.25 2.05 -2.25 1.15 L-2.25 0.9 -2.75 1.35 -3.35 1.55 Q-4.35 1.55 -4.85 0.75 -5.4 0.0 -5.4 -1.4 -5.4 -2.7 -4.75 -3.6 -4.1 -4.45 -3.05 -4.45 -1.95 -4.45 -1.3 -3.55 -0.6 -2.7 -0.6 -1.05 L-0.6 1.05 Q-0.6 2.6 -1.35 3.45 -2.15 4.3 -3.3 4.3 L-4.05 4.25 -4.75 3.95 -4.6 2.7 -4.0 2.95 -3.3 3.0 M-3.05 0.25 L-2.6 0.15 -2.25 -0.25 -2.25 -1.25 -2.45 -2.65 -3.05 -3.1 -3.6 -2.6 -3.8 -1.4 -3.6 -0.15 -3.05 0.25" fill="#f5cb5b" fill-opacity="0.29803923" fill-rule="evenodd" stroke="none"/>
  </g>
</svg>
