<?xml version="1.0" encoding="UTF-8" standalone="no"?>
<svg xmlns:xlink="http://www.w3.org/1999/xlink" height="19.7px" width="20.05px" xmlns="http://www.w3.org/2000/svg">
  <g transform="matrix(1.0, 0.0, 0.0, 1.0, 10.05, 9.85)">
    <path d="M-5.25 -7.5 L-5.2 -7.5 -4.4 -6.95 -4.3 -6.9 -4.25 -6.85 -4.15 -6.9 -2.1 -7.7 -1.85 -8.0 -1.65 -8.95 -1.4 -9.15 1.35 -9.15 1.6 -8.95 1.8 -8.0 2.05 -7.7 4.05 -6.9 4.2 -6.85 4.35 -6.95 5.15 -7.5 5.25 -7.5 5.45 -7.55 5.6 -7.45 7.5 -5.6 7.55 -5.25 7.0 -4.45 Q6.85 -4.25 7.0 -4.05 L7.8 -2.15 Q7.9 -1.9 8.15 -1.85 L9.15 -1.65 9.25 -1.45 9.3 1.25 9.1 1.5 8.15 1.7 7.9 1.95 7.05 3.95 Q7.0 4.2 7.1 4.3 L7.6 5.05 Q7.75 5.3 7.55 5.55 L5.75 7.3 5.5 7.4 5.4 7.35 4.55 6.9 4.4 6.85 4.35 6.8 4.3 6.85 4.2 6.9 2.2 7.7 1.9 8.0 1.65 8.9 1.5 9.15 -1.55 9.15 -1.7 8.9 -1.95 8.0 -2.25 7.7 Q-3.25 7.5 -4.25 6.9 L-4.4 6.85 -4.45 6.8 -4.5 6.85 -4.6 6.9 -5.45 7.35 -5.65 7.4 -5.7 7.4 -5.8 7.3 -7.6 5.55 Q-7.8 5.35 -7.65 5.05 L-7.15 4.3 Q-7.0 4.15 -7.15 3.95 L-7.95 1.95 Q-8.0 1.75 -8.2 1.7 L-9.2 1.5 -9.35 1.25 -9.35 -1.45 -9.2 -1.65 -8.2 -1.85 -7.9 -2.15 -7.05 -4.05 Q-6.9 -4.25 -7.05 -4.45 L-7.6 -5.25 -7.55 -5.6 -5.6 -7.45 -5.25 -7.5 M2.9 -0.2 L3.45 0.2 3.65 1.4 3.45 2.55 2.9 3.0 Q2.45 3.0 2.25 2.45 2.0 1.95 2.0 0.9 L2.0 0.25 Q2.1 0.0 2.35 -0.1 L2.9 -0.2 M3.25 -4.45 Q1.95 -4.45 1.15 -3.5 0.35 -2.55 0.35 -0.85 L0.35 0.9 Q0.35 2.55 1.05 3.45 1.75 4.3 2.9 4.3 3.95 4.3 4.65 3.5 5.3 2.7 5.3 1.4 5.3 0.1 4.8 -0.7 4.25 -1.5 3.35 -1.5 L2.6 -1.4 2.0 -0.95 Q2.0 -2.0 2.35 -2.55 2.65 -3.1 3.25 -3.1 L3.85 -3.05 4.35 -2.85 4.65 -4.1 4.0 -4.35 3.25 -4.45 M-0.55 -3.0 L-0.55 -4.35 -5.5 -4.35 -5.5 -3.0 -2.15 -3.0 Q-3.05 -1.7 -3.5 -0.15 -4.0 1.45 -4.15 3.4 L-4.2 4.2 -2.6 4.2 -2.5 3.4 Q-2.35 1.1 -2.0 -0.2 -1.7 -1.5 -0.55 -3.0" fill="#ffffcb" fill-rule="evenodd" stroke="none"/>
    <path d="M1.35 -9.85 Q2.1 -9.85 2.25 -9.05 L2.4 -8.3 4.15 -7.65 4.75 -8.05 5.35 -8.3 6.1 -7.95 7.95 -6.1 Q8.55 -5.55 8.1 -4.9 L7.7 -4.25 8.45 -2.5 9.3 -2.3 Q9.95 -2.2 9.95 -1.45 L10.0 1.25 Q10.0 2.0 9.3 2.15 L8.5 2.35 7.8 4.1 8.2 4.7 Q8.65 5.45 8.0 6.0 L6.25 7.8 5.55 8.1 5.05 7.95 4.35 7.6 2.55 8.35 2.35 9.1 1.65 9.8 1.6 9.85 -1.65 9.85 -1.75 9.8 Q-2.25 9.65 -2.4 9.05 L-2.6 8.35 -4.45 7.6 -5.1 7.95 -5.65 8.1 -6.3 7.8 -8.1 6.0 Q-8.7 5.4 -8.25 4.7 L-7.85 4.1 -8.55 2.35 -9.35 2.15 Q-10.15 2.0 -10.05 1.25 L-10.05 -1.45 Q-10.05 -2.2 -9.35 -2.3 L-9.05 -2.4 -8.5 -2.5 -7.75 -4.25 -8.2 -4.9 Q-8.55 -5.6 -8.05 -6.1 L-6.15 -7.95 -5.4 -8.3 -4.8 -8.05 -4.2 -7.65 Q-3.55 -8.05 -2.5 -8.3 L-2.3 -9.05 Q-2.15 -9.85 -1.4 -9.85 L1.35 -9.85 M5.25 -7.5 L5.15 -7.5 4.35 -6.95 4.2 -6.85 4.05 -6.9 2.05 -7.7 1.8 -8.0 1.6 -8.95 1.35 -9.15 -1.4 -9.15 -1.65 -8.95 -1.85 -8.0 -2.1 -7.7 -4.15 -6.9 -4.25 -6.85 -4.3 -6.9 -4.4 -6.95 -5.2 -7.5 -5.25 -7.5 -5.4 -7.6 -5.6 -7.45 -7.55 -5.6 -7.6 -5.25 -7.05 -4.45 Q-6.9 -4.25 -7.05 -4.05 L-7.9 -2.15 -8.2 -1.85 -9.2 -1.65 -9.35 -1.45 -9.35 1.25 -9.2 1.5 -8.2 1.7 Q-8.0 1.75 -7.95 1.95 L-7.15 3.95 Q-7.0 4.15 -7.15 4.3 L-7.65 5.05 Q-7.8 5.35 -7.6 5.55 L-5.8 7.3 -5.7 7.4 -5.65 7.4 -5.45 7.35 -4.6 6.9 -4.5 6.85 -4.45 6.8 -4.4 6.85 -4.25 6.9 Q-3.25 7.5 -2.25 7.7 L-1.95 8.0 -1.7 8.9 -1.55 9.15 1.5 9.15 1.65 8.9 1.9 8.0 2.2 7.7 4.2 6.9 4.3 6.85 4.35 6.8 4.4 6.85 4.55 6.9 5.4 7.35 5.5 7.4 5.55 7.4 5.75 7.3 7.55 5.55 Q7.75 5.3 7.6 5.05 L7.1 4.3 Q7.0 4.2 7.05 3.95 L7.9 1.95 8.15 1.7 9.1 1.5 9.3 1.25 9.25 -1.45 9.15 -1.65 8.15 -1.85 Q7.9 -1.9 7.8 -2.15 L7.0 -4.05 Q6.85 -4.25 7.0 -4.45 L7.55 -5.25 7.5 -5.6 5.6 -7.45 5.45 -7.55 5.35 -7.6 5.25 -7.5 M3.25 -4.45 L4.0 -4.35 4.65 -4.1 4.35 -2.85 3.85 -3.05 3.25 -3.1 Q2.65 -3.1 2.35 -2.55 2.0 -2.0 2.0 -0.95 L2.6 -1.4 3.35 -1.5 Q4.25 -1.5 4.8 -0.7 5.3 0.1 5.3 1.4 5.3 2.7 4.65 3.5 3.95 4.3 2.9 4.3 1.75 4.3 1.05 3.45 0.35 2.55 0.35 0.9 L0.35 -0.85 Q0.35 -2.55 1.15 -3.5 1.95 -4.45 3.25 -4.45 M2.9 -0.2 L2.35 -0.1 Q2.1 0.0 2.0 0.25 L2.0 0.9 Q2.0 1.95 2.25 2.45 2.45 3.0 2.9 3.0 L3.45 2.55 3.65 1.4 3.45 0.2 2.9 -0.2 M-0.55 -3.0 Q-1.7 -1.5 -2.0 -0.2 -2.35 1.1 -2.5 3.4 L-2.6 4.2 -4.2 4.2 -4.15 3.4 Q-4.0 1.45 -3.5 -0.15 -3.05 -1.7 -2.15 -3.0 L-5.5 -3.0 -5.5 -4.35 -0.55 -4.35 -0.55 -3.0" fill="#f5cb5b" fill-opacity="0.29803923" fill-rule="evenodd" stroke="none"/>
  </g>
</svg>
