<svg height="20.3" width="20.3" xmlns="http://www.w3.org/2000/svg"><path d="M10.15 7.75q-1 0-1.7.7t-.7 1.7q0 1 .7 1.7t1.7.7q1 0 1.7-.7t.7-1.7q0-1-.7-1.7t-1.7-.7m3.8-4.05l1.75-1.45 2.35 2.35-1.45 1.75.8 1.95 2.25.2v3.3l-2.25.2-.8 1.95 1.45 1.75-2.35 2.35-1.75-1.5-1.95.85-.2 2.25H8.5l-.2-2.25-1.95-.85-1.75 1.5-2.35-2.35 1.5-1.75L2.9 12l-2.25-.2V8.5l2.25-.2.85-1.95-1.5-1.75L4.6 2.25 6.35 3.7l1.95-.8.2-2.25h3.3L12 2.9l1.95.8" fill="#ffffcb" fill-rule="evenodd"/><path d="M10.15 7.75q-1 0-1.7.7t-.7 1.7q0 1 .7 1.7t1.7.7q1 0 1.7-.7t.7-1.7q0-1-.7-1.7t-1.7-.7m3.8-4.05l1.75-1.45 2.35 2.35-1.45 1.75.8 1.95 2.25.2v3.3l-2.25.2-.8 1.95 1.45 1.75-2.35 2.35-1.75-1.5-1.95.85-.2 2.25H8.5l-.2-2.25-1.95-.85-1.75 1.5-2.35-2.35 1.5-1.75L2.9 12l-2.25-.2V8.5l2.25-.2.85-1.95-1.5-1.75L4.6 2.25 6.35 3.7l1.95-.8.2-2.25h3.3L12 2.9l1.95.8" fill="none" stroke="#f5cb5b" stroke-linecap="square" stroke-linejoin="round" stroke-opacity=".298"/></svg>