<?xml version="1.0" encoding="UTF-8" standalone="no"?>
<svg xmlns:xlink="http://www.w3.org/1999/xlink" height="21.1px" width="18.8px" xmlns="http://www.w3.org/2000/svg">
  <g transform="matrix(1.0, 0.0, 0.0, 1.0, 9.4, 10.55)">
    <path d="M5.35 1.5 Q3.55 3.7 0.8 4.0 L0.8 7.4 5.35 7.4 5.35 1.5 M-8.75 9.9 L-8.75 7.4 -6.95 7.4 -6.95 -3.05 6.95 -3.05 6.95 7.4 8.75 7.4 8.75 9.9 -8.75 9.9 M-5.35 7.4 L-0.8 7.4 -0.8 4.0 Q-3.55 3.7 -5.35 1.5 L-5.35 7.4 M0.0 -9.9 Q2.55 -9.9 4.45 -8.25 6.4 -6.65 6.85 -4.15 L-6.85 -4.15 Q-6.4 -6.65 -4.45 -8.25 -2.55 -9.9 0.0 -9.9" fill="#ffffcb" fill-rule="evenodd" stroke="none"/>
    <path d="M0.0 -9.9 Q-2.55 -9.9 -4.45 -8.25 -6.4 -6.65 -6.85 -4.15 L6.85 -4.15 Q6.4 -6.65 4.45 -8.25 2.55 -9.9 0.0 -9.9 M-5.35 7.4 L-5.35 1.5 Q-3.55 3.7 -0.8 4.0 L-0.8 7.4 -5.35 7.4 M-8.75 9.9 L8.75 9.9 8.75 7.4 6.95 7.4 6.95 -3.05 -6.95 -3.05 -6.95 7.4 -8.75 7.4 -8.75 9.9 M5.35 1.5 L5.35 7.4 0.8 7.4 0.8 4.0 Q3.55 3.7 5.35 1.5" fill="none" stroke="#f5cb5b" stroke-linecap="square" stroke-linejoin="round" stroke-opacity="0.29803923" stroke-width="1.0"/>
  </g>
</svg>
