<svg height="21.1" width="18.8" xmlns="http://www.w3.org/2000/svg"><path d="M14.75 12.05q-1.8 2.2-4.55 2.5v3.4h4.55v-5.9m-14.1 8.4v-2.5h1.8V7.5h13.9v10.45h1.8v2.5H.65m3.4-2.5H8.6v-3.4q-2.75-.3-4.55-2.5v5.9M9.4.65q2.55 0 4.45 1.65 1.95 1.6 2.4 4.1H2.55Q3 3.9 4.95 2.3 6.85.65 9.4.65" fill="#ffffcb" fill-rule="evenodd"/><path d="M9.4.65Q6.85.65 4.95 2.3 3 3.9 2.55 6.4h13.7q-.45-2.5-2.4-4.1Q11.95.65 9.4.65m-5.35 17.3v-5.9q1.8 2.2 4.55 2.5v3.4H4.05m-3.4 2.5h17.5v-2.5h-1.8V7.5H2.45v10.45H.65v2.5m14.1-8.4v5.9H10.2v-3.4q2.75-.3 4.55-2.5" fill="none" stroke="#f5cb5b" stroke-linecap="square" stroke-linejoin="round" stroke-opacity=".298"/></svg>