<?xml version="1.0" encoding="UTF-8"?>
<!DOCTYPE svg  PUBLIC '-//W3C//DTD SVG 1.1//EN'  'http://www.w3.org/TR/2001/REC-SVG-20010904/DTD/svg11.dtd'>
<svg viewBox="0 0 27.05 26" xmlns="http://www.w3.org/2000/svg">
<g stroke-linecap="round" stroke-linejoin="round">
<path d="m22.65 0.3h-0.1l-0.5-0.05-1.85 0.2q-1.75 0.5-2.65 2.05-0.8 1.35-0.6 3.1l0.45 1.6v0.05l-1.65 1.65 2.35 2.35 1.65-1.65q1.45 0.65 3 0.4t2.7-1.4q0.9-0.9 1.2-2.15 0.3-1.1 0.1-2.05l-2.5 2.5-0.15 0.1-2 0.5-0.15-0.05-2.35-2.3-0.05-0.15 0.55-2.1 0.05-0.15 2.5-2.45m-15.8 17.5l-0.4 0.55h-0.05l-2.2-0.15q-1.6 0.35-2.4 1.65-1 1.55-0.5 3.35 0.25 1.1 1.1 1.85 0.9 0.75 2.15 0.85l1.6-0.2q1.35-0.4 2.05-1.5 1-1.45 0.55-3.25l-0.1-0.35 0.05-0.05 0.4-0.3 3.15-3.15-2.35-2.35-3.05 3.05m-3.9 4.15q0-0.85 0.6-1.45t1.45-0.6 1.45 0.6q0.55 0.55 0.55 1.4t-0.6 1.45-1.45 0.6-1.4-0.6q-0.6-0.6-0.6-1.4" fill="#1F98C0"/>
<path d="m22.65 0.3" fill="none"/>
<path d="m25.7 25.5l0.85-0.85 0.25-0.3 0.2-0.35 0.05-0.1v-0.35l-0.15-0.3-0.3-0.35-15.95-16-2.7 2.7h0.05l15.9 15.9 0.25 0.25 0.35 0.2h0.6l0.25-0.15 0.35-0.3" fill="#946B00"/>
<path d="m25.7 25.5" fill="none"/>
<path d="m13.8 1.3l0.7-0.4 0.15-0.15-0.1-0.05-0.65-0.7h-0.15l-1.6 0.25-2.9 0.5-0.9 0.3-0.45 0.25-4.5 4.55v0.1l0.1 0.45v0.85q-0.15 0.65-0.8 0.8h-0.7l-0.7-0.1-1.05 1-0.2 0.4-0.05 0.05v0.25l0.05 0.05 0.2 0.45 0.35 0.45 1.2 1.2 0.35 0.3 0.45 0.2 0.8-0.2 1-1v-0.1q-0.2-0.6-0.1-1.05 0.1-0.65 0.65-0.9l0.5-0.15 0.9 0.1 0.15-0.05 3.55-3.4 0.05-0.15-0.05-0.15-0.05-1.15 0.05-0.55 0.2-0.3 0.2-0.15 0.95-0.5 2.4-1.3" fill="#5D5D5D"/>
<path d="m13.8 1.3" fill="none"/>
</g>
</svg>
