<?xml version="1.0" encoding="UTF-8" standalone="no"?>
<svg xmlns:xlink="http://www.w3.org/1999/xlink" height="19.8px" width="19.8px" xmlns="http://www.w3.org/2000/svg">
  <g transform="matrix(1.0, 0.0, 0.0, 1.0, 9.75, 9.7)">
    <path d="M0.1 -8.8 Q3.85 -8.8 6.4 -6.15 9.05 -3.55 9.05 0.15 9.05 3.85 6.4 6.5 3.8 9.1 0.1 9.1 -3.6 9.1 -6.2 6.5 -8.85 3.85 -8.85 0.15 -8.85 -3.55 -6.2 -6.15 -3.6 -8.8 0.1 -8.8 M0.15 10.1 Q-3.95 10.1 -6.85 7.2 -9.75 4.25 -9.75 0.2 -9.75 -3.9 -6.85 -6.8 -3.95 -9.7 0.15 -9.7 4.25 -9.7 7.15 -6.8 10.05 -3.9 10.05 0.2 10.05 4.25 7.15 7.2 4.2 10.1 0.15 10.1 M0.15 9.5 Q4.0 9.5 6.75 6.8 9.45 4.05 9.45 0.2 9.45 -3.65 6.75 -6.4 4.0 -9.1 0.15 -9.1 -3.7 -9.1 -6.45 -6.4 -9.15 -3.65 -9.15 0.2 -9.15 4.05 -6.45 6.8 -3.7 9.5 0.15 9.5" fill="#f5cb5b" fill-opacity="0.29803923" fill-rule="evenodd" stroke="none"/>
    <path d="M0.1 -8.8 Q-3.6 -8.8 -6.2 -6.15 -8.85 -3.55 -8.85 0.15 -8.85 3.85 -6.2 6.5 -3.6 9.1 0.1 9.1 3.8 9.1 6.4 6.5 9.05 3.85 9.05 0.15 9.05 -3.55 6.4 -6.15 3.85 -8.8 0.1 -8.8 M0.15 9.5 Q-3.7 9.5 -6.45 6.8 -9.15 4.05 -9.15 0.2 -9.15 -3.65 -6.45 -6.4 -3.7 -9.1 0.15 -9.1 4.0 -9.1 6.75 -6.4 9.45 -3.65 9.45 0.2 9.45 4.05 6.75 6.8 4.0 9.5 0.15 9.5" fill="#ffffcb" fill-rule="evenodd" stroke="none"/>
    <path d="M-4.5 4.45 L-1.8 2.0 -0.35 3.55 -2.75 6.1 Q-3.15 6.75 -4.0 6.55 -4.75 6.45 -4.95 5.65 -5.05 4.8 -4.5 4.45 M-3.7 6.2 Q-3.45 6.2 -3.2 6.0 L-3.0 5.5 -3.2 4.8 -3.7 4.6 -4.35 4.8 -4.55 5.45 -4.4 6.0 -3.7 6.2 M4.8 4.6 L5.15 5.3 4.95 6.0 4.15 6.55 Q3.65 6.75 3.3 6.3 L-3.0 -0.55 -1.95 -1.6 -0.65 -0.4 3.7 3.6 4.8 4.6 M-4.1 -0.85 L-4.6 -0.65 -5.2 -0.05 -5.5 0.4 -6.15 1.1 Q-6.4 1.35 -6.6 1.1 L-8.1 -0.4 -8.1 -0.9 -7.3 -1.65 -6.95 -1.75 Q-6.45 -1.9 -6.3 -2.4 L-6.2 -3.1 -6.05 -3.35 -4.85 -4.6 -4.55 -4.7 Q-4.25 -4.6 -3.9 -4.9 -2.4 -5.8 -1.2 -5.7 -0.05 -5.6 0.6 -4.65 L0.8 -4.45 0.7 -4.2 0.35 -4.05 -0.35 -4.2 -1.9 -4.05 -2.4 -3.05 -2.4 -2.65 -2.55 -2.15 -3.65 -1.0 -4.1 -0.85 M7.25 -3.95 Q7.45 -3.0 7.25 -2.1 7.05 -1.15 6.5 -0.7 6.05 -0.35 5.0 -0.15 L4.05 -0.15 Q3.3 -0.2 2.75 0.35 L2.05 1.05 0.5 -0.35 1.4 -1.15 Q1.95 -1.65 1.8 -2.55 1.7 -3.5 2.15 -4.5 2.6 -5.45 3.95 -5.6 L4.85 -5.6 5.6 -5.6 3.8 -3.9 Q3.5 -3.5 3.5 -3.1 3.5 -2.75 3.8 -2.45 L4.3 -2.0 5.35 -2.1 7.25 -3.95" fill="#ffffcb" fill-rule="evenodd" stroke="none"/>
  </g>
</svg>
