<svg height="19.8" width="19.8" xmlns="http://www.w3.org/2000/svg"><g fill-rule="evenodd"><path d="M9.85.9q3.75 0 6.3 2.65 2.65 2.6 2.65 6.3 0 3.7-2.65 6.35-2.6 2.6-6.3 2.6-3.7 0-6.3-2.6Q.9 13.55.9 9.85q0-3.7 2.65-6.3Q6.15.9 9.85.9m.05 18.9q-4.1 0-7-2.9Q0 13.95 0 9.9q0-4.1 2.9-7Q5.8 0 9.9 0t7 2.9q2.9 2.9 2.9 7 0 4.05-2.9 7-2.95 2.9-7 2.9m0-.6q3.85 0 6.6-2.7 2.7-2.75 2.7-6.6 0-3.85-2.7-6.6Q13.75.6 9.9.6 6.05.6 3.3 3.3.6 6.05.6 9.9q0 3.85 2.7 6.6 2.75 2.7 6.6 2.7" fill="#f5cb5b" fill-opacity=".298"/><path d="M9.85.9q-3.7 0-6.3 2.65Q.9 6.15.9 9.85q0 3.7 2.65 6.35 2.6 2.6 6.3 2.6 3.7 0 6.3-2.6 2.65-2.65 2.65-6.35 0-3.7-2.65-6.3Q13.6.9 9.85.9m.05 18.3q-3.85 0-6.6-2.7Q.6 13.75.6 9.9q0-3.85 2.7-6.6Q6.05.6 9.9.6q3.85 0 6.6 2.7 2.7 2.75 2.7 6.6 0 3.85-2.7 6.6-2.75 2.7-6.6 2.7" fill="#ffffcb"/><path d="M5.25 14.15l2.7-2.45 1.45 1.55L7 15.8q-.4.65-1.25.45-.75-.1-.95-.9-.1-.85.45-1.2m.8 1.75q.25 0 .5-.2l.2-.5-.2-.7-.5-.2-.65.2-.2.65.15.55.7.2m8.5-1.6l.35.7-.2.7-.8.55q-.5.2-.85-.25l-6.3-6.85L7.8 8.1l1.3 1.2 4.35 4 1.1 1m-8.9-5.45l-.5.2-.6.6-.3.45-.65.7q-.25.25-.45 0l-1.5-1.5v-.5l.8-.75.35-.1q.5-.15.65-.65l.1-.7.15-.25L4.9 5.1l.3-.1q.3.1.65-.2 1.5-.9 2.7-.8 1.15.1 1.8 1.05l.2.2-.1.25-.35.15-.7-.15-1.55.15-.5 1v.4l-.15.5L6.1 8.7l-.45.15M17 5.75q.2.95 0 1.85-.2.95-.75 1.4-.45.35-1.5.55h-.95q-.75-.05-1.3.5l-.7.7-1.55-1.4.9-.8q.55-.5.4-1.4-.1-.95.35-1.95.45-.95 1.8-1.1h1.65l-1.8 1.7q-.3.4-.3.8 0 .35.3.65l.5.45 1.05-.1L17 5.75" fill="#ffffcb"/></g></svg>